G04 #@! TF.GenerationSoftware,KiCad,Pcbnew,(5.1.12)-1*
G04 #@! TF.CreationDate,2022-03-03T10:00:03+01:00*
G04 #@! TF.ProjectId,10V-DLTZ,3130562d-444c-4545-9a2e-6b696361645f,rev?*
G04 #@! TF.SameCoordinates,Original*
G04 #@! TF.FileFunction,Copper,L1,Top*
G04 #@! TF.FilePolarity,Positive*
%FSLAX46Y46*%
G04 Gerber Fmt 4.6, Leading zero omitted, Abs format (unit mm)*
G04 Created by KiCad (PCBNEW (5.1.12)-1) date 2022-03-03 10:00:03*
%MOMM*%
%LPD*%
G01*
G04 APERTURE LIST*
G04 #@! TA.AperFunction,NonConductor*
%ADD10C,1.600000*%
G04 #@! TD*
G04 #@! TA.AperFunction,NonConductor*
%ADD11C,0.250000*%
G04 #@! TD*
G04 #@! TA.AperFunction,NonConductor*
%ADD12C,0.127000*%
G04 #@! TD*
G04 #@! TA.AperFunction,NonConductor*
%ADD13C,2.000000*%
G04 #@! TD*
G04 #@! TA.AperFunction,NonConductor*
%ADD14C,1.000000*%
G04 #@! TD*
G04 #@! TA.AperFunction,NonConductor*
%ADD15C,3.000000*%
G04 #@! TD*
G04 #@! TA.AperFunction,SMDPad,CuDef*
%ADD16O,0.600000X2.200000*%
G04 #@! TD*
G04 #@! TA.AperFunction,ComponentPad*
%ADD17C,1.350000*%
G04 #@! TD*
G04 #@! TA.AperFunction,SMDPad,CuDef*
%ADD18O,2.200000X0.600000*%
G04 #@! TD*
G04 #@! TA.AperFunction,ComponentPad*
%ADD19O,1.600000X7.100000*%
G04 #@! TD*
G04 #@! TA.AperFunction,ComponentPad*
%ADD20C,1.600000*%
G04 #@! TD*
G04 #@! TA.AperFunction,ComponentPad*
%ADD21C,1.524000*%
G04 #@! TD*
G04 #@! TA.AperFunction,ViaPad*
%ADD22C,0.800000*%
G04 #@! TD*
G04 #@! TA.AperFunction,Conductor*
%ADD23C,0.508000*%
G04 #@! TD*
G04 #@! TA.AperFunction,Conductor*
%ADD24C,0.250000*%
G04 #@! TD*
G04 #@! TA.AperFunction,Conductor*
%ADD25C,1.600000*%
G04 #@! TD*
G04 #@! TA.AperFunction,Conductor*
%ADD26C,0.254000*%
G04 #@! TD*
G04 #@! TA.AperFunction,Conductor*
%ADD27C,0.100000*%
G04 #@! TD*
G04 APERTURE END LIST*
D10*
X106426000Y-177292000D02*
X77216000Y-177292000D01*
D11*
X108331249Y-150799800D02*
G75*
G03*
X108331249Y-150799800I-11658849J0D01*
G01*
D10*
X73279000Y-128651000D02*
G75*
G02*
X77216000Y-124714000I3937000J0D01*
G01*
X106299000Y-124714000D02*
G75*
G02*
X110236000Y-128651000I0J-3937000D01*
G01*
X77216000Y-177292000D02*
G75*
G02*
X73279000Y-173355000I0J3937000D01*
G01*
D12*
X108331000Y-150876000D02*
X109601000Y-150876000D01*
D10*
X110236000Y-173355000D02*
G75*
G02*
X106299000Y-177292000I-3937000J0D01*
G01*
D13*
X105465240Y-150799800D02*
G75*
G03*
X105465240Y-150799800I-8792840J0D01*
G01*
D14*
X107340430Y-150799800D02*
G75*
G03*
X107340430Y-150799800I-10668030J0D01*
G01*
D15*
X102565255Y-150799800D02*
G75*
G03*
X102565255Y-150799800I-5892855J0D01*
G01*
G04 #@! TA.AperFunction,SMDPad,CuDef*
G36*
G01*
X80818000Y-164217000D02*
X80818000Y-166117000D01*
G75*
G02*
X80668000Y-166267000I-150000J0D01*
G01*
X80368000Y-166267000D01*
G75*
G02*
X80218000Y-166117000I0J150000D01*
G01*
X80218000Y-164217000D01*
G75*
G02*
X80368000Y-164067000I150000J0D01*
G01*
X80668000Y-164067000D01*
G75*
G02*
X80818000Y-164217000I0J-150000D01*
G01*
G37*
G04 #@! TD.AperFunction*
G04 #@! TA.AperFunction,SMDPad,CuDef*
G36*
G01*
X75738000Y-169417000D02*
X75738000Y-171317000D01*
G75*
G02*
X75588000Y-171467000I-150000J0D01*
G01*
X75288000Y-171467000D01*
G75*
G02*
X75138000Y-171317000I0J150000D01*
G01*
X75138000Y-169417000D01*
G75*
G02*
X75288000Y-169267000I150000J0D01*
G01*
X75588000Y-169267000D01*
G75*
G02*
X75738000Y-169417000I0J-150000D01*
G01*
G37*
G04 #@! TD.AperFunction*
G04 #@! TA.AperFunction,SMDPad,CuDef*
G36*
G01*
X82088000Y-169417000D02*
X82088000Y-171317000D01*
G75*
G02*
X81938000Y-171467000I-150000J0D01*
G01*
X81638000Y-171467000D01*
G75*
G02*
X81488000Y-171317000I0J150000D01*
G01*
X81488000Y-169417000D01*
G75*
G02*
X81638000Y-169267000I150000J0D01*
G01*
X81938000Y-169267000D01*
G75*
G02*
X82088000Y-169417000I0J-150000D01*
G01*
G37*
G04 #@! TD.AperFunction*
D16*
X84328000Y-165167000D03*
G04 #@! TA.AperFunction,SMDPad,CuDef*
G36*
G01*
X84628000Y-169417000D02*
X84628000Y-171317000D01*
G75*
G02*
X84478000Y-171467000I-150000J0D01*
G01*
X84178000Y-171467000D01*
G75*
G02*
X84028000Y-171317000I0J150000D01*
G01*
X84028000Y-169417000D01*
G75*
G02*
X84178000Y-169267000I150000J0D01*
G01*
X84478000Y-169267000D01*
G75*
G02*
X84628000Y-169417000I0J-150000D01*
G01*
G37*
G04 #@! TD.AperFunction*
G04 #@! TA.AperFunction,SMDPad,CuDef*
G36*
G01*
X83358000Y-169417000D02*
X83358000Y-171317000D01*
G75*
G02*
X83208000Y-171467000I-150000J0D01*
G01*
X82908000Y-171467000D01*
G75*
G02*
X82758000Y-171317000I0J150000D01*
G01*
X82758000Y-169417000D01*
G75*
G02*
X82908000Y-169267000I150000J0D01*
G01*
X83208000Y-169267000D01*
G75*
G02*
X83358000Y-169417000I0J-150000D01*
G01*
G37*
G04 #@! TD.AperFunction*
G04 #@! TA.AperFunction,SMDPad,CuDef*
G36*
G01*
X77008000Y-169417000D02*
X77008000Y-171317000D01*
G75*
G02*
X76858000Y-171467000I-150000J0D01*
G01*
X76558000Y-171467000D01*
G75*
G02*
X76408000Y-171317000I0J150000D01*
G01*
X76408000Y-169417000D01*
G75*
G02*
X76558000Y-169267000I150000J0D01*
G01*
X76858000Y-169267000D01*
G75*
G02*
X77008000Y-169417000I0J-150000D01*
G01*
G37*
G04 #@! TD.AperFunction*
G04 #@! TA.AperFunction,SMDPad,CuDef*
G36*
G01*
X78278000Y-169417000D02*
X78278000Y-171317000D01*
G75*
G02*
X78128000Y-171467000I-150000J0D01*
G01*
X77828000Y-171467000D01*
G75*
G02*
X77678000Y-171317000I0J150000D01*
G01*
X77678000Y-169417000D01*
G75*
G02*
X77828000Y-169267000I150000J0D01*
G01*
X78128000Y-169267000D01*
G75*
G02*
X78278000Y-169417000I0J-150000D01*
G01*
G37*
G04 #@! TD.AperFunction*
G04 #@! TA.AperFunction,SMDPad,CuDef*
G36*
G01*
X79548000Y-164217000D02*
X79548000Y-166117000D01*
G75*
G02*
X79398000Y-166267000I-150000J0D01*
G01*
X79098000Y-166267000D01*
G75*
G02*
X78948000Y-166117000I0J150000D01*
G01*
X78948000Y-164217000D01*
G75*
G02*
X79098000Y-164067000I150000J0D01*
G01*
X79398000Y-164067000D01*
G75*
G02*
X79548000Y-164217000I0J-150000D01*
G01*
G37*
G04 #@! TD.AperFunction*
G04 #@! TA.AperFunction,SMDPad,CuDef*
G36*
G01*
X75738000Y-164217000D02*
X75738000Y-166117000D01*
G75*
G02*
X75588000Y-166267000I-150000J0D01*
G01*
X75288000Y-166267000D01*
G75*
G02*
X75138000Y-166117000I0J150000D01*
G01*
X75138000Y-164217000D01*
G75*
G02*
X75288000Y-164067000I150000J0D01*
G01*
X75588000Y-164067000D01*
G75*
G02*
X75738000Y-164217000I0J-150000D01*
G01*
G37*
G04 #@! TD.AperFunction*
G04 #@! TA.AperFunction,SMDPad,CuDef*
G36*
G01*
X78278000Y-164217000D02*
X78278000Y-166117000D01*
G75*
G02*
X78128000Y-166267000I-150000J0D01*
G01*
X77828000Y-166267000D01*
G75*
G02*
X77678000Y-166117000I0J150000D01*
G01*
X77678000Y-164217000D01*
G75*
G02*
X77828000Y-164067000I150000J0D01*
G01*
X78128000Y-164067000D01*
G75*
G02*
X78278000Y-164217000I0J-150000D01*
G01*
G37*
G04 #@! TD.AperFunction*
G04 #@! TA.AperFunction,SMDPad,CuDef*
G36*
G01*
X77008000Y-164217000D02*
X77008000Y-166117000D01*
G75*
G02*
X76858000Y-166267000I-150000J0D01*
G01*
X76558000Y-166267000D01*
G75*
G02*
X76408000Y-166117000I0J150000D01*
G01*
X76408000Y-164217000D01*
G75*
G02*
X76558000Y-164067000I150000J0D01*
G01*
X76858000Y-164067000D01*
G75*
G02*
X77008000Y-164217000I0J-150000D01*
G01*
G37*
G04 #@! TD.AperFunction*
G04 #@! TA.AperFunction,SMDPad,CuDef*
G36*
G01*
X79548000Y-169417000D02*
X79548000Y-171317000D01*
G75*
G02*
X79398000Y-171467000I-150000J0D01*
G01*
X79098000Y-171467000D01*
G75*
G02*
X78948000Y-171317000I0J150000D01*
G01*
X78948000Y-169417000D01*
G75*
G02*
X79098000Y-169267000I150000J0D01*
G01*
X79398000Y-169267000D01*
G75*
G02*
X79548000Y-169417000I0J-150000D01*
G01*
G37*
G04 #@! TD.AperFunction*
G04 #@! TA.AperFunction,SMDPad,CuDef*
G36*
G01*
X83358000Y-164217000D02*
X83358000Y-166117000D01*
G75*
G02*
X83208000Y-166267000I-150000J0D01*
G01*
X82908000Y-166267000D01*
G75*
G02*
X82758000Y-166117000I0J150000D01*
G01*
X82758000Y-164217000D01*
G75*
G02*
X82908000Y-164067000I150000J0D01*
G01*
X83208000Y-164067000D01*
G75*
G02*
X83358000Y-164217000I0J-150000D01*
G01*
G37*
G04 #@! TD.AperFunction*
G04 #@! TA.AperFunction,SMDPad,CuDef*
G36*
G01*
X80818000Y-169417000D02*
X80818000Y-171317000D01*
G75*
G02*
X80668000Y-171467000I-150000J0D01*
G01*
X80368000Y-171467000D01*
G75*
G02*
X80218000Y-171317000I0J150000D01*
G01*
X80218000Y-169417000D01*
G75*
G02*
X80368000Y-169267000I150000J0D01*
G01*
X80668000Y-169267000D01*
G75*
G02*
X80818000Y-169417000I0J-150000D01*
G01*
G37*
G04 #@! TD.AperFunction*
G04 #@! TA.AperFunction,SMDPad,CuDef*
G36*
G01*
X82088000Y-164217000D02*
X82088000Y-166117000D01*
G75*
G02*
X81938000Y-166267000I-150000J0D01*
G01*
X81638000Y-166267000D01*
G75*
G02*
X81488000Y-166117000I0J150000D01*
G01*
X81488000Y-164217000D01*
G75*
G02*
X81638000Y-164067000I150000J0D01*
G01*
X81938000Y-164067000D01*
G75*
G02*
X82088000Y-164217000I0J-150000D01*
G01*
G37*
G04 #@! TD.AperFunction*
G04 #@! TA.AperFunction,SMDPad,CuDef*
G36*
G01*
X78726000Y-174746000D02*
X78726000Y-173996000D01*
G75*
G02*
X79101000Y-173621000I375000J0D01*
G01*
X80101000Y-173621000D01*
G75*
G02*
X80476000Y-173996000I0J-375000D01*
G01*
X80476000Y-174746000D01*
G75*
G02*
X80101000Y-175121000I-375000J0D01*
G01*
X79101000Y-175121000D01*
G75*
G02*
X78726000Y-174746000I0J375000D01*
G01*
G37*
G04 #@! TD.AperFunction*
G04 #@! TA.AperFunction,SMDPad,CuDef*
G36*
G01*
X75226000Y-174746000D02*
X75226000Y-173996000D01*
G75*
G02*
X75601000Y-173621000I375000J0D01*
G01*
X76601000Y-173621000D01*
G75*
G02*
X76976000Y-173996000I0J-375000D01*
G01*
X76976000Y-174746000D01*
G75*
G02*
X76601000Y-175121000I-375000J0D01*
G01*
X75601000Y-175121000D01*
G75*
G02*
X75226000Y-174746000I0J375000D01*
G01*
G37*
G04 #@! TD.AperFunction*
G04 #@! TA.AperFunction,SMDPad,CuDef*
G36*
G01*
X76146000Y-172943000D02*
X76146000Y-172243000D01*
G75*
G02*
X76296000Y-172093000I150000J0D01*
G01*
X76596000Y-172093000D01*
G75*
G02*
X76746000Y-172243000I0J-150000D01*
G01*
X76746000Y-172943000D01*
G75*
G02*
X76596000Y-173093000I-150000J0D01*
G01*
X76296000Y-173093000D01*
G75*
G02*
X76146000Y-172943000I0J150000D01*
G01*
G37*
G04 #@! TD.AperFunction*
G04 #@! TA.AperFunction,SMDPad,CuDef*
G36*
G01*
X75146000Y-172943000D02*
X75146000Y-172243000D01*
G75*
G02*
X75296000Y-172093000I150000J0D01*
G01*
X75596000Y-172093000D01*
G75*
G02*
X75746000Y-172243000I0J-150000D01*
G01*
X75746000Y-172943000D01*
G75*
G02*
X75596000Y-173093000I-150000J0D01*
G01*
X75296000Y-173093000D01*
G75*
G02*
X75146000Y-172943000I0J150000D01*
G01*
G37*
G04 #@! TD.AperFunction*
G04 #@! TA.AperFunction,SMDPad,CuDef*
G36*
G01*
X75892000Y-163418000D02*
X75892000Y-162718000D01*
G75*
G02*
X76042000Y-162568000I150000J0D01*
G01*
X76342000Y-162568000D01*
G75*
G02*
X76492000Y-162718000I0J-150000D01*
G01*
X76492000Y-163418000D01*
G75*
G02*
X76342000Y-163568000I-150000J0D01*
G01*
X76042000Y-163568000D01*
G75*
G02*
X75892000Y-163418000I0J150000D01*
G01*
G37*
G04 #@! TD.AperFunction*
G04 #@! TA.AperFunction,SMDPad,CuDef*
G36*
G01*
X74892000Y-163418000D02*
X74892000Y-162718000D01*
G75*
G02*
X75042000Y-162568000I150000J0D01*
G01*
X75342000Y-162568000D01*
G75*
G02*
X75492000Y-162718000I0J-150000D01*
G01*
X75492000Y-163418000D01*
G75*
G02*
X75342000Y-163568000I-150000J0D01*
G01*
X75042000Y-163568000D01*
G75*
G02*
X74892000Y-163418000I0J150000D01*
G01*
G37*
G04 #@! TD.AperFunction*
D17*
X94132400Y-150799800D03*
X99212400Y-150799800D03*
X96672400Y-148259800D03*
X96672400Y-153339800D03*
X98468400Y-152595800D03*
X94876400Y-152595800D03*
X94876400Y-149003800D03*
X98468400Y-149003800D03*
G04 #@! TA.AperFunction,SMDPad,CuDef*
G36*
G01*
X84834000Y-139547000D02*
X84834000Y-141377000D01*
G75*
G02*
X84454000Y-141757000I-380000J0D01*
G01*
X83694000Y-141757000D01*
G75*
G02*
X83314000Y-141377000I0J380000D01*
G01*
X83314000Y-139547000D01*
G75*
G02*
X83694000Y-139167000I380000J0D01*
G01*
X84454000Y-139167000D01*
G75*
G02*
X84834000Y-139547000I0J-380000D01*
G01*
G37*
G04 #@! TD.AperFunction*
G04 #@! TA.AperFunction,SMDPad,CuDef*
G36*
G01*
X87882000Y-139547000D02*
X87882000Y-141377000D01*
G75*
G02*
X87502000Y-141757000I-380000J0D01*
G01*
X86742000Y-141757000D01*
G75*
G02*
X86362000Y-141377000I0J380000D01*
G01*
X86362000Y-139547000D01*
G75*
G02*
X86742000Y-139167000I380000J0D01*
G01*
X87502000Y-139167000D01*
G75*
G02*
X87882000Y-139547000I0J-380000D01*
G01*
G37*
G04 #@! TD.AperFunction*
G04 #@! TA.AperFunction,SMDPad,CuDef*
G36*
G01*
X99594000Y-134618000D02*
X97764000Y-134618000D01*
G75*
G02*
X97384000Y-134238000I0J380000D01*
G01*
X97384000Y-133478000D01*
G75*
G02*
X97764000Y-133098000I380000J0D01*
G01*
X99594000Y-133098000D01*
G75*
G02*
X99974000Y-133478000I0J-380000D01*
G01*
X99974000Y-134238000D01*
G75*
G02*
X99594000Y-134618000I-380000J0D01*
G01*
G37*
G04 #@! TD.AperFunction*
G04 #@! TA.AperFunction,SMDPad,CuDef*
G36*
G01*
X99594000Y-137666000D02*
X97764000Y-137666000D01*
G75*
G02*
X97384000Y-137286000I0J380000D01*
G01*
X97384000Y-136526000D01*
G75*
G02*
X97764000Y-136146000I380000J0D01*
G01*
X99594000Y-136146000D01*
G75*
G02*
X99974000Y-136526000I0J-380000D01*
G01*
X99974000Y-137286000D01*
G75*
G02*
X99594000Y-137666000I-380000J0D01*
G01*
G37*
G04 #@! TD.AperFunction*
G04 #@! TA.AperFunction,SMDPad,CuDef*
G36*
G01*
X94487000Y-133812000D02*
X96387000Y-133812000D01*
G75*
G02*
X96537000Y-133962000I0J-150000D01*
G01*
X96537000Y-134262000D01*
G75*
G02*
X96387000Y-134412000I-150000J0D01*
G01*
X94487000Y-134412000D01*
G75*
G02*
X94337000Y-134262000I0J150000D01*
G01*
X94337000Y-133962000D01*
G75*
G02*
X94487000Y-133812000I150000J0D01*
G01*
G37*
G04 #@! TD.AperFunction*
D18*
X90237000Y-134112000D03*
G04 #@! TA.AperFunction,SMDPad,CuDef*
G36*
G01*
X94487000Y-135082000D02*
X96387000Y-135082000D01*
G75*
G02*
X96537000Y-135232000I0J-150000D01*
G01*
X96537000Y-135532000D01*
G75*
G02*
X96387000Y-135682000I-150000J0D01*
G01*
X94487000Y-135682000D01*
G75*
G02*
X94337000Y-135532000I0J150000D01*
G01*
X94337000Y-135232000D01*
G75*
G02*
X94487000Y-135082000I150000J0D01*
G01*
G37*
G04 #@! TD.AperFunction*
G04 #@! TA.AperFunction,SMDPad,CuDef*
G36*
G01*
X89287000Y-135082000D02*
X91187000Y-135082000D01*
G75*
G02*
X91337000Y-135232000I0J-150000D01*
G01*
X91337000Y-135532000D01*
G75*
G02*
X91187000Y-135682000I-150000J0D01*
G01*
X89287000Y-135682000D01*
G75*
G02*
X89137000Y-135532000I0J150000D01*
G01*
X89137000Y-135232000D01*
G75*
G02*
X89287000Y-135082000I150000J0D01*
G01*
G37*
G04 #@! TD.AperFunction*
G04 #@! TA.AperFunction,SMDPad,CuDef*
G36*
G01*
X94487000Y-136352000D02*
X96387000Y-136352000D01*
G75*
G02*
X96537000Y-136502000I0J-150000D01*
G01*
X96537000Y-136802000D01*
G75*
G02*
X96387000Y-136952000I-150000J0D01*
G01*
X94487000Y-136952000D01*
G75*
G02*
X94337000Y-136802000I0J150000D01*
G01*
X94337000Y-136502000D01*
G75*
G02*
X94487000Y-136352000I150000J0D01*
G01*
G37*
G04 #@! TD.AperFunction*
G04 #@! TA.AperFunction,SMDPad,CuDef*
G36*
G01*
X89287000Y-136352000D02*
X91187000Y-136352000D01*
G75*
G02*
X91337000Y-136502000I0J-150000D01*
G01*
X91337000Y-136802000D01*
G75*
G02*
X91187000Y-136952000I-150000J0D01*
G01*
X89287000Y-136952000D01*
G75*
G02*
X89137000Y-136802000I0J150000D01*
G01*
X89137000Y-136502000D01*
G75*
G02*
X89287000Y-136352000I150000J0D01*
G01*
G37*
G04 #@! TD.AperFunction*
G04 #@! TA.AperFunction,SMDPad,CuDef*
G36*
G01*
X94487000Y-137622000D02*
X96387000Y-137622000D01*
G75*
G02*
X96537000Y-137772000I0J-150000D01*
G01*
X96537000Y-138072000D01*
G75*
G02*
X96387000Y-138222000I-150000J0D01*
G01*
X94487000Y-138222000D01*
G75*
G02*
X94337000Y-138072000I0J150000D01*
G01*
X94337000Y-137772000D01*
G75*
G02*
X94487000Y-137622000I150000J0D01*
G01*
G37*
G04 #@! TD.AperFunction*
G04 #@! TA.AperFunction,SMDPad,CuDef*
G36*
G01*
X89287000Y-137622000D02*
X91187000Y-137622000D01*
G75*
G02*
X91337000Y-137772000I0J-150000D01*
G01*
X91337000Y-138072000D01*
G75*
G02*
X91187000Y-138222000I-150000J0D01*
G01*
X89287000Y-138222000D01*
G75*
G02*
X89137000Y-138072000I0J150000D01*
G01*
X89137000Y-137772000D01*
G75*
G02*
X89287000Y-137622000I150000J0D01*
G01*
G37*
G04 #@! TD.AperFunction*
G04 #@! TA.AperFunction,SMDPad,CuDef*
G36*
G01*
X82213800Y-156433800D02*
X80313800Y-156433800D01*
G75*
G02*
X80163800Y-156283800I0J150000D01*
G01*
X80163800Y-155983800D01*
G75*
G02*
X80313800Y-155833800I150000J0D01*
G01*
X82213800Y-155833800D01*
G75*
G02*
X82363800Y-155983800I0J-150000D01*
G01*
X82363800Y-156283800D01*
G75*
G02*
X82213800Y-156433800I-150000J0D01*
G01*
G37*
G04 #@! TD.AperFunction*
G04 #@! TA.AperFunction,SMDPad,CuDef*
G36*
G01*
X77013800Y-156433800D02*
X75113800Y-156433800D01*
G75*
G02*
X74963800Y-156283800I0J150000D01*
G01*
X74963800Y-155983800D01*
G75*
G02*
X75113800Y-155833800I150000J0D01*
G01*
X77013800Y-155833800D01*
G75*
G02*
X77163800Y-155983800I0J-150000D01*
G01*
X77163800Y-156283800D01*
G75*
G02*
X77013800Y-156433800I-150000J0D01*
G01*
G37*
G04 #@! TD.AperFunction*
G04 #@! TA.AperFunction,SMDPad,CuDef*
G36*
G01*
X82213800Y-157703800D02*
X80313800Y-157703800D01*
G75*
G02*
X80163800Y-157553800I0J150000D01*
G01*
X80163800Y-157253800D01*
G75*
G02*
X80313800Y-157103800I150000J0D01*
G01*
X82213800Y-157103800D01*
G75*
G02*
X82363800Y-157253800I0J-150000D01*
G01*
X82363800Y-157553800D01*
G75*
G02*
X82213800Y-157703800I-150000J0D01*
G01*
G37*
G04 #@! TD.AperFunction*
G04 #@! TA.AperFunction,SMDPad,CuDef*
G36*
G01*
X77013800Y-157703800D02*
X75113800Y-157703800D01*
G75*
G02*
X74963800Y-157553800I0J150000D01*
G01*
X74963800Y-157253800D01*
G75*
G02*
X75113800Y-157103800I150000J0D01*
G01*
X77013800Y-157103800D01*
G75*
G02*
X77163800Y-157253800I0J-150000D01*
G01*
X77163800Y-157553800D01*
G75*
G02*
X77013800Y-157703800I-150000J0D01*
G01*
G37*
G04 #@! TD.AperFunction*
G04 #@! TA.AperFunction,SMDPad,CuDef*
G36*
G01*
X82213800Y-158973800D02*
X80313800Y-158973800D01*
G75*
G02*
X80163800Y-158823800I0J150000D01*
G01*
X80163800Y-158523800D01*
G75*
G02*
X80313800Y-158373800I150000J0D01*
G01*
X82213800Y-158373800D01*
G75*
G02*
X82363800Y-158523800I0J-150000D01*
G01*
X82363800Y-158823800D01*
G75*
G02*
X82213800Y-158973800I-150000J0D01*
G01*
G37*
G04 #@! TD.AperFunction*
G04 #@! TA.AperFunction,SMDPad,CuDef*
G36*
G01*
X77013800Y-158973800D02*
X75113800Y-158973800D01*
G75*
G02*
X74963800Y-158823800I0J150000D01*
G01*
X74963800Y-158523800D01*
G75*
G02*
X75113800Y-158373800I150000J0D01*
G01*
X77013800Y-158373800D01*
G75*
G02*
X77163800Y-158523800I0J-150000D01*
G01*
X77163800Y-158823800D01*
G75*
G02*
X77013800Y-158973800I-150000J0D01*
G01*
G37*
G04 #@! TD.AperFunction*
X81263800Y-159943800D03*
G04 #@! TA.AperFunction,SMDPad,CuDef*
G36*
G01*
X77013800Y-160243800D02*
X75113800Y-160243800D01*
G75*
G02*
X74963800Y-160093800I0J150000D01*
G01*
X74963800Y-159793800D01*
G75*
G02*
X75113800Y-159643800I150000J0D01*
G01*
X77013800Y-159643800D01*
G75*
G02*
X77163800Y-159793800I0J-150000D01*
G01*
X77163800Y-160093800D01*
G75*
G02*
X77013800Y-160243800I-150000J0D01*
G01*
G37*
G04 #@! TD.AperFunction*
D19*
X107315000Y-169711000D03*
D20*
X107315000Y-164211000D03*
G04 #@! TA.AperFunction,SMDPad,CuDef*
G36*
G01*
X96296499Y-169497999D02*
X96296499Y-171397999D01*
G75*
G02*
X96146499Y-171547999I-150000J0D01*
G01*
X95846499Y-171547999D01*
G75*
G02*
X95696499Y-171397999I0J150000D01*
G01*
X95696499Y-169497999D01*
G75*
G02*
X95846499Y-169347999I150000J0D01*
G01*
X96146499Y-169347999D01*
G75*
G02*
X96296499Y-169497999I0J-150000D01*
G01*
G37*
G04 #@! TD.AperFunction*
D16*
X95996499Y-165247999D03*
G04 #@! TA.AperFunction,SMDPad,CuDef*
G36*
G01*
X95026499Y-169497999D02*
X95026499Y-171397999D01*
G75*
G02*
X94876499Y-171547999I-150000J0D01*
G01*
X94576499Y-171547999D01*
G75*
G02*
X94426499Y-171397999I0J150000D01*
G01*
X94426499Y-169497999D01*
G75*
G02*
X94576499Y-169347999I150000J0D01*
G01*
X94876499Y-169347999D01*
G75*
G02*
X95026499Y-169497999I0J-150000D01*
G01*
G37*
G04 #@! TD.AperFunction*
G04 #@! TA.AperFunction,SMDPad,CuDef*
G36*
G01*
X95026499Y-164297999D02*
X95026499Y-166197999D01*
G75*
G02*
X94876499Y-166347999I-150000J0D01*
G01*
X94576499Y-166347999D01*
G75*
G02*
X94426499Y-166197999I0J150000D01*
G01*
X94426499Y-164297999D01*
G75*
G02*
X94576499Y-164147999I150000J0D01*
G01*
X94876499Y-164147999D01*
G75*
G02*
X95026499Y-164297999I0J-150000D01*
G01*
G37*
G04 #@! TD.AperFunction*
G04 #@! TA.AperFunction,SMDPad,CuDef*
G36*
G01*
X93756499Y-169497999D02*
X93756499Y-171397999D01*
G75*
G02*
X93606499Y-171547999I-150000J0D01*
G01*
X93306499Y-171547999D01*
G75*
G02*
X93156499Y-171397999I0J150000D01*
G01*
X93156499Y-169497999D01*
G75*
G02*
X93306499Y-169347999I150000J0D01*
G01*
X93606499Y-169347999D01*
G75*
G02*
X93756499Y-169497999I0J-150000D01*
G01*
G37*
G04 #@! TD.AperFunction*
G04 #@! TA.AperFunction,SMDPad,CuDef*
G36*
G01*
X93756499Y-164297999D02*
X93756499Y-166197999D01*
G75*
G02*
X93606499Y-166347999I-150000J0D01*
G01*
X93306499Y-166347999D01*
G75*
G02*
X93156499Y-166197999I0J150000D01*
G01*
X93156499Y-164297999D01*
G75*
G02*
X93306499Y-164147999I150000J0D01*
G01*
X93606499Y-164147999D01*
G75*
G02*
X93756499Y-164297999I0J-150000D01*
G01*
G37*
G04 #@! TD.AperFunction*
G04 #@! TA.AperFunction,SMDPad,CuDef*
G36*
G01*
X92486499Y-169497999D02*
X92486499Y-171397999D01*
G75*
G02*
X92336499Y-171547999I-150000J0D01*
G01*
X92036499Y-171547999D01*
G75*
G02*
X91886499Y-171397999I0J150000D01*
G01*
X91886499Y-169497999D01*
G75*
G02*
X92036499Y-169347999I150000J0D01*
G01*
X92336499Y-169347999D01*
G75*
G02*
X92486499Y-169497999I0J-150000D01*
G01*
G37*
G04 #@! TD.AperFunction*
G04 #@! TA.AperFunction,SMDPad,CuDef*
G36*
G01*
X92486499Y-164297999D02*
X92486499Y-166197999D01*
G75*
G02*
X92336499Y-166347999I-150000J0D01*
G01*
X92036499Y-166347999D01*
G75*
G02*
X91886499Y-166197999I0J150000D01*
G01*
X91886499Y-164297999D01*
G75*
G02*
X92036499Y-164147999I150000J0D01*
G01*
X92336499Y-164147999D01*
G75*
G02*
X92486499Y-164297999I0J-150000D01*
G01*
G37*
G04 #@! TD.AperFunction*
G04 #@! TA.AperFunction,SMDPad,CuDef*
G36*
G01*
X75088400Y-136961600D02*
X76988400Y-136961600D01*
G75*
G02*
X77138400Y-137111600I0J-150000D01*
G01*
X77138400Y-137411600D01*
G75*
G02*
X76988400Y-137561600I-150000J0D01*
G01*
X75088400Y-137561600D01*
G75*
G02*
X74938400Y-137411600I0J150000D01*
G01*
X74938400Y-137111600D01*
G75*
G02*
X75088400Y-136961600I150000J0D01*
G01*
G37*
G04 #@! TD.AperFunction*
G04 #@! TA.AperFunction,SMDPad,CuDef*
G36*
G01*
X80288400Y-138231600D02*
X82188400Y-138231600D01*
G75*
G02*
X82338400Y-138381600I0J-150000D01*
G01*
X82338400Y-138681600D01*
G75*
G02*
X82188400Y-138831600I-150000J0D01*
G01*
X80288400Y-138831600D01*
G75*
G02*
X80138400Y-138681600I0J150000D01*
G01*
X80138400Y-138381600D01*
G75*
G02*
X80288400Y-138231600I150000J0D01*
G01*
G37*
G04 #@! TD.AperFunction*
G04 #@! TA.AperFunction,SMDPad,CuDef*
G36*
G01*
X75088400Y-135691600D02*
X76988400Y-135691600D01*
G75*
G02*
X77138400Y-135841600I0J-150000D01*
G01*
X77138400Y-136141600D01*
G75*
G02*
X76988400Y-136291600I-150000J0D01*
G01*
X75088400Y-136291600D01*
G75*
G02*
X74938400Y-136141600I0J150000D01*
G01*
X74938400Y-135841600D01*
G75*
G02*
X75088400Y-135691600I150000J0D01*
G01*
G37*
G04 #@! TD.AperFunction*
G04 #@! TA.AperFunction,SMDPad,CuDef*
G36*
G01*
X80288400Y-139501600D02*
X82188400Y-139501600D01*
G75*
G02*
X82338400Y-139651600I0J-150000D01*
G01*
X82338400Y-139951600D01*
G75*
G02*
X82188400Y-140101600I-150000J0D01*
G01*
X80288400Y-140101600D01*
G75*
G02*
X80138400Y-139951600I0J150000D01*
G01*
X80138400Y-139651600D01*
G75*
G02*
X80288400Y-139501600I150000J0D01*
G01*
G37*
G04 #@! TD.AperFunction*
G04 #@! TA.AperFunction,SMDPad,CuDef*
G36*
G01*
X75088400Y-142041600D02*
X76988400Y-142041600D01*
G75*
G02*
X77138400Y-142191600I0J-150000D01*
G01*
X77138400Y-142491600D01*
G75*
G02*
X76988400Y-142641600I-150000J0D01*
G01*
X75088400Y-142641600D01*
G75*
G02*
X74938400Y-142491600I0J150000D01*
G01*
X74938400Y-142191600D01*
G75*
G02*
X75088400Y-142041600I150000J0D01*
G01*
G37*
G04 #@! TD.AperFunction*
G04 #@! TA.AperFunction,SMDPad,CuDef*
G36*
G01*
X75088400Y-140771600D02*
X76988400Y-140771600D01*
G75*
G02*
X77138400Y-140921600I0J-150000D01*
G01*
X77138400Y-141221600D01*
G75*
G02*
X76988400Y-141371600I-150000J0D01*
G01*
X75088400Y-141371600D01*
G75*
G02*
X74938400Y-141221600I0J150000D01*
G01*
X74938400Y-140921600D01*
G75*
G02*
X75088400Y-140771600I150000J0D01*
G01*
G37*
G04 #@! TD.AperFunction*
G04 #@! TA.AperFunction,SMDPad,CuDef*
G36*
G01*
X75088400Y-143311600D02*
X76988400Y-143311600D01*
G75*
G02*
X77138400Y-143461600I0J-150000D01*
G01*
X77138400Y-143761600D01*
G75*
G02*
X76988400Y-143911600I-150000J0D01*
G01*
X75088400Y-143911600D01*
G75*
G02*
X74938400Y-143761600I0J150000D01*
G01*
X74938400Y-143461600D01*
G75*
G02*
X75088400Y-143311600I150000J0D01*
G01*
G37*
G04 #@! TD.AperFunction*
G04 #@! TA.AperFunction,SMDPad,CuDef*
G36*
G01*
X75088400Y-139501600D02*
X76988400Y-139501600D01*
G75*
G02*
X77138400Y-139651600I0J-150000D01*
G01*
X77138400Y-139951600D01*
G75*
G02*
X76988400Y-140101600I-150000J0D01*
G01*
X75088400Y-140101600D01*
G75*
G02*
X74938400Y-139951600I0J150000D01*
G01*
X74938400Y-139651600D01*
G75*
G02*
X75088400Y-139501600I150000J0D01*
G01*
G37*
G04 #@! TD.AperFunction*
G04 #@! TA.AperFunction,SMDPad,CuDef*
G36*
G01*
X80288400Y-140771600D02*
X82188400Y-140771600D01*
G75*
G02*
X82338400Y-140921600I0J-150000D01*
G01*
X82338400Y-141221600D01*
G75*
G02*
X82188400Y-141371600I-150000J0D01*
G01*
X80288400Y-141371600D01*
G75*
G02*
X80138400Y-141221600I0J150000D01*
G01*
X80138400Y-140921600D01*
G75*
G02*
X80288400Y-140771600I150000J0D01*
G01*
G37*
G04 #@! TD.AperFunction*
G04 #@! TA.AperFunction,SMDPad,CuDef*
G36*
G01*
X80288400Y-142041600D02*
X82188400Y-142041600D01*
G75*
G02*
X82338400Y-142191600I0J-150000D01*
G01*
X82338400Y-142491600D01*
G75*
G02*
X82188400Y-142641600I-150000J0D01*
G01*
X80288400Y-142641600D01*
G75*
G02*
X80138400Y-142491600I0J150000D01*
G01*
X80138400Y-142191600D01*
G75*
G02*
X80288400Y-142041600I150000J0D01*
G01*
G37*
G04 #@! TD.AperFunction*
G04 #@! TA.AperFunction,SMDPad,CuDef*
G36*
G01*
X80288400Y-135691600D02*
X82188400Y-135691600D01*
G75*
G02*
X82338400Y-135841600I0J-150000D01*
G01*
X82338400Y-136141600D01*
G75*
G02*
X82188400Y-136291600I-150000J0D01*
G01*
X80288400Y-136291600D01*
G75*
G02*
X80138400Y-136141600I0J150000D01*
G01*
X80138400Y-135841600D01*
G75*
G02*
X80288400Y-135691600I150000J0D01*
G01*
G37*
G04 #@! TD.AperFunction*
G04 #@! TA.AperFunction,SMDPad,CuDef*
G36*
G01*
X80288400Y-134421600D02*
X82188400Y-134421600D01*
G75*
G02*
X82338400Y-134571600I0J-150000D01*
G01*
X82338400Y-134871600D01*
G75*
G02*
X82188400Y-135021600I-150000J0D01*
G01*
X80288400Y-135021600D01*
G75*
G02*
X80138400Y-134871600I0J150000D01*
G01*
X80138400Y-134571600D01*
G75*
G02*
X80288400Y-134421600I150000J0D01*
G01*
G37*
G04 #@! TD.AperFunction*
D18*
X76038400Y-134721600D03*
G04 #@! TA.AperFunction,SMDPad,CuDef*
G36*
G01*
X80288400Y-136961600D02*
X82188400Y-136961600D01*
G75*
G02*
X82338400Y-137111600I0J-150000D01*
G01*
X82338400Y-137411600D01*
G75*
G02*
X82188400Y-137561600I-150000J0D01*
G01*
X80288400Y-137561600D01*
G75*
G02*
X80138400Y-137411600I0J150000D01*
G01*
X80138400Y-137111600D01*
G75*
G02*
X80288400Y-136961600I150000J0D01*
G01*
G37*
G04 #@! TD.AperFunction*
G04 #@! TA.AperFunction,SMDPad,CuDef*
G36*
G01*
X80288400Y-143311600D02*
X82188400Y-143311600D01*
G75*
G02*
X82338400Y-143461600I0J-150000D01*
G01*
X82338400Y-143761600D01*
G75*
G02*
X82188400Y-143911600I-150000J0D01*
G01*
X80288400Y-143911600D01*
G75*
G02*
X80138400Y-143761600I0J150000D01*
G01*
X80138400Y-143461600D01*
G75*
G02*
X80288400Y-143311600I150000J0D01*
G01*
G37*
G04 #@! TD.AperFunction*
G04 #@! TA.AperFunction,SMDPad,CuDef*
G36*
G01*
X75088400Y-138231600D02*
X76988400Y-138231600D01*
G75*
G02*
X77138400Y-138381600I0J-150000D01*
G01*
X77138400Y-138681600D01*
G75*
G02*
X76988400Y-138831600I-150000J0D01*
G01*
X75088400Y-138831600D01*
G75*
G02*
X74938400Y-138681600I0J150000D01*
G01*
X74938400Y-138381600D01*
G75*
G02*
X75088400Y-138231600I150000J0D01*
G01*
G37*
G04 #@! TD.AperFunction*
G04 #@! TA.AperFunction,SMDPad,CuDef*
G36*
G01*
X90406500Y-169480500D02*
X90406500Y-171380500D01*
G75*
G02*
X90256500Y-171530500I-150000J0D01*
G01*
X89956500Y-171530500D01*
G75*
G02*
X89806500Y-171380500I0J150000D01*
G01*
X89806500Y-169480500D01*
G75*
G02*
X89956500Y-169330500I150000J0D01*
G01*
X90256500Y-169330500D01*
G75*
G02*
X90406500Y-169480500I0J-150000D01*
G01*
G37*
G04 #@! TD.AperFunction*
D16*
X90106500Y-165230500D03*
G04 #@! TA.AperFunction,SMDPad,CuDef*
G36*
G01*
X89136500Y-169480500D02*
X89136500Y-171380500D01*
G75*
G02*
X88986500Y-171530500I-150000J0D01*
G01*
X88686500Y-171530500D01*
G75*
G02*
X88536500Y-171380500I0J150000D01*
G01*
X88536500Y-169480500D01*
G75*
G02*
X88686500Y-169330500I150000J0D01*
G01*
X88986500Y-169330500D01*
G75*
G02*
X89136500Y-169480500I0J-150000D01*
G01*
G37*
G04 #@! TD.AperFunction*
G04 #@! TA.AperFunction,SMDPad,CuDef*
G36*
G01*
X89136500Y-164280500D02*
X89136500Y-166180500D01*
G75*
G02*
X88986500Y-166330500I-150000J0D01*
G01*
X88686500Y-166330500D01*
G75*
G02*
X88536500Y-166180500I0J150000D01*
G01*
X88536500Y-164280500D01*
G75*
G02*
X88686500Y-164130500I150000J0D01*
G01*
X88986500Y-164130500D01*
G75*
G02*
X89136500Y-164280500I0J-150000D01*
G01*
G37*
G04 #@! TD.AperFunction*
G04 #@! TA.AperFunction,SMDPad,CuDef*
G36*
G01*
X87866500Y-169480500D02*
X87866500Y-171380500D01*
G75*
G02*
X87716500Y-171530500I-150000J0D01*
G01*
X87416500Y-171530500D01*
G75*
G02*
X87266500Y-171380500I0J150000D01*
G01*
X87266500Y-169480500D01*
G75*
G02*
X87416500Y-169330500I150000J0D01*
G01*
X87716500Y-169330500D01*
G75*
G02*
X87866500Y-169480500I0J-150000D01*
G01*
G37*
G04 #@! TD.AperFunction*
G04 #@! TA.AperFunction,SMDPad,CuDef*
G36*
G01*
X87866500Y-164280500D02*
X87866500Y-166180500D01*
G75*
G02*
X87716500Y-166330500I-150000J0D01*
G01*
X87416500Y-166330500D01*
G75*
G02*
X87266500Y-166180500I0J150000D01*
G01*
X87266500Y-164280500D01*
G75*
G02*
X87416500Y-164130500I150000J0D01*
G01*
X87716500Y-164130500D01*
G75*
G02*
X87866500Y-164280500I0J-150000D01*
G01*
G37*
G04 #@! TD.AperFunction*
G04 #@! TA.AperFunction,SMDPad,CuDef*
G36*
G01*
X86596500Y-169480500D02*
X86596500Y-171380500D01*
G75*
G02*
X86446500Y-171530500I-150000J0D01*
G01*
X86146500Y-171530500D01*
G75*
G02*
X85996500Y-171380500I0J150000D01*
G01*
X85996500Y-169480500D01*
G75*
G02*
X86146500Y-169330500I150000J0D01*
G01*
X86446500Y-169330500D01*
G75*
G02*
X86596500Y-169480500I0J-150000D01*
G01*
G37*
G04 #@! TD.AperFunction*
G04 #@! TA.AperFunction,SMDPad,CuDef*
G36*
G01*
X86596500Y-164280500D02*
X86596500Y-166180500D01*
G75*
G02*
X86446500Y-166330500I-150000J0D01*
G01*
X86146500Y-166330500D01*
G75*
G02*
X85996500Y-166180500I0J150000D01*
G01*
X85996500Y-164280500D01*
G75*
G02*
X86146500Y-164130500I150000J0D01*
G01*
X86446500Y-164130500D01*
G75*
G02*
X86596500Y-164280500I0J-150000D01*
G01*
G37*
G04 #@! TD.AperFunction*
G04 #@! TA.AperFunction,SMDPad,CuDef*
G36*
G01*
X82213800Y-145511800D02*
X80313800Y-145511800D01*
G75*
G02*
X80163800Y-145361800I0J150000D01*
G01*
X80163800Y-145061800D01*
G75*
G02*
X80313800Y-144911800I150000J0D01*
G01*
X82213800Y-144911800D01*
G75*
G02*
X82363800Y-145061800I0J-150000D01*
G01*
X82363800Y-145361800D01*
G75*
G02*
X82213800Y-145511800I-150000J0D01*
G01*
G37*
G04 #@! TD.AperFunction*
G04 #@! TA.AperFunction,SMDPad,CuDef*
G36*
G01*
X77013800Y-145511800D02*
X75113800Y-145511800D01*
G75*
G02*
X74963800Y-145361800I0J150000D01*
G01*
X74963800Y-145061800D01*
G75*
G02*
X75113800Y-144911800I150000J0D01*
G01*
X77013800Y-144911800D01*
G75*
G02*
X77163800Y-145061800I0J-150000D01*
G01*
X77163800Y-145361800D01*
G75*
G02*
X77013800Y-145511800I-150000J0D01*
G01*
G37*
G04 #@! TD.AperFunction*
G04 #@! TA.AperFunction,SMDPad,CuDef*
G36*
G01*
X82213800Y-146781800D02*
X80313800Y-146781800D01*
G75*
G02*
X80163800Y-146631800I0J150000D01*
G01*
X80163800Y-146331800D01*
G75*
G02*
X80313800Y-146181800I150000J0D01*
G01*
X82213800Y-146181800D01*
G75*
G02*
X82363800Y-146331800I0J-150000D01*
G01*
X82363800Y-146631800D01*
G75*
G02*
X82213800Y-146781800I-150000J0D01*
G01*
G37*
G04 #@! TD.AperFunction*
G04 #@! TA.AperFunction,SMDPad,CuDef*
G36*
G01*
X77013800Y-146781800D02*
X75113800Y-146781800D01*
G75*
G02*
X74963800Y-146631800I0J150000D01*
G01*
X74963800Y-146331800D01*
G75*
G02*
X75113800Y-146181800I150000J0D01*
G01*
X77013800Y-146181800D01*
G75*
G02*
X77163800Y-146331800I0J-150000D01*
G01*
X77163800Y-146631800D01*
G75*
G02*
X77013800Y-146781800I-150000J0D01*
G01*
G37*
G04 #@! TD.AperFunction*
G04 #@! TA.AperFunction,SMDPad,CuDef*
G36*
G01*
X82213800Y-148051800D02*
X80313800Y-148051800D01*
G75*
G02*
X80163800Y-147901800I0J150000D01*
G01*
X80163800Y-147601800D01*
G75*
G02*
X80313800Y-147451800I150000J0D01*
G01*
X82213800Y-147451800D01*
G75*
G02*
X82363800Y-147601800I0J-150000D01*
G01*
X82363800Y-147901800D01*
G75*
G02*
X82213800Y-148051800I-150000J0D01*
G01*
G37*
G04 #@! TD.AperFunction*
G04 #@! TA.AperFunction,SMDPad,CuDef*
G36*
G01*
X77013800Y-148051800D02*
X75113800Y-148051800D01*
G75*
G02*
X74963800Y-147901800I0J150000D01*
G01*
X74963800Y-147601800D01*
G75*
G02*
X75113800Y-147451800I150000J0D01*
G01*
X77013800Y-147451800D01*
G75*
G02*
X77163800Y-147601800I0J-150000D01*
G01*
X77163800Y-147901800D01*
G75*
G02*
X77013800Y-148051800I-150000J0D01*
G01*
G37*
G04 #@! TD.AperFunction*
G04 #@! TA.AperFunction,SMDPad,CuDef*
G36*
G01*
X82213800Y-149321800D02*
X80313800Y-149321800D01*
G75*
G02*
X80163800Y-149171800I0J150000D01*
G01*
X80163800Y-148871800D01*
G75*
G02*
X80313800Y-148721800I150000J0D01*
G01*
X82213800Y-148721800D01*
G75*
G02*
X82363800Y-148871800I0J-150000D01*
G01*
X82363800Y-149171800D01*
G75*
G02*
X82213800Y-149321800I-150000J0D01*
G01*
G37*
G04 #@! TD.AperFunction*
G04 #@! TA.AperFunction,SMDPad,CuDef*
G36*
G01*
X77013800Y-149321800D02*
X75113800Y-149321800D01*
G75*
G02*
X74963800Y-149171800I0J150000D01*
G01*
X74963800Y-148871800D01*
G75*
G02*
X75113800Y-148721800I150000J0D01*
G01*
X77013800Y-148721800D01*
G75*
G02*
X77163800Y-148871800I0J-150000D01*
G01*
X77163800Y-149171800D01*
G75*
G02*
X77013800Y-149321800I-150000J0D01*
G01*
G37*
G04 #@! TD.AperFunction*
G04 #@! TA.AperFunction,SMDPad,CuDef*
G36*
G01*
X82213800Y-150591800D02*
X80313800Y-150591800D01*
G75*
G02*
X80163800Y-150441800I0J150000D01*
G01*
X80163800Y-150141800D01*
G75*
G02*
X80313800Y-149991800I150000J0D01*
G01*
X82213800Y-149991800D01*
G75*
G02*
X82363800Y-150141800I0J-150000D01*
G01*
X82363800Y-150441800D01*
G75*
G02*
X82213800Y-150591800I-150000J0D01*
G01*
G37*
G04 #@! TD.AperFunction*
G04 #@! TA.AperFunction,SMDPad,CuDef*
G36*
G01*
X77013800Y-150591800D02*
X75113800Y-150591800D01*
G75*
G02*
X74963800Y-150441800I0J150000D01*
G01*
X74963800Y-150141800D01*
G75*
G02*
X75113800Y-149991800I150000J0D01*
G01*
X77013800Y-149991800D01*
G75*
G02*
X77163800Y-150141800I0J-150000D01*
G01*
X77163800Y-150441800D01*
G75*
G02*
X77013800Y-150591800I-150000J0D01*
G01*
G37*
G04 #@! TD.AperFunction*
G04 #@! TA.AperFunction,SMDPad,CuDef*
G36*
G01*
X82213800Y-151861800D02*
X80313800Y-151861800D01*
G75*
G02*
X80163800Y-151711800I0J150000D01*
G01*
X80163800Y-151411800D01*
G75*
G02*
X80313800Y-151261800I150000J0D01*
G01*
X82213800Y-151261800D01*
G75*
G02*
X82363800Y-151411800I0J-150000D01*
G01*
X82363800Y-151711800D01*
G75*
G02*
X82213800Y-151861800I-150000J0D01*
G01*
G37*
G04 #@! TD.AperFunction*
G04 #@! TA.AperFunction,SMDPad,CuDef*
G36*
G01*
X77013800Y-151861800D02*
X75113800Y-151861800D01*
G75*
G02*
X74963800Y-151711800I0J150000D01*
G01*
X74963800Y-151411800D01*
G75*
G02*
X75113800Y-151261800I150000J0D01*
G01*
X77013800Y-151261800D01*
G75*
G02*
X77163800Y-151411800I0J-150000D01*
G01*
X77163800Y-151711800D01*
G75*
G02*
X77013800Y-151861800I-150000J0D01*
G01*
G37*
G04 #@! TD.AperFunction*
G04 #@! TA.AperFunction,SMDPad,CuDef*
G36*
G01*
X82213800Y-153131800D02*
X80313800Y-153131800D01*
G75*
G02*
X80163800Y-152981800I0J150000D01*
G01*
X80163800Y-152681800D01*
G75*
G02*
X80313800Y-152531800I150000J0D01*
G01*
X82213800Y-152531800D01*
G75*
G02*
X82363800Y-152681800I0J-150000D01*
G01*
X82363800Y-152981800D01*
G75*
G02*
X82213800Y-153131800I-150000J0D01*
G01*
G37*
G04 #@! TD.AperFunction*
G04 #@! TA.AperFunction,SMDPad,CuDef*
G36*
G01*
X77013800Y-153131800D02*
X75113800Y-153131800D01*
G75*
G02*
X74963800Y-152981800I0J150000D01*
G01*
X74963800Y-152681800D01*
G75*
G02*
X75113800Y-152531800I150000J0D01*
G01*
X77013800Y-152531800D01*
G75*
G02*
X77163800Y-152681800I0J-150000D01*
G01*
X77163800Y-152981800D01*
G75*
G02*
X77013800Y-153131800I-150000J0D01*
G01*
G37*
G04 #@! TD.AperFunction*
D18*
X81263800Y-154101800D03*
G04 #@! TA.AperFunction,SMDPad,CuDef*
G36*
G01*
X77013800Y-154401800D02*
X75113800Y-154401800D01*
G75*
G02*
X74963800Y-154251800I0J150000D01*
G01*
X74963800Y-153951800D01*
G75*
G02*
X75113800Y-153801800I150000J0D01*
G01*
X77013800Y-153801800D01*
G75*
G02*
X77163800Y-153951800I0J-150000D01*
G01*
X77163800Y-154251800D01*
G75*
G02*
X77013800Y-154401800I-150000J0D01*
G01*
G37*
G04 #@! TD.AperFunction*
D19*
X103505000Y-169711000D03*
D20*
X103505000Y-164211000D03*
G04 #@! TA.AperFunction,SMDPad,CuDef*
G36*
G01*
X84834000Y-130276000D02*
X84834000Y-132106000D01*
G75*
G02*
X84454000Y-132486000I-380000J0D01*
G01*
X83694000Y-132486000D01*
G75*
G02*
X83314000Y-132106000I0J380000D01*
G01*
X83314000Y-130276000D01*
G75*
G02*
X83694000Y-129896000I380000J0D01*
G01*
X84454000Y-129896000D01*
G75*
G02*
X84834000Y-130276000I0J-380000D01*
G01*
G37*
G04 #@! TD.AperFunction*
G04 #@! TA.AperFunction,SMDPad,CuDef*
G36*
G01*
X87882000Y-130276000D02*
X87882000Y-132106000D01*
G75*
G02*
X87502000Y-132486000I-380000J0D01*
G01*
X86742000Y-132486000D01*
G75*
G02*
X86362000Y-132106000I0J380000D01*
G01*
X86362000Y-130276000D01*
G75*
G02*
X86742000Y-129896000I380000J0D01*
G01*
X87502000Y-129896000D01*
G75*
G02*
X87882000Y-130276000I0J-380000D01*
G01*
G37*
G04 #@! TD.AperFunction*
G04 #@! TA.AperFunction,SMDPad,CuDef*
G36*
G01*
X84580000Y-161264000D02*
X84580000Y-163094000D01*
G75*
G02*
X84200000Y-163474000I-380000J0D01*
G01*
X83440000Y-163474000D01*
G75*
G02*
X83060000Y-163094000I0J380000D01*
G01*
X83060000Y-161264000D01*
G75*
G02*
X83440000Y-160884000I380000J0D01*
G01*
X84200000Y-160884000D01*
G75*
G02*
X84580000Y-161264000I0J-380000D01*
G01*
G37*
G04 #@! TD.AperFunction*
G04 #@! TA.AperFunction,SMDPad,CuDef*
G36*
G01*
X87628000Y-161264000D02*
X87628000Y-163094000D01*
G75*
G02*
X87248000Y-163474000I-380000J0D01*
G01*
X86488000Y-163474000D01*
G75*
G02*
X86108000Y-163094000I0J380000D01*
G01*
X86108000Y-161264000D01*
G75*
G02*
X86488000Y-160884000I380000J0D01*
G01*
X87248000Y-160884000D01*
G75*
G02*
X87628000Y-161264000I0J-380000D01*
G01*
G37*
G04 #@! TD.AperFunction*
G04 #@! TA.AperFunction,SMDPad,CuDef*
G36*
G01*
X100844000Y-136130000D02*
X101594000Y-136130000D01*
G75*
G02*
X101969000Y-136505000I0J-375000D01*
G01*
X101969000Y-137505000D01*
G75*
G02*
X101594000Y-137880000I-375000J0D01*
G01*
X100844000Y-137880000D01*
G75*
G02*
X100469000Y-137505000I0J375000D01*
G01*
X100469000Y-136505000D01*
G75*
G02*
X100844000Y-136130000I375000J0D01*
G01*
G37*
G04 #@! TD.AperFunction*
G04 #@! TA.AperFunction,SMDPad,CuDef*
G36*
G01*
X100844000Y-132630000D02*
X101594000Y-132630000D01*
G75*
G02*
X101969000Y-133005000I0J-375000D01*
G01*
X101969000Y-134005000D01*
G75*
G02*
X101594000Y-134380000I-375000J0D01*
G01*
X100844000Y-134380000D01*
G75*
G02*
X100469000Y-134005000I0J375000D01*
G01*
X100469000Y-133005000D01*
G75*
G02*
X100844000Y-132630000I375000J0D01*
G01*
G37*
G04 #@! TD.AperFunction*
G04 #@! TA.AperFunction,SMDPad,CuDef*
G36*
G01*
X106960000Y-134179000D02*
X106960000Y-132929000D01*
G75*
G02*
X107335000Y-132554000I375000J0D01*
G01*
X108085000Y-132554000D01*
G75*
G02*
X108460000Y-132929000I0J-375000D01*
G01*
X108460000Y-134179000D01*
G75*
G02*
X108085000Y-134554000I-375000J0D01*
G01*
X107335000Y-134554000D01*
G75*
G02*
X106960000Y-134179000I0J375000D01*
G01*
G37*
G04 #@! TD.AperFunction*
G04 #@! TA.AperFunction,SMDPad,CuDef*
G36*
G01*
X104660000Y-134209000D02*
X104660000Y-130459000D01*
G75*
G02*
X105035000Y-130084000I375000J0D01*
G01*
X105785000Y-130084000D01*
G75*
G02*
X106160000Y-130459000I0J-375000D01*
G01*
X106160000Y-134209000D01*
G75*
G02*
X105785000Y-134584000I-375000J0D01*
G01*
X105035000Y-134584000D01*
G75*
G02*
X104660000Y-134209000I0J375000D01*
G01*
G37*
G04 #@! TD.AperFunction*
G04 #@! TA.AperFunction,SMDPad,CuDef*
G36*
G01*
X102360000Y-134179000D02*
X102360000Y-132929000D01*
G75*
G02*
X102735000Y-132554000I375000J0D01*
G01*
X103485000Y-132554000D01*
G75*
G02*
X103860000Y-132929000I0J-375000D01*
G01*
X103860000Y-134179000D01*
G75*
G02*
X103485000Y-134554000I-375000J0D01*
G01*
X102735000Y-134554000D01*
G75*
G02*
X102360000Y-134179000I0J375000D01*
G01*
G37*
G04 #@! TD.AperFunction*
G04 #@! TA.AperFunction,SMDPad,CuDef*
G36*
G01*
X102260000Y-129664000D02*
X102260000Y-128564000D01*
G75*
G02*
X104460000Y-126364000I2200000J0D01*
G01*
X106360000Y-126364000D01*
G75*
G02*
X108560000Y-128564000I0J-2200000D01*
G01*
X108560000Y-129664000D01*
G75*
G02*
X106360000Y-131864000I-2200000J0D01*
G01*
X104460000Y-131864000D01*
G75*
G02*
X102260000Y-129664000I0J2200000D01*
G01*
G37*
G04 #@! TD.AperFunction*
G04 #@! TA.AperFunction,SMDPad,CuDef*
G36*
G01*
X104183000Y-136510000D02*
X104183000Y-137810000D01*
G75*
G02*
X103833000Y-138160000I-350000J0D01*
G01*
X103133000Y-138160000D01*
G75*
G02*
X102783000Y-137810000I0J350000D01*
G01*
X102783000Y-136510000D01*
G75*
G02*
X103133000Y-136160000I350000J0D01*
G01*
X103833000Y-136160000D01*
G75*
G02*
X104183000Y-136510000I0J-350000D01*
G01*
G37*
G04 #@! TD.AperFunction*
G04 #@! TA.AperFunction,SMDPad,CuDef*
G36*
G01*
X107783000Y-136510000D02*
X107783000Y-137810000D01*
G75*
G02*
X107433000Y-138160000I-350000J0D01*
G01*
X106733000Y-138160000D01*
G75*
G02*
X106383000Y-137810000I0J350000D01*
G01*
X106383000Y-136510000D01*
G75*
G02*
X106733000Y-136160000I350000J0D01*
G01*
X107433000Y-136160000D01*
G75*
G02*
X107783000Y-136510000I0J-350000D01*
G01*
G37*
G04 #@! TD.AperFunction*
D21*
X82804000Y-126746000D03*
X85344000Y-126746000D03*
X87884000Y-126746000D03*
X90424000Y-126746000D03*
X92964000Y-126746000D03*
X95504000Y-126746000D03*
X98044000Y-126746000D03*
X100584000Y-126746000D03*
G04 #@! TA.AperFunction,SMDPad,CuDef*
G36*
G01*
X86600000Y-138297000D02*
X86600000Y-137547000D01*
G75*
G02*
X86975000Y-137172000I375000J0D01*
G01*
X87975000Y-137172000D01*
G75*
G02*
X88350000Y-137547000I0J-375000D01*
G01*
X88350000Y-138297000D01*
G75*
G02*
X87975000Y-138672000I-375000J0D01*
G01*
X86975000Y-138672000D01*
G75*
G02*
X86600000Y-138297000I0J375000D01*
G01*
G37*
G04 #@! TD.AperFunction*
G04 #@! TA.AperFunction,SMDPad,CuDef*
G36*
G01*
X83100000Y-138297000D02*
X83100000Y-137547000D01*
G75*
G02*
X83475000Y-137172000I375000J0D01*
G01*
X84475000Y-137172000D01*
G75*
G02*
X84850000Y-137547000I0J-375000D01*
G01*
X84850000Y-138297000D01*
G75*
G02*
X84475000Y-138672000I-375000J0D01*
G01*
X83475000Y-138672000D01*
G75*
G02*
X83100000Y-138297000I0J375000D01*
G01*
G37*
G04 #@! TD.AperFunction*
G04 #@! TA.AperFunction,SMDPad,CuDef*
G36*
G01*
X98272000Y-168023000D02*
X100102000Y-168023000D01*
G75*
G02*
X100482000Y-168403000I0J-380000D01*
G01*
X100482000Y-169163000D01*
G75*
G02*
X100102000Y-169543000I-380000J0D01*
G01*
X98272000Y-169543000D01*
G75*
G02*
X97892000Y-169163000I0J380000D01*
G01*
X97892000Y-168403000D01*
G75*
G02*
X98272000Y-168023000I380000J0D01*
G01*
G37*
G04 #@! TD.AperFunction*
G04 #@! TA.AperFunction,SMDPad,CuDef*
G36*
G01*
X98272000Y-164975000D02*
X100102000Y-164975000D01*
G75*
G02*
X100482000Y-165355000I0J-380000D01*
G01*
X100482000Y-166115000D01*
G75*
G02*
X100102000Y-166495000I-380000J0D01*
G01*
X98272000Y-166495000D01*
G75*
G02*
X97892000Y-166115000I0J380000D01*
G01*
X97892000Y-165355000D01*
G75*
G02*
X98272000Y-164975000I380000J0D01*
G01*
G37*
G04 #@! TD.AperFunction*
X82804000Y-175006000D03*
X85344000Y-175006000D03*
X87884000Y-175006000D03*
X90424000Y-175006000D03*
X92964000Y-175006000D03*
X95504000Y-175006000D03*
X98044000Y-175006000D03*
X100584000Y-175006000D03*
G04 #@! TA.AperFunction,SMDPad,CuDef*
G36*
G01*
X80729000Y-162956000D02*
X80729000Y-161656000D01*
G75*
G02*
X81079000Y-161306000I350000J0D01*
G01*
X81779000Y-161306000D01*
G75*
G02*
X82129000Y-161656000I0J-350000D01*
G01*
X82129000Y-162956000D01*
G75*
G02*
X81779000Y-163306000I-350000J0D01*
G01*
X81079000Y-163306000D01*
G75*
G02*
X80729000Y-162956000I0J350000D01*
G01*
G37*
G04 #@! TD.AperFunction*
G04 #@! TA.AperFunction,SMDPad,CuDef*
G36*
G01*
X77129000Y-162956000D02*
X77129000Y-161656000D01*
G75*
G02*
X77479000Y-161306000I350000J0D01*
G01*
X78179000Y-161306000D01*
G75*
G02*
X78529000Y-161656000I0J-350000D01*
G01*
X78529000Y-162956000D01*
G75*
G02*
X78179000Y-163306000I-350000J0D01*
G01*
X77479000Y-163306000D01*
G75*
G02*
X77129000Y-162956000I0J350000D01*
G01*
G37*
G04 #@! TD.AperFunction*
G04 #@! TA.AperFunction,SMDPad,CuDef*
G36*
G01*
X80901000Y-132233000D02*
X80901000Y-130403000D01*
G75*
G02*
X81281000Y-130023000I380000J0D01*
G01*
X82041000Y-130023000D01*
G75*
G02*
X82421000Y-130403000I0J-380000D01*
G01*
X82421000Y-132233000D01*
G75*
G02*
X82041000Y-132613000I-380000J0D01*
G01*
X81281000Y-132613000D01*
G75*
G02*
X80901000Y-132233000I0J380000D01*
G01*
G37*
G04 #@! TD.AperFunction*
G04 #@! TA.AperFunction,SMDPad,CuDef*
G36*
G01*
X77853000Y-132233000D02*
X77853000Y-130403000D01*
G75*
G02*
X78233000Y-130023000I380000J0D01*
G01*
X78993000Y-130023000D01*
G75*
G02*
X79373000Y-130403000I0J-380000D01*
G01*
X79373000Y-132233000D01*
G75*
G02*
X78993000Y-132613000I-380000J0D01*
G01*
X78233000Y-132613000D01*
G75*
G02*
X77853000Y-132233000I0J380000D01*
G01*
G37*
G04 #@! TD.AperFunction*
G04 #@! TA.AperFunction,SMDPad,CuDef*
G36*
G01*
X84850000Y-135007000D02*
X84850000Y-135757000D01*
G75*
G02*
X84475000Y-136132000I-375000J0D01*
G01*
X83475000Y-136132000D01*
G75*
G02*
X83100000Y-135757000I0J375000D01*
G01*
X83100000Y-135007000D01*
G75*
G02*
X83475000Y-134632000I375000J0D01*
G01*
X84475000Y-134632000D01*
G75*
G02*
X84850000Y-135007000I0J-375000D01*
G01*
G37*
G04 #@! TD.AperFunction*
G04 #@! TA.AperFunction,SMDPad,CuDef*
G36*
G01*
X88350000Y-135007000D02*
X88350000Y-135757000D01*
G75*
G02*
X87975000Y-136132000I-375000J0D01*
G01*
X86975000Y-136132000D01*
G75*
G02*
X86600000Y-135757000I0J375000D01*
G01*
X86600000Y-135007000D01*
G75*
G02*
X86975000Y-134632000I375000J0D01*
G01*
X87975000Y-134632000D01*
G75*
G02*
X88350000Y-135007000I0J-375000D01*
G01*
G37*
G04 #@! TD.AperFunction*
G04 #@! TA.AperFunction,SMDPad,CuDef*
G36*
G01*
X92188000Y-131439000D02*
X92188000Y-130689000D01*
G75*
G02*
X92563000Y-130314000I375000J0D01*
G01*
X93563000Y-130314000D01*
G75*
G02*
X93938000Y-130689000I0J-375000D01*
G01*
X93938000Y-131439000D01*
G75*
G02*
X93563000Y-131814000I-375000J0D01*
G01*
X92563000Y-131814000D01*
G75*
G02*
X92188000Y-131439000I0J375000D01*
G01*
G37*
G04 #@! TD.AperFunction*
G04 #@! TA.AperFunction,SMDPad,CuDef*
G36*
G01*
X88688000Y-131439000D02*
X88688000Y-130689000D01*
G75*
G02*
X89063000Y-130314000I375000J0D01*
G01*
X90063000Y-130314000D01*
G75*
G02*
X90438000Y-130689000I0J-375000D01*
G01*
X90438000Y-131439000D01*
G75*
G02*
X90063000Y-131814000I-375000J0D01*
G01*
X89063000Y-131814000D01*
G75*
G02*
X88688000Y-131439000I0J375000D01*
G01*
G37*
G04 #@! TD.AperFunction*
G04 #@! TA.AperFunction,SMDPad,CuDef*
G36*
G01*
X107702000Y-142579000D02*
X108452000Y-142579000D01*
G75*
G02*
X108827000Y-142954000I0J-375000D01*
G01*
X108827000Y-143954000D01*
G75*
G02*
X108452000Y-144329000I-375000J0D01*
G01*
X107702000Y-144329000D01*
G75*
G02*
X107327000Y-143954000I0J375000D01*
G01*
X107327000Y-142954000D01*
G75*
G02*
X107702000Y-142579000I375000J0D01*
G01*
G37*
G04 #@! TD.AperFunction*
G04 #@! TA.AperFunction,SMDPad,CuDef*
G36*
G01*
X107702000Y-139079000D02*
X108452000Y-139079000D01*
G75*
G02*
X108827000Y-139454000I0J-375000D01*
G01*
X108827000Y-140454000D01*
G75*
G02*
X108452000Y-140829000I-375000J0D01*
G01*
X107702000Y-140829000D01*
G75*
G02*
X107327000Y-140454000I0J375000D01*
G01*
X107327000Y-139454000D01*
G75*
G02*
X107702000Y-139079000I375000J0D01*
G01*
G37*
G04 #@! TD.AperFunction*
D22*
X109220000Y-176022000D03*
X106426000Y-177292000D03*
X104775000Y-177292000D03*
X75819000Y-177165000D03*
X75565000Y-125095000D03*
X108966000Y-125857000D03*
X96520000Y-177292000D03*
X110236000Y-170688000D03*
X110236000Y-136906000D03*
X110236000Y-141097000D03*
X73533000Y-175006000D03*
X109982000Y-174752000D03*
X107823000Y-125095000D03*
X100838000Y-177292000D03*
X107950000Y-176911000D03*
X109855000Y-127000000D03*
X83820000Y-177292000D03*
X74295000Y-125984000D03*
X88011000Y-177292000D03*
X79756000Y-177292000D03*
X110236000Y-132715000D03*
X74549000Y-176276000D03*
X92202000Y-177292000D03*
X77597000Y-177292000D03*
X73279000Y-168910000D03*
X110236000Y-158115000D03*
X110236000Y-162306000D03*
X73279000Y-164592000D03*
X73279000Y-156083000D03*
X73279000Y-160401000D03*
X110236000Y-145161000D03*
X110236000Y-166370000D03*
X110236000Y-153797000D03*
X73279000Y-152019000D03*
X73279000Y-143383000D03*
X73279000Y-139192000D03*
X73279000Y-147701000D03*
X110236000Y-149606000D03*
X93472000Y-165227000D03*
X80899000Y-155067000D03*
X81407000Y-162433000D03*
X75184000Y-163830000D03*
X75057000Y-171831000D03*
X107696000Y-134620000D03*
X82042000Y-138557000D03*
X108077000Y-139446000D03*
X87122000Y-131191000D03*
X82169000Y-158673800D03*
X108409500Y-144066500D03*
X82042000Y-149021800D03*
X90233500Y-136652000D03*
X110236000Y-138938000D03*
X110236000Y-160274000D03*
X110236000Y-155956000D03*
X87884000Y-124714000D03*
X80137000Y-124714000D03*
X73279000Y-135001000D03*
X73279000Y-141224000D03*
X86741000Y-139573000D03*
X106426000Y-124714000D03*
X110236000Y-147447000D03*
X96012000Y-124714000D03*
X73279000Y-137033000D03*
X91821000Y-124714000D03*
X73279000Y-132969000D03*
X73279000Y-154051000D03*
X81788000Y-177292000D03*
X110236000Y-168529000D03*
X110236000Y-134747000D03*
X73279000Y-173355000D03*
X104394000Y-124714000D03*
X73279000Y-130937000D03*
X86296500Y-164465000D03*
X85979000Y-177292000D03*
X110236000Y-172974000D03*
X77597000Y-177292000D03*
X110236000Y-130556000D03*
X100330000Y-124714000D03*
X110236000Y-164338000D03*
X82169000Y-156083000D03*
X73279000Y-129159000D03*
X73279000Y-145669000D03*
X98552000Y-177292000D03*
X94361000Y-177292000D03*
X110236000Y-128498000D03*
X90043000Y-177292000D03*
X73279000Y-170942000D03*
X110236000Y-143129000D03*
X73279000Y-149987000D03*
X83947000Y-124714000D03*
X102743000Y-177292000D03*
X110236000Y-151638000D03*
X73279000Y-158242000D03*
X73279000Y-162433000D03*
X73533000Y-127254000D03*
X73279000Y-166751000D03*
X89281000Y-137922000D03*
X76962000Y-124714000D03*
X81915000Y-124714000D03*
X92202000Y-164465000D03*
X103124000Y-137541000D03*
X78613000Y-130302000D03*
X85979000Y-124714000D03*
X93853000Y-124714000D03*
X99187000Y-164084000D03*
X89789000Y-124714000D03*
X98298000Y-124714000D03*
X102489000Y-124714000D03*
X78486000Y-124714000D03*
X82042000Y-154114500D03*
X82169000Y-157429200D03*
X101854000Y-130810000D03*
X101854000Y-129286000D03*
X94742000Y-171196000D03*
X95377000Y-135382000D03*
X103505000Y-127762000D03*
X100203000Y-129286000D03*
X76733268Y-158644655D03*
X106934000Y-129286000D03*
X88836500Y-171196000D03*
X106934000Y-127762000D03*
X105283000Y-130810000D03*
X103505000Y-130810000D03*
X100203000Y-130810000D03*
X105283000Y-127762000D03*
X105283000Y-129241000D03*
X103505000Y-129286000D03*
X106934000Y-130810000D03*
X81661000Y-132588000D03*
X99187000Y-168783000D03*
X80137000Y-173990000D03*
X102489000Y-145034000D03*
X100076000Y-147421600D03*
X107083000Y-137160000D03*
X104203500Y-143256000D03*
D23*
X81238400Y-139801600D02*
X81238400Y-141071600D01*
X77914500Y-154495500D02*
X78486000Y-155067000D01*
X77914500Y-149923500D02*
X77914500Y-150177500D01*
D24*
X77800200Y-150291800D02*
X77914500Y-150177500D01*
X77546200Y-150291800D02*
X77800200Y-150291800D01*
D23*
X77774800Y-150291800D02*
X77914500Y-150431500D01*
X77914500Y-150431500D02*
X77914500Y-154495500D01*
X76063800Y-150291800D02*
X77774800Y-150291800D01*
X78486000Y-155067000D02*
X80899000Y-155067000D01*
D24*
X76063800Y-151561800D02*
X76063800Y-150291800D01*
D23*
X77914500Y-150177500D02*
X77914500Y-150431500D01*
X76063800Y-145161000D02*
X76063800Y-145211800D01*
X81407000Y-162433000D02*
X81429000Y-162433000D01*
X77520800Y-146481800D02*
X77914500Y-146875500D01*
X77163800Y-146481800D02*
X76063800Y-146481800D01*
X76063800Y-150291800D02*
X77163800Y-150291800D01*
X76063800Y-143637000D02*
X76038400Y-143611600D01*
X77914500Y-146875500D02*
X77914500Y-149923500D01*
X76063800Y-146481800D02*
X77520800Y-146481800D01*
X76063800Y-150291800D02*
X77546200Y-150291800D01*
X76063800Y-146481800D02*
X76063800Y-145211800D01*
X85344000Y-127000000D02*
X84963000Y-127381000D01*
D24*
X76038400Y-137261600D02*
X76038400Y-135991600D01*
X76038400Y-137261600D02*
X76038400Y-137261600D01*
D23*
X85344000Y-126746000D02*
X85344000Y-127000000D01*
D24*
X75192000Y-164921000D02*
X75438000Y-165167000D01*
X75192000Y-163068000D02*
X75192000Y-164921000D01*
D23*
X75438000Y-168402000D02*
X75438000Y-165167000D01*
X79248000Y-170367000D02*
X79248000Y-169267000D01*
X75442000Y-172724000D02*
X75450000Y-172732000D01*
X75438000Y-170367000D02*
X75438000Y-172585000D01*
X79248000Y-170113000D02*
X79248000Y-168783000D01*
X79248000Y-168783000D02*
X79023990Y-168558990D01*
X75438000Y-168910000D02*
X75438000Y-168402000D01*
D24*
X75446000Y-173101000D02*
X75446000Y-173462000D01*
D23*
X79023990Y-168558990D02*
X75535010Y-168558990D01*
X75438000Y-170367000D02*
X75438000Y-168910000D01*
D24*
X75446000Y-173101000D02*
X75446000Y-172593000D01*
X75446000Y-173716000D02*
X76101000Y-174371000D01*
X75446000Y-172593000D02*
X75446000Y-173716000D01*
X81238400Y-143611600D02*
X81238400Y-142341600D01*
X76063800Y-154101800D02*
X76063800Y-152831800D01*
X83058000Y-170367000D02*
X81788000Y-170367000D01*
D23*
X84264500Y-165230500D02*
X84264500Y-166243000D01*
X88836500Y-166330500D02*
X88162000Y-167005000D01*
X85026500Y-167005000D02*
X88162000Y-167005000D01*
X88836500Y-165230500D02*
X88836500Y-166330500D01*
X84264500Y-166243000D02*
X85026500Y-167005000D01*
D24*
X107710000Y-133554000D02*
X107710000Y-134606000D01*
X107710000Y-134606000D02*
X107696000Y-134620000D01*
X76038400Y-139801600D02*
X76038400Y-138531600D01*
D23*
X76038400Y-138531600D02*
X81238400Y-138531600D01*
X81238400Y-134721600D02*
X81238400Y-134721600D01*
D24*
X81238400Y-137261600D02*
X81238400Y-137261600D01*
D23*
X84074000Y-131191000D02*
X84074000Y-135318500D01*
D24*
X90237000Y-135382000D02*
X87185500Y-135382000D01*
D23*
X87122000Y-138430000D02*
X87122000Y-135255000D01*
D24*
X97784490Y-132963490D02*
X98679000Y-133858000D01*
D23*
X98679000Y-133858000D02*
X97853500Y-133032500D01*
X87122000Y-135318500D02*
X87122000Y-134747000D01*
X89436000Y-131064000D02*
X89436000Y-132433000D01*
D24*
X87185500Y-135382000D02*
X87122000Y-135318500D01*
D23*
X87122000Y-134747000D02*
X88836500Y-133032500D01*
X97853500Y-133032500D02*
X88836500Y-133032500D01*
X90237000Y-135382000D02*
X87475000Y-135382000D01*
X89436000Y-132433000D02*
X88836500Y-133032500D01*
X95437000Y-136652000D02*
X98044000Y-136652000D01*
X98679000Y-136906000D02*
X101092000Y-136906000D01*
D24*
X108409500Y-144066500D02*
X108077000Y-143734000D01*
D23*
X79870300Y-149021800D02*
X79502000Y-148653500D01*
X83515200Y-145211800D02*
X84074000Y-144653000D01*
X81263800Y-145211800D02*
X79832200Y-145211800D01*
X81263800Y-145211800D02*
X83515200Y-145211800D01*
X79502000Y-148653500D02*
X79502000Y-145542000D01*
X81263800Y-149021800D02*
X79870300Y-149021800D01*
X79832200Y-145211800D02*
X79502000Y-145542000D01*
X81263800Y-145211800D02*
X82363800Y-145211800D01*
X84074000Y-144653000D02*
X84074000Y-140462000D01*
D25*
X77597000Y-177292000D02*
X106000000Y-177292000D01*
X110236000Y-128700000D02*
X110236000Y-173355000D01*
D23*
X89281000Y-125349000D02*
X87884000Y-126746000D01*
X86487000Y-125349000D02*
X87884000Y-126746000D01*
D25*
X77216000Y-124714000D02*
X106000000Y-124714000D01*
D23*
X96720001Y-125529999D02*
X95504000Y-126746000D01*
X99187000Y-165735000D02*
X99187000Y-164084000D01*
X95504000Y-126746000D02*
X94107000Y-125349000D01*
X86296500Y-164528500D02*
X86296500Y-162242500D01*
X86296500Y-165230500D02*
X86296500Y-164528500D01*
X84020001Y-125529999D02*
X82804000Y-126746000D01*
X99187000Y-125349000D02*
X100584000Y-126746000D01*
X86296500Y-163258500D02*
X86360000Y-163195000D01*
X78613000Y-130302000D02*
X78613000Y-131318000D01*
X87884000Y-126746000D02*
X86667999Y-125529999D01*
D25*
X73279000Y-173328000D02*
X73279000Y-128778000D01*
D23*
X100584000Y-126746000D02*
X99367999Y-125529999D01*
X95504000Y-126746000D02*
X96901000Y-125349000D01*
X82804000Y-126746000D02*
X84201000Y-125349000D01*
D24*
X81263800Y-157420000D02*
X81254600Y-157429200D01*
X81263800Y-157403800D02*
X82363800Y-157403800D01*
D23*
X83312000Y-158369000D02*
X83320500Y-158360500D01*
X81263800Y-157403800D02*
X82854800Y-157403800D01*
X82389200Y-157429200D02*
X81254600Y-157429200D01*
X81263800Y-150291800D02*
X79832200Y-150291800D01*
X81263800Y-154101800D02*
X79870300Y-154101800D01*
X79832200Y-150291800D02*
X79502000Y-150622000D01*
X83312000Y-163195000D02*
X83312000Y-158369000D01*
X82854800Y-157403800D02*
X83312000Y-157861000D01*
D24*
X81263800Y-157403800D02*
X81263800Y-157420000D01*
D23*
X83312000Y-157861000D02*
X83312000Y-158369000D01*
X79870300Y-154101800D02*
X79502000Y-153733500D01*
X79502000Y-153733500D02*
X79502000Y-150622000D01*
D24*
X105283000Y-130810000D02*
X105283000Y-132461000D01*
X105283000Y-129241000D02*
X105283000Y-129241000D01*
X105283000Y-129241000D02*
X105283000Y-130810000D01*
D23*
X87566500Y-170430500D02*
X87566500Y-169330500D01*
X87566500Y-170430500D02*
X87566500Y-173672500D01*
X84264500Y-170430500D02*
X84264500Y-169330500D01*
X85002500Y-168592500D02*
X86828500Y-168592500D01*
X84264500Y-169330500D02*
X85002500Y-168592500D01*
X87566500Y-175069500D02*
X87757000Y-175260000D01*
X87693500Y-175196500D02*
X87757000Y-175260000D01*
X87566500Y-169330500D02*
X86828500Y-168592500D01*
X87566500Y-174688500D02*
X87884000Y-175006000D01*
X87566500Y-174180500D02*
X87566500Y-174688500D01*
X87566500Y-170430500D02*
X87566500Y-174180500D01*
X87566500Y-174180500D02*
X87566500Y-174561500D01*
X94726499Y-167274501D02*
X94726499Y-165247999D01*
X93456499Y-170447999D02*
X93456499Y-168544501D01*
X93456499Y-172989501D02*
X93456499Y-170447999D01*
D24*
X94027500Y-163449000D02*
X94726499Y-164147999D01*
D23*
X93456499Y-174640501D02*
X92837000Y-175260000D01*
D24*
X94726499Y-164147999D02*
X94726499Y-165247999D01*
D23*
X93456499Y-168544501D02*
X94726499Y-167274501D01*
D24*
X87566500Y-165230500D02*
X87566500Y-164130500D01*
X88248000Y-163449000D02*
X94027500Y-163449000D01*
X87566500Y-164130500D02*
X88248000Y-163449000D01*
D23*
X93456499Y-174513501D02*
X92964000Y-175006000D01*
X93456499Y-170447999D02*
X93456499Y-174513501D01*
X97663000Y-131064000D02*
X98044000Y-130683000D01*
X98044000Y-130683000D02*
X98044000Y-126746000D01*
X92964000Y-131064000D02*
X97663000Y-131064000D01*
X78232000Y-162306000D02*
X78232000Y-157942000D01*
X76063800Y-157403800D02*
X77393800Y-157403800D01*
X76063800Y-157403800D02*
X77796800Y-157403800D01*
X77163800Y-157403800D02*
X76063800Y-157403800D01*
X78232000Y-157839000D02*
X78232000Y-157942000D01*
X77796800Y-157403800D02*
X78232000Y-157839000D01*
X102905000Y-133759000D02*
X102983000Y-133681000D01*
D24*
X102489000Y-134175000D02*
X102983000Y-133681000D01*
D23*
X101473000Y-133759000D02*
X102905000Y-133759000D01*
D24*
X77922500Y-170438500D02*
X77914500Y-170430500D01*
X77978000Y-170367000D02*
X76708000Y-170367000D01*
X76446000Y-172093000D02*
X76708000Y-171831000D01*
X76446000Y-172593000D02*
X76446000Y-172093000D01*
X76708000Y-170367000D02*
X76708000Y-171831000D01*
X76644500Y-165294000D02*
X76644500Y-164438268D01*
X76708000Y-163584000D02*
X76192000Y-163068000D01*
X76708000Y-165167000D02*
X76708000Y-163584000D01*
X77906500Y-165222500D02*
X77914500Y-165230500D01*
X79184500Y-164194000D02*
X79184500Y-165294000D01*
D26*
X88138000Y-135426606D02*
X88138000Y-137344484D01*
X88053074Y-137549513D01*
X88013642Y-137747752D01*
X87712394Y-138049000D01*
X87166606Y-138049000D01*
X86741000Y-137623394D01*
X86741000Y-135426606D01*
X87166606Y-135001000D01*
X87712394Y-135001000D01*
X88138000Y-135426606D01*
G04 #@! TA.AperFunction,Conductor*
D27*
G36*
X88138000Y-135426606D02*
G01*
X88138000Y-137344484D01*
X88053074Y-137549513D01*
X88013642Y-137747752D01*
X87712394Y-138049000D01*
X87166606Y-138049000D01*
X86741000Y-137623394D01*
X86741000Y-135426606D01*
X87166606Y-135001000D01*
X87712394Y-135001000D01*
X88138000Y-135426606D01*
G37*
G04 #@! TD.AperFunction*
D26*
X81165000Y-126907427D02*
X81227986Y-127224079D01*
X81351537Y-127522357D01*
X81530906Y-127790801D01*
X81759199Y-128019094D01*
X82027643Y-128198463D01*
X82325921Y-128322014D01*
X82642573Y-128385000D01*
X82965427Y-128385000D01*
X83282079Y-128322014D01*
X83580357Y-128198463D01*
X83848801Y-128019094D01*
X84077094Y-127790801D01*
X84256463Y-127522357D01*
X84380014Y-127224079D01*
X84443000Y-126907427D01*
X84443000Y-126873000D01*
X84918394Y-126873000D01*
X85344000Y-127298606D01*
X85344000Y-128098394D01*
X84918394Y-128524000D01*
X77589000Y-128524000D01*
X77564224Y-128526440D01*
X77540399Y-128533667D01*
X77518443Y-128545403D01*
X77499197Y-128561197D01*
X76999197Y-129061197D01*
X76983403Y-129080443D01*
X76971667Y-129102399D01*
X76964440Y-129126224D01*
X76962000Y-129151000D01*
X76962000Y-136734394D01*
X76536394Y-137160000D01*
X75609606Y-137160000D01*
X75184000Y-136734394D01*
X75184000Y-127698736D01*
X75340295Y-127404787D01*
X75618078Y-127064192D01*
X75849190Y-126873000D01*
X81165000Y-126873000D01*
X81165000Y-126907427D01*
G04 #@! TA.AperFunction,Conductor*
D27*
G36*
X81165000Y-126907427D02*
G01*
X81227986Y-127224079D01*
X81351537Y-127522357D01*
X81530906Y-127790801D01*
X81759199Y-128019094D01*
X82027643Y-128198463D01*
X82325921Y-128322014D01*
X82642573Y-128385000D01*
X82965427Y-128385000D01*
X83282079Y-128322014D01*
X83580357Y-128198463D01*
X83848801Y-128019094D01*
X84077094Y-127790801D01*
X84256463Y-127522357D01*
X84380014Y-127224079D01*
X84443000Y-126907427D01*
X84443000Y-126873000D01*
X84918394Y-126873000D01*
X85344000Y-127298606D01*
X85344000Y-128098394D01*
X84918394Y-128524000D01*
X77589000Y-128524000D01*
X77564224Y-128526440D01*
X77540399Y-128533667D01*
X77518443Y-128545403D01*
X77499197Y-128561197D01*
X76999197Y-129061197D01*
X76983403Y-129080443D01*
X76971667Y-129102399D01*
X76964440Y-129126224D01*
X76962000Y-129151000D01*
X76962000Y-136734394D01*
X76536394Y-137160000D01*
X75609606Y-137160000D01*
X75184000Y-136734394D01*
X75184000Y-127698736D01*
X75340295Y-127404787D01*
X75618078Y-127064192D01*
X75849190Y-126873000D01*
X81165000Y-126873000D01*
X81165000Y-126907427D01*
G37*
G04 #@! TD.AperFunction*
D26*
X76962000Y-138855606D02*
X76962000Y-139274394D01*
X76536394Y-139700000D01*
X75609606Y-139700000D01*
X75184000Y-139274394D01*
X75184000Y-138855606D01*
X75596763Y-138442843D01*
X76549237Y-138442843D01*
X76962000Y-138855606D01*
G04 #@! TA.AperFunction,Conductor*
D27*
G36*
X76962000Y-138855606D02*
G01*
X76962000Y-139274394D01*
X76536394Y-139700000D01*
X75609606Y-139700000D01*
X75184000Y-139274394D01*
X75184000Y-138855606D01*
X75596763Y-138442843D01*
X76549237Y-138442843D01*
X76962000Y-138855606D01*
G37*
G04 #@! TD.AperFunction*
D26*
X76962000Y-141268606D02*
X76962000Y-142068394D01*
X76600037Y-142430357D01*
X75545963Y-142430357D01*
X75184000Y-142068394D01*
X75184000Y-141268606D01*
X75469763Y-140982843D01*
X76676237Y-140982843D01*
X76962000Y-141268606D01*
G04 #@! TA.AperFunction,Conductor*
D27*
G36*
X76962000Y-141268606D02*
G01*
X76962000Y-142068394D01*
X76600037Y-142430357D01*
X75545963Y-142430357D01*
X75184000Y-142068394D01*
X75184000Y-141268606D01*
X75469763Y-140982843D01*
X76676237Y-140982843D01*
X76962000Y-141268606D01*
G37*
G04 #@! TD.AperFunction*
D26*
X82169000Y-140252606D02*
X82169000Y-140671394D01*
X81743394Y-141097000D01*
X80816606Y-141097000D01*
X80391000Y-140671394D01*
X80391000Y-140252606D01*
X80816606Y-139827000D01*
X81743394Y-139827000D01*
X82169000Y-140252606D01*
G04 #@! TA.AperFunction,Conductor*
D27*
G36*
X82169000Y-140252606D02*
G01*
X82169000Y-140671394D01*
X81743394Y-141097000D01*
X80816606Y-141097000D01*
X80391000Y-140671394D01*
X80391000Y-140252606D01*
X80816606Y-139827000D01*
X81743394Y-139827000D01*
X82169000Y-140252606D01*
G37*
G04 #@! TD.AperFunction*
D26*
X106369816Y-126405985D02*
X106736408Y-126441930D01*
X107157154Y-126568961D01*
X107545213Y-126775295D01*
X107885808Y-127053078D01*
X108165955Y-127391718D01*
X108374997Y-127778333D01*
X108504963Y-128198182D01*
X108559000Y-128712313D01*
X108559000Y-131203718D01*
X108160014Y-131600018D01*
X99867200Y-131543985D01*
X99441000Y-131114896D01*
X99441000Y-129203606D01*
X99866606Y-128778000D01*
X101608000Y-128778000D01*
X101632776Y-128775560D01*
X101656601Y-128768333D01*
X101678557Y-128756597D01*
X101697803Y-128740803D01*
X102197803Y-128240803D01*
X102213597Y-128221557D01*
X102225333Y-128199601D01*
X102232560Y-128175776D01*
X102235000Y-128151000D01*
X102235000Y-126790963D01*
X102638827Y-126391000D01*
X104811414Y-126391000D01*
X106369816Y-126405985D01*
G04 #@! TA.AperFunction,Conductor*
D27*
G36*
X106369816Y-126405985D02*
G01*
X106736408Y-126441930D01*
X107157154Y-126568961D01*
X107545213Y-126775295D01*
X107885808Y-127053078D01*
X108165955Y-127391718D01*
X108374997Y-127778333D01*
X108504963Y-128198182D01*
X108559000Y-128712313D01*
X108559000Y-131203718D01*
X108160014Y-131600018D01*
X99867200Y-131543985D01*
X99441000Y-131114896D01*
X99441000Y-129203606D01*
X99866606Y-128778000D01*
X101608000Y-128778000D01*
X101632776Y-128775560D01*
X101656601Y-128768333D01*
X101678557Y-128756597D01*
X101697803Y-128740803D01*
X102197803Y-128240803D01*
X102213597Y-128221557D01*
X102225333Y-128199601D01*
X102232560Y-128175776D01*
X102235000Y-128151000D01*
X102235000Y-126790963D01*
X102638827Y-126391000D01*
X104811414Y-126391000D01*
X106369816Y-126405985D01*
G37*
G04 #@! TD.AperFunction*
D26*
X82169000Y-135045606D02*
X82169000Y-136660000D01*
X82171440Y-136684776D01*
X82178667Y-136708601D01*
X82190403Y-136730557D01*
X82206197Y-136749803D01*
X82706197Y-137249803D01*
X82725443Y-137265597D01*
X82747399Y-137277333D01*
X82771224Y-137284560D01*
X82796000Y-137287000D01*
X84283394Y-137287000D01*
X84709000Y-137712606D01*
X84709000Y-138131394D01*
X84545614Y-138294780D01*
X84454000Y-138285757D01*
X83694000Y-138285757D01*
X83447944Y-138309991D01*
X83211343Y-138381763D01*
X82993291Y-138498315D01*
X82921783Y-138557000D01*
X80816606Y-138557000D01*
X80391000Y-138131394D01*
X80391000Y-135045606D01*
X80816606Y-134620000D01*
X81743394Y-134620000D01*
X82169000Y-135045606D01*
G04 #@! TA.AperFunction,Conductor*
D27*
G36*
X82169000Y-135045606D02*
G01*
X82169000Y-136660000D01*
X82171440Y-136684776D01*
X82178667Y-136708601D01*
X82190403Y-136730557D01*
X82206197Y-136749803D01*
X82706197Y-137249803D01*
X82725443Y-137265597D01*
X82747399Y-137277333D01*
X82771224Y-137284560D01*
X82796000Y-137287000D01*
X84283394Y-137287000D01*
X84709000Y-137712606D01*
X84709000Y-138131394D01*
X84545614Y-138294780D01*
X84454000Y-138285757D01*
X83694000Y-138285757D01*
X83447944Y-138309991D01*
X83211343Y-138381763D01*
X82993291Y-138498315D01*
X82921783Y-138557000D01*
X80816606Y-138557000D01*
X80391000Y-138131394D01*
X80391000Y-135045606D01*
X80816606Y-134620000D01*
X81743394Y-134620000D01*
X82169000Y-135045606D01*
G37*
G04 #@! TD.AperFunction*
D26*
X82169000Y-142792606D02*
X82169000Y-143211394D01*
X81743394Y-143637000D01*
X80816606Y-143637000D01*
X80391000Y-143211394D01*
X80391000Y-142792606D01*
X80816606Y-142367000D01*
X81743394Y-142367000D01*
X82169000Y-142792606D01*
G04 #@! TA.AperFunction,Conductor*
D27*
G36*
X82169000Y-142792606D02*
G01*
X82169000Y-143211394D01*
X81743394Y-143637000D01*
X80816606Y-143637000D01*
X80391000Y-143211394D01*
X80391000Y-142792606D01*
X80816606Y-142367000D01*
X81743394Y-142367000D01*
X82169000Y-142792606D01*
G37*
G04 #@! TD.AperFunction*
D26*
X76783501Y-153028107D02*
X76783501Y-153803893D01*
X76536394Y-154051000D01*
X75609606Y-154051000D01*
X75184000Y-153625394D01*
X75184000Y-153206606D01*
X75609606Y-152781000D01*
X76536394Y-152781000D01*
X76783501Y-153028107D01*
G04 #@! TA.AperFunction,Conductor*
D27*
G36*
X76783501Y-153028107D02*
G01*
X76783501Y-153803893D01*
X76536394Y-154051000D01*
X75609606Y-154051000D01*
X75184000Y-153625394D01*
X75184000Y-153206606D01*
X75609606Y-152781000D01*
X76536394Y-152781000D01*
X76783501Y-153028107D01*
G37*
G04 #@! TD.AperFunction*
D26*
X82169000Y-151809606D02*
X82169000Y-152609394D01*
X81940894Y-152837500D01*
X81916226Y-152837500D01*
X81669513Y-152886574D01*
X81577227Y-152924800D01*
X80706406Y-152924800D01*
X80633000Y-152851394D01*
X80633000Y-151567606D01*
X80727563Y-151473043D01*
X81832437Y-151473043D01*
X82169000Y-151809606D01*
G04 #@! TA.AperFunction,Conductor*
D27*
G36*
X82169000Y-151809606D02*
G01*
X82169000Y-152609394D01*
X81940894Y-152837500D01*
X81916226Y-152837500D01*
X81669513Y-152886574D01*
X81577227Y-152924800D01*
X80706406Y-152924800D01*
X80633000Y-152851394D01*
X80633000Y-151567606D01*
X80727563Y-151473043D01*
X81832437Y-151473043D01*
X82169000Y-151809606D01*
G37*
G04 #@! TD.AperFunction*
D26*
X82169000Y-146729606D02*
X82169000Y-147529394D01*
X81953594Y-147744800D01*
X81916226Y-147744800D01*
X81669513Y-147793874D01*
X81556810Y-147840557D01*
X80702163Y-147840557D01*
X80633000Y-147771394D01*
X80633000Y-146487606D01*
X80727563Y-146393043D01*
X81832437Y-146393043D01*
X82169000Y-146729606D01*
G04 #@! TA.AperFunction,Conductor*
D27*
G36*
X82169000Y-146729606D02*
G01*
X82169000Y-147529394D01*
X81953594Y-147744800D01*
X81916226Y-147744800D01*
X81669513Y-147793874D01*
X81556810Y-147840557D01*
X80702163Y-147840557D01*
X80633000Y-147771394D01*
X80633000Y-146487606D01*
X80727563Y-146393043D01*
X81832437Y-146393043D01*
X82169000Y-146729606D01*
G37*
G04 #@! TD.AperFunction*
D26*
X76962000Y-144062606D02*
X76962000Y-146005394D01*
X76536394Y-146431000D01*
X75609606Y-146431000D01*
X75184000Y-146005394D01*
X75184000Y-144062606D01*
X75609606Y-143637000D01*
X76536394Y-143637000D01*
X76962000Y-144062606D01*
G04 #@! TA.AperFunction,Conductor*
D27*
G36*
X76962000Y-144062606D02*
G01*
X76962000Y-146005394D01*
X76536394Y-146431000D01*
X75609606Y-146431000D01*
X75184000Y-146005394D01*
X75184000Y-144062606D01*
X75609606Y-143637000D01*
X76536394Y-143637000D01*
X76962000Y-144062606D01*
G37*
G04 #@! TD.AperFunction*
D26*
X76962000Y-150666606D02*
X76962000Y-151085394D01*
X76536394Y-151511000D01*
X75609606Y-151511000D01*
X75184000Y-151085394D01*
X75184000Y-150666606D01*
X75609606Y-150241000D01*
X76536394Y-150241000D01*
X76962000Y-150666606D01*
G04 #@! TA.AperFunction,Conductor*
D27*
G36*
X76962000Y-150666606D02*
G01*
X76962000Y-151085394D01*
X76536394Y-151511000D01*
X75609606Y-151511000D01*
X75184000Y-151085394D01*
X75184000Y-150666606D01*
X75609606Y-150241000D01*
X76536394Y-150241000D01*
X76962000Y-150666606D01*
G37*
G04 #@! TD.AperFunction*
D26*
X76783500Y-147821106D02*
X76783501Y-148977893D01*
X76650837Y-149110557D01*
X75495163Y-149110557D01*
X75184000Y-148799394D01*
X75184000Y-147999606D01*
X75520563Y-147663043D01*
X76625437Y-147663043D01*
X76783500Y-147821106D01*
G04 #@! TA.AperFunction,Conductor*
D27*
G36*
X76783500Y-147821106D02*
G01*
X76783501Y-148977893D01*
X76650837Y-149110557D01*
X75495163Y-149110557D01*
X75184000Y-148799394D01*
X75184000Y-147999606D01*
X75520563Y-147663043D01*
X76625437Y-147663043D01*
X76783500Y-147821106D01*
G37*
G04 #@! TD.AperFunction*
D26*
X84455000Y-164763606D02*
X84455000Y-165563394D01*
X84029394Y-165989000D01*
X83356606Y-165989000D01*
X82931000Y-165563394D01*
X82931000Y-164763606D01*
X83356606Y-164338000D01*
X84029394Y-164338000D01*
X84455000Y-164763606D01*
G04 #@! TA.AperFunction,Conductor*
D27*
G36*
X84455000Y-164763606D02*
G01*
X84455000Y-165563394D01*
X84029394Y-165989000D01*
X83356606Y-165989000D01*
X82931000Y-165563394D01*
X82931000Y-164763606D01*
X83356606Y-164338000D01*
X84029394Y-164338000D01*
X84455000Y-164763606D01*
G37*
G04 #@! TD.AperFunction*
D26*
X81915000Y-164763606D02*
X81915000Y-165563394D01*
X81489394Y-165989000D01*
X78276606Y-165989000D01*
X77851000Y-165563394D01*
X77851000Y-164763606D01*
X78276606Y-164338000D01*
X81489394Y-164338000D01*
X81915000Y-164763606D01*
G04 #@! TA.AperFunction,Conductor*
D27*
G36*
X81915000Y-164763606D02*
G01*
X81915000Y-165563394D01*
X81489394Y-165989000D01*
X78276606Y-165989000D01*
X77851000Y-165563394D01*
X77851000Y-164763606D01*
X78276606Y-164338000D01*
X81489394Y-164338000D01*
X81915000Y-164763606D01*
G37*
G04 #@! TD.AperFunction*
D26*
X83199184Y-169970606D02*
X83199184Y-170770394D01*
X82773578Y-171196000D01*
X82100790Y-171196000D01*
X81675184Y-170770394D01*
X81675184Y-169970606D01*
X82100790Y-169545000D01*
X82773578Y-169545000D01*
X83199184Y-169970606D01*
G04 #@! TA.AperFunction,Conductor*
D27*
G36*
X83199184Y-169970606D02*
G01*
X83199184Y-170770394D01*
X82773578Y-171196000D01*
X82100790Y-171196000D01*
X81675184Y-170770394D01*
X81675184Y-169970606D01*
X82100790Y-169545000D01*
X82773578Y-169545000D01*
X83199184Y-169970606D01*
G37*
G04 #@! TD.AperFunction*
D26*
X80645000Y-169970606D02*
X80645000Y-170770394D01*
X80219394Y-171196000D01*
X79546606Y-171196000D01*
X79121000Y-170770394D01*
X79121000Y-169970606D01*
X79546606Y-169545000D01*
X80219394Y-169545000D01*
X80645000Y-169970606D01*
G04 #@! TA.AperFunction,Conductor*
D27*
G36*
X80645000Y-169970606D02*
G01*
X80645000Y-170770394D01*
X80219394Y-171196000D01*
X79546606Y-171196000D01*
X79121000Y-170770394D01*
X79121000Y-169970606D01*
X79546606Y-169545000D01*
X80219394Y-169545000D01*
X80645000Y-169970606D01*
G37*
G04 #@! TD.AperFunction*
D26*
X78105000Y-169970606D02*
X78105000Y-170770394D01*
X77679394Y-171196000D01*
X77006606Y-171196000D01*
X76581000Y-170770394D01*
X76581000Y-169970606D01*
X77006606Y-169545000D01*
X77679394Y-169545000D01*
X78105000Y-169970606D01*
G04 #@! TA.AperFunction,Conductor*
D27*
G36*
X78105000Y-169970606D02*
G01*
X78105000Y-170770394D01*
X77679394Y-171196000D01*
X77006606Y-171196000D01*
X76581000Y-170770394D01*
X76581000Y-169970606D01*
X77006606Y-169545000D01*
X77679394Y-169545000D01*
X78105000Y-169970606D01*
G37*
G04 #@! TD.AperFunction*
M02*
