G04 #@! TF.GenerationSoftware,KiCad,Pcbnew,(5.1.12)-1*
G04 #@! TF.CreationDate,2022-03-03T10:00:03+01:00*
G04 #@! TF.ProjectId,10V-DLTZ,3130562d-444c-4545-9a2e-6b696361645f,rev?*
G04 #@! TF.SameCoordinates,Original*
G04 #@! TF.FileFunction,Copper,L4,Bot*
G04 #@! TF.FilePolarity,Positive*
%FSLAX46Y46*%
G04 Gerber Fmt 4.6, Leading zero omitted, Abs format (unit mm)*
G04 Created by KiCad (PCBNEW (5.1.12)-1) date 2022-03-03 10:00:03*
%MOMM*%
%LPD*%
G01*
G04 APERTURE LIST*
G04 #@! TA.AperFunction,NonConductor*
%ADD10C,1.600000*%
G04 #@! TD*
G04 #@! TA.AperFunction,NonConductor*
%ADD11C,0.127000*%
G04 #@! TD*
G04 #@! TA.AperFunction,NonConductor*
%ADD12C,0.250000*%
G04 #@! TD*
G04 #@! TA.AperFunction,NonConductor*
%ADD13C,2.000000*%
G04 #@! TD*
G04 #@! TA.AperFunction,NonConductor*
%ADD14C,1.000000*%
G04 #@! TD*
G04 #@! TA.AperFunction,NonConductor*
%ADD15C,3.000000*%
G04 #@! TD*
G04 #@! TA.AperFunction,ComponentPad*
%ADD16C,1.350000*%
G04 #@! TD*
G04 #@! TA.AperFunction,ComponentPad*
%ADD17O,1.600000X7.100000*%
G04 #@! TD*
G04 #@! TA.AperFunction,ComponentPad*
%ADD18C,1.600000*%
G04 #@! TD*
G04 #@! TA.AperFunction,ComponentPad*
%ADD19C,1.524000*%
G04 #@! TD*
G04 #@! TA.AperFunction,ViaPad*
%ADD20C,0.800000*%
G04 #@! TD*
G04 #@! TA.AperFunction,Conductor*
%ADD21C,0.508000*%
G04 #@! TD*
G04 #@! TA.AperFunction,Conductor*
%ADD22C,0.127000*%
G04 #@! TD*
G04 #@! TA.AperFunction,Conductor*
%ADD23C,1.600000*%
G04 #@! TD*
G04 #@! TA.AperFunction,Conductor*
%ADD24C,0.250000*%
G04 #@! TD*
G04 #@! TA.AperFunction,Conductor*
%ADD25C,0.254000*%
G04 #@! TD*
G04 #@! TA.AperFunction,Conductor*
%ADD26C,0.100000*%
G04 #@! TD*
G04 APERTURE END LIST*
D10*
X73279000Y-128651000D02*
G75*
G02*
X77216000Y-124714000I3937000J0D01*
G01*
X77216000Y-177292000D02*
G75*
G02*
X73279000Y-173355000I0J3937000D01*
G01*
D11*
X108331000Y-150876000D02*
X109601000Y-150876000D01*
D12*
X108331249Y-150799800D02*
G75*
G03*
X108331249Y-150799800I-11658849J0D01*
G01*
D13*
X105465240Y-150799800D02*
G75*
G03*
X105465240Y-150799800I-8792840J0D01*
G01*
D10*
X106299000Y-124714000D02*
G75*
G02*
X110236000Y-128651000I0J-3937000D01*
G01*
X110236000Y-173355000D02*
G75*
G02*
X106299000Y-177292000I-3937000J0D01*
G01*
D14*
X107340430Y-150799800D02*
G75*
G03*
X107340430Y-150799800I-10668030J0D01*
G01*
D15*
X102565255Y-150799800D02*
G75*
G03*
X102565255Y-150799800I-5892855J0D01*
G01*
D16*
X94132400Y-150799800D03*
X99212400Y-150799800D03*
X96672400Y-148259800D03*
X96672400Y-153339800D03*
X98468400Y-152595800D03*
X94876400Y-152595800D03*
X94876400Y-149003800D03*
X98468400Y-149003800D03*
D17*
X107315000Y-169711000D03*
D18*
X107315000Y-164211000D03*
D17*
X103505000Y-169711000D03*
D18*
X103505000Y-164211000D03*
D19*
X82804000Y-126746000D03*
X85344000Y-126746000D03*
X87884000Y-126746000D03*
X90424000Y-126746000D03*
X92964000Y-126746000D03*
X95504000Y-126746000D03*
X98044000Y-126746000D03*
X100584000Y-126746000D03*
X82804000Y-175006000D03*
X85344000Y-175006000D03*
X87884000Y-175006000D03*
X90424000Y-175006000D03*
X92964000Y-175006000D03*
X95504000Y-175006000D03*
X98044000Y-175006000D03*
X100584000Y-175006000D03*
D20*
X109220000Y-176022000D03*
X106426000Y-177292000D03*
X104775000Y-177292000D03*
X75819000Y-177165000D03*
X75565000Y-125095000D03*
X108966000Y-125857000D03*
X96520000Y-177292000D03*
X110236000Y-170688000D03*
X110236000Y-136906000D03*
X110236000Y-141097000D03*
X73533000Y-175006000D03*
X109982000Y-174752000D03*
X107823000Y-125095000D03*
X100838000Y-177292000D03*
X107950000Y-176911000D03*
X109855000Y-127000000D03*
X83820000Y-177292000D03*
X74295000Y-125984000D03*
X88011000Y-177292000D03*
X79756000Y-177292000D03*
X110236000Y-132715000D03*
X74549000Y-176276000D03*
X92202000Y-177292000D03*
X77597000Y-177292000D03*
X73279000Y-168910000D03*
X110236000Y-158115000D03*
X110236000Y-162306000D03*
X73279000Y-164592000D03*
X73279000Y-156083000D03*
X73279000Y-160401000D03*
X110236000Y-145161000D03*
X110236000Y-166370000D03*
X110236000Y-153797000D03*
X73279000Y-152019000D03*
X73279000Y-143383000D03*
X73279000Y-139192000D03*
X73279000Y-147701000D03*
X110236000Y-149606000D03*
X93472000Y-165227000D03*
X80899000Y-155067000D03*
X81407000Y-162433000D03*
X75184000Y-163830000D03*
X75057000Y-171831000D03*
X107696000Y-134620000D03*
X82042000Y-138557000D03*
X108077000Y-139446000D03*
X87122000Y-131191000D03*
X82169000Y-158673800D03*
X108409500Y-144066500D03*
X82042000Y-149021800D03*
X90233500Y-136652000D03*
X110236000Y-138938000D03*
X110236000Y-160274000D03*
X110236000Y-155956000D03*
X87884000Y-124714000D03*
X80137000Y-124714000D03*
X73279000Y-135001000D03*
X73279000Y-141224000D03*
X86741000Y-139573000D03*
X106426000Y-124714000D03*
X110236000Y-147447000D03*
X96012000Y-124714000D03*
X73279000Y-137033000D03*
X91821000Y-124714000D03*
X73279000Y-132969000D03*
X73279000Y-154051000D03*
X81788000Y-177292000D03*
X110236000Y-168529000D03*
X110236000Y-134747000D03*
X73279000Y-173355000D03*
X104394000Y-124714000D03*
X73279000Y-130937000D03*
X86296500Y-164465000D03*
X85979000Y-177292000D03*
X110236000Y-172974000D03*
X77597000Y-177292000D03*
X110236000Y-130556000D03*
X100330000Y-124714000D03*
X110236000Y-164338000D03*
X82169000Y-156083000D03*
X73279000Y-129159000D03*
X73279000Y-145669000D03*
X98552000Y-177292000D03*
X94361000Y-177292000D03*
X110236000Y-128498000D03*
X90043000Y-177292000D03*
X73279000Y-170942000D03*
X110236000Y-143129000D03*
X73279000Y-149987000D03*
X83947000Y-124714000D03*
X102743000Y-177292000D03*
X110236000Y-151638000D03*
X73279000Y-158242000D03*
X73279000Y-162433000D03*
X73533000Y-127254000D03*
X73279000Y-166751000D03*
X89281000Y-137922000D03*
X76962000Y-124714000D03*
X81915000Y-124714000D03*
X92202000Y-164465000D03*
X103124000Y-137541000D03*
X78613000Y-130302000D03*
X85979000Y-124714000D03*
X93853000Y-124714000D03*
X99187000Y-164084000D03*
X89789000Y-124714000D03*
X98298000Y-124714000D03*
X102489000Y-124714000D03*
X78486000Y-124714000D03*
X82042000Y-154114500D03*
X82169000Y-157429200D03*
X101854000Y-130810000D03*
X101854000Y-129286000D03*
X94742000Y-171196000D03*
X95377000Y-135382000D03*
X103505000Y-127762000D03*
X100203000Y-129286000D03*
X76733268Y-158644655D03*
X106934000Y-129286000D03*
X88836500Y-171196000D03*
X106934000Y-127762000D03*
X105283000Y-130810000D03*
X103505000Y-130810000D03*
X100203000Y-130810000D03*
X105283000Y-127762000D03*
X105283000Y-129241000D03*
X103505000Y-129286000D03*
X106934000Y-130810000D03*
X81661000Y-132588000D03*
X99187000Y-168783000D03*
X80137000Y-173990000D03*
X102489000Y-145034000D03*
X100076000Y-147421600D03*
X107083000Y-137160000D03*
X104203500Y-143256000D03*
D21*
X101854000Y-165608000D02*
X102362000Y-165608000D01*
X101854000Y-165608000D02*
X100330000Y-167132000D01*
X81280000Y-162306000D02*
X81407000Y-162433000D01*
X81026000Y-155067000D02*
X80899000Y-155194000D01*
D22*
X104394000Y-165608000D02*
X102489000Y-165608000D01*
D21*
X105791000Y-165608000D02*
X104521000Y-165608000D01*
X82931000Y-167513000D02*
X81407000Y-165989000D01*
X107315000Y-169584000D02*
X107315000Y-167132000D01*
X81407000Y-165989000D02*
X81407000Y-162433000D01*
X107315000Y-167132000D02*
X105791000Y-165608000D01*
X86106000Y-167513000D02*
X82931000Y-167513000D01*
X95885000Y-167513000D02*
X86106000Y-167513000D01*
X103505000Y-169711000D02*
X103505000Y-171704000D01*
X85344000Y-126746000D02*
X85344000Y-127000000D01*
X85344000Y-127000000D02*
X84836000Y-127508000D01*
X103251000Y-171704000D02*
X102362000Y-172593000D01*
D23*
X110236000Y-130556000D02*
X110236000Y-130683000D01*
X90043000Y-177292000D02*
X94361000Y-177292000D01*
X110236000Y-151638000D02*
X110236000Y-155956000D01*
X110236000Y-164338000D02*
X110236000Y-168529000D01*
X110236000Y-138938000D02*
X110236000Y-143129000D01*
X110236000Y-160274000D02*
X110236000Y-164338000D01*
X110236000Y-143129000D02*
X110236000Y-147447000D01*
X110236000Y-155956000D02*
X110236000Y-160274000D01*
X73279000Y-162433000D02*
X73279000Y-158242000D01*
X98552000Y-177292000D02*
X102743000Y-177292000D01*
X102915000Y-177292000D02*
X106172000Y-177292000D01*
X73279000Y-129159000D02*
X73279000Y-128778000D01*
X91821000Y-124714000D02*
X96012000Y-124714000D01*
D21*
X82423000Y-156083000D02*
X82804000Y-156083000D01*
D23*
X96012000Y-124714000D02*
X100330000Y-124714000D01*
X100330000Y-124714000D02*
X104394000Y-124714000D01*
X110236000Y-134747000D02*
X110236000Y-138938000D01*
X85979000Y-177292000D02*
X90043000Y-177292000D01*
X73279000Y-166751000D02*
X73279000Y-162433000D01*
X110236000Y-147447000D02*
X110236000Y-151638000D01*
X104394000Y-124714000D02*
X106000000Y-124714000D01*
X94361000Y-177292000D02*
X98552000Y-177292000D01*
X80137000Y-124714000D02*
X83947000Y-124714000D01*
X87884000Y-124714000D02*
X91821000Y-124714000D01*
X73279000Y-171069000D02*
X73279000Y-166878000D01*
X83947000Y-124714000D02*
X87884000Y-124714000D01*
X73279000Y-158242000D02*
X73279000Y-154051000D01*
X81788000Y-177292000D02*
X85979000Y-177292000D01*
X110236000Y-168656000D02*
X110236000Y-172593000D01*
D21*
X82804000Y-156083000D02*
X83566000Y-156083000D01*
D23*
X77216000Y-124714000D02*
X80137000Y-124714000D01*
X73279000Y-173228000D02*
X73279000Y-171170000D01*
X110236000Y-128498000D02*
X110236000Y-128498000D01*
X77343000Y-177292000D02*
X81534000Y-177292000D01*
X73279000Y-137033000D02*
X73279000Y-132969000D01*
X73279000Y-145669000D02*
X73279000Y-141224000D01*
D21*
X99187000Y-164084000D02*
X99187000Y-163957000D01*
D23*
X77597000Y-177292000D02*
X77597000Y-177292000D01*
X73279000Y-154051000D02*
X73279000Y-149987000D01*
X73279000Y-128778000D02*
X73279000Y-128778000D01*
X110236000Y-131826000D02*
X110236000Y-134747000D01*
D21*
X87630000Y-137922000D02*
X89281000Y-137922000D01*
D24*
X103124000Y-137541000D02*
X103124000Y-137922000D01*
D23*
X77216000Y-124714000D02*
X77216000Y-124714000D01*
X110236000Y-172974000D02*
X110236000Y-173373000D01*
X110236000Y-130683000D02*
X110236000Y-131826000D01*
X106000000Y-177292000D02*
X106000000Y-177292000D01*
X73279000Y-132969000D02*
X73279000Y-129159000D01*
X73279000Y-141224000D02*
X73279000Y-137033000D01*
X73279000Y-149987000D02*
X73279000Y-145669000D01*
X110236000Y-128498000D02*
X110236000Y-129540000D01*
D21*
X92202000Y-164465000D02*
X86360000Y-164465000D01*
X86360000Y-164465000D02*
X86296500Y-164528500D01*
D23*
X110236000Y-129540000D02*
X110236000Y-130556000D01*
X110236000Y-172720000D02*
X110236000Y-172974000D01*
D21*
X88836500Y-170430500D02*
X94738500Y-170430500D01*
D24*
X76733268Y-158644655D02*
X77321345Y-158644655D01*
D21*
X100330000Y-129286000D02*
X101854000Y-129286000D01*
D24*
X95377000Y-135382000D02*
X95377000Y-134366000D01*
D21*
X90424000Y-126365000D02*
X90424000Y-135001000D01*
X94738500Y-170430500D02*
X94742000Y-170434000D01*
D24*
X81661000Y-132588000D02*
X81661000Y-133096000D01*
D21*
X101854000Y-129286000D02*
X106934000Y-129286000D01*
X92964000Y-129286000D02*
X100330000Y-129286000D01*
X77390036Y-170430500D02*
X88836500Y-170430500D01*
D25*
X89628614Y-137783663D02*
X89861013Y-137879926D01*
X90107726Y-137929000D01*
X90359274Y-137929000D01*
X90605987Y-137879926D01*
X90838386Y-137783663D01*
X91011488Y-137668000D01*
X103071394Y-137668000D01*
X103325394Y-137922000D01*
X103071394Y-138176000D01*
X97651898Y-138176000D01*
X96672400Y-138118951D01*
X95692902Y-138176000D01*
X88140265Y-138176000D01*
X88115489Y-138178440D01*
X88091664Y-138185667D01*
X88069708Y-138197403D01*
X88047318Y-138216456D01*
X86429457Y-139954000D01*
X85201000Y-139954000D01*
X85176224Y-139956440D01*
X85152399Y-139963667D01*
X85130443Y-139975403D01*
X85111197Y-139991197D01*
X84111197Y-140991197D01*
X84095403Y-141010443D01*
X84083667Y-141032399D01*
X84076440Y-141056224D01*
X84074000Y-141081000D01*
X84074000Y-149540630D01*
X84013005Y-150062474D01*
X84013005Y-151537126D01*
X84074000Y-152058970D01*
X84074000Y-162703000D01*
X84076440Y-162727776D01*
X84083667Y-162751601D01*
X84095403Y-162773557D01*
X84111197Y-162792803D01*
X85111197Y-163792803D01*
X85130443Y-163808597D01*
X85152399Y-163820333D01*
X85176224Y-163827560D01*
X85201000Y-163830000D01*
X99197894Y-163830000D01*
X99261394Y-163893500D01*
X99197894Y-163957000D01*
X93632966Y-163957000D01*
X93597774Y-163950000D01*
X93346226Y-163950000D01*
X93311034Y-163957000D01*
X93027500Y-163957000D01*
X93002724Y-163959440D01*
X92978899Y-163966667D01*
X92956943Y-163978403D01*
X92937697Y-163994197D01*
X92775026Y-164156868D01*
X92657960Y-164235089D01*
X92480089Y-164412960D01*
X92401868Y-164530026D01*
X92085894Y-164846000D01*
X84491606Y-164846000D01*
X83566000Y-163920394D01*
X83566000Y-138593606D01*
X84491606Y-137668000D01*
X89455512Y-137668000D01*
X89628614Y-137783663D01*
G04 #@! TA.AperFunction,Conductor*
D26*
G36*
X89628614Y-137783663D02*
G01*
X89861013Y-137879926D01*
X90107726Y-137929000D01*
X90359274Y-137929000D01*
X90605987Y-137879926D01*
X90838386Y-137783663D01*
X91011488Y-137668000D01*
X103071394Y-137668000D01*
X103325394Y-137922000D01*
X103071394Y-138176000D01*
X97651898Y-138176000D01*
X96672400Y-138118951D01*
X95692902Y-138176000D01*
X88140265Y-138176000D01*
X88115489Y-138178440D01*
X88091664Y-138185667D01*
X88069708Y-138197403D01*
X88047318Y-138216456D01*
X86429457Y-139954000D01*
X85201000Y-139954000D01*
X85176224Y-139956440D01*
X85152399Y-139963667D01*
X85130443Y-139975403D01*
X85111197Y-139991197D01*
X84111197Y-140991197D01*
X84095403Y-141010443D01*
X84083667Y-141032399D01*
X84076440Y-141056224D01*
X84074000Y-141081000D01*
X84074000Y-149540630D01*
X84013005Y-150062474D01*
X84013005Y-151537126D01*
X84074000Y-152058970D01*
X84074000Y-162703000D01*
X84076440Y-162727776D01*
X84083667Y-162751601D01*
X84095403Y-162773557D01*
X84111197Y-162792803D01*
X85111197Y-163792803D01*
X85130443Y-163808597D01*
X85152399Y-163820333D01*
X85176224Y-163827560D01*
X85201000Y-163830000D01*
X99197894Y-163830000D01*
X99261394Y-163893500D01*
X99197894Y-163957000D01*
X93632966Y-163957000D01*
X93597774Y-163950000D01*
X93346226Y-163950000D01*
X93311034Y-163957000D01*
X93027500Y-163957000D01*
X93002724Y-163959440D01*
X92978899Y-163966667D01*
X92956943Y-163978403D01*
X92937697Y-163994197D01*
X92775026Y-164156868D01*
X92657960Y-164235089D01*
X92480089Y-164412960D01*
X92401868Y-164530026D01*
X92085894Y-164846000D01*
X84491606Y-164846000D01*
X83566000Y-163920394D01*
X83566000Y-138593606D01*
X84491606Y-137668000D01*
X89455512Y-137668000D01*
X89628614Y-137783663D01*
G37*
G04 #@! TD.AperFunction*
D25*
X106736408Y-126441930D02*
X107157154Y-126568961D01*
X107545213Y-126775295D01*
X107885808Y-127053078D01*
X108165955Y-127391718D01*
X108374997Y-127778333D01*
X108504963Y-128198182D01*
X108559000Y-128712313D01*
X108559000Y-131743618D01*
X108559001Y-133677050D01*
X108510040Y-133628089D01*
X108300886Y-133488337D01*
X108068487Y-133392074D01*
X107821774Y-133343000D01*
X107570226Y-133343000D01*
X107323513Y-133392074D01*
X107091114Y-133488337D01*
X106881960Y-133628089D01*
X106704089Y-133805960D01*
X106564337Y-134015114D01*
X106468074Y-134247513D01*
X106419000Y-134494226D01*
X106419000Y-134745774D01*
X106468074Y-134992487D01*
X106532842Y-135148850D01*
X90460713Y-135129282D01*
X89535000Y-134202440D01*
X89535000Y-127814608D01*
X89638041Y-127711567D01*
X89705020Y-127951656D01*
X89954048Y-128068756D01*
X90221135Y-128135023D01*
X90496017Y-128147910D01*
X90768133Y-128106922D01*
X91027023Y-128013636D01*
X91142980Y-127951656D01*
X91209959Y-127711567D01*
X91326369Y-127827977D01*
X91381870Y-127772476D01*
X92350197Y-128740803D01*
X92369443Y-128756597D01*
X92391399Y-128768333D01*
X92415224Y-128775560D01*
X92440000Y-128778000D01*
X101108000Y-128778000D01*
X101132776Y-128775560D01*
X101156601Y-128768333D01*
X101178557Y-128756597D01*
X101197803Y-128740803D01*
X102197803Y-127740803D01*
X102213597Y-127721557D01*
X102225333Y-127699601D01*
X102232560Y-127675776D01*
X102235000Y-127651000D01*
X102235000Y-126814614D01*
X102661566Y-126391000D01*
X106082383Y-126391000D01*
X106149533Y-126384386D01*
X106736408Y-126441930D01*
G04 #@! TA.AperFunction,Conductor*
D26*
G36*
X106736408Y-126441930D02*
G01*
X107157154Y-126568961D01*
X107545213Y-126775295D01*
X107885808Y-127053078D01*
X108165955Y-127391718D01*
X108374997Y-127778333D01*
X108504963Y-128198182D01*
X108559000Y-128712313D01*
X108559000Y-131743618D01*
X108559001Y-133677050D01*
X108510040Y-133628089D01*
X108300886Y-133488337D01*
X108068487Y-133392074D01*
X107821774Y-133343000D01*
X107570226Y-133343000D01*
X107323513Y-133392074D01*
X107091114Y-133488337D01*
X106881960Y-133628089D01*
X106704089Y-133805960D01*
X106564337Y-134015114D01*
X106468074Y-134247513D01*
X106419000Y-134494226D01*
X106419000Y-134745774D01*
X106468074Y-134992487D01*
X106532842Y-135148850D01*
X90460713Y-135129282D01*
X89535000Y-134202440D01*
X89535000Y-127814608D01*
X89638041Y-127711567D01*
X89705020Y-127951656D01*
X89954048Y-128068756D01*
X90221135Y-128135023D01*
X90496017Y-128147910D01*
X90768133Y-128106922D01*
X91027023Y-128013636D01*
X91142980Y-127951656D01*
X91209959Y-127711567D01*
X91326369Y-127827977D01*
X91381870Y-127772476D01*
X92350197Y-128740803D01*
X92369443Y-128756597D01*
X92391399Y-128768333D01*
X92415224Y-128775560D01*
X92440000Y-128778000D01*
X101108000Y-128778000D01*
X101132776Y-128775560D01*
X101156601Y-128768333D01*
X101178557Y-128756597D01*
X101197803Y-128740803D01*
X102197803Y-127740803D01*
X102213597Y-127721557D01*
X102225333Y-127699601D01*
X102232560Y-127675776D01*
X102235000Y-127651000D01*
X102235000Y-126814614D01*
X102661566Y-126391000D01*
X106082383Y-126391000D01*
X106149533Y-126384386D01*
X106736408Y-126441930D01*
G37*
G04 #@! TD.AperFunction*
D25*
X90617748Y-126731858D02*
X90603605Y-126746000D01*
X90617748Y-126760143D01*
X90438143Y-126939748D01*
X90424000Y-126925605D01*
X90409858Y-126939748D01*
X90230253Y-126760143D01*
X90244395Y-126746000D01*
X90230253Y-126731858D01*
X90409858Y-126552253D01*
X90424000Y-126566395D01*
X90438143Y-126552253D01*
X90617748Y-126731858D01*
G04 #@! TA.AperFunction,Conductor*
D26*
G36*
X90617748Y-126731858D02*
G01*
X90603605Y-126746000D01*
X90617748Y-126760143D01*
X90438143Y-126939748D01*
X90424000Y-126925605D01*
X90409858Y-126939748D01*
X90230253Y-126760143D01*
X90244395Y-126746000D01*
X90230253Y-126731858D01*
X90409858Y-126552253D01*
X90424000Y-126566395D01*
X90438143Y-126552253D01*
X90617748Y-126731858D01*
G37*
G04 #@! TD.AperFunction*
D25*
X85291239Y-127682780D02*
X84450019Y-128524000D01*
X76660250Y-128524000D01*
X76635474Y-128526440D01*
X76611649Y-128533667D01*
X76589693Y-128545403D01*
X76570415Y-128561230D01*
X75571140Y-129561230D01*
X75555353Y-129580481D01*
X75543625Y-129602442D01*
X75536406Y-129626269D01*
X75533975Y-129651092D01*
X75554628Y-158153181D01*
X75505342Y-158272168D01*
X75456268Y-158518881D01*
X75456268Y-158770429D01*
X75505342Y-159017142D01*
X75555342Y-159137852D01*
X75564275Y-171466092D01*
X75566733Y-171490867D01*
X75573978Y-171514686D01*
X75585730Y-171536634D01*
X75601505Y-171555835D01*
X76602230Y-172555835D01*
X76621481Y-172571622D01*
X76643442Y-172583350D01*
X76667269Y-172590569D01*
X76692000Y-172593000D01*
X103706394Y-172593000D01*
X103833394Y-172720000D01*
X103706394Y-172847000D01*
X80714516Y-172847000D01*
X80509487Y-172762074D01*
X80262774Y-172713000D01*
X80011226Y-172713000D01*
X79764513Y-172762074D01*
X79559484Y-172847000D01*
X75728758Y-172847000D01*
X74956000Y-172071051D01*
X74956000Y-135846378D01*
X74986599Y-128420941D01*
X75006930Y-128213592D01*
X75133961Y-127792846D01*
X75340295Y-127404787D01*
X75618078Y-127064192D01*
X75849783Y-126872509D01*
X76962215Y-126870591D01*
X76962434Y-126870590D01*
X81165000Y-126856099D01*
X81165000Y-126907427D01*
X81227986Y-127224079D01*
X81351537Y-127522357D01*
X81530906Y-127790801D01*
X81759199Y-128019094D01*
X82027643Y-128198463D01*
X82325921Y-128322014D01*
X82642573Y-128385000D01*
X82965427Y-128385000D01*
X83282079Y-128322014D01*
X83580357Y-128198463D01*
X83848801Y-128019094D01*
X84077094Y-127790801D01*
X84256463Y-127522357D01*
X84380014Y-127224079D01*
X84443000Y-126907427D01*
X84443000Y-126844795D01*
X84450335Y-126844770D01*
X85291239Y-127682780D01*
G04 #@! TA.AperFunction,Conductor*
D26*
G36*
X85291239Y-127682780D02*
G01*
X84450019Y-128524000D01*
X76660250Y-128524000D01*
X76635474Y-128526440D01*
X76611649Y-128533667D01*
X76589693Y-128545403D01*
X76570415Y-128561230D01*
X75571140Y-129561230D01*
X75555353Y-129580481D01*
X75543625Y-129602442D01*
X75536406Y-129626269D01*
X75533975Y-129651092D01*
X75554628Y-158153181D01*
X75505342Y-158272168D01*
X75456268Y-158518881D01*
X75456268Y-158770429D01*
X75505342Y-159017142D01*
X75555342Y-159137852D01*
X75564275Y-171466092D01*
X75566733Y-171490867D01*
X75573978Y-171514686D01*
X75585730Y-171536634D01*
X75601505Y-171555835D01*
X76602230Y-172555835D01*
X76621481Y-172571622D01*
X76643442Y-172583350D01*
X76667269Y-172590569D01*
X76692000Y-172593000D01*
X103706394Y-172593000D01*
X103833394Y-172720000D01*
X103706394Y-172847000D01*
X80714516Y-172847000D01*
X80509487Y-172762074D01*
X80262774Y-172713000D01*
X80011226Y-172713000D01*
X79764513Y-172762074D01*
X79559484Y-172847000D01*
X75728758Y-172847000D01*
X74956000Y-172071051D01*
X74956000Y-135846378D01*
X74986599Y-128420941D01*
X75006930Y-128213592D01*
X75133961Y-127792846D01*
X75340295Y-127404787D01*
X75618078Y-127064192D01*
X75849783Y-126872509D01*
X76962215Y-126870591D01*
X76962434Y-126870590D01*
X81165000Y-126856099D01*
X81165000Y-126907427D01*
X81227986Y-127224079D01*
X81351537Y-127522357D01*
X81530906Y-127790801D01*
X81759199Y-128019094D01*
X82027643Y-128198463D01*
X82325921Y-128322014D01*
X82642573Y-128385000D01*
X82965427Y-128385000D01*
X83282079Y-128322014D01*
X83580357Y-128198463D01*
X83848801Y-128019094D01*
X84077094Y-127790801D01*
X84256463Y-127522357D01*
X84380014Y-127224079D01*
X84443000Y-126907427D01*
X84443000Y-126844795D01*
X84450335Y-126844770D01*
X85291239Y-127682780D01*
G37*
G04 #@! TD.AperFunction*
D25*
X91948000Y-132378606D02*
X91948000Y-134702347D01*
X91522511Y-135127288D01*
X80256164Y-135112769D01*
X80231384Y-135115177D01*
X80207550Y-135122374D01*
X80185579Y-135134082D01*
X80166084Y-135150080D01*
X79667991Y-135649432D01*
X79652221Y-135668697D01*
X79640513Y-135690668D01*
X79633316Y-135714502D01*
X79630908Y-135739606D01*
X79702928Y-154617612D01*
X79671074Y-154694513D01*
X79622000Y-154941226D01*
X79622000Y-155192774D01*
X79671074Y-155439487D01*
X79706388Y-155524743D01*
X79754094Y-168029489D01*
X79756629Y-168054255D01*
X79763947Y-168078052D01*
X79775766Y-168099964D01*
X79791462Y-168118978D01*
X80293369Y-168618974D01*
X80312644Y-168634731D01*
X80334623Y-168646425D01*
X80358461Y-168653607D01*
X80383000Y-168656000D01*
X99197894Y-168656000D01*
X99261394Y-168719500D01*
X99197894Y-168783000D01*
X95623000Y-168783000D01*
X95598224Y-168785440D01*
X95574399Y-168792667D01*
X95552443Y-168804403D01*
X95533197Y-168820197D01*
X95033197Y-169320197D01*
X95017403Y-169339443D01*
X95005667Y-169361399D01*
X94998440Y-169385224D01*
X94996000Y-169410000D01*
X94996000Y-171143394D01*
X94710250Y-171429144D01*
X94133303Y-170852197D01*
X94114057Y-170836403D01*
X94092101Y-170824667D01*
X94068276Y-170817440D01*
X94043500Y-170815000D01*
X89598500Y-170815000D01*
X89573724Y-170817440D01*
X89549899Y-170824667D01*
X89527943Y-170836403D01*
X89508697Y-170852197D01*
X88910894Y-171450000D01*
X88762106Y-171450000D01*
X88164303Y-170852197D01*
X88145057Y-170836403D01*
X88123101Y-170824667D01*
X88099276Y-170817440D01*
X88074500Y-170815000D01*
X77387606Y-170815000D01*
X76962000Y-170389394D01*
X76962000Y-133394606D01*
X77387606Y-132969000D01*
X88908000Y-132969000D01*
X88932776Y-132966560D01*
X88956601Y-132959333D01*
X88978557Y-132947597D01*
X88997803Y-132931803D01*
X89497803Y-132431803D01*
X89513597Y-132412557D01*
X89525333Y-132390601D01*
X89526347Y-132387259D01*
X89960606Y-131953000D01*
X91522394Y-131953000D01*
X91948000Y-132378606D01*
G04 #@! TA.AperFunction,Conductor*
D26*
G36*
X91948000Y-132378606D02*
G01*
X91948000Y-134702347D01*
X91522511Y-135127288D01*
X80256164Y-135112769D01*
X80231384Y-135115177D01*
X80207550Y-135122374D01*
X80185579Y-135134082D01*
X80166084Y-135150080D01*
X79667991Y-135649432D01*
X79652221Y-135668697D01*
X79640513Y-135690668D01*
X79633316Y-135714502D01*
X79630908Y-135739606D01*
X79702928Y-154617612D01*
X79671074Y-154694513D01*
X79622000Y-154941226D01*
X79622000Y-155192774D01*
X79671074Y-155439487D01*
X79706388Y-155524743D01*
X79754094Y-168029489D01*
X79756629Y-168054255D01*
X79763947Y-168078052D01*
X79775766Y-168099964D01*
X79791462Y-168118978D01*
X80293369Y-168618974D01*
X80312644Y-168634731D01*
X80334623Y-168646425D01*
X80358461Y-168653607D01*
X80383000Y-168656000D01*
X99197894Y-168656000D01*
X99261394Y-168719500D01*
X99197894Y-168783000D01*
X95623000Y-168783000D01*
X95598224Y-168785440D01*
X95574399Y-168792667D01*
X95552443Y-168804403D01*
X95533197Y-168820197D01*
X95033197Y-169320197D01*
X95017403Y-169339443D01*
X95005667Y-169361399D01*
X94998440Y-169385224D01*
X94996000Y-169410000D01*
X94996000Y-171143394D01*
X94710250Y-171429144D01*
X94133303Y-170852197D01*
X94114057Y-170836403D01*
X94092101Y-170824667D01*
X94068276Y-170817440D01*
X94043500Y-170815000D01*
X89598500Y-170815000D01*
X89573724Y-170817440D01*
X89549899Y-170824667D01*
X89527943Y-170836403D01*
X89508697Y-170852197D01*
X88910894Y-171450000D01*
X88762106Y-171450000D01*
X88164303Y-170852197D01*
X88145057Y-170836403D01*
X88123101Y-170824667D01*
X88099276Y-170817440D01*
X88074500Y-170815000D01*
X77387606Y-170815000D01*
X76962000Y-170389394D01*
X76962000Y-133394606D01*
X77387606Y-132969000D01*
X88908000Y-132969000D01*
X88932776Y-132966560D01*
X88956601Y-132959333D01*
X88978557Y-132947597D01*
X88997803Y-132931803D01*
X89497803Y-132431803D01*
X89513597Y-132412557D01*
X89525333Y-132390601D01*
X89526347Y-132387259D01*
X89960606Y-131953000D01*
X91522394Y-131953000D01*
X91948000Y-132378606D01*
G37*
G04 #@! TD.AperFunction*
D25*
X80899000Y-155183106D02*
X80899000Y-155922034D01*
X80892000Y-155957226D01*
X80892000Y-156208774D01*
X80899000Y-156243966D01*
X80899000Y-157268234D01*
X80892000Y-157303426D01*
X80892000Y-157554974D01*
X80899000Y-157590166D01*
X80899000Y-158512834D01*
X80892000Y-158548026D01*
X80892000Y-158799574D01*
X80899000Y-158834766D01*
X80899000Y-160845500D01*
X80901440Y-160870276D01*
X80908667Y-160894101D01*
X80920403Y-160916057D01*
X80936197Y-160935303D01*
X82042000Y-162041106D01*
X82042000Y-165909750D01*
X82044440Y-165934526D01*
X82051667Y-165958351D01*
X82063403Y-165980307D01*
X82079352Y-165999707D01*
X83079346Y-166996259D01*
X83098619Y-167012020D01*
X83120596Y-167023718D01*
X83144432Y-167030904D01*
X83169432Y-167033301D01*
X100071332Y-166975018D01*
X100404239Y-167306780D01*
X100071019Y-167640000D01*
X99764516Y-167640000D01*
X99559487Y-167555074D01*
X99312774Y-167506000D01*
X99061226Y-167506000D01*
X98814513Y-167555074D01*
X98609484Y-167640000D01*
X81697606Y-167640000D01*
X80772000Y-166714394D01*
X80772000Y-155183106D01*
X80835500Y-155119606D01*
X80899000Y-155183106D01*
G04 #@! TA.AperFunction,Conductor*
D26*
G36*
X80899000Y-155183106D02*
G01*
X80899000Y-155922034D01*
X80892000Y-155957226D01*
X80892000Y-156208774D01*
X80899000Y-156243966D01*
X80899000Y-157268234D01*
X80892000Y-157303426D01*
X80892000Y-157554974D01*
X80899000Y-157590166D01*
X80899000Y-158512834D01*
X80892000Y-158548026D01*
X80892000Y-158799574D01*
X80899000Y-158834766D01*
X80899000Y-160845500D01*
X80901440Y-160870276D01*
X80908667Y-160894101D01*
X80920403Y-160916057D01*
X80936197Y-160935303D01*
X82042000Y-162041106D01*
X82042000Y-165909750D01*
X82044440Y-165934526D01*
X82051667Y-165958351D01*
X82063403Y-165980307D01*
X82079352Y-165999707D01*
X83079346Y-166996259D01*
X83098619Y-167012020D01*
X83120596Y-167023718D01*
X83144432Y-167030904D01*
X83169432Y-167033301D01*
X100071332Y-166975018D01*
X100404239Y-167306780D01*
X100071019Y-167640000D01*
X99764516Y-167640000D01*
X99559487Y-167555074D01*
X99312774Y-167506000D01*
X99061226Y-167506000D01*
X98814513Y-167555074D01*
X98609484Y-167640000D01*
X81697606Y-167640000D01*
X80772000Y-166714394D01*
X80772000Y-155183106D01*
X80835500Y-155119606D01*
X80899000Y-155183106D01*
G37*
G04 #@! TD.AperFunction*
M02*
