G04 #@! TF.GenerationSoftware,KiCad,Pcbnew,(5.1.12)-1*
G04 #@! TF.CreationDate,2022-03-03T10:00:03+01:00*
G04 #@! TF.ProjectId,10V-DLTZ,3130562d-444c-4545-9a2e-6b696361645f,rev?*
G04 #@! TF.SameCoordinates,Original*
G04 #@! TF.FileFunction,Legend,Top*
G04 #@! TF.FilePolarity,Positive*
%FSLAX46Y46*%
G04 Gerber Fmt 4.6, Leading zero omitted, Abs format (unit mm)*
G04 Created by KiCad (PCBNEW (5.1.12)-1) date 2022-03-03 10:00:03*
%MOMM*%
%LPD*%
G01*
G04 APERTURE LIST*
%ADD10C,0.150000*%
%ADD11C,0.187500*%
%ADD12C,0.250000*%
%ADD13C,0.120000*%
G04 APERTURE END LIST*
D10*
X78122428Y-174342428D02*
X77836714Y-174542428D01*
X78122428Y-174685285D02*
X77522428Y-174685285D01*
X77522428Y-174456714D01*
X77551000Y-174399571D01*
X77579571Y-174371000D01*
X77636714Y-174342428D01*
X77722428Y-174342428D01*
X77779571Y-174371000D01*
X77808142Y-174399571D01*
X77836714Y-174456714D01*
X77836714Y-174685285D01*
X78122428Y-173999571D02*
X78093857Y-174056714D01*
X78036714Y-174085285D01*
X77522428Y-174085285D01*
D11*
X77192285Y-172182285D02*
X77692285Y-172182285D01*
X77370857Y-172932285D01*
X77978000Y-172860857D02*
X78013714Y-172896571D01*
X77978000Y-172932285D01*
X77942285Y-172896571D01*
X77978000Y-172860857D01*
X77978000Y-172932285D01*
X78478000Y-172182285D02*
X78549428Y-172182285D01*
X78620857Y-172218000D01*
X78656571Y-172253714D01*
X78692285Y-172325142D01*
X78728000Y-172468000D01*
X78728000Y-172646571D01*
X78692285Y-172789428D01*
X78656571Y-172860857D01*
X78620857Y-172896571D01*
X78549428Y-172932285D01*
X78478000Y-172932285D01*
X78406571Y-172896571D01*
X78370857Y-172860857D01*
X78335142Y-172789428D01*
X78299428Y-172646571D01*
X78299428Y-172468000D01*
X78335142Y-172325142D01*
X78370857Y-172253714D01*
X78406571Y-172218000D01*
X78478000Y-172182285D01*
D10*
X98828285Y-167216142D02*
X98914000Y-167244714D01*
X98942571Y-167273285D01*
X98971142Y-167330428D01*
X98971142Y-167416142D01*
X98942571Y-167473285D01*
X98914000Y-167501857D01*
X98856857Y-167530428D01*
X98628285Y-167530428D01*
X98628285Y-166930428D01*
X98828285Y-166930428D01*
X98885428Y-166959000D01*
X98914000Y-166987571D01*
X98942571Y-167044714D01*
X98942571Y-167101857D01*
X98914000Y-167159000D01*
X98885428Y-167187571D01*
X98828285Y-167216142D01*
X98628285Y-167216142D01*
X99171142Y-167130428D02*
X99314000Y-167530428D01*
X99456857Y-167130428D02*
X99314000Y-167530428D01*
X99256857Y-167673285D01*
X99228285Y-167701857D01*
X99171142Y-167730428D01*
X99685428Y-167530428D02*
X99685428Y-166930428D01*
X99914000Y-166930428D01*
X99971142Y-166959000D01*
X99999714Y-166987571D01*
X100028285Y-167044714D01*
X100028285Y-167130428D01*
X99999714Y-167187571D01*
X99971142Y-167216142D01*
X99914000Y-167244714D01*
X99685428Y-167244714D01*
D11*
X74906285Y-161387285D02*
X75406285Y-161387285D01*
X75084857Y-162137285D01*
X75692000Y-162065857D02*
X75727714Y-162101571D01*
X75692000Y-162137285D01*
X75656285Y-162101571D01*
X75692000Y-162065857D01*
X75692000Y-162137285D01*
X76442000Y-162137285D02*
X76013428Y-162137285D01*
X76227714Y-162137285D02*
X76227714Y-161387285D01*
X76156285Y-161494428D01*
X76084857Y-161565857D01*
X76013428Y-161601571D01*
D12*
X93853000Y-133985000D02*
X91948000Y-133985000D01*
X79629000Y-160147000D02*
X77724000Y-160147000D01*
X96139000Y-166878000D02*
X96139000Y-168783000D01*
X90424000Y-166878000D02*
X90424000Y-168783000D01*
D10*
X85914666Y-141245333D02*
X85914666Y-141645333D01*
X85914666Y-141445333D02*
X85214666Y-141445333D01*
X85314666Y-141512000D01*
X85381333Y-141578666D01*
X85414666Y-141645333D01*
X85214666Y-140812000D02*
X85214666Y-140745333D01*
X85248000Y-140678666D01*
X85281333Y-140645333D01*
X85348000Y-140612000D01*
X85481333Y-140578666D01*
X85648000Y-140578666D01*
X85781333Y-140612000D01*
X85848000Y-140645333D01*
X85881333Y-140678666D01*
X85914666Y-140745333D01*
X85914666Y-140812000D01*
X85881333Y-140878666D01*
X85848000Y-140912000D01*
X85781333Y-140945333D01*
X85648000Y-140978666D01*
X85481333Y-140978666D01*
X85348000Y-140945333D01*
X85281333Y-140912000D01*
X85248000Y-140878666D01*
X85214666Y-140812000D01*
X85214666Y-140145333D02*
X85214666Y-140078666D01*
X85248000Y-140012000D01*
X85281333Y-139978666D01*
X85348000Y-139945333D01*
X85481333Y-139912000D01*
X85648000Y-139912000D01*
X85781333Y-139945333D01*
X85848000Y-139978666D01*
X85881333Y-140012000D01*
X85914666Y-140078666D01*
X85914666Y-140145333D01*
X85881333Y-140212000D01*
X85848000Y-140245333D01*
X85781333Y-140278666D01*
X85648000Y-140312000D01*
X85481333Y-140312000D01*
X85348000Y-140278666D01*
X85281333Y-140245333D01*
X85248000Y-140212000D01*
X85214666Y-140145333D01*
X85448000Y-139612000D02*
X85914666Y-139612000D01*
X85514666Y-139612000D02*
X85481333Y-139578666D01*
X85448000Y-139512000D01*
X85448000Y-139412000D01*
X85481333Y-139345333D01*
X85548000Y-139312000D01*
X85914666Y-139312000D01*
X86191285Y-138439857D02*
X86191285Y-138868428D01*
X86191285Y-138654142D02*
X85441285Y-138654142D01*
X85548428Y-138725571D01*
X85619857Y-138797000D01*
X85655571Y-138868428D01*
X85441285Y-137975571D02*
X85441285Y-137904142D01*
X85477000Y-137832714D01*
X85512714Y-137797000D01*
X85584142Y-137761285D01*
X85727000Y-137725571D01*
X85905571Y-137725571D01*
X86048428Y-137761285D01*
X86119857Y-137797000D01*
X86155571Y-137832714D01*
X86191285Y-137904142D01*
X86191285Y-137975571D01*
X86155571Y-138047000D01*
X86119857Y-138082714D01*
X86048428Y-138118428D01*
X85905571Y-138154142D01*
X85727000Y-138154142D01*
X85584142Y-138118428D01*
X85512714Y-138082714D01*
X85477000Y-138047000D01*
X85441285Y-137975571D01*
X86191285Y-137404142D02*
X85441285Y-137404142D01*
X86191285Y-136975571D02*
X85762714Y-137297000D01*
X85441285Y-136975571D02*
X85869857Y-137404142D01*
X79656666Y-159268333D02*
X79323333Y-159268333D01*
X79723333Y-159068333D02*
X79490000Y-159768333D01*
X79256666Y-159068333D01*
X79023333Y-159068333D02*
X79023333Y-159768333D01*
X78790000Y-159268333D01*
X78556666Y-159768333D01*
X78556666Y-159068333D01*
X78223333Y-159068333D02*
X78223333Y-159768333D01*
X77956666Y-159768333D01*
X77890000Y-159735000D01*
X77856666Y-159701666D01*
X77823333Y-159635000D01*
X77823333Y-159535000D01*
X77856666Y-159468333D01*
X77890000Y-159435000D01*
X77956666Y-159401666D01*
X78223333Y-159401666D01*
X85027333Y-163029000D02*
X84994000Y-162995666D01*
X84960666Y-162929000D01*
X84960666Y-162762333D01*
X84994000Y-162695666D01*
X85027333Y-162662333D01*
X85094000Y-162629000D01*
X85160666Y-162629000D01*
X85260666Y-162662333D01*
X85660666Y-163062333D01*
X85660666Y-162629000D01*
X85027333Y-162362333D02*
X84994000Y-162329000D01*
X84960666Y-162262333D01*
X84960666Y-162095666D01*
X84994000Y-162029000D01*
X85027333Y-161995666D01*
X85094000Y-161962333D01*
X85160666Y-161962333D01*
X85260666Y-161995666D01*
X85660666Y-162395666D01*
X85660666Y-161962333D01*
X85194000Y-161662333D02*
X85660666Y-161662333D01*
X85260666Y-161662333D02*
X85227333Y-161629000D01*
X85194000Y-161562333D01*
X85194000Y-161462333D01*
X85227333Y-161395666D01*
X85294000Y-161362333D01*
X85660666Y-161362333D01*
X89545333Y-166977333D02*
X89545333Y-167310666D01*
X89345333Y-166910666D02*
X90045333Y-167144000D01*
X89345333Y-167377333D01*
X89345333Y-167610666D02*
X90045333Y-167610666D01*
X89545333Y-167844000D01*
X90045333Y-168077333D01*
X89345333Y-168077333D01*
X89345333Y-168410666D02*
X90045333Y-168410666D01*
X90045333Y-168677333D01*
X90012000Y-168744000D01*
X89978666Y-168777333D01*
X89912000Y-168810666D01*
X89812000Y-168810666D01*
X89745333Y-168777333D01*
X89712000Y-168744000D01*
X89678666Y-168677333D01*
X89678666Y-168410666D01*
X80094142Y-131803714D02*
X80122714Y-131718000D01*
X80151285Y-131689428D01*
X80208428Y-131660857D01*
X80294142Y-131660857D01*
X80351285Y-131689428D01*
X80379857Y-131718000D01*
X80408428Y-131775142D01*
X80408428Y-132003714D01*
X79808428Y-132003714D01*
X79808428Y-131803714D01*
X79837000Y-131746571D01*
X79865571Y-131718000D01*
X79922714Y-131689428D01*
X79979857Y-131689428D01*
X80037000Y-131718000D01*
X80065571Y-131746571D01*
X80094142Y-131803714D01*
X80094142Y-132003714D01*
X80008428Y-131460857D02*
X80408428Y-131318000D01*
X80008428Y-131175142D02*
X80408428Y-131318000D01*
X80551285Y-131375142D01*
X80579857Y-131403714D01*
X80608428Y-131460857D01*
X80408428Y-130946571D02*
X79808428Y-130946571D01*
X79808428Y-130718000D01*
X79837000Y-130660857D01*
X79865571Y-130632285D01*
X79922714Y-130603714D01*
X80008428Y-130603714D01*
X80065571Y-130632285D01*
X80094142Y-130660857D01*
X80122714Y-130718000D01*
X80122714Y-130946571D01*
X95260333Y-166977333D02*
X95260333Y-167310666D01*
X95060333Y-166910666D02*
X95760333Y-167144000D01*
X95060333Y-167377333D01*
X95060333Y-167610666D02*
X95760333Y-167610666D01*
X95260333Y-167844000D01*
X95760333Y-168077333D01*
X95060333Y-168077333D01*
X95060333Y-168410666D02*
X95760333Y-168410666D01*
X95760333Y-168677333D01*
X95727000Y-168744000D01*
X95693666Y-168777333D01*
X95627000Y-168810666D01*
X95527000Y-168810666D01*
X95460333Y-168777333D01*
X95427000Y-168744000D01*
X95393666Y-168677333D01*
X95393666Y-168410666D01*
X101069000Y-135571666D02*
X100669000Y-135571666D01*
X100869000Y-135571666D02*
X100869000Y-134871666D01*
X100802333Y-134971666D01*
X100735666Y-135038333D01*
X100669000Y-135071666D01*
X101369000Y-135571666D02*
X101369000Y-134871666D01*
X101769000Y-135571666D02*
X101469000Y-135171666D01*
X101769000Y-134871666D02*
X101369000Y-135271666D01*
X106939666Y-141582000D02*
X106939666Y-142048666D01*
X106773000Y-141315333D02*
X106606333Y-141815333D01*
X107039666Y-141815333D01*
X107439666Y-141348666D02*
X107506333Y-141348666D01*
X107573000Y-141382000D01*
X107606333Y-141415333D01*
X107639666Y-141482000D01*
X107673000Y-141615333D01*
X107673000Y-141782000D01*
X107639666Y-141915333D01*
X107606333Y-141982000D01*
X107573000Y-142015333D01*
X107506333Y-142048666D01*
X107439666Y-142048666D01*
X107373000Y-142015333D01*
X107339666Y-141982000D01*
X107306333Y-141915333D01*
X107273000Y-141782000D01*
X107273000Y-141615333D01*
X107306333Y-141482000D01*
X107339666Y-141415333D01*
X107373000Y-141382000D01*
X107439666Y-141348666D01*
X108106333Y-141348666D02*
X108173000Y-141348666D01*
X108239666Y-141382000D01*
X108273000Y-141415333D01*
X108306333Y-141482000D01*
X108339666Y-141615333D01*
X108339666Y-141782000D01*
X108306333Y-141915333D01*
X108273000Y-141982000D01*
X108239666Y-142015333D01*
X108173000Y-142048666D01*
X108106333Y-142048666D01*
X108039666Y-142015333D01*
X108006333Y-141982000D01*
X107973000Y-141915333D01*
X107939666Y-141782000D01*
X107939666Y-141615333D01*
X107973000Y-141482000D01*
X108006333Y-141415333D01*
X108039666Y-141382000D01*
X108106333Y-141348666D01*
X108639666Y-142048666D02*
X108639666Y-141348666D01*
X109039666Y-142048666D02*
X108739666Y-141648666D01*
X109039666Y-141348666D02*
X108639666Y-141748666D01*
X92047333Y-134863666D02*
X92380666Y-134863666D01*
X91980666Y-135063666D02*
X92214000Y-134363666D01*
X92447333Y-135063666D01*
X92680666Y-135063666D02*
X92680666Y-134363666D01*
X92914000Y-134863666D01*
X93147333Y-134363666D01*
X93147333Y-135063666D01*
X93480666Y-135063666D02*
X93480666Y-134363666D01*
X93747333Y-134363666D01*
X93814000Y-134397000D01*
X93847333Y-134430333D01*
X93880666Y-134497000D01*
X93880666Y-134597000D01*
X93847333Y-134663666D01*
X93814000Y-134697000D01*
X93747333Y-134730333D01*
X93480666Y-134730333D01*
X98102000Y-135698666D02*
X97702000Y-135698666D01*
X97902000Y-135698666D02*
X97902000Y-134998666D01*
X97835333Y-135098666D01*
X97768666Y-135165333D01*
X97702000Y-135198666D01*
X98535333Y-134998666D02*
X98602000Y-134998666D01*
X98668666Y-135032000D01*
X98702000Y-135065333D01*
X98735333Y-135132000D01*
X98768666Y-135265333D01*
X98768666Y-135432000D01*
X98735333Y-135565333D01*
X98702000Y-135632000D01*
X98668666Y-135665333D01*
X98602000Y-135698666D01*
X98535333Y-135698666D01*
X98468666Y-135665333D01*
X98435333Y-135632000D01*
X98402000Y-135565333D01*
X98368666Y-135432000D01*
X98368666Y-135265333D01*
X98402000Y-135132000D01*
X98435333Y-135065333D01*
X98468666Y-135032000D01*
X98535333Y-134998666D01*
X99068666Y-135232000D02*
X99068666Y-135698666D01*
X99068666Y-135298666D02*
X99102000Y-135265333D01*
X99168666Y-135232000D01*
X99268666Y-135232000D01*
X99335333Y-135265333D01*
X99368666Y-135332000D01*
X99368666Y-135698666D01*
X86064285Y-135723285D02*
X86064285Y-136151857D01*
X86064285Y-135937571D02*
X85314285Y-135937571D01*
X85421428Y-136009000D01*
X85492857Y-136080428D01*
X85528571Y-136151857D01*
X86064285Y-135401857D02*
X85314285Y-135401857D01*
X85850000Y-135151857D01*
X85314285Y-134901857D01*
X86064285Y-134901857D01*
X91563000Y-131924333D02*
X91596333Y-131957666D01*
X91629666Y-132057666D01*
X91629666Y-132124333D01*
X91596333Y-132224333D01*
X91529666Y-132291000D01*
X91463000Y-132324333D01*
X91329666Y-132357666D01*
X91229666Y-132357666D01*
X91096333Y-132324333D01*
X91029666Y-132291000D01*
X90963000Y-132224333D01*
X90929666Y-132124333D01*
X90929666Y-132057666D01*
X90963000Y-131957666D01*
X90996333Y-131924333D01*
X91629666Y-131524333D02*
X91596333Y-131591000D01*
X91563000Y-131624333D01*
X91496333Y-131657666D01*
X91296333Y-131657666D01*
X91229666Y-131624333D01*
X91196333Y-131591000D01*
X91163000Y-131524333D01*
X91163000Y-131424333D01*
X91196333Y-131357666D01*
X91229666Y-131324333D01*
X91296333Y-131291000D01*
X91496333Y-131291000D01*
X91563000Y-131324333D01*
X91596333Y-131357666D01*
X91629666Y-131424333D01*
X91629666Y-131524333D01*
X91163000Y-130991000D02*
X91629666Y-130991000D01*
X91229666Y-130991000D02*
X91196333Y-130957666D01*
X91163000Y-130891000D01*
X91163000Y-130791000D01*
X91196333Y-130724333D01*
X91263000Y-130691000D01*
X91629666Y-130691000D01*
X91629666Y-130057666D02*
X90929666Y-130057666D01*
X91596333Y-130057666D02*
X91629666Y-130124333D01*
X91629666Y-130257666D01*
X91596333Y-130324333D01*
X91563000Y-130357666D01*
X91496333Y-130391000D01*
X91296333Y-130391000D01*
X91229666Y-130357666D01*
X91196333Y-130324333D01*
X91163000Y-130257666D01*
X91163000Y-130124333D01*
X91196333Y-130057666D01*
X85848000Y-131841000D02*
X85881333Y-131807666D01*
X85914666Y-131841000D01*
X85881333Y-131874333D01*
X85848000Y-131841000D01*
X85914666Y-131841000D01*
X85914666Y-131141000D02*
X85914666Y-131541000D01*
X85914666Y-131341000D02*
X85214666Y-131341000D01*
X85314666Y-131407666D01*
X85381333Y-131474333D01*
X85414666Y-131541000D01*
X85448000Y-130541000D02*
X85914666Y-130541000D01*
X85448000Y-130841000D02*
X85814666Y-130841000D01*
X85881333Y-130807666D01*
X85914666Y-130741000D01*
X85914666Y-130641000D01*
X85881333Y-130574333D01*
X85848000Y-130541000D01*
D13*
X109220000Y-164211000D02*
X109220000Y-172466000D01*
X105410000Y-172466000D02*
X105410000Y-164211000D01*
X105410000Y-164211000D02*
G75*
G02*
X109220000Y-164211000I1905000J0D01*
G01*
X109220000Y-172466000D02*
G75*
G02*
X105410000Y-172466000I-1905000J0D01*
G01*
X105410000Y-164211000D02*
X105410000Y-172466000D01*
X101600000Y-172466000D02*
X101600000Y-164211000D01*
X101600000Y-164211000D02*
G75*
G02*
X105410000Y-164211000I1905000J0D01*
G01*
X105410000Y-172466000D02*
G75*
G02*
X101600000Y-172466000I-1905000J0D01*
G01*
D12*
X104783000Y-137970000D02*
X104783000Y-136370000D01*
X80129000Y-161496000D02*
X80129000Y-163096000D01*
D10*
X76025857Y-168106285D02*
X76025857Y-167356285D01*
X76454428Y-168106285D01*
X76454428Y-167356285D01*
X76954428Y-167356285D02*
X77097285Y-167356285D01*
X77168714Y-167392000D01*
X77240142Y-167463428D01*
X77275857Y-167606285D01*
X77275857Y-167856285D01*
X77240142Y-167999142D01*
X77168714Y-168070571D01*
X77097285Y-168106285D01*
X76954428Y-168106285D01*
X76883000Y-168070571D01*
X76811571Y-167999142D01*
X76775857Y-167856285D01*
X76775857Y-167606285D01*
X76811571Y-167463428D01*
X76883000Y-167392000D01*
X76954428Y-167356285D01*
X77597285Y-168106285D02*
X77597285Y-167356285D01*
X77847285Y-167892000D01*
X78097285Y-167356285D01*
X78097285Y-168106285D01*
X78883000Y-168034857D02*
X78847285Y-168070571D01*
X78740142Y-168106285D01*
X78668714Y-168106285D01*
X78561571Y-168070571D01*
X78490142Y-167999142D01*
X78454428Y-167927714D01*
X78418714Y-167784857D01*
X78418714Y-167677714D01*
X78454428Y-167534857D01*
X78490142Y-167463428D01*
X78561571Y-167392000D01*
X78668714Y-167356285D01*
X78740142Y-167356285D01*
X78847285Y-167392000D01*
X78883000Y-167427714D01*
X79597285Y-168106285D02*
X79168714Y-168106285D01*
X79383000Y-168106285D02*
X79383000Y-167356285D01*
X79311571Y-167463428D01*
X79240142Y-167534857D01*
X79168714Y-167570571D01*
X80240142Y-167356285D02*
X80097285Y-167356285D01*
X80025857Y-167392000D01*
X79990142Y-167427714D01*
X79918714Y-167534857D01*
X79883000Y-167677714D01*
X79883000Y-167963428D01*
X79918714Y-168034857D01*
X79954428Y-168070571D01*
X80025857Y-168106285D01*
X80168714Y-168106285D01*
X80240142Y-168070571D01*
X80275857Y-168034857D01*
X80311571Y-167963428D01*
X80311571Y-167784857D01*
X80275857Y-167713428D01*
X80240142Y-167677714D01*
X80168714Y-167642000D01*
X80025857Y-167642000D01*
X79954428Y-167677714D01*
X79918714Y-167713428D01*
X79883000Y-167784857D01*
X80775857Y-167356285D02*
X80847285Y-167356285D01*
X80918714Y-167392000D01*
X80954428Y-167427714D01*
X80990142Y-167499142D01*
X81025857Y-167642000D01*
X81025857Y-167820571D01*
X80990142Y-167963428D01*
X80954428Y-168034857D01*
X80918714Y-168070571D01*
X80847285Y-168106285D01*
X80775857Y-168106285D01*
X80704428Y-168070571D01*
X80668714Y-168034857D01*
X80633000Y-167963428D01*
X80597285Y-167820571D01*
X80597285Y-167642000D01*
X80633000Y-167499142D01*
X80668714Y-167427714D01*
X80704428Y-167392000D01*
X80775857Y-167356285D01*
X81275857Y-167356285D02*
X81740142Y-167356285D01*
X81490142Y-167642000D01*
X81597285Y-167642000D01*
X81668714Y-167677714D01*
X81704428Y-167713428D01*
X81740142Y-167784857D01*
X81740142Y-167963428D01*
X81704428Y-168034857D01*
X81668714Y-168070571D01*
X81597285Y-168106285D01*
X81383000Y-168106285D01*
X81311571Y-168070571D01*
X81275857Y-168034857D01*
X83025857Y-168106285D02*
X82597285Y-168106285D01*
X82811571Y-168106285D02*
X82811571Y-167356285D01*
X82740142Y-167463428D01*
X82668714Y-167534857D01*
X82597285Y-167570571D01*
X83347285Y-168106285D02*
X83347285Y-167356285D01*
X83775857Y-168106285D02*
X83454428Y-167677714D01*
X83775857Y-167356285D02*
X83347285Y-167784857D01*
X106174142Y-162137285D02*
X105924142Y-161780142D01*
X105745571Y-162137285D02*
X105745571Y-161387285D01*
X106031285Y-161387285D01*
X106102714Y-161423000D01*
X106138428Y-161458714D01*
X106174142Y-161530142D01*
X106174142Y-161637285D01*
X106138428Y-161708714D01*
X106102714Y-161744428D01*
X106031285Y-161780142D01*
X105745571Y-161780142D01*
X106817000Y-162101571D02*
X106745571Y-162137285D01*
X106602714Y-162137285D01*
X106531285Y-162101571D01*
X106495571Y-162065857D01*
X106459857Y-161994428D01*
X106459857Y-161780142D01*
X106495571Y-161708714D01*
X106531285Y-161673000D01*
X106602714Y-161637285D01*
X106745571Y-161637285D01*
X106817000Y-161673000D01*
X107245571Y-162137285D02*
X107174142Y-162101571D01*
X107138428Y-162065857D01*
X107102714Y-161994428D01*
X107102714Y-161780142D01*
X107138428Y-161708714D01*
X107174142Y-161673000D01*
X107245571Y-161637285D01*
X107352714Y-161637285D01*
X107424142Y-161673000D01*
X107459857Y-161708714D01*
X107495571Y-161780142D01*
X107495571Y-161994428D01*
X107459857Y-162065857D01*
X107424142Y-162101571D01*
X107352714Y-162137285D01*
X107245571Y-162137285D01*
X107817000Y-162137285D02*
X107817000Y-161637285D01*
X107817000Y-161708714D02*
X107852714Y-161673000D01*
X107924142Y-161637285D01*
X108031285Y-161637285D01*
X108102714Y-161673000D01*
X108138428Y-161744428D01*
X108138428Y-162137285D01*
X108138428Y-161744428D02*
X108174142Y-161673000D01*
X108245571Y-161637285D01*
X108352714Y-161637285D01*
X108424142Y-161673000D01*
X108459857Y-161744428D01*
X108459857Y-162137285D01*
X108817000Y-161637285D02*
X108817000Y-162387285D01*
X108817000Y-161673000D02*
X108888428Y-161637285D01*
X109031285Y-161637285D01*
X109102714Y-161673000D01*
X109138428Y-161708714D01*
X109174142Y-161780142D01*
X109174142Y-161994428D01*
X109138428Y-162065857D01*
X109102714Y-162101571D01*
X109031285Y-162137285D01*
X108888428Y-162137285D01*
X108817000Y-162101571D01*
X78977685Y-143023742D02*
X78227685Y-143023742D01*
X78977685Y-142595171D01*
X78227685Y-142595171D01*
X78227685Y-142095171D02*
X78227685Y-141952314D01*
X78263400Y-141880885D01*
X78334828Y-141809457D01*
X78477685Y-141773742D01*
X78727685Y-141773742D01*
X78870542Y-141809457D01*
X78941971Y-141880885D01*
X78977685Y-141952314D01*
X78977685Y-142095171D01*
X78941971Y-142166600D01*
X78870542Y-142238028D01*
X78727685Y-142273742D01*
X78477685Y-142273742D01*
X78334828Y-142238028D01*
X78263400Y-142166600D01*
X78227685Y-142095171D01*
X78977685Y-141452314D02*
X78227685Y-141452314D01*
X78763400Y-141202314D01*
X78227685Y-140952314D01*
X78977685Y-140952314D01*
X78906257Y-140166600D02*
X78941971Y-140202314D01*
X78977685Y-140309457D01*
X78977685Y-140380885D01*
X78941971Y-140488028D01*
X78870542Y-140559457D01*
X78799114Y-140595171D01*
X78656257Y-140630885D01*
X78549114Y-140630885D01*
X78406257Y-140595171D01*
X78334828Y-140559457D01*
X78263400Y-140488028D01*
X78227685Y-140380885D01*
X78227685Y-140309457D01*
X78263400Y-140202314D01*
X78299114Y-140166600D01*
X78977685Y-139452314D02*
X78977685Y-139880885D01*
X78977685Y-139666600D02*
X78227685Y-139666600D01*
X78334828Y-139738028D01*
X78406257Y-139809457D01*
X78441971Y-139880885D01*
X78227685Y-138809457D02*
X78227685Y-138952314D01*
X78263400Y-139023742D01*
X78299114Y-139059457D01*
X78406257Y-139130885D01*
X78549114Y-139166600D01*
X78834828Y-139166600D01*
X78906257Y-139130885D01*
X78941971Y-139095171D01*
X78977685Y-139023742D01*
X78977685Y-138880885D01*
X78941971Y-138809457D01*
X78906257Y-138773742D01*
X78834828Y-138738028D01*
X78656257Y-138738028D01*
X78584828Y-138773742D01*
X78549114Y-138809457D01*
X78513400Y-138880885D01*
X78513400Y-139023742D01*
X78549114Y-139095171D01*
X78584828Y-139130885D01*
X78656257Y-139166600D01*
X78227685Y-138273742D02*
X78227685Y-138202314D01*
X78263400Y-138130885D01*
X78299114Y-138095171D01*
X78370542Y-138059457D01*
X78513400Y-138023742D01*
X78691971Y-138023742D01*
X78834828Y-138059457D01*
X78906257Y-138095171D01*
X78941971Y-138130885D01*
X78977685Y-138202314D01*
X78977685Y-138273742D01*
X78941971Y-138345171D01*
X78906257Y-138380885D01*
X78834828Y-138416600D01*
X78691971Y-138452314D01*
X78513400Y-138452314D01*
X78370542Y-138416600D01*
X78299114Y-138380885D01*
X78263400Y-138345171D01*
X78227685Y-138273742D01*
X78227685Y-137773742D02*
X78227685Y-137309457D01*
X78513400Y-137559457D01*
X78513400Y-137452314D01*
X78549114Y-137380885D01*
X78584828Y-137345171D01*
X78656257Y-137309457D01*
X78834828Y-137309457D01*
X78906257Y-137345171D01*
X78941971Y-137380885D01*
X78977685Y-137452314D01*
X78977685Y-137666600D01*
X78941971Y-137738028D01*
X78906257Y-137773742D01*
X78299114Y-136452314D02*
X78263400Y-136416600D01*
X78227685Y-136345171D01*
X78227685Y-136166600D01*
X78263400Y-136095171D01*
X78299114Y-136059457D01*
X78370542Y-136023742D01*
X78441971Y-136023742D01*
X78549114Y-136059457D01*
X78977685Y-136488028D01*
X78977685Y-136023742D01*
X78977685Y-135702314D02*
X78227685Y-135702314D01*
X78977685Y-135273742D02*
X78549114Y-135595171D01*
X78227685Y-135273742D02*
X78656257Y-135702314D01*
X79003085Y-154228228D02*
X78253085Y-154228228D01*
X79003085Y-153799657D01*
X78253085Y-153799657D01*
X78253085Y-153299657D02*
X78253085Y-153156800D01*
X78288800Y-153085371D01*
X78360228Y-153013942D01*
X78503085Y-152978228D01*
X78753085Y-152978228D01*
X78895942Y-153013942D01*
X78967371Y-153085371D01*
X79003085Y-153156800D01*
X79003085Y-153299657D01*
X78967371Y-153371085D01*
X78895942Y-153442514D01*
X78753085Y-153478228D01*
X78503085Y-153478228D01*
X78360228Y-153442514D01*
X78288800Y-153371085D01*
X78253085Y-153299657D01*
X79003085Y-152656800D02*
X78253085Y-152656800D01*
X78788800Y-152406800D01*
X78253085Y-152156800D01*
X79003085Y-152156800D01*
X78931657Y-151371085D02*
X78967371Y-151406800D01*
X79003085Y-151513942D01*
X79003085Y-151585371D01*
X78967371Y-151692514D01*
X78895942Y-151763942D01*
X78824514Y-151799657D01*
X78681657Y-151835371D01*
X78574514Y-151835371D01*
X78431657Y-151799657D01*
X78360228Y-151763942D01*
X78288800Y-151692514D01*
X78253085Y-151585371D01*
X78253085Y-151513942D01*
X78288800Y-151406800D01*
X78324514Y-151371085D01*
X79003085Y-150656800D02*
X79003085Y-151085371D01*
X79003085Y-150871085D02*
X78253085Y-150871085D01*
X78360228Y-150942514D01*
X78431657Y-151013942D01*
X78467371Y-151085371D01*
X78253085Y-150013942D02*
X78253085Y-150156800D01*
X78288800Y-150228228D01*
X78324514Y-150263942D01*
X78431657Y-150335371D01*
X78574514Y-150371085D01*
X78860228Y-150371085D01*
X78931657Y-150335371D01*
X78967371Y-150299657D01*
X79003085Y-150228228D01*
X79003085Y-150085371D01*
X78967371Y-150013942D01*
X78931657Y-149978228D01*
X78860228Y-149942514D01*
X78681657Y-149942514D01*
X78610228Y-149978228D01*
X78574514Y-150013942D01*
X78538800Y-150085371D01*
X78538800Y-150228228D01*
X78574514Y-150299657D01*
X78610228Y-150335371D01*
X78681657Y-150371085D01*
X78253085Y-149478228D02*
X78253085Y-149406800D01*
X78288800Y-149335371D01*
X78324514Y-149299657D01*
X78395942Y-149263942D01*
X78538800Y-149228228D01*
X78717371Y-149228228D01*
X78860228Y-149263942D01*
X78931657Y-149299657D01*
X78967371Y-149335371D01*
X79003085Y-149406800D01*
X79003085Y-149478228D01*
X78967371Y-149549657D01*
X78931657Y-149585371D01*
X78860228Y-149621085D01*
X78717371Y-149656800D01*
X78538800Y-149656800D01*
X78395942Y-149621085D01*
X78324514Y-149585371D01*
X78288800Y-149549657D01*
X78253085Y-149478228D01*
X78253085Y-148978228D02*
X78253085Y-148513942D01*
X78538800Y-148763942D01*
X78538800Y-148656800D01*
X78574514Y-148585371D01*
X78610228Y-148549657D01*
X78681657Y-148513942D01*
X78860228Y-148513942D01*
X78931657Y-148549657D01*
X78967371Y-148585371D01*
X79003085Y-148656800D01*
X79003085Y-148871085D01*
X78967371Y-148942514D01*
X78931657Y-148978228D01*
X79003085Y-147228228D02*
X79003085Y-147656800D01*
X79003085Y-147442514D02*
X78253085Y-147442514D01*
X78360228Y-147513942D01*
X78431657Y-147585371D01*
X78467371Y-147656800D01*
X78253085Y-146763942D02*
X78253085Y-146692514D01*
X78288800Y-146621085D01*
X78324514Y-146585371D01*
X78395942Y-146549657D01*
X78538800Y-146513942D01*
X78717371Y-146513942D01*
X78860228Y-146549657D01*
X78931657Y-146585371D01*
X78967371Y-146621085D01*
X79003085Y-146692514D01*
X79003085Y-146763942D01*
X78967371Y-146835371D01*
X78931657Y-146871085D01*
X78860228Y-146906800D01*
X78717371Y-146942514D01*
X78538800Y-146942514D01*
X78395942Y-146906800D01*
X78324514Y-146871085D01*
X78288800Y-146835371D01*
X78253085Y-146763942D01*
X78253085Y-146049657D02*
X78253085Y-145978228D01*
X78288800Y-145906800D01*
X78324514Y-145871085D01*
X78395942Y-145835371D01*
X78538800Y-145799657D01*
X78717371Y-145799657D01*
X78860228Y-145835371D01*
X78931657Y-145871085D01*
X78967371Y-145906800D01*
X79003085Y-145978228D01*
X79003085Y-146049657D01*
X78967371Y-146121085D01*
X78931657Y-146156800D01*
X78860228Y-146192514D01*
X78717371Y-146228228D01*
X78538800Y-146228228D01*
X78395942Y-146192514D01*
X78324514Y-146156800D01*
X78288800Y-146121085D01*
X78253085Y-146049657D01*
X79003085Y-145478228D02*
X78253085Y-145478228D01*
X79003085Y-145049657D02*
X78574514Y-145371085D01*
X78253085Y-145049657D02*
X78681657Y-145478228D01*
X103098285Y-162137285D02*
X102848285Y-161780142D01*
X102669714Y-162137285D02*
X102669714Y-161387285D01*
X102955428Y-161387285D01*
X103026857Y-161423000D01*
X103062571Y-161458714D01*
X103098285Y-161530142D01*
X103098285Y-161637285D01*
X103062571Y-161708714D01*
X103026857Y-161744428D01*
X102955428Y-161780142D01*
X102669714Y-161780142D01*
X103741142Y-162101571D02*
X103669714Y-162137285D01*
X103526857Y-162137285D01*
X103455428Y-162101571D01*
X103419714Y-162065857D01*
X103384000Y-161994428D01*
X103384000Y-161780142D01*
X103419714Y-161708714D01*
X103455428Y-161673000D01*
X103526857Y-161637285D01*
X103669714Y-161637285D01*
X103741142Y-161673000D01*
X104384000Y-161637285D02*
X104384000Y-162137285D01*
X104062571Y-161637285D02*
X104062571Y-162030142D01*
X104098285Y-162101571D01*
X104169714Y-162137285D01*
X104276857Y-162137285D01*
X104348285Y-162101571D01*
X104384000Y-162065857D01*
X104741142Y-162137285D02*
X104741142Y-161637285D01*
X104741142Y-161780142D02*
X104776857Y-161708714D01*
X104812571Y-161673000D01*
X104884000Y-161637285D01*
X104955428Y-161637285D01*
M02*
