M48
; DRILL file {KiCad (5.1.12)-1} date 03/03/22 10:00:01
; FORMAT={-:-/ absolute / inch / decimal}
; #@! TF.CreationDate,2022-03-03T10:00:01+01:00
; #@! TF.GenerationSoftware,Kicad,Pcbnew,(5.1.12)-1
; #@! TF.FileFunction,Plated,1,4,PTH
FMAT,2
INCH
T1C0.0157
T2C0.0300
T3C0.0354
T4C0.0394
%
G90
G05
T1
X2.885Y-5.085
X2.885Y-5.155
X2.885Y-5.235
X2.885Y-5.315
X2.885Y-5.395
X2.885Y-5.48
X2.885Y-5.56
X2.885Y-5.645
X2.885Y-5.735
X2.885Y-5.815
X2.885Y-5.905
X2.885Y-5.985
X2.885Y-6.065
X2.885Y-6.145
X2.885Y-6.23
X2.885Y-6.315
X2.885Y-6.395
X2.885Y-6.48
X2.885Y-6.565
X2.885Y-6.65
X2.885Y-6.73
X2.885Y-6.825
X2.895Y-5.01
X2.895Y-6.89
X2.925Y-4.96
X2.935Y-6.94
X2.955Y-6.765
X2.96Y-6.45
X2.975Y-4.925
X2.985Y-6.975
X3.021Y-6.2459
X3.03Y-4.91
X3.055Y-6.98
X3.055Y-6.98
X3.09Y-4.91
X3.095Y-5.13
X3.14Y-6.98
X3.155Y-4.91
X3.155Y-6.85
X3.185Y-6.105
X3.205Y-6.395
X3.215Y-5.22
X3.22Y-6.98
X3.225Y-4.91
X3.23Y-5.455
X3.23Y-5.867
X3.23Y-6.0675
X3.235Y-6.145
X3.235Y-6.198
X3.235Y-6.247
X3.3Y-6.98
X3.305Y-4.91
X3.385Y-4.91
X3.385Y-6.98
X3.3975Y-6.475
X3.415Y-5.495
X3.43Y-5.165
X3.46Y-4.91
X3.465Y-6.98
X3.4975Y-6.74
X3.515Y-5.43
X3.535Y-4.91
X3.545Y-6.98
X3.5525Y-5.38
X3.615Y-4.91
X3.63Y-6.475
X3.63Y-6.98
X3.68Y-6.505
X3.695Y-4.91
X3.715Y-6.98
X3.73Y-6.74
X3.755Y-5.33
X3.78Y-4.91
X3.8Y-6.98
X3.87Y-4.91
X3.88Y-6.98
X3.905Y-6.46
X3.905Y-6.645
X3.94Y-5.804
X3.945Y-5.09
X3.945Y-5.15
X3.95Y-4.91
X3.97Y-6.98
X4.01Y-5.09
X4.01Y-5.15
X4.035Y-4.91
X4.035Y-5.71
X4.045Y-6.98
X4.06Y-5.415
X4.075Y-5.03
X4.075Y-5.09
X4.075Y-5.15
X4.1025Y-5.64
X4.11Y-4.91
X4.125Y-6.98
X4.145Y-5.03
X4.145Y-5.0882
X4.145Y-5.15
X4.19Y-4.91
X4.19Y-6.98
X4.21Y-5.03
X4.21Y-5.09
X4.21Y-5.15
X4.2159Y-5.4
X4.24Y-5.3
X4.245Y-4.925
X4.25Y-6.965
X4.255Y-5.49
X4.2681Y-5.6719
X4.29Y-4.955
X4.3Y-6.93
X4.325Y-5.0
X4.33Y-6.88
X4.34Y-5.059
X4.34Y-5.14
X4.34Y-5.225
X4.34Y-5.305
X4.34Y-5.39
X4.34Y-5.47
X4.34Y-5.555
X4.34Y-5.635
X4.34Y-5.715
X4.34Y-5.805
X4.34Y-5.89
X4.34Y-5.97
X4.34Y-6.055
X4.34Y-6.14
X4.34Y-6.225
X4.34Y-6.31
X4.34Y-6.39
X4.34Y-6.47
X4.34Y-6.55
X4.34Y-6.635
X4.34Y-6.72
X4.34Y-6.81
T2
X3.706Y-5.937
X3.7353Y-5.8663
X3.7353Y-6.0077
X3.806Y-5.837
X3.806Y-6.037
X3.8767Y-5.8663
X3.8767Y-6.0077
X3.906Y-5.937
T3
X3.26Y-4.99
X3.26Y-6.89
X3.36Y-4.99
X3.36Y-6.89
X3.46Y-4.99
X3.46Y-6.89
X3.56Y-4.99
X3.56Y-6.89
X3.66Y-4.99
X3.66Y-6.89
X3.76Y-4.99
X3.76Y-6.89
X3.86Y-4.99
X3.86Y-6.89
X3.96Y-4.99
X3.96Y-6.89
T4
X4.075Y-6.465
X4.225Y-6.465
T4
G00X4.075Y-6.5733
M15
G01X4.075Y-6.7898
M16
G05
G00X4.225Y-6.5733
M15
G01X4.225Y-6.7898
M16
G05
T0
M30
