G04 #@! TF.GenerationSoftware,KiCad,Pcbnew,(5.1.12)-1*
G04 #@! TF.CreationDate,2022-03-03T10:00:03+01:00*
G04 #@! TF.ProjectId,10V-DLTZ,3130562d-444c-4545-9a2e-6b696361645f,rev?*
G04 #@! TF.SameCoordinates,Original*
G04 #@! TF.FileFunction,Legend,Bot*
G04 #@! TF.FilePolarity,Positive*
%FSLAX46Y46*%
G04 Gerber Fmt 4.6, Leading zero omitted, Abs format (unit mm)*
G04 Created by KiCad (PCBNEW (5.1.12)-1) date 2022-03-03 10:00:03*
%MOMM*%
%LPD*%
G01*
G04 APERTURE LIST*
%ADD10C,0.150000*%
%ADD11C,0.300000*%
%ADD12C,0.010000*%
G04 APERTURE END LIST*
D10*
X89775491Y-133008619D02*
X90317157Y-132008619D01*
X90442157Y-133008619D02*
X89650491Y-132008619D01*
X90727872Y-133008619D02*
X91394538Y-133008619D01*
X90840967Y-132008619D01*
X91965967Y-133008619D02*
X92061205Y-133008619D01*
X92150491Y-132961000D01*
X92192157Y-132913380D01*
X92227872Y-132818142D01*
X92251681Y-132627666D01*
X92221919Y-132389571D01*
X92150491Y-132199095D01*
X92090967Y-132103857D01*
X92037395Y-132056238D01*
X91936205Y-132008619D01*
X91840967Y-132008619D01*
X91751681Y-132056238D01*
X91710014Y-132103857D01*
X91674300Y-132199095D01*
X91650491Y-132389571D01*
X91680252Y-132627666D01*
X91751681Y-132818142D01*
X91811205Y-132913380D01*
X91864776Y-132961000D01*
X91965967Y-133008619D01*
X92918348Y-133008619D02*
X93013586Y-133008619D01*
X93102872Y-132961000D01*
X93144538Y-132913380D01*
X93180252Y-132818142D01*
X93204062Y-132627666D01*
X93174300Y-132389571D01*
X93102872Y-132199095D01*
X93043348Y-132103857D01*
X92989776Y-132056238D01*
X92888586Y-132008619D01*
X92793348Y-132008619D01*
X92704062Y-132056238D01*
X92662395Y-132103857D01*
X92626681Y-132199095D01*
X92602872Y-132389571D01*
X92632633Y-132627666D01*
X92704062Y-132818142D01*
X92763586Y-132913380D01*
X92817157Y-132961000D01*
X92918348Y-133008619D01*
X93870729Y-133008619D02*
X93965967Y-133008619D01*
X94055252Y-132961000D01*
X94096919Y-132913380D01*
X94132633Y-132818142D01*
X94156443Y-132627666D01*
X94126681Y-132389571D01*
X94055252Y-132199095D01*
X93995729Y-132103857D01*
X93942157Y-132056238D01*
X93840967Y-132008619D01*
X93745729Y-132008619D01*
X93656443Y-132056238D01*
X93614776Y-132103857D01*
X93579062Y-132199095D01*
X93555252Y-132389571D01*
X93585014Y-132627666D01*
X93656443Y-132818142D01*
X93715967Y-132913380D01*
X93769538Y-132961000D01*
X93870729Y-133008619D01*
X95745729Y-132008619D02*
X95269538Y-132008619D01*
X95394538Y-133008619D01*
X96061205Y-133008619D02*
X96632633Y-133008619D01*
X96221919Y-132008619D02*
X96346919Y-133008619D01*
X96870729Y-133008619D02*
X97537395Y-133008619D01*
X96745729Y-132008619D01*
X97412395Y-132008619D01*
X98192157Y-132532428D02*
X98329062Y-132484809D01*
X98370729Y-132437190D01*
X98406443Y-132341952D01*
X98388586Y-132199095D01*
X98329062Y-132103857D01*
X98275491Y-132056238D01*
X98174300Y-132008619D01*
X97793348Y-132008619D01*
X97918348Y-133008619D01*
X98251681Y-133008619D01*
X98340967Y-132961000D01*
X98382633Y-132913380D01*
X98418348Y-132818142D01*
X98406443Y-132722904D01*
X98346919Y-132627666D01*
X98293348Y-132580047D01*
X98192157Y-132532428D01*
X97858824Y-132532428D01*
X98936205Y-132008619D02*
X98846919Y-132056238D01*
X98805252Y-132103857D01*
X98769538Y-132199095D01*
X98805252Y-132484809D01*
X98864776Y-132580047D01*
X98918348Y-132627666D01*
X99019538Y-132675285D01*
X99162395Y-132675285D01*
X99251681Y-132627666D01*
X99293348Y-132580047D01*
X99329062Y-132484809D01*
X99293348Y-132199095D01*
X99233824Y-132103857D01*
X99180252Y-132056238D01*
X99079062Y-132008619D01*
X98936205Y-132008619D01*
X100126681Y-132008619D02*
X100192157Y-132532428D01*
X100156443Y-132627666D01*
X100067157Y-132675285D01*
X99876681Y-132675285D01*
X99775491Y-132627666D01*
X100132633Y-132056238D02*
X100031443Y-132008619D01*
X99793348Y-132008619D01*
X99704062Y-132056238D01*
X99668348Y-132151476D01*
X99680252Y-132246714D01*
X99739776Y-132341952D01*
X99840967Y-132389571D01*
X100079062Y-132389571D01*
X100180252Y-132437190D01*
X100602872Y-132008619D02*
X100686205Y-132675285D01*
X100662395Y-132484809D02*
X100721919Y-132580047D01*
X100775491Y-132627666D01*
X100876681Y-132675285D01*
X100971919Y-132675285D01*
X101650491Y-132008619D02*
X101775491Y-133008619D01*
X101656443Y-132056238D02*
X101555252Y-132008619D01*
X101364776Y-132008619D01*
X101275491Y-132056238D01*
X101233824Y-132103857D01*
X101198110Y-132199095D01*
X101233824Y-132484809D01*
X101293348Y-132580047D01*
X101346919Y-132627666D01*
X101448110Y-132675285D01*
X101638586Y-132675285D01*
X101727872Y-132627666D01*
X103460014Y-132008619D02*
X103186205Y-132484809D01*
X102888586Y-132008619D02*
X103013586Y-133008619D01*
X103394538Y-133008619D01*
X103483824Y-132961000D01*
X103525491Y-132913380D01*
X103561205Y-132818142D01*
X103543348Y-132675285D01*
X103483824Y-132580047D01*
X103430252Y-132532428D01*
X103329062Y-132484809D01*
X102948110Y-132484809D01*
X104275491Y-132056238D02*
X104174300Y-132008619D01*
X103983824Y-132008619D01*
X103894538Y-132056238D01*
X103858824Y-132151476D01*
X103906443Y-132532428D01*
X103965967Y-132627666D01*
X104067157Y-132675285D01*
X104257633Y-132675285D01*
X104346919Y-132627666D01*
X104382633Y-132532428D01*
X104370729Y-132437190D01*
X103882633Y-132341952D01*
X104733824Y-132675285D02*
X104888586Y-132008619D01*
X105210014Y-132675285D01*
X106585014Y-133008619D02*
X106680252Y-133008619D01*
X106769538Y-132961000D01*
X106811205Y-132913380D01*
X106846919Y-132818142D01*
X106870729Y-132627666D01*
X106840967Y-132389571D01*
X106769538Y-132199095D01*
X106710014Y-132103857D01*
X106656443Y-132056238D01*
X106555252Y-132008619D01*
X106460014Y-132008619D01*
X106370729Y-132056238D01*
X106329062Y-132103857D01*
X106293348Y-132199095D01*
X106269538Y-132389571D01*
X106299300Y-132627666D01*
X106370729Y-132818142D01*
X106430252Y-132913380D01*
X106483824Y-132961000D01*
X106585014Y-133008619D01*
X107233824Y-132103857D02*
X107275491Y-132056238D01*
X107221919Y-132008619D01*
X107180252Y-132056238D01*
X107233824Y-132103857D01*
X107221919Y-132008619D01*
X107763586Y-132913380D02*
X107817157Y-132961000D01*
X107918348Y-133008619D01*
X108156443Y-133008619D01*
X108245729Y-132961000D01*
X108287395Y-132913380D01*
X108323110Y-132818142D01*
X108311205Y-132722904D01*
X108245729Y-132580047D01*
X107602872Y-132008619D01*
X108221919Y-132008619D01*
D11*
X93980000Y-148082000D02*
G75*
G03*
X93980000Y-148082000I-127000J0D01*
G01*
D12*
G36*
X92882720Y-131109720D02*
G01*
X91442529Y-131109720D01*
X91385384Y-131338163D01*
X91369117Y-131403622D01*
X91354651Y-131462652D01*
X91342683Y-131512347D01*
X91333907Y-131549801D01*
X91329019Y-131572108D01*
X91328240Y-131576923D01*
X91338271Y-131579142D01*
X91368387Y-131581092D01*
X91418616Y-131582773D01*
X91488989Y-131584186D01*
X91579536Y-131585330D01*
X91690287Y-131586207D01*
X91821273Y-131586816D01*
X91972523Y-131587158D01*
X92105480Y-131587240D01*
X92882720Y-131587240D01*
X92882720Y-131109720D01*
G37*
X92882720Y-131109720D02*
X91442529Y-131109720D01*
X91385384Y-131338163D01*
X91369117Y-131403622D01*
X91354651Y-131462652D01*
X91342683Y-131512347D01*
X91333907Y-131549801D01*
X91329019Y-131572108D01*
X91328240Y-131576923D01*
X91338271Y-131579142D01*
X91368387Y-131581092D01*
X91418616Y-131582773D01*
X91488989Y-131584186D01*
X91579536Y-131585330D01*
X91690287Y-131586207D01*
X91821273Y-131586816D01*
X91972523Y-131587158D01*
X92105480Y-131587240D01*
X92882720Y-131587240D01*
X92882720Y-131109720D01*
G36*
X93187520Y-130114040D02*
G01*
X91694783Y-130114040D01*
X91684745Y-130152140D01*
X91679216Y-130173634D01*
X91669707Y-130211130D01*
X91657155Y-130260917D01*
X91642496Y-130319279D01*
X91626666Y-130382505D01*
X91624568Y-130390900D01*
X91574428Y-130591560D01*
X93187520Y-130591560D01*
X93187520Y-130114040D01*
G37*
X93187520Y-130114040D02*
X91694783Y-130114040D01*
X91684745Y-130152140D01*
X91679216Y-130173634D01*
X91669707Y-130211130D01*
X91657155Y-130260917D01*
X91642496Y-130319279D01*
X91626666Y-130382505D01*
X91624568Y-130390900D01*
X91574428Y-130591560D01*
X93187520Y-130591560D01*
X93187520Y-130114040D01*
G36*
X95572580Y-130122367D02*
G01*
X95639726Y-130120926D01*
X95690037Y-130119317D01*
X95726998Y-130117100D01*
X95754090Y-130113834D01*
X95774798Y-130109078D01*
X95792605Y-130102390D01*
X95810995Y-130093330D01*
X95813880Y-130091813D01*
X95873061Y-130051842D01*
X95919046Y-130003025D01*
X95950981Y-129948287D01*
X95968011Y-129890549D01*
X95969282Y-129832736D01*
X95953939Y-129777770D01*
X95921129Y-129728575D01*
X95920303Y-129727686D01*
X95899448Y-129704629D01*
X95891997Y-129692599D01*
X95897219Y-129688021D01*
X95912047Y-129687320D01*
X95943006Y-129679737D01*
X95979810Y-129659702D01*
X96016479Y-129631294D01*
X96047037Y-129598590D01*
X96051803Y-129592016D01*
X96084586Y-129527686D01*
X96099533Y-129459098D01*
X96097687Y-129389521D01*
X96080087Y-129322220D01*
X96047776Y-129260462D01*
X96001793Y-129207512D01*
X95943180Y-129166638D01*
X95911755Y-129152599D01*
X95892638Y-129146673D01*
X95868742Y-129142008D01*
X95837263Y-129138395D01*
X95795393Y-129135621D01*
X95740327Y-129133477D01*
X95669258Y-129131752D01*
X95623380Y-129130922D01*
X95382080Y-129126909D01*
X95382080Y-129565400D01*
X95595440Y-129565400D01*
X95595440Y-129321560D01*
X95689420Y-129321784D01*
X95745655Y-129323490D01*
X95787192Y-129328806D01*
X95819454Y-129338495D01*
X95824810Y-129340815D01*
X95864285Y-129367857D01*
X95883230Y-129395467D01*
X95897153Y-129432410D01*
X95897669Y-129462476D01*
X95884491Y-129494306D01*
X95879659Y-129502512D01*
X95857839Y-129529381D01*
X95828408Y-129547925D01*
X95787952Y-129559290D01*
X95733055Y-129564621D01*
X95692286Y-129565400D01*
X95595440Y-129565400D01*
X95382080Y-129565400D01*
X95382080Y-129738120D01*
X95595440Y-129738120D01*
X95646744Y-129738120D01*
X95683132Y-129741031D01*
X95715666Y-129748384D01*
X95726046Y-129752599D01*
X95755303Y-129777861D01*
X95774152Y-129813925D01*
X95778320Y-129840038D01*
X95771838Y-129859665D01*
X95755663Y-129884603D01*
X95749350Y-129892143D01*
X95730064Y-129910895D01*
X95709779Y-129921518D01*
X95680974Y-129927049D01*
X95657910Y-129929084D01*
X95595440Y-129933603D01*
X95595440Y-129738120D01*
X95382080Y-129738120D01*
X95382080Y-130126104D01*
X95572580Y-130122367D01*
G37*
X95572580Y-130122367D02*
X95639726Y-130120926D01*
X95690037Y-130119317D01*
X95726998Y-130117100D01*
X95754090Y-130113834D01*
X95774798Y-130109078D01*
X95792605Y-130102390D01*
X95810995Y-130093330D01*
X95813880Y-130091813D01*
X95873061Y-130051842D01*
X95919046Y-130003025D01*
X95950981Y-129948287D01*
X95968011Y-129890549D01*
X95969282Y-129832736D01*
X95953939Y-129777770D01*
X95921129Y-129728575D01*
X95920303Y-129727686D01*
X95899448Y-129704629D01*
X95891997Y-129692599D01*
X95897219Y-129688021D01*
X95912047Y-129687320D01*
X95943006Y-129679737D01*
X95979810Y-129659702D01*
X96016479Y-129631294D01*
X96047037Y-129598590D01*
X96051803Y-129592016D01*
X96084586Y-129527686D01*
X96099533Y-129459098D01*
X96097687Y-129389521D01*
X96080087Y-129322220D01*
X96047776Y-129260462D01*
X96001793Y-129207512D01*
X95943180Y-129166638D01*
X95911755Y-129152599D01*
X95892638Y-129146673D01*
X95868742Y-129142008D01*
X95837263Y-129138395D01*
X95795393Y-129135621D01*
X95740327Y-129133477D01*
X95669258Y-129131752D01*
X95623380Y-129130922D01*
X95382080Y-129126909D01*
X95382080Y-129565400D01*
X95595440Y-129565400D01*
X95595440Y-129321560D01*
X95689420Y-129321784D01*
X95745655Y-129323490D01*
X95787192Y-129328806D01*
X95819454Y-129338495D01*
X95824810Y-129340815D01*
X95864285Y-129367857D01*
X95883230Y-129395467D01*
X95897153Y-129432410D01*
X95897669Y-129462476D01*
X95884491Y-129494306D01*
X95879659Y-129502512D01*
X95857839Y-129529381D01*
X95828408Y-129547925D01*
X95787952Y-129559290D01*
X95733055Y-129564621D01*
X95692286Y-129565400D01*
X95595440Y-129565400D01*
X95382080Y-129565400D01*
X95382080Y-129738120D01*
X95595440Y-129738120D01*
X95646744Y-129738120D01*
X95683132Y-129741031D01*
X95715666Y-129748384D01*
X95726046Y-129752599D01*
X95755303Y-129777861D01*
X95774152Y-129813925D01*
X95778320Y-129840038D01*
X95771838Y-129859665D01*
X95755663Y-129884603D01*
X95749350Y-129892143D01*
X95730064Y-129910895D01*
X95709779Y-129921518D01*
X95680974Y-129927049D01*
X95657910Y-129929084D01*
X95595440Y-129933603D01*
X95595440Y-129738120D01*
X95382080Y-129738120D01*
X95382080Y-130126104D01*
X95572580Y-130122367D01*
G36*
X94773353Y-130146252D02*
G01*
X94785384Y-130124429D01*
X94796610Y-130101340D01*
X94806881Y-130079722D01*
X94824898Y-130042385D01*
X94849434Y-129991847D01*
X94879266Y-129930622D01*
X94913167Y-129861226D01*
X94949912Y-129786174D01*
X94980960Y-129722880D01*
X95021410Y-129640381D01*
X95062012Y-129557370D01*
X95101139Y-129477186D01*
X95137166Y-129403170D01*
X95168465Y-129338659D01*
X95193411Y-129286995D01*
X95204849Y-129263140D01*
X95269115Y-129128520D01*
X95038239Y-129128520D01*
X95009499Y-129199515D01*
X94980760Y-129270510D01*
X94557444Y-129270760D01*
X94494244Y-129128520D01*
X94265684Y-129128520D01*
X94329945Y-129263140D01*
X94351734Y-129308524D01*
X94380573Y-129368198D01*
X94414545Y-129438216D01*
X94417106Y-129443480D01*
X94641444Y-129443480D01*
X94893042Y-129443480D01*
X94834968Y-129566443D01*
X94813015Y-129611640D01*
X94793574Y-129649282D01*
X94778474Y-129675997D01*
X94769546Y-129688411D01*
X94768524Y-129688888D01*
X94761255Y-129680057D01*
X94747211Y-129656228D01*
X94728261Y-129620794D01*
X94706273Y-129577148D01*
X94700799Y-129565926D01*
X94641444Y-129443480D01*
X94417106Y-129443480D01*
X94451733Y-129514636D01*
X94490220Y-129593511D01*
X94528088Y-129670897D01*
X94528669Y-129672080D01*
X94565462Y-129747281D01*
X94601951Y-129822112D01*
X94636436Y-129893071D01*
X94667219Y-129956653D01*
X94692600Y-130009354D01*
X94710878Y-130047672D01*
X94712233Y-130050540D01*
X94732171Y-130091903D01*
X94749190Y-130125485D01*
X94761368Y-130147608D01*
X94766609Y-130154680D01*
X94773353Y-130146252D01*
G37*
X94773353Y-130146252D02*
X94785384Y-130124429D01*
X94796610Y-130101340D01*
X94806881Y-130079722D01*
X94824898Y-130042385D01*
X94849434Y-129991847D01*
X94879266Y-129930622D01*
X94913167Y-129861226D01*
X94949912Y-129786174D01*
X94980960Y-129722880D01*
X95021410Y-129640381D01*
X95062012Y-129557370D01*
X95101139Y-129477186D01*
X95137166Y-129403170D01*
X95168465Y-129338659D01*
X95193411Y-129286995D01*
X95204849Y-129263140D01*
X95269115Y-129128520D01*
X95038239Y-129128520D01*
X95009499Y-129199515D01*
X94980760Y-129270510D01*
X94557444Y-129270760D01*
X94494244Y-129128520D01*
X94265684Y-129128520D01*
X94329945Y-129263140D01*
X94351734Y-129308524D01*
X94380573Y-129368198D01*
X94414545Y-129438216D01*
X94417106Y-129443480D01*
X94641444Y-129443480D01*
X94893042Y-129443480D01*
X94834968Y-129566443D01*
X94813015Y-129611640D01*
X94793574Y-129649282D01*
X94778474Y-129675997D01*
X94769546Y-129688411D01*
X94768524Y-129688888D01*
X94761255Y-129680057D01*
X94747211Y-129656228D01*
X94728261Y-129620794D01*
X94706273Y-129577148D01*
X94700799Y-129565926D01*
X94641444Y-129443480D01*
X94417106Y-129443480D01*
X94451733Y-129514636D01*
X94490220Y-129593511D01*
X94528088Y-129670897D01*
X94528669Y-129672080D01*
X94565462Y-129747281D01*
X94601951Y-129822112D01*
X94636436Y-129893071D01*
X94667219Y-129956653D01*
X94692600Y-130009354D01*
X94710878Y-130047672D01*
X94712233Y-130050540D01*
X94732171Y-130091903D01*
X94749190Y-130125485D01*
X94761368Y-130147608D01*
X94766609Y-130154680D01*
X94773353Y-130146252D01*
G36*
X93817440Y-129724614D02*
G01*
X93817487Y-129623842D01*
X93817684Y-129541535D01*
X93818112Y-129475836D01*
X93818856Y-129424890D01*
X93819997Y-129386842D01*
X93821618Y-129359836D01*
X93823801Y-129342016D01*
X93826629Y-129331526D01*
X93830185Y-129326512D01*
X93834551Y-129325117D01*
X93835220Y-129325105D01*
X93850681Y-129325036D01*
X93882917Y-129324798D01*
X93928384Y-129324419D01*
X93983539Y-129323930D01*
X94043500Y-129323372D01*
X94234000Y-129321560D01*
X94234000Y-129128520D01*
X93604080Y-129128520D01*
X93604080Y-130124200D01*
X93817440Y-130124200D01*
X93817440Y-129724614D01*
G37*
X93817440Y-129724614D02*
X93817487Y-129623842D01*
X93817684Y-129541535D01*
X93818112Y-129475836D01*
X93818856Y-129424890D01*
X93819997Y-129386842D01*
X93821618Y-129359836D01*
X93823801Y-129342016D01*
X93826629Y-129331526D01*
X93830185Y-129326512D01*
X93834551Y-129325117D01*
X93835220Y-129325105D01*
X93850681Y-129325036D01*
X93882917Y-129324798D01*
X93928384Y-129324419D01*
X93983539Y-129323930D01*
X94043500Y-129323372D01*
X94234000Y-129321560D01*
X94234000Y-129128520D01*
X93604080Y-129128520D01*
X93604080Y-130124200D01*
X93817440Y-130124200D01*
X93817440Y-129724614D01*
G36*
X93400880Y-129128520D02*
G01*
X92671900Y-129128541D01*
X91942920Y-129128561D01*
X91887844Y-129349521D01*
X91871652Y-129414463D01*
X91856934Y-129473463D01*
X91844462Y-129523428D01*
X91835008Y-129561263D01*
X91829346Y-129583872D01*
X91828239Y-129588260D01*
X91828240Y-129591537D01*
X91830904Y-129594386D01*
X91837548Y-129596836D01*
X91849487Y-129598918D01*
X91868039Y-129600661D01*
X91894519Y-129602095D01*
X91930243Y-129603251D01*
X91976529Y-129604157D01*
X92034691Y-129604844D01*
X92106048Y-129605342D01*
X92191914Y-129605681D01*
X92293606Y-129605890D01*
X92412440Y-129605999D01*
X92549733Y-129606038D01*
X92612295Y-129606040D01*
X93400880Y-129606040D01*
X93400880Y-129128520D01*
G37*
X93400880Y-129128520D02*
X92671900Y-129128541D01*
X91942920Y-129128561D01*
X91887844Y-129349521D01*
X91871652Y-129414463D01*
X91856934Y-129473463D01*
X91844462Y-129523428D01*
X91835008Y-129561263D01*
X91829346Y-129583872D01*
X91828239Y-129588260D01*
X91828240Y-129591537D01*
X91830904Y-129594386D01*
X91837548Y-129596836D01*
X91849487Y-129598918D01*
X91868039Y-129600661D01*
X91894519Y-129602095D01*
X91930243Y-129603251D01*
X91976529Y-129604157D01*
X92034691Y-129604844D01*
X92106048Y-129605342D01*
X92191914Y-129605681D01*
X92293606Y-129605890D01*
X92412440Y-129605999D01*
X92549733Y-129606038D01*
X92612295Y-129606040D01*
X93400880Y-129606040D01*
X93400880Y-129128520D01*
G36*
X91199683Y-131586401D02*
G01*
X91214958Y-131584546D01*
X91216480Y-131583595D01*
X91218871Y-131573172D01*
X91225607Y-131545679D01*
X91236034Y-131503739D01*
X91249496Y-131449978D01*
X91265338Y-131387021D01*
X91281771Y-131321975D01*
X91296815Y-131262511D01*
X91316104Y-131186228D01*
X91338909Y-131096008D01*
X91364503Y-130994733D01*
X91392157Y-130885287D01*
X91421142Y-130770552D01*
X91450731Y-130653411D01*
X91480194Y-130536745D01*
X91494574Y-130479800D01*
X91542141Y-130291419D01*
X91584985Y-130121753D01*
X91623355Y-129969815D01*
X91657502Y-129834618D01*
X91687674Y-129715176D01*
X91714123Y-129610501D01*
X91737098Y-129519607D01*
X91756849Y-129441507D01*
X91773625Y-129375215D01*
X91787677Y-129319742D01*
X91799255Y-129274103D01*
X91808608Y-129237310D01*
X91815986Y-129208377D01*
X91821639Y-129186316D01*
X91825818Y-129170142D01*
X91828771Y-129158866D01*
X91830750Y-129151502D01*
X91832002Y-129147064D01*
X91832230Y-129146300D01*
X91832718Y-129140905D01*
X91829030Y-129136724D01*
X91818936Y-129133602D01*
X91800203Y-129131387D01*
X91770600Y-129129925D01*
X91727895Y-129129063D01*
X91669856Y-129128647D01*
X91594253Y-129128524D01*
X91573757Y-129128520D01*
X91309906Y-129128520D01*
X91283639Y-129242820D01*
X91271785Y-129294846D01*
X91260412Y-129345531D01*
X91251023Y-129388136D01*
X91246244Y-129410460D01*
X91235116Y-129463800D01*
X90317320Y-129463056D01*
X90216961Y-129295788D01*
X90116603Y-129128520D01*
X89818181Y-129128520D01*
X89742663Y-129128678D01*
X89674169Y-129129124D01*
X89615211Y-129129818D01*
X89568298Y-129130719D01*
X89535939Y-129131787D01*
X89520645Y-129132980D01*
X89519760Y-129133353D01*
X89523254Y-129140648D01*
X89534083Y-129158754D01*
X89552767Y-129188474D01*
X89579826Y-129230609D01*
X89615780Y-129285961D01*
X89661148Y-129355333D01*
X89716452Y-129439527D01*
X89782211Y-129539344D01*
X89826223Y-129606040D01*
X89877347Y-129683508D01*
X89931601Y-129765778D01*
X89986139Y-129848530D01*
X90004649Y-129876634D01*
X90576400Y-129876634D01*
X90586027Y-129874380D01*
X90612790Y-129872619D01*
X90653512Y-129871334D01*
X90705014Y-129870505D01*
X90764120Y-129870116D01*
X90827652Y-129870146D01*
X90892432Y-129870579D01*
X90955283Y-129871395D01*
X91013027Y-129872576D01*
X91062487Y-129874104D01*
X91100485Y-129875961D01*
X91123844Y-129878127D01*
X91129797Y-129879839D01*
X91128931Y-129891462D01*
X91124021Y-129919979D01*
X91115709Y-129962515D01*
X91104638Y-130016191D01*
X91091450Y-130078131D01*
X91076789Y-130145458D01*
X91061295Y-130215294D01*
X91045611Y-130284762D01*
X91030380Y-130350985D01*
X91016244Y-130411086D01*
X91003846Y-130462188D01*
X90993827Y-130501414D01*
X90986830Y-130525887D01*
X90984029Y-130532751D01*
X90976863Y-130527052D01*
X90961371Y-130506596D01*
X90939472Y-130474174D01*
X90913084Y-130432578D01*
X90896720Y-130405751D01*
X90867326Y-130357053D01*
X90840395Y-130312726D01*
X90818234Y-130276542D01*
X90803144Y-130252273D01*
X90799195Y-130246120D01*
X90783358Y-130221406D01*
X90761115Y-130185729D01*
X90734332Y-130142184D01*
X90704875Y-130093865D01*
X90674611Y-130043868D01*
X90645406Y-129995287D01*
X90619126Y-129951217D01*
X90597637Y-129914754D01*
X90582805Y-129888991D01*
X90576496Y-129877025D01*
X90576400Y-129876634D01*
X90004649Y-129876634D01*
X90038114Y-129927442D01*
X90084677Y-129998191D01*
X90122982Y-130056455D01*
X90124102Y-130058160D01*
X90172930Y-130132458D01*
X90226762Y-130214285D01*
X90286473Y-130304971D01*
X90352938Y-130405843D01*
X90427033Y-130518232D01*
X90509634Y-130643465D01*
X90601618Y-130782871D01*
X90703859Y-130937779D01*
X90713405Y-130952240D01*
X90764322Y-131029437D01*
X90818574Y-131111794D01*
X90873226Y-131194852D01*
X90925349Y-131274155D01*
X90972011Y-131345245D01*
X91008948Y-131401628D01*
X91130120Y-131586855D01*
X91173300Y-131587048D01*
X91199683Y-131586401D01*
G37*
X91199683Y-131586401D02*
X91214958Y-131584546D01*
X91216480Y-131583595D01*
X91218871Y-131573172D01*
X91225607Y-131545679D01*
X91236034Y-131503739D01*
X91249496Y-131449978D01*
X91265338Y-131387021D01*
X91281771Y-131321975D01*
X91296815Y-131262511D01*
X91316104Y-131186228D01*
X91338909Y-131096008D01*
X91364503Y-130994733D01*
X91392157Y-130885287D01*
X91421142Y-130770552D01*
X91450731Y-130653411D01*
X91480194Y-130536745D01*
X91494574Y-130479800D01*
X91542141Y-130291419D01*
X91584985Y-130121753D01*
X91623355Y-129969815D01*
X91657502Y-129834618D01*
X91687674Y-129715176D01*
X91714123Y-129610501D01*
X91737098Y-129519607D01*
X91756849Y-129441507D01*
X91773625Y-129375215D01*
X91787677Y-129319742D01*
X91799255Y-129274103D01*
X91808608Y-129237310D01*
X91815986Y-129208377D01*
X91821639Y-129186316D01*
X91825818Y-129170142D01*
X91828771Y-129158866D01*
X91830750Y-129151502D01*
X91832002Y-129147064D01*
X91832230Y-129146300D01*
X91832718Y-129140905D01*
X91829030Y-129136724D01*
X91818936Y-129133602D01*
X91800203Y-129131387D01*
X91770600Y-129129925D01*
X91727895Y-129129063D01*
X91669856Y-129128647D01*
X91594253Y-129128524D01*
X91573757Y-129128520D01*
X91309906Y-129128520D01*
X91283639Y-129242820D01*
X91271785Y-129294846D01*
X91260412Y-129345531D01*
X91251023Y-129388136D01*
X91246244Y-129410460D01*
X91235116Y-129463800D01*
X90317320Y-129463056D01*
X90216961Y-129295788D01*
X90116603Y-129128520D01*
X89818181Y-129128520D01*
X89742663Y-129128678D01*
X89674169Y-129129124D01*
X89615211Y-129129818D01*
X89568298Y-129130719D01*
X89535939Y-129131787D01*
X89520645Y-129132980D01*
X89519760Y-129133353D01*
X89523254Y-129140648D01*
X89534083Y-129158754D01*
X89552767Y-129188474D01*
X89579826Y-129230609D01*
X89615780Y-129285961D01*
X89661148Y-129355333D01*
X89716452Y-129439527D01*
X89782211Y-129539344D01*
X89826223Y-129606040D01*
X89877347Y-129683508D01*
X89931601Y-129765778D01*
X89986139Y-129848530D01*
X90004649Y-129876634D01*
X90576400Y-129876634D01*
X90586027Y-129874380D01*
X90612790Y-129872619D01*
X90653512Y-129871334D01*
X90705014Y-129870505D01*
X90764120Y-129870116D01*
X90827652Y-129870146D01*
X90892432Y-129870579D01*
X90955283Y-129871395D01*
X91013027Y-129872576D01*
X91062487Y-129874104D01*
X91100485Y-129875961D01*
X91123844Y-129878127D01*
X91129797Y-129879839D01*
X91128931Y-129891462D01*
X91124021Y-129919979D01*
X91115709Y-129962515D01*
X91104638Y-130016191D01*
X91091450Y-130078131D01*
X91076789Y-130145458D01*
X91061295Y-130215294D01*
X91045611Y-130284762D01*
X91030380Y-130350985D01*
X91016244Y-130411086D01*
X91003846Y-130462188D01*
X90993827Y-130501414D01*
X90986830Y-130525887D01*
X90984029Y-130532751D01*
X90976863Y-130527052D01*
X90961371Y-130506596D01*
X90939472Y-130474174D01*
X90913084Y-130432578D01*
X90896720Y-130405751D01*
X90867326Y-130357053D01*
X90840395Y-130312726D01*
X90818234Y-130276542D01*
X90803144Y-130252273D01*
X90799195Y-130246120D01*
X90783358Y-130221406D01*
X90761115Y-130185729D01*
X90734332Y-130142184D01*
X90704875Y-130093865D01*
X90674611Y-130043868D01*
X90645406Y-129995287D01*
X90619126Y-129951217D01*
X90597637Y-129914754D01*
X90582805Y-129888991D01*
X90576496Y-129877025D01*
X90576400Y-129876634D01*
X90004649Y-129876634D01*
X90038114Y-129927442D01*
X90084677Y-129998191D01*
X90122982Y-130056455D01*
X90124102Y-130058160D01*
X90172930Y-130132458D01*
X90226762Y-130214285D01*
X90286473Y-130304971D01*
X90352938Y-130405843D01*
X90427033Y-130518232D01*
X90509634Y-130643465D01*
X90601618Y-130782871D01*
X90703859Y-130937779D01*
X90713405Y-130952240D01*
X90764322Y-131029437D01*
X90818574Y-131111794D01*
X90873226Y-131194852D01*
X90925349Y-131274155D01*
X90972011Y-131345245D01*
X91008948Y-131401628D01*
X91130120Y-131586855D01*
X91173300Y-131587048D01*
X91199683Y-131586401D01*
G36*
X96658999Y-130137383D02*
G01*
X96733547Y-130115683D01*
X96795393Y-130078987D01*
X96845489Y-130026863D01*
X96853142Y-130016087D01*
X96865368Y-129997230D01*
X96870235Y-129983101D01*
X96865694Y-129970168D01*
X96849692Y-129954896D01*
X96820180Y-129933754D01*
X96795719Y-129917178D01*
X96760547Y-129894557D01*
X96736795Y-129883588D01*
X96719760Y-129883554D01*
X96704741Y-129893738D01*
X96696834Y-129902083D01*
X96656821Y-129932523D01*
X96607023Y-129948182D01*
X96552281Y-129948388D01*
X96497432Y-129932466D01*
X96493047Y-129930409D01*
X96464370Y-129913747D01*
X96449351Y-129895558D01*
X96442802Y-129873537D01*
X96441593Y-129849150D01*
X96449420Y-129827769D01*
X96468522Y-129807401D01*
X96501135Y-129786057D01*
X96549499Y-129761747D01*
X96587862Y-129744537D01*
X96670884Y-129705139D01*
X96743637Y-129664281D01*
X96803439Y-129623700D01*
X96847607Y-129585134D01*
X96864072Y-129565676D01*
X96895508Y-129505918D01*
X96911461Y-129438212D01*
X96911493Y-129368270D01*
X96895164Y-129301804D01*
X96885950Y-129281293D01*
X96860703Y-129244428D01*
X96823957Y-129205683D01*
X96782637Y-129171751D01*
X96754790Y-129154495D01*
X96692763Y-129130860D01*
X96618607Y-129116013D01*
X96538797Y-129110573D01*
X96459810Y-129115160D01*
X96418400Y-129122328D01*
X96376587Y-129134224D01*
X96334447Y-129150183D01*
X96317930Y-129157962D01*
X96289448Y-129175972D01*
X96257311Y-129201087D01*
X96225655Y-129229398D01*
X96198619Y-129257001D01*
X96180339Y-129279988D01*
X96174776Y-129293137D01*
X96182844Y-129304176D01*
X96204313Y-129322893D01*
X96235390Y-129346143D01*
X96254694Y-129359384D01*
X96334394Y-129412447D01*
X96374554Y-129374244D01*
X96406163Y-129349355D01*
X96440762Y-129329586D01*
X96455835Y-129323721D01*
X96512220Y-129312715D01*
X96567079Y-129312483D01*
X96616955Y-129321874D01*
X96658393Y-129339740D01*
X96687936Y-129364928D01*
X96702127Y-129396288D01*
X96702880Y-129405952D01*
X96698510Y-129428229D01*
X96684240Y-129450946D01*
X96658327Y-129475465D01*
X96619029Y-129503149D01*
X96564603Y-129535362D01*
X96493308Y-129573466D01*
X96480019Y-129580303D01*
X96416345Y-129613702D01*
X96368149Y-129641008D01*
X96332279Y-129664244D01*
X96305585Y-129685433D01*
X96286942Y-129704264D01*
X96250246Y-129760264D01*
X96230741Y-129822494D01*
X96227864Y-129887291D01*
X96241055Y-129950998D01*
X96269752Y-130009953D01*
X96313394Y-130060497D01*
X96345243Y-130084459D01*
X96414243Y-130119193D01*
X96489723Y-130138773D01*
X96570799Y-130144520D01*
X96658999Y-130137383D01*
G37*
X96658999Y-130137383D02*
X96733547Y-130115683D01*
X96795393Y-130078987D01*
X96845489Y-130026863D01*
X96853142Y-130016087D01*
X96865368Y-129997230D01*
X96870235Y-129983101D01*
X96865694Y-129970168D01*
X96849692Y-129954896D01*
X96820180Y-129933754D01*
X96795719Y-129917178D01*
X96760547Y-129894557D01*
X96736795Y-129883588D01*
X96719760Y-129883554D01*
X96704741Y-129893738D01*
X96696834Y-129902083D01*
X96656821Y-129932523D01*
X96607023Y-129948182D01*
X96552281Y-129948388D01*
X96497432Y-129932466D01*
X96493047Y-129930409D01*
X96464370Y-129913747D01*
X96449351Y-129895558D01*
X96442802Y-129873537D01*
X96441593Y-129849150D01*
X96449420Y-129827769D01*
X96468522Y-129807401D01*
X96501135Y-129786057D01*
X96549499Y-129761747D01*
X96587862Y-129744537D01*
X96670884Y-129705139D01*
X96743637Y-129664281D01*
X96803439Y-129623700D01*
X96847607Y-129585134D01*
X96864072Y-129565676D01*
X96895508Y-129505918D01*
X96911461Y-129438212D01*
X96911493Y-129368270D01*
X96895164Y-129301804D01*
X96885950Y-129281293D01*
X96860703Y-129244428D01*
X96823957Y-129205683D01*
X96782637Y-129171751D01*
X96754790Y-129154495D01*
X96692763Y-129130860D01*
X96618607Y-129116013D01*
X96538797Y-129110573D01*
X96459810Y-129115160D01*
X96418400Y-129122328D01*
X96376587Y-129134224D01*
X96334447Y-129150183D01*
X96317930Y-129157962D01*
X96289448Y-129175972D01*
X96257311Y-129201087D01*
X96225655Y-129229398D01*
X96198619Y-129257001D01*
X96180339Y-129279988D01*
X96174776Y-129293137D01*
X96182844Y-129304176D01*
X96204313Y-129322893D01*
X96235390Y-129346143D01*
X96254694Y-129359384D01*
X96334394Y-129412447D01*
X96374554Y-129374244D01*
X96406163Y-129349355D01*
X96440762Y-129329586D01*
X96455835Y-129323721D01*
X96512220Y-129312715D01*
X96567079Y-129312483D01*
X96616955Y-129321874D01*
X96658393Y-129339740D01*
X96687936Y-129364928D01*
X96702127Y-129396288D01*
X96702880Y-129405952D01*
X96698510Y-129428229D01*
X96684240Y-129450946D01*
X96658327Y-129475465D01*
X96619029Y-129503149D01*
X96564603Y-129535362D01*
X96493308Y-129573466D01*
X96480019Y-129580303D01*
X96416345Y-129613702D01*
X96368149Y-129641008D01*
X96332279Y-129664244D01*
X96305585Y-129685433D01*
X96286942Y-129704264D01*
X96250246Y-129760264D01*
X96230741Y-129822494D01*
X96227864Y-129887291D01*
X96241055Y-129950998D01*
X96269752Y-130009953D01*
X96313394Y-130060497D01*
X96345243Y-130084459D01*
X96414243Y-130119193D01*
X96489723Y-130138773D01*
X96570799Y-130144520D01*
X96658999Y-130137383D01*
G36*
X96916240Y-128854200D02*
G01*
X89509600Y-128854200D01*
X89509600Y-129016760D01*
X96916240Y-129016760D01*
X96916240Y-128854200D01*
G37*
X96916240Y-128854200D02*
X89509600Y-128854200D01*
X89509600Y-129016760D01*
X96916240Y-129016760D01*
X96916240Y-128854200D01*
M02*
