G04 #@! TF.GenerationSoftware,KiCad,Pcbnew,(5.1.12)-1*
G04 #@! TF.CreationDate,2022-03-03T10:00:03+01:00*
G04 #@! TF.ProjectId,10V-DLTZ,3130562d-444c-4545-9a2e-6b696361645f,rev?*
G04 #@! TF.SameCoordinates,Original*
G04 #@! TF.FileFunction,Soldermask,Top*
G04 #@! TF.FilePolarity,Negative*
%FSLAX46Y46*%
G04 Gerber Fmt 4.6, Leading zero omitted, Abs format (unit mm)*
G04 Created by KiCad (PCBNEW (5.1.12)-1) date 2022-03-03 10:00:03*
%MOMM*%
%LPD*%
G01*
G04 APERTURE LIST*
%ADD10C,0.250000*%
%ADD11C,1.600000*%
%ADD12C,2.000000*%
%ADD13O,0.750000X2.350000*%
%ADD14C,1.452000*%
%ADD15O,2.350000X0.750000*%
%ADD16O,1.702000X7.202000*%
%ADD17C,1.702000*%
%ADD18C,1.626000*%
%ADD19C,0.100000*%
G04 APERTURE END LIST*
D10*
X108331249Y-150799800D02*
G75*
G03*
X108331249Y-150799800I-11658849J0D01*
G01*
D11*
X110236000Y-173355000D02*
X110236000Y-128651000D01*
D12*
X105465240Y-150799800D02*
G75*
G03*
X105465240Y-150799800I-8792840J0D01*
G01*
D11*
X73279000Y-173355000D02*
X73279000Y-128651000D01*
X106299000Y-124714000D02*
G75*
G02*
X110236000Y-128651000I0J-3937000D01*
G01*
X106299000Y-124714000D02*
X77216000Y-124714000D01*
X110236000Y-173355000D02*
G75*
G02*
X106299000Y-177292000I-3937000J0D01*
G01*
X106553000Y-177292000D02*
X77216000Y-177292000D01*
X77216000Y-177292000D02*
G75*
G02*
X73279000Y-173355000I0J3937000D01*
G01*
X73279000Y-128651000D02*
G75*
G02*
X77216000Y-124714000I3937000J0D01*
G01*
D10*
X108331249Y-150799800D02*
G75*
G03*
X108331249Y-150799800I-11658849J0D01*
G01*
D11*
X110236000Y-173355000D02*
X110236000Y-128651000D01*
D12*
X105465240Y-150799800D02*
G75*
G03*
X105465240Y-150799800I-8792840J0D01*
G01*
D11*
X73279000Y-173355000D02*
X73279000Y-128651000D01*
X106299000Y-124714000D02*
G75*
G02*
X110236000Y-128651000I0J-3937000D01*
G01*
X106299000Y-124714000D02*
X77216000Y-124714000D01*
X110236000Y-173355000D02*
G75*
G02*
X106299000Y-177292000I-3937000J0D01*
G01*
X106553000Y-177292000D02*
X77216000Y-177292000D01*
X77216000Y-177292000D02*
G75*
G02*
X73279000Y-173355000I0J3937000D01*
G01*
X73279000Y-128651000D02*
G75*
G02*
X77216000Y-124714000I3937000J0D01*
G01*
G36*
G01*
X80893000Y-164179500D02*
X80893000Y-166154500D01*
G75*
G02*
X80705500Y-166342000I-187500J0D01*
G01*
X80330500Y-166342000D01*
G75*
G02*
X80143000Y-166154500I0J187500D01*
G01*
X80143000Y-164179500D01*
G75*
G02*
X80330500Y-163992000I187500J0D01*
G01*
X80705500Y-163992000D01*
G75*
G02*
X80893000Y-164179500I0J-187500D01*
G01*
G37*
G36*
G01*
X75813000Y-169379500D02*
X75813000Y-171354500D01*
G75*
G02*
X75625500Y-171542000I-187500J0D01*
G01*
X75250500Y-171542000D01*
G75*
G02*
X75063000Y-171354500I0J187500D01*
G01*
X75063000Y-169379500D01*
G75*
G02*
X75250500Y-169192000I187500J0D01*
G01*
X75625500Y-169192000D01*
G75*
G02*
X75813000Y-169379500I0J-187500D01*
G01*
G37*
G36*
G01*
X82163000Y-169379500D02*
X82163000Y-171354500D01*
G75*
G02*
X81975500Y-171542000I-187500J0D01*
G01*
X81600500Y-171542000D01*
G75*
G02*
X81413000Y-171354500I0J187500D01*
G01*
X81413000Y-169379500D01*
G75*
G02*
X81600500Y-169192000I187500J0D01*
G01*
X81975500Y-169192000D01*
G75*
G02*
X82163000Y-169379500I0J-187500D01*
G01*
G37*
D13*
X84328000Y-165167000D03*
G36*
G01*
X84703000Y-169379500D02*
X84703000Y-171354500D01*
G75*
G02*
X84515500Y-171542000I-187500J0D01*
G01*
X84140500Y-171542000D01*
G75*
G02*
X83953000Y-171354500I0J187500D01*
G01*
X83953000Y-169379500D01*
G75*
G02*
X84140500Y-169192000I187500J0D01*
G01*
X84515500Y-169192000D01*
G75*
G02*
X84703000Y-169379500I0J-187500D01*
G01*
G37*
G36*
G01*
X83433000Y-169379500D02*
X83433000Y-171354500D01*
G75*
G02*
X83245500Y-171542000I-187500J0D01*
G01*
X82870500Y-171542000D01*
G75*
G02*
X82683000Y-171354500I0J187500D01*
G01*
X82683000Y-169379500D01*
G75*
G02*
X82870500Y-169192000I187500J0D01*
G01*
X83245500Y-169192000D01*
G75*
G02*
X83433000Y-169379500I0J-187500D01*
G01*
G37*
G36*
G01*
X77083000Y-169379500D02*
X77083000Y-171354500D01*
G75*
G02*
X76895500Y-171542000I-187500J0D01*
G01*
X76520500Y-171542000D01*
G75*
G02*
X76333000Y-171354500I0J187500D01*
G01*
X76333000Y-169379500D01*
G75*
G02*
X76520500Y-169192000I187500J0D01*
G01*
X76895500Y-169192000D01*
G75*
G02*
X77083000Y-169379500I0J-187500D01*
G01*
G37*
G36*
G01*
X78353000Y-169379500D02*
X78353000Y-171354500D01*
G75*
G02*
X78165500Y-171542000I-187500J0D01*
G01*
X77790500Y-171542000D01*
G75*
G02*
X77603000Y-171354500I0J187500D01*
G01*
X77603000Y-169379500D01*
G75*
G02*
X77790500Y-169192000I187500J0D01*
G01*
X78165500Y-169192000D01*
G75*
G02*
X78353000Y-169379500I0J-187500D01*
G01*
G37*
G36*
G01*
X79623000Y-164179500D02*
X79623000Y-166154500D01*
G75*
G02*
X79435500Y-166342000I-187500J0D01*
G01*
X79060500Y-166342000D01*
G75*
G02*
X78873000Y-166154500I0J187500D01*
G01*
X78873000Y-164179500D01*
G75*
G02*
X79060500Y-163992000I187500J0D01*
G01*
X79435500Y-163992000D01*
G75*
G02*
X79623000Y-164179500I0J-187500D01*
G01*
G37*
G36*
G01*
X75813000Y-164179500D02*
X75813000Y-166154500D01*
G75*
G02*
X75625500Y-166342000I-187500J0D01*
G01*
X75250500Y-166342000D01*
G75*
G02*
X75063000Y-166154500I0J187500D01*
G01*
X75063000Y-164179500D01*
G75*
G02*
X75250500Y-163992000I187500J0D01*
G01*
X75625500Y-163992000D01*
G75*
G02*
X75813000Y-164179500I0J-187500D01*
G01*
G37*
G36*
G01*
X78353000Y-164179500D02*
X78353000Y-166154500D01*
G75*
G02*
X78165500Y-166342000I-187500J0D01*
G01*
X77790500Y-166342000D01*
G75*
G02*
X77603000Y-166154500I0J187500D01*
G01*
X77603000Y-164179500D01*
G75*
G02*
X77790500Y-163992000I187500J0D01*
G01*
X78165500Y-163992000D01*
G75*
G02*
X78353000Y-164179500I0J-187500D01*
G01*
G37*
G36*
G01*
X77083000Y-164179500D02*
X77083000Y-166154500D01*
G75*
G02*
X76895500Y-166342000I-187500J0D01*
G01*
X76520500Y-166342000D01*
G75*
G02*
X76333000Y-166154500I0J187500D01*
G01*
X76333000Y-164179500D01*
G75*
G02*
X76520500Y-163992000I187500J0D01*
G01*
X76895500Y-163992000D01*
G75*
G02*
X77083000Y-164179500I0J-187500D01*
G01*
G37*
G36*
G01*
X79623000Y-169379500D02*
X79623000Y-171354500D01*
G75*
G02*
X79435500Y-171542000I-187500J0D01*
G01*
X79060500Y-171542000D01*
G75*
G02*
X78873000Y-171354500I0J187500D01*
G01*
X78873000Y-169379500D01*
G75*
G02*
X79060500Y-169192000I187500J0D01*
G01*
X79435500Y-169192000D01*
G75*
G02*
X79623000Y-169379500I0J-187500D01*
G01*
G37*
G36*
G01*
X83433000Y-164179500D02*
X83433000Y-166154500D01*
G75*
G02*
X83245500Y-166342000I-187500J0D01*
G01*
X82870500Y-166342000D01*
G75*
G02*
X82683000Y-166154500I0J187500D01*
G01*
X82683000Y-164179500D01*
G75*
G02*
X82870500Y-163992000I187500J0D01*
G01*
X83245500Y-163992000D01*
G75*
G02*
X83433000Y-164179500I0J-187500D01*
G01*
G37*
G36*
G01*
X80893000Y-169379500D02*
X80893000Y-171354500D01*
G75*
G02*
X80705500Y-171542000I-187500J0D01*
G01*
X80330500Y-171542000D01*
G75*
G02*
X80143000Y-171354500I0J187500D01*
G01*
X80143000Y-169379500D01*
G75*
G02*
X80330500Y-169192000I187500J0D01*
G01*
X80705500Y-169192000D01*
G75*
G02*
X80893000Y-169379500I0J-187500D01*
G01*
G37*
G36*
G01*
X82163000Y-164179500D02*
X82163000Y-166154500D01*
G75*
G02*
X81975500Y-166342000I-187500J0D01*
G01*
X81600500Y-166342000D01*
G75*
G02*
X81413000Y-166154500I0J187500D01*
G01*
X81413000Y-164179500D01*
G75*
G02*
X81600500Y-163992000I187500J0D01*
G01*
X81975500Y-163992000D01*
G75*
G02*
X82163000Y-164179500I0J-187500D01*
G01*
G37*
G36*
G01*
X78675000Y-174771500D02*
X78675000Y-173970500D01*
G75*
G02*
X79075500Y-173570000I400500J0D01*
G01*
X80126500Y-173570000D01*
G75*
G02*
X80527000Y-173970500I0J-400500D01*
G01*
X80527000Y-174771500D01*
G75*
G02*
X80126500Y-175172000I-400500J0D01*
G01*
X79075500Y-175172000D01*
G75*
G02*
X78675000Y-174771500I0J400500D01*
G01*
G37*
G36*
G01*
X75175000Y-174771500D02*
X75175000Y-173970500D01*
G75*
G02*
X75575500Y-173570000I400500J0D01*
G01*
X76626500Y-173570000D01*
G75*
G02*
X77027000Y-173970500I0J-400500D01*
G01*
X77027000Y-174771500D01*
G75*
G02*
X76626500Y-175172000I-400500J0D01*
G01*
X75575500Y-175172000D01*
G75*
G02*
X75175000Y-174771500I0J400500D01*
G01*
G37*
G36*
G01*
X76095000Y-172968500D02*
X76095000Y-172217500D01*
G75*
G02*
X76270500Y-172042000I175500J0D01*
G01*
X76621500Y-172042000D01*
G75*
G02*
X76797000Y-172217500I0J-175500D01*
G01*
X76797000Y-172968500D01*
G75*
G02*
X76621500Y-173144000I-175500J0D01*
G01*
X76270500Y-173144000D01*
G75*
G02*
X76095000Y-172968500I0J175500D01*
G01*
G37*
G36*
G01*
X75095000Y-172968500D02*
X75095000Y-172217500D01*
G75*
G02*
X75270500Y-172042000I175500J0D01*
G01*
X75621500Y-172042000D01*
G75*
G02*
X75797000Y-172217500I0J-175500D01*
G01*
X75797000Y-172968500D01*
G75*
G02*
X75621500Y-173144000I-175500J0D01*
G01*
X75270500Y-173144000D01*
G75*
G02*
X75095000Y-172968500I0J175500D01*
G01*
G37*
G36*
G01*
X75841000Y-163443500D02*
X75841000Y-162692500D01*
G75*
G02*
X76016500Y-162517000I175500J0D01*
G01*
X76367500Y-162517000D01*
G75*
G02*
X76543000Y-162692500I0J-175500D01*
G01*
X76543000Y-163443500D01*
G75*
G02*
X76367500Y-163619000I-175500J0D01*
G01*
X76016500Y-163619000D01*
G75*
G02*
X75841000Y-163443500I0J175500D01*
G01*
G37*
G36*
G01*
X74841000Y-163443500D02*
X74841000Y-162692500D01*
G75*
G02*
X75016500Y-162517000I175500J0D01*
G01*
X75367500Y-162517000D01*
G75*
G02*
X75543000Y-162692500I0J-175500D01*
G01*
X75543000Y-163443500D01*
G75*
G02*
X75367500Y-163619000I-175500J0D01*
G01*
X75016500Y-163619000D01*
G75*
G02*
X74841000Y-163443500I0J175500D01*
G01*
G37*
D14*
X94132400Y-150799800D03*
X99212400Y-150799800D03*
X96672400Y-148259800D03*
X96672400Y-153339800D03*
X98468400Y-152595800D03*
X94876400Y-152595800D03*
X94876400Y-149003800D03*
X98468400Y-149003800D03*
G36*
G01*
X84885000Y-139521500D02*
X84885000Y-141402500D01*
G75*
G02*
X84479500Y-141808000I-405500J0D01*
G01*
X83668500Y-141808000D01*
G75*
G02*
X83263000Y-141402500I0J405500D01*
G01*
X83263000Y-139521500D01*
G75*
G02*
X83668500Y-139116000I405500J0D01*
G01*
X84479500Y-139116000D01*
G75*
G02*
X84885000Y-139521500I0J-405500D01*
G01*
G37*
G36*
G01*
X87933000Y-139521500D02*
X87933000Y-141402500D01*
G75*
G02*
X87527500Y-141808000I-405500J0D01*
G01*
X86716500Y-141808000D01*
G75*
G02*
X86311000Y-141402500I0J405500D01*
G01*
X86311000Y-139521500D01*
G75*
G02*
X86716500Y-139116000I405500J0D01*
G01*
X87527500Y-139116000D01*
G75*
G02*
X87933000Y-139521500I0J-405500D01*
G01*
G37*
G36*
G01*
X99619500Y-134669000D02*
X97738500Y-134669000D01*
G75*
G02*
X97333000Y-134263500I0J405500D01*
G01*
X97333000Y-133452500D01*
G75*
G02*
X97738500Y-133047000I405500J0D01*
G01*
X99619500Y-133047000D01*
G75*
G02*
X100025000Y-133452500I0J-405500D01*
G01*
X100025000Y-134263500D01*
G75*
G02*
X99619500Y-134669000I-405500J0D01*
G01*
G37*
G36*
G01*
X99619500Y-137717000D02*
X97738500Y-137717000D01*
G75*
G02*
X97333000Y-137311500I0J405500D01*
G01*
X97333000Y-136500500D01*
G75*
G02*
X97738500Y-136095000I405500J0D01*
G01*
X99619500Y-136095000D01*
G75*
G02*
X100025000Y-136500500I0J-405500D01*
G01*
X100025000Y-137311500D01*
G75*
G02*
X99619500Y-137717000I-405500J0D01*
G01*
G37*
G36*
G01*
X94449500Y-133737000D02*
X96424500Y-133737000D01*
G75*
G02*
X96612000Y-133924500I0J-187500D01*
G01*
X96612000Y-134299500D01*
G75*
G02*
X96424500Y-134487000I-187500J0D01*
G01*
X94449500Y-134487000D01*
G75*
G02*
X94262000Y-134299500I0J187500D01*
G01*
X94262000Y-133924500D01*
G75*
G02*
X94449500Y-133737000I187500J0D01*
G01*
G37*
D15*
X90237000Y-134112000D03*
G36*
G01*
X94449500Y-135007000D02*
X96424500Y-135007000D01*
G75*
G02*
X96612000Y-135194500I0J-187500D01*
G01*
X96612000Y-135569500D01*
G75*
G02*
X96424500Y-135757000I-187500J0D01*
G01*
X94449500Y-135757000D01*
G75*
G02*
X94262000Y-135569500I0J187500D01*
G01*
X94262000Y-135194500D01*
G75*
G02*
X94449500Y-135007000I187500J0D01*
G01*
G37*
G36*
G01*
X89249500Y-135007000D02*
X91224500Y-135007000D01*
G75*
G02*
X91412000Y-135194500I0J-187500D01*
G01*
X91412000Y-135569500D01*
G75*
G02*
X91224500Y-135757000I-187500J0D01*
G01*
X89249500Y-135757000D01*
G75*
G02*
X89062000Y-135569500I0J187500D01*
G01*
X89062000Y-135194500D01*
G75*
G02*
X89249500Y-135007000I187500J0D01*
G01*
G37*
G36*
G01*
X94449500Y-136277000D02*
X96424500Y-136277000D01*
G75*
G02*
X96612000Y-136464500I0J-187500D01*
G01*
X96612000Y-136839500D01*
G75*
G02*
X96424500Y-137027000I-187500J0D01*
G01*
X94449500Y-137027000D01*
G75*
G02*
X94262000Y-136839500I0J187500D01*
G01*
X94262000Y-136464500D01*
G75*
G02*
X94449500Y-136277000I187500J0D01*
G01*
G37*
G36*
G01*
X89249500Y-136277000D02*
X91224500Y-136277000D01*
G75*
G02*
X91412000Y-136464500I0J-187500D01*
G01*
X91412000Y-136839500D01*
G75*
G02*
X91224500Y-137027000I-187500J0D01*
G01*
X89249500Y-137027000D01*
G75*
G02*
X89062000Y-136839500I0J187500D01*
G01*
X89062000Y-136464500D01*
G75*
G02*
X89249500Y-136277000I187500J0D01*
G01*
G37*
G36*
G01*
X94449500Y-137547000D02*
X96424500Y-137547000D01*
G75*
G02*
X96612000Y-137734500I0J-187500D01*
G01*
X96612000Y-138109500D01*
G75*
G02*
X96424500Y-138297000I-187500J0D01*
G01*
X94449500Y-138297000D01*
G75*
G02*
X94262000Y-138109500I0J187500D01*
G01*
X94262000Y-137734500D01*
G75*
G02*
X94449500Y-137547000I187500J0D01*
G01*
G37*
G36*
G01*
X89249500Y-137547000D02*
X91224500Y-137547000D01*
G75*
G02*
X91412000Y-137734500I0J-187500D01*
G01*
X91412000Y-138109500D01*
G75*
G02*
X91224500Y-138297000I-187500J0D01*
G01*
X89249500Y-138297000D01*
G75*
G02*
X89062000Y-138109500I0J187500D01*
G01*
X89062000Y-137734500D01*
G75*
G02*
X89249500Y-137547000I187500J0D01*
G01*
G37*
G36*
G01*
X82251300Y-156508800D02*
X80276300Y-156508800D01*
G75*
G02*
X80088800Y-156321300I0J187500D01*
G01*
X80088800Y-155946300D01*
G75*
G02*
X80276300Y-155758800I187500J0D01*
G01*
X82251300Y-155758800D01*
G75*
G02*
X82438800Y-155946300I0J-187500D01*
G01*
X82438800Y-156321300D01*
G75*
G02*
X82251300Y-156508800I-187500J0D01*
G01*
G37*
G36*
G01*
X77051300Y-156508800D02*
X75076300Y-156508800D01*
G75*
G02*
X74888800Y-156321300I0J187500D01*
G01*
X74888800Y-155946300D01*
G75*
G02*
X75076300Y-155758800I187500J0D01*
G01*
X77051300Y-155758800D01*
G75*
G02*
X77238800Y-155946300I0J-187500D01*
G01*
X77238800Y-156321300D01*
G75*
G02*
X77051300Y-156508800I-187500J0D01*
G01*
G37*
G36*
G01*
X82251300Y-157778800D02*
X80276300Y-157778800D01*
G75*
G02*
X80088800Y-157591300I0J187500D01*
G01*
X80088800Y-157216300D01*
G75*
G02*
X80276300Y-157028800I187500J0D01*
G01*
X82251300Y-157028800D01*
G75*
G02*
X82438800Y-157216300I0J-187500D01*
G01*
X82438800Y-157591300D01*
G75*
G02*
X82251300Y-157778800I-187500J0D01*
G01*
G37*
G36*
G01*
X77051300Y-157778800D02*
X75076300Y-157778800D01*
G75*
G02*
X74888800Y-157591300I0J187500D01*
G01*
X74888800Y-157216300D01*
G75*
G02*
X75076300Y-157028800I187500J0D01*
G01*
X77051300Y-157028800D01*
G75*
G02*
X77238800Y-157216300I0J-187500D01*
G01*
X77238800Y-157591300D01*
G75*
G02*
X77051300Y-157778800I-187500J0D01*
G01*
G37*
G36*
G01*
X82251300Y-159048800D02*
X80276300Y-159048800D01*
G75*
G02*
X80088800Y-158861300I0J187500D01*
G01*
X80088800Y-158486300D01*
G75*
G02*
X80276300Y-158298800I187500J0D01*
G01*
X82251300Y-158298800D01*
G75*
G02*
X82438800Y-158486300I0J-187500D01*
G01*
X82438800Y-158861300D01*
G75*
G02*
X82251300Y-159048800I-187500J0D01*
G01*
G37*
G36*
G01*
X77051300Y-159048800D02*
X75076300Y-159048800D01*
G75*
G02*
X74888800Y-158861300I0J187500D01*
G01*
X74888800Y-158486300D01*
G75*
G02*
X75076300Y-158298800I187500J0D01*
G01*
X77051300Y-158298800D01*
G75*
G02*
X77238800Y-158486300I0J-187500D01*
G01*
X77238800Y-158861300D01*
G75*
G02*
X77051300Y-159048800I-187500J0D01*
G01*
G37*
X81263800Y-159943800D03*
G36*
G01*
X77051300Y-160318800D02*
X75076300Y-160318800D01*
G75*
G02*
X74888800Y-160131300I0J187500D01*
G01*
X74888800Y-159756300D01*
G75*
G02*
X75076300Y-159568800I187500J0D01*
G01*
X77051300Y-159568800D01*
G75*
G02*
X77238800Y-159756300I0J-187500D01*
G01*
X77238800Y-160131300D01*
G75*
G02*
X77051300Y-160318800I-187500J0D01*
G01*
G37*
D16*
X107315000Y-169711000D03*
D17*
X107315000Y-164211000D03*
G36*
G01*
X96371499Y-169460499D02*
X96371499Y-171435499D01*
G75*
G02*
X96183999Y-171622999I-187500J0D01*
G01*
X95808999Y-171622999D01*
G75*
G02*
X95621499Y-171435499I0J187500D01*
G01*
X95621499Y-169460499D01*
G75*
G02*
X95808999Y-169272999I187500J0D01*
G01*
X96183999Y-169272999D01*
G75*
G02*
X96371499Y-169460499I0J-187500D01*
G01*
G37*
D13*
X95996499Y-165247999D03*
G36*
G01*
X95101499Y-169460499D02*
X95101499Y-171435499D01*
G75*
G02*
X94913999Y-171622999I-187500J0D01*
G01*
X94538999Y-171622999D01*
G75*
G02*
X94351499Y-171435499I0J187500D01*
G01*
X94351499Y-169460499D01*
G75*
G02*
X94538999Y-169272999I187500J0D01*
G01*
X94913999Y-169272999D01*
G75*
G02*
X95101499Y-169460499I0J-187500D01*
G01*
G37*
G36*
G01*
X95101499Y-164260499D02*
X95101499Y-166235499D01*
G75*
G02*
X94913999Y-166422999I-187500J0D01*
G01*
X94538999Y-166422999D01*
G75*
G02*
X94351499Y-166235499I0J187500D01*
G01*
X94351499Y-164260499D01*
G75*
G02*
X94538999Y-164072999I187500J0D01*
G01*
X94913999Y-164072999D01*
G75*
G02*
X95101499Y-164260499I0J-187500D01*
G01*
G37*
G36*
G01*
X93831499Y-169460499D02*
X93831499Y-171435499D01*
G75*
G02*
X93643999Y-171622999I-187500J0D01*
G01*
X93268999Y-171622999D01*
G75*
G02*
X93081499Y-171435499I0J187500D01*
G01*
X93081499Y-169460499D01*
G75*
G02*
X93268999Y-169272999I187500J0D01*
G01*
X93643999Y-169272999D01*
G75*
G02*
X93831499Y-169460499I0J-187500D01*
G01*
G37*
G36*
G01*
X93831499Y-164260499D02*
X93831499Y-166235499D01*
G75*
G02*
X93643999Y-166422999I-187500J0D01*
G01*
X93268999Y-166422999D01*
G75*
G02*
X93081499Y-166235499I0J187500D01*
G01*
X93081499Y-164260499D01*
G75*
G02*
X93268999Y-164072999I187500J0D01*
G01*
X93643999Y-164072999D01*
G75*
G02*
X93831499Y-164260499I0J-187500D01*
G01*
G37*
G36*
G01*
X92561499Y-169460499D02*
X92561499Y-171435499D01*
G75*
G02*
X92373999Y-171622999I-187500J0D01*
G01*
X91998999Y-171622999D01*
G75*
G02*
X91811499Y-171435499I0J187500D01*
G01*
X91811499Y-169460499D01*
G75*
G02*
X91998999Y-169272999I187500J0D01*
G01*
X92373999Y-169272999D01*
G75*
G02*
X92561499Y-169460499I0J-187500D01*
G01*
G37*
G36*
G01*
X92561499Y-164260499D02*
X92561499Y-166235499D01*
G75*
G02*
X92373999Y-166422999I-187500J0D01*
G01*
X91998999Y-166422999D01*
G75*
G02*
X91811499Y-166235499I0J187500D01*
G01*
X91811499Y-164260499D01*
G75*
G02*
X91998999Y-164072999I187500J0D01*
G01*
X92373999Y-164072999D01*
G75*
G02*
X92561499Y-164260499I0J-187500D01*
G01*
G37*
G36*
G01*
X75050900Y-136886600D02*
X77025900Y-136886600D01*
G75*
G02*
X77213400Y-137074100I0J-187500D01*
G01*
X77213400Y-137449100D01*
G75*
G02*
X77025900Y-137636600I-187500J0D01*
G01*
X75050900Y-137636600D01*
G75*
G02*
X74863400Y-137449100I0J187500D01*
G01*
X74863400Y-137074100D01*
G75*
G02*
X75050900Y-136886600I187500J0D01*
G01*
G37*
G36*
G01*
X80250900Y-138156600D02*
X82225900Y-138156600D01*
G75*
G02*
X82413400Y-138344100I0J-187500D01*
G01*
X82413400Y-138719100D01*
G75*
G02*
X82225900Y-138906600I-187500J0D01*
G01*
X80250900Y-138906600D01*
G75*
G02*
X80063400Y-138719100I0J187500D01*
G01*
X80063400Y-138344100D01*
G75*
G02*
X80250900Y-138156600I187500J0D01*
G01*
G37*
G36*
G01*
X75050900Y-135616600D02*
X77025900Y-135616600D01*
G75*
G02*
X77213400Y-135804100I0J-187500D01*
G01*
X77213400Y-136179100D01*
G75*
G02*
X77025900Y-136366600I-187500J0D01*
G01*
X75050900Y-136366600D01*
G75*
G02*
X74863400Y-136179100I0J187500D01*
G01*
X74863400Y-135804100D01*
G75*
G02*
X75050900Y-135616600I187500J0D01*
G01*
G37*
G36*
G01*
X80250900Y-139426600D02*
X82225900Y-139426600D01*
G75*
G02*
X82413400Y-139614100I0J-187500D01*
G01*
X82413400Y-139989100D01*
G75*
G02*
X82225900Y-140176600I-187500J0D01*
G01*
X80250900Y-140176600D01*
G75*
G02*
X80063400Y-139989100I0J187500D01*
G01*
X80063400Y-139614100D01*
G75*
G02*
X80250900Y-139426600I187500J0D01*
G01*
G37*
G36*
G01*
X75050900Y-141966600D02*
X77025900Y-141966600D01*
G75*
G02*
X77213400Y-142154100I0J-187500D01*
G01*
X77213400Y-142529100D01*
G75*
G02*
X77025900Y-142716600I-187500J0D01*
G01*
X75050900Y-142716600D01*
G75*
G02*
X74863400Y-142529100I0J187500D01*
G01*
X74863400Y-142154100D01*
G75*
G02*
X75050900Y-141966600I187500J0D01*
G01*
G37*
G36*
G01*
X75050900Y-140696600D02*
X77025900Y-140696600D01*
G75*
G02*
X77213400Y-140884100I0J-187500D01*
G01*
X77213400Y-141259100D01*
G75*
G02*
X77025900Y-141446600I-187500J0D01*
G01*
X75050900Y-141446600D01*
G75*
G02*
X74863400Y-141259100I0J187500D01*
G01*
X74863400Y-140884100D01*
G75*
G02*
X75050900Y-140696600I187500J0D01*
G01*
G37*
G36*
G01*
X75050900Y-143236600D02*
X77025900Y-143236600D01*
G75*
G02*
X77213400Y-143424100I0J-187500D01*
G01*
X77213400Y-143799100D01*
G75*
G02*
X77025900Y-143986600I-187500J0D01*
G01*
X75050900Y-143986600D01*
G75*
G02*
X74863400Y-143799100I0J187500D01*
G01*
X74863400Y-143424100D01*
G75*
G02*
X75050900Y-143236600I187500J0D01*
G01*
G37*
G36*
G01*
X75050900Y-139426600D02*
X77025900Y-139426600D01*
G75*
G02*
X77213400Y-139614100I0J-187500D01*
G01*
X77213400Y-139989100D01*
G75*
G02*
X77025900Y-140176600I-187500J0D01*
G01*
X75050900Y-140176600D01*
G75*
G02*
X74863400Y-139989100I0J187500D01*
G01*
X74863400Y-139614100D01*
G75*
G02*
X75050900Y-139426600I187500J0D01*
G01*
G37*
G36*
G01*
X80250900Y-140696600D02*
X82225900Y-140696600D01*
G75*
G02*
X82413400Y-140884100I0J-187500D01*
G01*
X82413400Y-141259100D01*
G75*
G02*
X82225900Y-141446600I-187500J0D01*
G01*
X80250900Y-141446600D01*
G75*
G02*
X80063400Y-141259100I0J187500D01*
G01*
X80063400Y-140884100D01*
G75*
G02*
X80250900Y-140696600I187500J0D01*
G01*
G37*
G36*
G01*
X80250900Y-141966600D02*
X82225900Y-141966600D01*
G75*
G02*
X82413400Y-142154100I0J-187500D01*
G01*
X82413400Y-142529100D01*
G75*
G02*
X82225900Y-142716600I-187500J0D01*
G01*
X80250900Y-142716600D01*
G75*
G02*
X80063400Y-142529100I0J187500D01*
G01*
X80063400Y-142154100D01*
G75*
G02*
X80250900Y-141966600I187500J0D01*
G01*
G37*
G36*
G01*
X80250900Y-135616600D02*
X82225900Y-135616600D01*
G75*
G02*
X82413400Y-135804100I0J-187500D01*
G01*
X82413400Y-136179100D01*
G75*
G02*
X82225900Y-136366600I-187500J0D01*
G01*
X80250900Y-136366600D01*
G75*
G02*
X80063400Y-136179100I0J187500D01*
G01*
X80063400Y-135804100D01*
G75*
G02*
X80250900Y-135616600I187500J0D01*
G01*
G37*
G36*
G01*
X80250900Y-134346600D02*
X82225900Y-134346600D01*
G75*
G02*
X82413400Y-134534100I0J-187500D01*
G01*
X82413400Y-134909100D01*
G75*
G02*
X82225900Y-135096600I-187500J0D01*
G01*
X80250900Y-135096600D01*
G75*
G02*
X80063400Y-134909100I0J187500D01*
G01*
X80063400Y-134534100D01*
G75*
G02*
X80250900Y-134346600I187500J0D01*
G01*
G37*
D15*
X76038400Y-134721600D03*
G36*
G01*
X80250900Y-136886600D02*
X82225900Y-136886600D01*
G75*
G02*
X82413400Y-137074100I0J-187500D01*
G01*
X82413400Y-137449100D01*
G75*
G02*
X82225900Y-137636600I-187500J0D01*
G01*
X80250900Y-137636600D01*
G75*
G02*
X80063400Y-137449100I0J187500D01*
G01*
X80063400Y-137074100D01*
G75*
G02*
X80250900Y-136886600I187500J0D01*
G01*
G37*
G36*
G01*
X80250900Y-143236600D02*
X82225900Y-143236600D01*
G75*
G02*
X82413400Y-143424100I0J-187500D01*
G01*
X82413400Y-143799100D01*
G75*
G02*
X82225900Y-143986600I-187500J0D01*
G01*
X80250900Y-143986600D01*
G75*
G02*
X80063400Y-143799100I0J187500D01*
G01*
X80063400Y-143424100D01*
G75*
G02*
X80250900Y-143236600I187500J0D01*
G01*
G37*
G36*
G01*
X75050900Y-138156600D02*
X77025900Y-138156600D01*
G75*
G02*
X77213400Y-138344100I0J-187500D01*
G01*
X77213400Y-138719100D01*
G75*
G02*
X77025900Y-138906600I-187500J0D01*
G01*
X75050900Y-138906600D01*
G75*
G02*
X74863400Y-138719100I0J187500D01*
G01*
X74863400Y-138344100D01*
G75*
G02*
X75050900Y-138156600I187500J0D01*
G01*
G37*
G36*
G01*
X90481500Y-169443000D02*
X90481500Y-171418000D01*
G75*
G02*
X90294000Y-171605500I-187500J0D01*
G01*
X89919000Y-171605500D01*
G75*
G02*
X89731500Y-171418000I0J187500D01*
G01*
X89731500Y-169443000D01*
G75*
G02*
X89919000Y-169255500I187500J0D01*
G01*
X90294000Y-169255500D01*
G75*
G02*
X90481500Y-169443000I0J-187500D01*
G01*
G37*
D13*
X90106500Y-165230500D03*
G36*
G01*
X89211500Y-169443000D02*
X89211500Y-171418000D01*
G75*
G02*
X89024000Y-171605500I-187500J0D01*
G01*
X88649000Y-171605500D01*
G75*
G02*
X88461500Y-171418000I0J187500D01*
G01*
X88461500Y-169443000D01*
G75*
G02*
X88649000Y-169255500I187500J0D01*
G01*
X89024000Y-169255500D01*
G75*
G02*
X89211500Y-169443000I0J-187500D01*
G01*
G37*
G36*
G01*
X89211500Y-164243000D02*
X89211500Y-166218000D01*
G75*
G02*
X89024000Y-166405500I-187500J0D01*
G01*
X88649000Y-166405500D01*
G75*
G02*
X88461500Y-166218000I0J187500D01*
G01*
X88461500Y-164243000D01*
G75*
G02*
X88649000Y-164055500I187500J0D01*
G01*
X89024000Y-164055500D01*
G75*
G02*
X89211500Y-164243000I0J-187500D01*
G01*
G37*
G36*
G01*
X87941500Y-169443000D02*
X87941500Y-171418000D01*
G75*
G02*
X87754000Y-171605500I-187500J0D01*
G01*
X87379000Y-171605500D01*
G75*
G02*
X87191500Y-171418000I0J187500D01*
G01*
X87191500Y-169443000D01*
G75*
G02*
X87379000Y-169255500I187500J0D01*
G01*
X87754000Y-169255500D01*
G75*
G02*
X87941500Y-169443000I0J-187500D01*
G01*
G37*
G36*
G01*
X87941500Y-164243000D02*
X87941500Y-166218000D01*
G75*
G02*
X87754000Y-166405500I-187500J0D01*
G01*
X87379000Y-166405500D01*
G75*
G02*
X87191500Y-166218000I0J187500D01*
G01*
X87191500Y-164243000D01*
G75*
G02*
X87379000Y-164055500I187500J0D01*
G01*
X87754000Y-164055500D01*
G75*
G02*
X87941500Y-164243000I0J-187500D01*
G01*
G37*
G36*
G01*
X86671500Y-169443000D02*
X86671500Y-171418000D01*
G75*
G02*
X86484000Y-171605500I-187500J0D01*
G01*
X86109000Y-171605500D01*
G75*
G02*
X85921500Y-171418000I0J187500D01*
G01*
X85921500Y-169443000D01*
G75*
G02*
X86109000Y-169255500I187500J0D01*
G01*
X86484000Y-169255500D01*
G75*
G02*
X86671500Y-169443000I0J-187500D01*
G01*
G37*
G36*
G01*
X86671500Y-164243000D02*
X86671500Y-166218000D01*
G75*
G02*
X86484000Y-166405500I-187500J0D01*
G01*
X86109000Y-166405500D01*
G75*
G02*
X85921500Y-166218000I0J187500D01*
G01*
X85921500Y-164243000D01*
G75*
G02*
X86109000Y-164055500I187500J0D01*
G01*
X86484000Y-164055500D01*
G75*
G02*
X86671500Y-164243000I0J-187500D01*
G01*
G37*
G36*
G01*
X82277300Y-145638800D02*
X80250300Y-145638800D01*
G75*
G02*
X80036800Y-145425300I0J213500D01*
G01*
X80036800Y-144998300D01*
G75*
G02*
X80250300Y-144784800I213500J0D01*
G01*
X82277300Y-144784800D01*
G75*
G02*
X82490800Y-144998300I0J-213500D01*
G01*
X82490800Y-145425300D01*
G75*
G02*
X82277300Y-145638800I-213500J0D01*
G01*
G37*
G36*
G01*
X77051300Y-145586800D02*
X75076300Y-145586800D01*
G75*
G02*
X74888800Y-145399300I0J187500D01*
G01*
X74888800Y-145024300D01*
G75*
G02*
X75076300Y-144836800I187500J0D01*
G01*
X77051300Y-144836800D01*
G75*
G02*
X77238800Y-145024300I0J-187500D01*
G01*
X77238800Y-145399300D01*
G75*
G02*
X77051300Y-145586800I-187500J0D01*
G01*
G37*
G36*
G01*
X82277300Y-146908800D02*
X80250300Y-146908800D01*
G75*
G02*
X80036800Y-146695300I0J213500D01*
G01*
X80036800Y-146268300D01*
G75*
G02*
X80250300Y-146054800I213500J0D01*
G01*
X82277300Y-146054800D01*
G75*
G02*
X82490800Y-146268300I0J-213500D01*
G01*
X82490800Y-146695300D01*
G75*
G02*
X82277300Y-146908800I-213500J0D01*
G01*
G37*
G36*
G01*
X77051300Y-146856800D02*
X75076300Y-146856800D01*
G75*
G02*
X74888800Y-146669300I0J187500D01*
G01*
X74888800Y-146294300D01*
G75*
G02*
X75076300Y-146106800I187500J0D01*
G01*
X77051300Y-146106800D01*
G75*
G02*
X77238800Y-146294300I0J-187500D01*
G01*
X77238800Y-146669300D01*
G75*
G02*
X77051300Y-146856800I-187500J0D01*
G01*
G37*
G36*
G01*
X82251300Y-148126800D02*
X80276300Y-148126800D01*
G75*
G02*
X80088800Y-147939300I0J187500D01*
G01*
X80088800Y-147564300D01*
G75*
G02*
X80276300Y-147376800I187500J0D01*
G01*
X82251300Y-147376800D01*
G75*
G02*
X82438800Y-147564300I0J-187500D01*
G01*
X82438800Y-147939300D01*
G75*
G02*
X82251300Y-148126800I-187500J0D01*
G01*
G37*
G36*
G01*
X77077300Y-148178800D02*
X75050300Y-148178800D01*
G75*
G02*
X74836800Y-147965300I0J213500D01*
G01*
X74836800Y-147538300D01*
G75*
G02*
X75050300Y-147324800I213500J0D01*
G01*
X77077300Y-147324800D01*
G75*
G02*
X77290800Y-147538300I0J-213500D01*
G01*
X77290800Y-147965300D01*
G75*
G02*
X77077300Y-148178800I-213500J0D01*
G01*
G37*
G36*
G01*
X82251300Y-149396800D02*
X80276300Y-149396800D01*
G75*
G02*
X80088800Y-149209300I0J187500D01*
G01*
X80088800Y-148834300D01*
G75*
G02*
X80276300Y-148646800I187500J0D01*
G01*
X82251300Y-148646800D01*
G75*
G02*
X82438800Y-148834300I0J-187500D01*
G01*
X82438800Y-149209300D01*
G75*
G02*
X82251300Y-149396800I-187500J0D01*
G01*
G37*
G36*
G01*
X77077300Y-149448800D02*
X75050300Y-149448800D01*
G75*
G02*
X74836800Y-149235300I0J213500D01*
G01*
X74836800Y-148808300D01*
G75*
G02*
X75050300Y-148594800I213500J0D01*
G01*
X77077300Y-148594800D01*
G75*
G02*
X77290800Y-148808300I0J-213500D01*
G01*
X77290800Y-149235300D01*
G75*
G02*
X77077300Y-149448800I-213500J0D01*
G01*
G37*
G36*
G01*
X82251300Y-150666800D02*
X80276300Y-150666800D01*
G75*
G02*
X80088800Y-150479300I0J187500D01*
G01*
X80088800Y-150104300D01*
G75*
G02*
X80276300Y-149916800I187500J0D01*
G01*
X82251300Y-149916800D01*
G75*
G02*
X82438800Y-150104300I0J-187500D01*
G01*
X82438800Y-150479300D01*
G75*
G02*
X82251300Y-150666800I-187500J0D01*
G01*
G37*
G36*
G01*
X77077300Y-150718800D02*
X75050300Y-150718800D01*
G75*
G02*
X74836800Y-150505300I0J213500D01*
G01*
X74836800Y-150078300D01*
G75*
G02*
X75050300Y-149864800I213500J0D01*
G01*
X77077300Y-149864800D01*
G75*
G02*
X77290800Y-150078300I0J-213500D01*
G01*
X77290800Y-150505300D01*
G75*
G02*
X77077300Y-150718800I-213500J0D01*
G01*
G37*
G36*
G01*
X82251300Y-151936800D02*
X80276300Y-151936800D01*
G75*
G02*
X80088800Y-151749300I0J187500D01*
G01*
X80088800Y-151374300D01*
G75*
G02*
X80276300Y-151186800I187500J0D01*
G01*
X82251300Y-151186800D01*
G75*
G02*
X82438800Y-151374300I0J-187500D01*
G01*
X82438800Y-151749300D01*
G75*
G02*
X82251300Y-151936800I-187500J0D01*
G01*
G37*
G36*
G01*
X77077300Y-151988800D02*
X75050300Y-151988800D01*
G75*
G02*
X74836800Y-151775300I0J213500D01*
G01*
X74836800Y-151348300D01*
G75*
G02*
X75050300Y-151134800I213500J0D01*
G01*
X77077300Y-151134800D01*
G75*
G02*
X77290800Y-151348300I0J-213500D01*
G01*
X77290800Y-151775300D01*
G75*
G02*
X77077300Y-151988800I-213500J0D01*
G01*
G37*
G36*
G01*
X82251300Y-153206800D02*
X80276300Y-153206800D01*
G75*
G02*
X80088800Y-153019300I0J187500D01*
G01*
X80088800Y-152644300D01*
G75*
G02*
X80276300Y-152456800I187500J0D01*
G01*
X82251300Y-152456800D01*
G75*
G02*
X82438800Y-152644300I0J-187500D01*
G01*
X82438800Y-153019300D01*
G75*
G02*
X82251300Y-153206800I-187500J0D01*
G01*
G37*
G36*
G01*
X77051300Y-153206800D02*
X75076300Y-153206800D01*
G75*
G02*
X74888800Y-153019300I0J187500D01*
G01*
X74888800Y-152644300D01*
G75*
G02*
X75076300Y-152456800I187500J0D01*
G01*
X77051300Y-152456800D01*
G75*
G02*
X77238800Y-152644300I0J-187500D01*
G01*
X77238800Y-153019300D01*
G75*
G02*
X77051300Y-153206800I-187500J0D01*
G01*
G37*
D15*
X81263800Y-154101800D03*
G36*
G01*
X77051300Y-154476800D02*
X75076300Y-154476800D01*
G75*
G02*
X74888800Y-154289300I0J187500D01*
G01*
X74888800Y-153914300D01*
G75*
G02*
X75076300Y-153726800I187500J0D01*
G01*
X77051300Y-153726800D01*
G75*
G02*
X77238800Y-153914300I0J-187500D01*
G01*
X77238800Y-154289300D01*
G75*
G02*
X77051300Y-154476800I-187500J0D01*
G01*
G37*
D16*
X103505000Y-169711000D03*
D17*
X103505000Y-164211000D03*
G36*
G01*
X84885000Y-130250500D02*
X84885000Y-132131500D01*
G75*
G02*
X84479500Y-132537000I-405500J0D01*
G01*
X83668500Y-132537000D01*
G75*
G02*
X83263000Y-132131500I0J405500D01*
G01*
X83263000Y-130250500D01*
G75*
G02*
X83668500Y-129845000I405500J0D01*
G01*
X84479500Y-129845000D01*
G75*
G02*
X84885000Y-130250500I0J-405500D01*
G01*
G37*
G36*
G01*
X87933000Y-130250500D02*
X87933000Y-132131500D01*
G75*
G02*
X87527500Y-132537000I-405500J0D01*
G01*
X86716500Y-132537000D01*
G75*
G02*
X86311000Y-132131500I0J405500D01*
G01*
X86311000Y-130250500D01*
G75*
G02*
X86716500Y-129845000I405500J0D01*
G01*
X87527500Y-129845000D01*
G75*
G02*
X87933000Y-130250500I0J-405500D01*
G01*
G37*
G36*
G01*
X84631000Y-161238500D02*
X84631000Y-163119500D01*
G75*
G02*
X84225500Y-163525000I-405500J0D01*
G01*
X83414500Y-163525000D01*
G75*
G02*
X83009000Y-163119500I0J405500D01*
G01*
X83009000Y-161238500D01*
G75*
G02*
X83414500Y-160833000I405500J0D01*
G01*
X84225500Y-160833000D01*
G75*
G02*
X84631000Y-161238500I0J-405500D01*
G01*
G37*
G36*
G01*
X87679000Y-161238500D02*
X87679000Y-163119500D01*
G75*
G02*
X87273500Y-163525000I-405500J0D01*
G01*
X86462500Y-163525000D01*
G75*
G02*
X86057000Y-163119500I0J405500D01*
G01*
X86057000Y-161238500D01*
G75*
G02*
X86462500Y-160833000I405500J0D01*
G01*
X87273500Y-160833000D01*
G75*
G02*
X87679000Y-161238500I0J-405500D01*
G01*
G37*
G36*
G01*
X100818500Y-136079000D02*
X101619500Y-136079000D01*
G75*
G02*
X102020000Y-136479500I0J-400500D01*
G01*
X102020000Y-137530500D01*
G75*
G02*
X101619500Y-137931000I-400500J0D01*
G01*
X100818500Y-137931000D01*
G75*
G02*
X100418000Y-137530500I0J400500D01*
G01*
X100418000Y-136479500D01*
G75*
G02*
X100818500Y-136079000I400500J0D01*
G01*
G37*
G36*
G01*
X100818500Y-132579000D02*
X101619500Y-132579000D01*
G75*
G02*
X102020000Y-132979500I0J-400500D01*
G01*
X102020000Y-134030500D01*
G75*
G02*
X101619500Y-134431000I-400500J0D01*
G01*
X100818500Y-134431000D01*
G75*
G02*
X100418000Y-134030500I0J400500D01*
G01*
X100418000Y-132979500D01*
G75*
G02*
X100818500Y-132579000I400500J0D01*
G01*
G37*
G36*
G01*
X106909000Y-134204500D02*
X106909000Y-132903500D01*
G75*
G02*
X107309500Y-132503000I400500J0D01*
G01*
X108110500Y-132503000D01*
G75*
G02*
X108511000Y-132903500I0J-400500D01*
G01*
X108511000Y-134204500D01*
G75*
G02*
X108110500Y-134605000I-400500J0D01*
G01*
X107309500Y-134605000D01*
G75*
G02*
X106909000Y-134204500I0J400500D01*
G01*
G37*
G36*
G01*
X104609000Y-134234500D02*
X104609000Y-130433500D01*
G75*
G02*
X105009500Y-130033000I400500J0D01*
G01*
X105810500Y-130033000D01*
G75*
G02*
X106211000Y-130433500I0J-400500D01*
G01*
X106211000Y-134234500D01*
G75*
G02*
X105810500Y-134635000I-400500J0D01*
G01*
X105009500Y-134635000D01*
G75*
G02*
X104609000Y-134234500I0J400500D01*
G01*
G37*
G36*
G01*
X102309000Y-134204500D02*
X102309000Y-132903500D01*
G75*
G02*
X102709500Y-132503000I400500J0D01*
G01*
X103510500Y-132503000D01*
G75*
G02*
X103911000Y-132903500I0J-400500D01*
G01*
X103911000Y-134204500D01*
G75*
G02*
X103510500Y-134605000I-400500J0D01*
G01*
X102709500Y-134605000D01*
G75*
G02*
X102309000Y-134204500I0J400500D01*
G01*
G37*
G36*
G01*
X102209000Y-129674200D02*
X102209000Y-128553800D01*
G75*
G02*
X104449800Y-126313000I2240800J0D01*
G01*
X106370200Y-126313000D01*
G75*
G02*
X108611000Y-128553800I0J-2240800D01*
G01*
X108611000Y-129674200D01*
G75*
G02*
X106370200Y-131915000I-2240800J0D01*
G01*
X104449800Y-131915000D01*
G75*
G02*
X102209000Y-129674200I0J2240800D01*
G01*
G37*
G36*
G01*
X104234000Y-136484500D02*
X104234000Y-137835500D01*
G75*
G02*
X103858500Y-138211000I-375500J0D01*
G01*
X103107500Y-138211000D01*
G75*
G02*
X102732000Y-137835500I0J375500D01*
G01*
X102732000Y-136484500D01*
G75*
G02*
X103107500Y-136109000I375500J0D01*
G01*
X103858500Y-136109000D01*
G75*
G02*
X104234000Y-136484500I0J-375500D01*
G01*
G37*
G36*
G01*
X107834000Y-136484500D02*
X107834000Y-137835500D01*
G75*
G02*
X107458500Y-138211000I-375500J0D01*
G01*
X106707500Y-138211000D01*
G75*
G02*
X106332000Y-137835500I0J375500D01*
G01*
X106332000Y-136484500D01*
G75*
G02*
X106707500Y-136109000I375500J0D01*
G01*
X107458500Y-136109000D01*
G75*
G02*
X107834000Y-136484500I0J-375500D01*
G01*
G37*
D18*
X82804000Y-126746000D03*
X85344000Y-126746000D03*
X87884000Y-126746000D03*
X90424000Y-126746000D03*
X92964000Y-126746000D03*
X95504000Y-126746000D03*
X98044000Y-126746000D03*
X100584000Y-126746000D03*
G36*
G01*
X86549000Y-138322500D02*
X86549000Y-137521500D01*
G75*
G02*
X86949500Y-137121000I400500J0D01*
G01*
X88000500Y-137121000D01*
G75*
G02*
X88401000Y-137521500I0J-400500D01*
G01*
X88401000Y-138322500D01*
G75*
G02*
X88000500Y-138723000I-400500J0D01*
G01*
X86949500Y-138723000D01*
G75*
G02*
X86549000Y-138322500I0J400500D01*
G01*
G37*
G36*
G01*
X83049000Y-138322500D02*
X83049000Y-137521500D01*
G75*
G02*
X83449500Y-137121000I400500J0D01*
G01*
X84500500Y-137121000D01*
G75*
G02*
X84901000Y-137521500I0J-400500D01*
G01*
X84901000Y-138322500D01*
G75*
G02*
X84500500Y-138723000I-400500J0D01*
G01*
X83449500Y-138723000D01*
G75*
G02*
X83049000Y-138322500I0J400500D01*
G01*
G37*
G36*
G01*
X98246500Y-167972000D02*
X100127500Y-167972000D01*
G75*
G02*
X100533000Y-168377500I0J-405500D01*
G01*
X100533000Y-169188500D01*
G75*
G02*
X100127500Y-169594000I-405500J0D01*
G01*
X98246500Y-169594000D01*
G75*
G02*
X97841000Y-169188500I0J405500D01*
G01*
X97841000Y-168377500D01*
G75*
G02*
X98246500Y-167972000I405500J0D01*
G01*
G37*
G36*
G01*
X98246500Y-164924000D02*
X100127500Y-164924000D01*
G75*
G02*
X100533000Y-165329500I0J-405500D01*
G01*
X100533000Y-166140500D01*
G75*
G02*
X100127500Y-166546000I-405500J0D01*
G01*
X98246500Y-166546000D01*
G75*
G02*
X97841000Y-166140500I0J405500D01*
G01*
X97841000Y-165329500D01*
G75*
G02*
X98246500Y-164924000I405500J0D01*
G01*
G37*
X82804000Y-175006000D03*
X85344000Y-175006000D03*
X87884000Y-175006000D03*
X90424000Y-175006000D03*
X92964000Y-175006000D03*
X95504000Y-175006000D03*
X98044000Y-175006000D03*
X100584000Y-175006000D03*
G36*
G01*
X80678000Y-162981500D02*
X80678000Y-161630500D01*
G75*
G02*
X81053500Y-161255000I375500J0D01*
G01*
X81804500Y-161255000D01*
G75*
G02*
X82180000Y-161630500I0J-375500D01*
G01*
X82180000Y-162981500D01*
G75*
G02*
X81804500Y-163357000I-375500J0D01*
G01*
X81053500Y-163357000D01*
G75*
G02*
X80678000Y-162981500I0J375500D01*
G01*
G37*
G36*
G01*
X77078000Y-162981500D02*
X77078000Y-161630500D01*
G75*
G02*
X77453500Y-161255000I375500J0D01*
G01*
X78204500Y-161255000D01*
G75*
G02*
X78580000Y-161630500I0J-375500D01*
G01*
X78580000Y-162981500D01*
G75*
G02*
X78204500Y-163357000I-375500J0D01*
G01*
X77453500Y-163357000D01*
G75*
G02*
X77078000Y-162981500I0J375500D01*
G01*
G37*
G36*
G01*
X80850000Y-132258500D02*
X80850000Y-130377500D01*
G75*
G02*
X81255500Y-129972000I405500J0D01*
G01*
X82066500Y-129972000D01*
G75*
G02*
X82472000Y-130377500I0J-405500D01*
G01*
X82472000Y-132258500D01*
G75*
G02*
X82066500Y-132664000I-405500J0D01*
G01*
X81255500Y-132664000D01*
G75*
G02*
X80850000Y-132258500I0J405500D01*
G01*
G37*
G36*
G01*
X77802000Y-132258500D02*
X77802000Y-130377500D01*
G75*
G02*
X78207500Y-129972000I405500J0D01*
G01*
X79018500Y-129972000D01*
G75*
G02*
X79424000Y-130377500I0J-405500D01*
G01*
X79424000Y-132258500D01*
G75*
G02*
X79018500Y-132664000I-405500J0D01*
G01*
X78207500Y-132664000D01*
G75*
G02*
X77802000Y-132258500I0J405500D01*
G01*
G37*
G36*
G01*
X84901000Y-134981500D02*
X84901000Y-135782500D01*
G75*
G02*
X84500500Y-136183000I-400500J0D01*
G01*
X83449500Y-136183000D01*
G75*
G02*
X83049000Y-135782500I0J400500D01*
G01*
X83049000Y-134981500D01*
G75*
G02*
X83449500Y-134581000I400500J0D01*
G01*
X84500500Y-134581000D01*
G75*
G02*
X84901000Y-134981500I0J-400500D01*
G01*
G37*
G36*
G01*
X88401000Y-134981500D02*
X88401000Y-135782500D01*
G75*
G02*
X88000500Y-136183000I-400500J0D01*
G01*
X86949500Y-136183000D01*
G75*
G02*
X86549000Y-135782500I0J400500D01*
G01*
X86549000Y-134981500D01*
G75*
G02*
X86949500Y-134581000I400500J0D01*
G01*
X88000500Y-134581000D01*
G75*
G02*
X88401000Y-134981500I0J-400500D01*
G01*
G37*
G36*
G01*
X92137000Y-131464500D02*
X92137000Y-130663500D01*
G75*
G02*
X92537500Y-130263000I400500J0D01*
G01*
X93588500Y-130263000D01*
G75*
G02*
X93989000Y-130663500I0J-400500D01*
G01*
X93989000Y-131464500D01*
G75*
G02*
X93588500Y-131865000I-400500J0D01*
G01*
X92537500Y-131865000D01*
G75*
G02*
X92137000Y-131464500I0J400500D01*
G01*
G37*
G36*
G01*
X88637000Y-131464500D02*
X88637000Y-130663500D01*
G75*
G02*
X89037500Y-130263000I400500J0D01*
G01*
X90088500Y-130263000D01*
G75*
G02*
X90489000Y-130663500I0J-400500D01*
G01*
X90489000Y-131464500D01*
G75*
G02*
X90088500Y-131865000I-400500J0D01*
G01*
X89037500Y-131865000D01*
G75*
G02*
X88637000Y-131464500I0J400500D01*
G01*
G37*
G36*
G01*
X107676500Y-142528000D02*
X108477500Y-142528000D01*
G75*
G02*
X108878000Y-142928500I0J-400500D01*
G01*
X108878000Y-143979500D01*
G75*
G02*
X108477500Y-144380000I-400500J0D01*
G01*
X107676500Y-144380000D01*
G75*
G02*
X107276000Y-143979500I0J400500D01*
G01*
X107276000Y-142928500D01*
G75*
G02*
X107676500Y-142528000I400500J0D01*
G01*
G37*
G36*
G01*
X107676500Y-139028000D02*
X108477500Y-139028000D01*
G75*
G02*
X108878000Y-139428500I0J-400500D01*
G01*
X108878000Y-140479500D01*
G75*
G02*
X108477500Y-140880000I-400500J0D01*
G01*
X107676500Y-140880000D01*
G75*
G02*
X107276000Y-140479500I0J400500D01*
G01*
X107276000Y-139428500D01*
G75*
G02*
X107676500Y-139028000I400500J0D01*
G01*
G37*
D19*
G36*
X75176990Y-174771304D02*
G01*
X75184665Y-174849239D01*
X75207343Y-174923996D01*
X75244167Y-174992890D01*
X75293725Y-175053275D01*
X75354110Y-175102833D01*
X75423004Y-175139657D01*
X75497761Y-175162335D01*
X75575696Y-175170010D01*
X75577322Y-175171175D01*
X75577126Y-175173165D01*
X75575500Y-175174000D01*
X75519138Y-175174000D01*
X75518942Y-175173990D01*
X75446981Y-175166903D01*
X75446596Y-175166827D01*
X75383308Y-175147628D01*
X75382946Y-175147478D01*
X75324608Y-175116296D01*
X75324282Y-175116078D01*
X75273156Y-175074121D01*
X75272879Y-175073844D01*
X75230922Y-175022718D01*
X75230704Y-175022392D01*
X75199522Y-174964054D01*
X75199372Y-174963692D01*
X75180173Y-174900404D01*
X75180097Y-174900019D01*
X75173010Y-174828058D01*
X75173000Y-174827862D01*
X75173000Y-174771500D01*
X75174000Y-174769768D01*
X75176000Y-174769768D01*
X75176990Y-174771304D01*
G37*
G36*
X77028165Y-174769874D02*
G01*
X77029000Y-174771500D01*
X77029000Y-174827862D01*
X77028990Y-174828058D01*
X77021903Y-174900019D01*
X77021827Y-174900404D01*
X77002628Y-174963692D01*
X77002478Y-174964054D01*
X76971296Y-175022392D01*
X76971078Y-175022718D01*
X76929121Y-175073844D01*
X76928844Y-175074121D01*
X76877718Y-175116078D01*
X76877392Y-175116296D01*
X76819054Y-175147478D01*
X76818692Y-175147628D01*
X76755404Y-175166827D01*
X76755019Y-175166903D01*
X76683058Y-175173990D01*
X76682862Y-175174000D01*
X76626500Y-175174000D01*
X76624768Y-175173000D01*
X76624768Y-175171000D01*
X76626304Y-175170010D01*
X76704239Y-175162335D01*
X76778996Y-175139657D01*
X76847890Y-175102833D01*
X76908275Y-175053275D01*
X76957833Y-174992890D01*
X76994657Y-174923996D01*
X77017335Y-174849239D01*
X77025010Y-174771304D01*
X77026175Y-174769678D01*
X77028165Y-174769874D01*
G37*
G36*
X78676990Y-174771304D02*
G01*
X78684665Y-174849239D01*
X78707343Y-174923996D01*
X78744167Y-174992890D01*
X78793725Y-175053275D01*
X78854110Y-175102833D01*
X78923004Y-175139657D01*
X78997761Y-175162335D01*
X79075696Y-175170010D01*
X79077322Y-175171175D01*
X79077126Y-175173165D01*
X79075500Y-175174000D01*
X79019138Y-175174000D01*
X79018942Y-175173990D01*
X78946981Y-175166903D01*
X78946596Y-175166827D01*
X78883308Y-175147628D01*
X78882946Y-175147478D01*
X78824608Y-175116296D01*
X78824282Y-175116078D01*
X78773156Y-175074121D01*
X78772879Y-175073844D01*
X78730922Y-175022718D01*
X78730704Y-175022392D01*
X78699522Y-174964054D01*
X78699372Y-174963692D01*
X78680173Y-174900404D01*
X78680097Y-174900019D01*
X78673010Y-174828058D01*
X78673000Y-174827862D01*
X78673000Y-174771500D01*
X78674000Y-174769768D01*
X78676000Y-174769768D01*
X78676990Y-174771304D01*
G37*
G36*
X80528165Y-174769874D02*
G01*
X80529000Y-174771500D01*
X80529000Y-174827862D01*
X80528990Y-174828058D01*
X80521903Y-174900019D01*
X80521827Y-174900404D01*
X80502628Y-174963692D01*
X80502478Y-174964054D01*
X80471296Y-175022392D01*
X80471078Y-175022718D01*
X80429121Y-175073844D01*
X80428844Y-175074121D01*
X80377718Y-175116078D01*
X80377392Y-175116296D01*
X80319054Y-175147478D01*
X80318692Y-175147628D01*
X80255404Y-175166827D01*
X80255019Y-175166903D01*
X80183058Y-175173990D01*
X80182862Y-175174000D01*
X80126500Y-175174000D01*
X80124768Y-175173000D01*
X80124768Y-175171000D01*
X80126304Y-175170010D01*
X80204239Y-175162335D01*
X80278996Y-175139657D01*
X80347890Y-175102833D01*
X80408275Y-175053275D01*
X80457833Y-174992890D01*
X80494657Y-174923996D01*
X80517335Y-174849239D01*
X80525010Y-174771304D01*
X80526175Y-174769678D01*
X80528165Y-174769874D01*
G37*
G36*
X79077232Y-173569000D02*
G01*
X79077232Y-173571000D01*
X79075696Y-173571990D01*
X78997761Y-173579665D01*
X78923004Y-173602343D01*
X78854110Y-173639167D01*
X78793725Y-173688725D01*
X78744167Y-173749110D01*
X78707343Y-173818004D01*
X78684665Y-173892761D01*
X78676990Y-173970696D01*
X78675825Y-173972322D01*
X78673835Y-173972126D01*
X78673000Y-173970500D01*
X78673000Y-173914138D01*
X78673010Y-173913942D01*
X78680097Y-173841981D01*
X78680173Y-173841596D01*
X78699372Y-173778308D01*
X78699522Y-173777946D01*
X78730704Y-173719608D01*
X78730922Y-173719282D01*
X78772879Y-173668156D01*
X78773156Y-173667879D01*
X78824282Y-173625922D01*
X78824608Y-173625704D01*
X78882946Y-173594522D01*
X78883308Y-173594372D01*
X78946596Y-173575173D01*
X78946981Y-173575097D01*
X79018942Y-173568010D01*
X79019138Y-173568000D01*
X79075500Y-173568000D01*
X79077232Y-173569000D01*
G37*
G36*
X75577232Y-173569000D02*
G01*
X75577232Y-173571000D01*
X75575696Y-173571990D01*
X75497761Y-173579665D01*
X75423004Y-173602343D01*
X75354110Y-173639167D01*
X75293725Y-173688725D01*
X75244167Y-173749110D01*
X75207343Y-173818004D01*
X75184665Y-173892761D01*
X75176990Y-173970696D01*
X75175825Y-173972322D01*
X75173835Y-173972126D01*
X75173000Y-173970500D01*
X75173000Y-173914138D01*
X75173010Y-173913942D01*
X75180097Y-173841981D01*
X75180173Y-173841596D01*
X75199372Y-173778308D01*
X75199522Y-173777946D01*
X75230704Y-173719608D01*
X75230922Y-173719282D01*
X75272879Y-173668156D01*
X75273156Y-173667879D01*
X75324282Y-173625922D01*
X75324608Y-173625704D01*
X75382946Y-173594522D01*
X75383308Y-173594372D01*
X75446596Y-173575173D01*
X75446981Y-173575097D01*
X75518942Y-173568010D01*
X75519138Y-173568000D01*
X75575500Y-173568000D01*
X75577232Y-173569000D01*
G37*
G36*
X80183058Y-173568010D02*
G01*
X80255019Y-173575097D01*
X80255404Y-173575173D01*
X80318692Y-173594372D01*
X80319054Y-173594522D01*
X80377392Y-173625704D01*
X80377718Y-173625922D01*
X80428844Y-173667879D01*
X80429121Y-173668156D01*
X80471078Y-173719282D01*
X80471296Y-173719608D01*
X80502478Y-173777946D01*
X80502628Y-173778308D01*
X80521827Y-173841596D01*
X80521903Y-173841981D01*
X80528990Y-173913942D01*
X80529000Y-173914138D01*
X80529000Y-173970500D01*
X80528000Y-173972232D01*
X80526000Y-173972232D01*
X80525010Y-173970696D01*
X80517335Y-173892761D01*
X80494657Y-173818004D01*
X80457833Y-173749110D01*
X80408275Y-173688725D01*
X80347890Y-173639167D01*
X80278996Y-173602343D01*
X80204239Y-173579665D01*
X80126304Y-173571990D01*
X80124678Y-173570825D01*
X80124874Y-173568835D01*
X80126500Y-173568000D01*
X80182862Y-173568000D01*
X80183058Y-173568010D01*
G37*
G36*
X76683058Y-173568010D02*
G01*
X76755019Y-173575097D01*
X76755404Y-173575173D01*
X76818692Y-173594372D01*
X76819054Y-173594522D01*
X76877392Y-173625704D01*
X76877718Y-173625922D01*
X76928844Y-173667879D01*
X76929121Y-173668156D01*
X76971078Y-173719282D01*
X76971296Y-173719608D01*
X77002478Y-173777946D01*
X77002628Y-173778308D01*
X77021827Y-173841596D01*
X77021903Y-173841981D01*
X77028990Y-173913942D01*
X77029000Y-173914138D01*
X77029000Y-173970500D01*
X77028000Y-173972232D01*
X77026000Y-173972232D01*
X77025010Y-173970696D01*
X77017335Y-173892761D01*
X76994657Y-173818004D01*
X76957833Y-173749110D01*
X76908275Y-173688725D01*
X76847890Y-173639167D01*
X76778996Y-173602343D01*
X76704239Y-173579665D01*
X76626304Y-173571990D01*
X76624678Y-173570825D01*
X76624874Y-173568835D01*
X76626500Y-173568000D01*
X76682862Y-173568000D01*
X76683058Y-173568010D01*
G37*
G36*
X100534165Y-169186874D02*
G01*
X100535000Y-169188500D01*
X100535000Y-169244862D01*
X100534990Y-169245058D01*
X100527807Y-169317995D01*
X100527731Y-169318380D01*
X100508247Y-169382609D01*
X100508097Y-169382971D01*
X100476456Y-169442166D01*
X100476238Y-169442492D01*
X100433656Y-169494379D01*
X100433379Y-169494656D01*
X100381492Y-169537238D01*
X100381166Y-169537456D01*
X100321971Y-169569097D01*
X100321609Y-169569247D01*
X100257380Y-169588731D01*
X100256995Y-169588807D01*
X100184058Y-169595990D01*
X100183862Y-169596000D01*
X100127500Y-169596000D01*
X100125768Y-169595000D01*
X100125768Y-169593000D01*
X100127304Y-169592010D01*
X100206214Y-169584238D01*
X100281909Y-169561276D01*
X100351668Y-169523990D01*
X100412811Y-169473811D01*
X100462990Y-169412668D01*
X100500276Y-169342909D01*
X100523238Y-169267214D01*
X100531010Y-169188304D01*
X100532175Y-169186678D01*
X100534165Y-169186874D01*
G37*
G36*
X97842990Y-169188304D02*
G01*
X97850762Y-169267214D01*
X97873724Y-169342909D01*
X97911010Y-169412668D01*
X97961189Y-169473811D01*
X98022332Y-169523990D01*
X98092091Y-169561276D01*
X98167786Y-169584238D01*
X98246696Y-169592010D01*
X98248322Y-169593175D01*
X98248126Y-169595165D01*
X98246500Y-169596000D01*
X98190138Y-169596000D01*
X98189942Y-169595990D01*
X98117005Y-169588807D01*
X98116620Y-169588731D01*
X98052391Y-169569247D01*
X98052029Y-169569097D01*
X97992834Y-169537456D01*
X97992508Y-169537238D01*
X97940621Y-169494656D01*
X97940344Y-169494379D01*
X97897762Y-169442492D01*
X97897544Y-169442166D01*
X97865903Y-169382971D01*
X97865753Y-169382609D01*
X97846269Y-169318380D01*
X97846193Y-169317995D01*
X97839010Y-169245058D01*
X97839000Y-169244862D01*
X97839000Y-169188500D01*
X97840000Y-169186768D01*
X97842000Y-169186768D01*
X97842990Y-169188304D01*
G37*
G36*
X98248232Y-167971000D02*
G01*
X98248232Y-167973000D01*
X98246696Y-167973990D01*
X98167786Y-167981762D01*
X98092091Y-168004724D01*
X98022332Y-168042010D01*
X97961189Y-168092189D01*
X97911010Y-168153332D01*
X97873724Y-168223091D01*
X97850762Y-168298786D01*
X97842990Y-168377696D01*
X97841825Y-168379322D01*
X97839835Y-168379126D01*
X97839000Y-168377500D01*
X97839000Y-168321138D01*
X97839010Y-168320942D01*
X97846193Y-168248005D01*
X97846269Y-168247620D01*
X97865753Y-168183391D01*
X97865903Y-168183029D01*
X97897544Y-168123834D01*
X97897762Y-168123508D01*
X97940344Y-168071621D01*
X97940621Y-168071344D01*
X97992508Y-168028762D01*
X97992834Y-168028544D01*
X98052029Y-167996903D01*
X98052391Y-167996753D01*
X98116620Y-167977269D01*
X98117005Y-167977193D01*
X98189942Y-167970010D01*
X98190138Y-167970000D01*
X98246500Y-167970000D01*
X98248232Y-167971000D01*
G37*
G36*
X100184058Y-167970010D02*
G01*
X100256995Y-167977193D01*
X100257380Y-167977269D01*
X100321609Y-167996753D01*
X100321971Y-167996903D01*
X100381166Y-168028544D01*
X100381492Y-168028762D01*
X100433379Y-168071344D01*
X100433656Y-168071621D01*
X100476238Y-168123508D01*
X100476456Y-168123834D01*
X100508097Y-168183029D01*
X100508247Y-168183391D01*
X100527731Y-168247620D01*
X100527807Y-168248005D01*
X100534990Y-168320942D01*
X100535000Y-168321138D01*
X100535000Y-168377500D01*
X100534000Y-168379232D01*
X100532000Y-168379232D01*
X100531010Y-168377696D01*
X100523238Y-168298786D01*
X100500276Y-168223091D01*
X100462990Y-168153332D01*
X100412811Y-168092189D01*
X100351668Y-168042010D01*
X100281909Y-168004724D01*
X100206214Y-167981762D01*
X100127304Y-167973990D01*
X100125678Y-167972825D01*
X100125874Y-167970835D01*
X100127500Y-167970000D01*
X100183862Y-167970000D01*
X100184058Y-167970010D01*
G37*
G36*
X97842990Y-166140304D02*
G01*
X97850762Y-166219214D01*
X97873724Y-166294909D01*
X97911010Y-166364668D01*
X97961189Y-166425811D01*
X98022332Y-166475990D01*
X98092091Y-166513276D01*
X98167786Y-166536238D01*
X98246696Y-166544010D01*
X98248322Y-166545175D01*
X98248126Y-166547165D01*
X98246500Y-166548000D01*
X98190138Y-166548000D01*
X98189942Y-166547990D01*
X98117005Y-166540807D01*
X98116620Y-166540731D01*
X98052391Y-166521247D01*
X98052029Y-166521097D01*
X97992834Y-166489456D01*
X97992508Y-166489238D01*
X97940621Y-166446656D01*
X97940344Y-166446379D01*
X97897762Y-166394492D01*
X97897544Y-166394166D01*
X97865903Y-166334971D01*
X97865753Y-166334609D01*
X97846269Y-166270380D01*
X97846193Y-166269995D01*
X97839010Y-166197058D01*
X97839000Y-166196862D01*
X97839000Y-166140500D01*
X97840000Y-166138768D01*
X97842000Y-166138768D01*
X97842990Y-166140304D01*
G37*
G36*
X100534165Y-166138874D02*
G01*
X100535000Y-166140500D01*
X100535000Y-166196862D01*
X100534990Y-166197058D01*
X100527807Y-166269995D01*
X100527731Y-166270380D01*
X100508247Y-166334609D01*
X100508097Y-166334971D01*
X100476456Y-166394166D01*
X100476238Y-166394492D01*
X100433656Y-166446379D01*
X100433379Y-166446656D01*
X100381492Y-166489238D01*
X100381166Y-166489456D01*
X100321971Y-166521097D01*
X100321609Y-166521247D01*
X100257380Y-166540731D01*
X100256995Y-166540807D01*
X100184058Y-166547990D01*
X100183862Y-166548000D01*
X100127500Y-166548000D01*
X100125768Y-166547000D01*
X100125768Y-166545000D01*
X100127304Y-166544010D01*
X100206214Y-166536238D01*
X100281909Y-166513276D01*
X100351668Y-166475990D01*
X100412811Y-166425811D01*
X100462990Y-166364668D01*
X100500276Y-166294909D01*
X100523238Y-166219214D01*
X100531010Y-166140304D01*
X100532175Y-166138678D01*
X100534165Y-166138874D01*
G37*
G36*
X98248232Y-164923000D02*
G01*
X98248232Y-164925000D01*
X98246696Y-164925990D01*
X98167786Y-164933762D01*
X98092091Y-164956724D01*
X98022332Y-164994010D01*
X97961189Y-165044189D01*
X97911010Y-165105332D01*
X97873724Y-165175091D01*
X97850762Y-165250786D01*
X97842990Y-165329696D01*
X97841825Y-165331322D01*
X97839835Y-165331126D01*
X97839000Y-165329500D01*
X97839000Y-165273138D01*
X97839010Y-165272942D01*
X97846193Y-165200005D01*
X97846269Y-165199620D01*
X97865753Y-165135391D01*
X97865903Y-165135029D01*
X97897544Y-165075834D01*
X97897762Y-165075508D01*
X97940344Y-165023621D01*
X97940621Y-165023344D01*
X97992508Y-164980762D01*
X97992834Y-164980544D01*
X98052029Y-164948903D01*
X98052391Y-164948753D01*
X98116620Y-164929269D01*
X98117005Y-164929193D01*
X98189942Y-164922010D01*
X98190138Y-164922000D01*
X98246500Y-164922000D01*
X98248232Y-164923000D01*
G37*
G36*
X100184058Y-164922010D02*
G01*
X100256995Y-164929193D01*
X100257380Y-164929269D01*
X100321609Y-164948753D01*
X100321971Y-164948903D01*
X100381166Y-164980544D01*
X100381492Y-164980762D01*
X100433379Y-165023344D01*
X100433656Y-165023621D01*
X100476238Y-165075508D01*
X100476456Y-165075834D01*
X100508097Y-165135029D01*
X100508247Y-165135391D01*
X100527731Y-165199620D01*
X100527807Y-165200005D01*
X100534990Y-165272942D01*
X100535000Y-165273138D01*
X100535000Y-165329500D01*
X100534000Y-165331232D01*
X100532000Y-165331232D01*
X100531010Y-165329696D01*
X100523238Y-165250786D01*
X100500276Y-165175091D01*
X100462990Y-165105332D01*
X100412811Y-165044189D01*
X100351668Y-164994010D01*
X100281909Y-164956724D01*
X100206214Y-164933762D01*
X100127304Y-164925990D01*
X100125678Y-164924825D01*
X100125874Y-164922835D01*
X100127500Y-164922000D01*
X100183862Y-164922000D01*
X100184058Y-164922010D01*
G37*
G36*
X87680165Y-163117874D02*
G01*
X87681000Y-163119500D01*
X87681000Y-163175862D01*
X87680990Y-163176058D01*
X87673807Y-163248995D01*
X87673731Y-163249380D01*
X87654247Y-163313609D01*
X87654097Y-163313971D01*
X87622456Y-163373166D01*
X87622238Y-163373492D01*
X87579656Y-163425379D01*
X87579379Y-163425656D01*
X87527492Y-163468238D01*
X87527166Y-163468456D01*
X87467971Y-163500097D01*
X87467609Y-163500247D01*
X87403380Y-163519731D01*
X87402995Y-163519807D01*
X87330058Y-163526990D01*
X87329862Y-163527000D01*
X87273500Y-163527000D01*
X87271768Y-163526000D01*
X87271768Y-163524000D01*
X87273304Y-163523010D01*
X87352214Y-163515238D01*
X87427909Y-163492276D01*
X87497668Y-163454990D01*
X87558811Y-163404811D01*
X87608990Y-163343668D01*
X87646276Y-163273909D01*
X87669238Y-163198214D01*
X87677010Y-163119304D01*
X87678175Y-163117678D01*
X87680165Y-163117874D01*
G37*
G36*
X84632165Y-163117874D02*
G01*
X84633000Y-163119500D01*
X84633000Y-163175862D01*
X84632990Y-163176058D01*
X84625807Y-163248995D01*
X84625731Y-163249380D01*
X84606247Y-163313609D01*
X84606097Y-163313971D01*
X84574456Y-163373166D01*
X84574238Y-163373492D01*
X84531656Y-163425379D01*
X84531379Y-163425656D01*
X84479492Y-163468238D01*
X84479166Y-163468456D01*
X84419971Y-163500097D01*
X84419609Y-163500247D01*
X84355380Y-163519731D01*
X84354995Y-163519807D01*
X84282058Y-163526990D01*
X84281862Y-163527000D01*
X84225500Y-163527000D01*
X84223768Y-163526000D01*
X84223768Y-163524000D01*
X84225304Y-163523010D01*
X84304214Y-163515238D01*
X84379909Y-163492276D01*
X84449668Y-163454990D01*
X84510811Y-163404811D01*
X84560990Y-163343668D01*
X84598276Y-163273909D01*
X84621238Y-163198214D01*
X84629010Y-163119304D01*
X84630175Y-163117678D01*
X84632165Y-163117874D01*
G37*
G36*
X86058990Y-163119304D02*
G01*
X86066762Y-163198214D01*
X86089724Y-163273909D01*
X86127010Y-163343668D01*
X86177189Y-163404811D01*
X86238332Y-163454990D01*
X86308091Y-163492276D01*
X86383786Y-163515238D01*
X86462696Y-163523010D01*
X86464322Y-163524175D01*
X86464126Y-163526165D01*
X86462500Y-163527000D01*
X86406138Y-163527000D01*
X86405942Y-163526990D01*
X86333005Y-163519807D01*
X86332620Y-163519731D01*
X86268391Y-163500247D01*
X86268029Y-163500097D01*
X86208834Y-163468456D01*
X86208508Y-163468238D01*
X86156621Y-163425656D01*
X86156344Y-163425379D01*
X86113762Y-163373492D01*
X86113544Y-163373166D01*
X86081903Y-163313971D01*
X86081753Y-163313609D01*
X86062269Y-163249380D01*
X86062193Y-163248995D01*
X86055010Y-163176058D01*
X86055000Y-163175862D01*
X86055000Y-163119500D01*
X86056000Y-163117768D01*
X86058000Y-163117768D01*
X86058990Y-163119304D01*
G37*
G36*
X83010990Y-163119304D02*
G01*
X83018762Y-163198214D01*
X83041724Y-163273909D01*
X83079010Y-163343668D01*
X83129189Y-163404811D01*
X83190332Y-163454990D01*
X83260091Y-163492276D01*
X83335786Y-163515238D01*
X83414696Y-163523010D01*
X83416322Y-163524175D01*
X83416126Y-163526165D01*
X83414500Y-163527000D01*
X83358138Y-163527000D01*
X83357942Y-163526990D01*
X83285005Y-163519807D01*
X83284620Y-163519731D01*
X83220391Y-163500247D01*
X83220029Y-163500097D01*
X83160834Y-163468456D01*
X83160508Y-163468238D01*
X83108621Y-163425656D01*
X83108344Y-163425379D01*
X83065762Y-163373492D01*
X83065544Y-163373166D01*
X83033903Y-163313971D01*
X83033753Y-163313609D01*
X83014269Y-163249380D01*
X83014193Y-163248995D01*
X83007010Y-163176058D01*
X83007000Y-163175862D01*
X83007000Y-163119500D01*
X83008000Y-163117768D01*
X83010000Y-163117768D01*
X83010990Y-163119304D01*
G37*
G36*
X78581165Y-162979874D02*
G01*
X78582000Y-162981500D01*
X78582000Y-163037860D01*
X78581990Y-163038056D01*
X78575383Y-163105142D01*
X78575307Y-163105527D01*
X78557530Y-163164129D01*
X78557380Y-163164491D01*
X78528512Y-163218500D01*
X78528294Y-163218826D01*
X78489443Y-163266166D01*
X78489166Y-163266443D01*
X78441826Y-163305294D01*
X78441500Y-163305512D01*
X78387491Y-163334380D01*
X78387129Y-163334530D01*
X78328527Y-163352307D01*
X78328142Y-163352383D01*
X78261056Y-163358990D01*
X78260860Y-163359000D01*
X78204500Y-163359000D01*
X78202768Y-163358000D01*
X78202768Y-163356000D01*
X78204304Y-163355010D01*
X78277361Y-163347815D01*
X78347429Y-163326560D01*
X78412001Y-163292046D01*
X78468598Y-163245598D01*
X78515046Y-163189001D01*
X78549560Y-163124429D01*
X78570815Y-163054361D01*
X78578010Y-162981304D01*
X78579175Y-162979678D01*
X78581165Y-162979874D01*
G37*
G36*
X82181165Y-162979874D02*
G01*
X82182000Y-162981500D01*
X82182000Y-163037860D01*
X82181990Y-163038056D01*
X82175383Y-163105142D01*
X82175307Y-163105527D01*
X82157530Y-163164129D01*
X82157380Y-163164491D01*
X82128512Y-163218500D01*
X82128294Y-163218826D01*
X82089443Y-163266166D01*
X82089166Y-163266443D01*
X82041826Y-163305294D01*
X82041500Y-163305512D01*
X81987491Y-163334380D01*
X81987129Y-163334530D01*
X81928527Y-163352307D01*
X81928142Y-163352383D01*
X81861056Y-163358990D01*
X81860860Y-163359000D01*
X81804500Y-163359000D01*
X81802768Y-163358000D01*
X81802768Y-163356000D01*
X81804304Y-163355010D01*
X81877361Y-163347815D01*
X81947429Y-163326560D01*
X82012001Y-163292046D01*
X82068598Y-163245598D01*
X82115046Y-163189001D01*
X82149560Y-163124429D01*
X82170815Y-163054361D01*
X82178010Y-162981304D01*
X82179175Y-162979678D01*
X82181165Y-162979874D01*
G37*
G36*
X77079990Y-162981304D02*
G01*
X77087185Y-163054361D01*
X77108440Y-163124429D01*
X77142954Y-163189001D01*
X77189402Y-163245598D01*
X77245999Y-163292046D01*
X77310571Y-163326560D01*
X77380639Y-163347815D01*
X77453696Y-163355010D01*
X77455322Y-163356175D01*
X77455126Y-163358165D01*
X77453500Y-163359000D01*
X77397140Y-163359000D01*
X77396944Y-163358990D01*
X77329858Y-163352383D01*
X77329473Y-163352307D01*
X77270871Y-163334530D01*
X77270509Y-163334380D01*
X77216500Y-163305512D01*
X77216174Y-163305294D01*
X77168834Y-163266443D01*
X77168557Y-163266166D01*
X77129706Y-163218826D01*
X77129488Y-163218500D01*
X77100620Y-163164491D01*
X77100470Y-163164129D01*
X77082693Y-163105527D01*
X77082617Y-163105142D01*
X77076010Y-163038056D01*
X77076000Y-163037860D01*
X77076000Y-162981500D01*
X77077000Y-162979768D01*
X77079000Y-162979768D01*
X77079990Y-162981304D01*
G37*
G36*
X80679990Y-162981304D02*
G01*
X80687185Y-163054361D01*
X80708440Y-163124429D01*
X80742954Y-163189001D01*
X80789402Y-163245598D01*
X80845999Y-163292046D01*
X80910571Y-163326560D01*
X80980639Y-163347815D01*
X81053696Y-163355010D01*
X81055322Y-163356175D01*
X81055126Y-163358165D01*
X81053500Y-163359000D01*
X80997140Y-163359000D01*
X80996944Y-163358990D01*
X80929858Y-163352383D01*
X80929473Y-163352307D01*
X80870871Y-163334530D01*
X80870509Y-163334380D01*
X80816500Y-163305512D01*
X80816174Y-163305294D01*
X80768834Y-163266443D01*
X80768557Y-163266166D01*
X80729706Y-163218826D01*
X80729488Y-163218500D01*
X80700620Y-163164491D01*
X80700470Y-163164129D01*
X80682693Y-163105527D01*
X80682617Y-163105142D01*
X80676010Y-163038056D01*
X80676000Y-163037860D01*
X80676000Y-162981500D01*
X80677000Y-162979768D01*
X80679000Y-162979768D01*
X80679990Y-162981304D01*
G37*
G36*
X77455232Y-161254000D02*
G01*
X77455232Y-161256000D01*
X77453696Y-161256990D01*
X77380639Y-161264185D01*
X77310571Y-161285440D01*
X77245999Y-161319954D01*
X77189402Y-161366402D01*
X77142954Y-161422999D01*
X77108440Y-161487571D01*
X77087185Y-161557639D01*
X77079990Y-161630696D01*
X77078825Y-161632322D01*
X77076835Y-161632126D01*
X77076000Y-161630500D01*
X77076000Y-161574140D01*
X77076010Y-161573944D01*
X77082617Y-161506858D01*
X77082693Y-161506473D01*
X77100470Y-161447871D01*
X77100620Y-161447509D01*
X77129488Y-161393500D01*
X77129706Y-161393174D01*
X77168557Y-161345834D01*
X77168834Y-161345557D01*
X77216174Y-161306706D01*
X77216500Y-161306488D01*
X77270509Y-161277620D01*
X77270871Y-161277470D01*
X77329473Y-161259693D01*
X77329858Y-161259617D01*
X77396944Y-161253010D01*
X77397140Y-161253000D01*
X77453500Y-161253000D01*
X77455232Y-161254000D01*
G37*
G36*
X81055232Y-161254000D02*
G01*
X81055232Y-161256000D01*
X81053696Y-161256990D01*
X80980639Y-161264185D01*
X80910571Y-161285440D01*
X80845999Y-161319954D01*
X80789402Y-161366402D01*
X80742954Y-161422999D01*
X80708440Y-161487571D01*
X80687185Y-161557639D01*
X80679990Y-161630696D01*
X80678825Y-161632322D01*
X80676835Y-161632126D01*
X80676000Y-161630500D01*
X80676000Y-161574140D01*
X80676010Y-161573944D01*
X80682617Y-161506858D01*
X80682693Y-161506473D01*
X80700470Y-161447871D01*
X80700620Y-161447509D01*
X80729488Y-161393500D01*
X80729706Y-161393174D01*
X80768557Y-161345834D01*
X80768834Y-161345557D01*
X80816174Y-161306706D01*
X80816500Y-161306488D01*
X80870509Y-161277620D01*
X80870871Y-161277470D01*
X80929473Y-161259693D01*
X80929858Y-161259617D01*
X80996944Y-161253010D01*
X80997140Y-161253000D01*
X81053500Y-161253000D01*
X81055232Y-161254000D01*
G37*
G36*
X81861056Y-161253010D02*
G01*
X81928142Y-161259617D01*
X81928527Y-161259693D01*
X81987129Y-161277470D01*
X81987491Y-161277620D01*
X82041500Y-161306488D01*
X82041826Y-161306706D01*
X82089166Y-161345557D01*
X82089443Y-161345834D01*
X82128294Y-161393174D01*
X82128512Y-161393500D01*
X82157380Y-161447509D01*
X82157530Y-161447871D01*
X82175307Y-161506473D01*
X82175383Y-161506858D01*
X82181990Y-161573944D01*
X82182000Y-161574140D01*
X82182000Y-161630500D01*
X82181000Y-161632232D01*
X82179000Y-161632232D01*
X82178010Y-161630696D01*
X82170815Y-161557639D01*
X82149560Y-161487571D01*
X82115046Y-161422999D01*
X82068598Y-161366402D01*
X82012001Y-161319954D01*
X81947429Y-161285440D01*
X81877361Y-161264185D01*
X81804304Y-161256990D01*
X81802678Y-161255825D01*
X81802874Y-161253835D01*
X81804500Y-161253000D01*
X81860860Y-161253000D01*
X81861056Y-161253010D01*
G37*
G36*
X78261056Y-161253010D02*
G01*
X78328142Y-161259617D01*
X78328527Y-161259693D01*
X78387129Y-161277470D01*
X78387491Y-161277620D01*
X78441500Y-161306488D01*
X78441826Y-161306706D01*
X78489166Y-161345557D01*
X78489443Y-161345834D01*
X78528294Y-161393174D01*
X78528512Y-161393500D01*
X78557380Y-161447509D01*
X78557530Y-161447871D01*
X78575307Y-161506473D01*
X78575383Y-161506858D01*
X78581990Y-161573944D01*
X78582000Y-161574140D01*
X78582000Y-161630500D01*
X78581000Y-161632232D01*
X78579000Y-161632232D01*
X78578010Y-161630696D01*
X78570815Y-161557639D01*
X78549560Y-161487571D01*
X78515046Y-161422999D01*
X78468598Y-161366402D01*
X78412001Y-161319954D01*
X78347429Y-161285440D01*
X78277361Y-161264185D01*
X78204304Y-161256990D01*
X78202678Y-161255825D01*
X78202874Y-161253835D01*
X78204500Y-161253000D01*
X78260860Y-161253000D01*
X78261056Y-161253010D01*
G37*
G36*
X83416232Y-160832000D02*
G01*
X83416232Y-160834000D01*
X83414696Y-160834990D01*
X83335786Y-160842762D01*
X83260091Y-160865724D01*
X83190332Y-160903010D01*
X83129189Y-160953189D01*
X83079010Y-161014332D01*
X83041724Y-161084091D01*
X83018762Y-161159786D01*
X83010990Y-161238696D01*
X83009825Y-161240322D01*
X83007835Y-161240126D01*
X83007000Y-161238500D01*
X83007000Y-161182138D01*
X83007010Y-161181942D01*
X83014193Y-161109005D01*
X83014269Y-161108620D01*
X83033753Y-161044391D01*
X83033903Y-161044029D01*
X83065544Y-160984834D01*
X83065762Y-160984508D01*
X83108344Y-160932621D01*
X83108621Y-160932344D01*
X83160508Y-160889762D01*
X83160834Y-160889544D01*
X83220029Y-160857903D01*
X83220391Y-160857753D01*
X83284620Y-160838269D01*
X83285005Y-160838193D01*
X83357942Y-160831010D01*
X83358138Y-160831000D01*
X83414500Y-160831000D01*
X83416232Y-160832000D01*
G37*
G36*
X86464232Y-160832000D02*
G01*
X86464232Y-160834000D01*
X86462696Y-160834990D01*
X86383786Y-160842762D01*
X86308091Y-160865724D01*
X86238332Y-160903010D01*
X86177189Y-160953189D01*
X86127010Y-161014332D01*
X86089724Y-161084091D01*
X86066762Y-161159786D01*
X86058990Y-161238696D01*
X86057825Y-161240322D01*
X86055835Y-161240126D01*
X86055000Y-161238500D01*
X86055000Y-161182138D01*
X86055010Y-161181942D01*
X86062193Y-161109005D01*
X86062269Y-161108620D01*
X86081753Y-161044391D01*
X86081903Y-161044029D01*
X86113544Y-160984834D01*
X86113762Y-160984508D01*
X86156344Y-160932621D01*
X86156621Y-160932344D01*
X86208508Y-160889762D01*
X86208834Y-160889544D01*
X86268029Y-160857903D01*
X86268391Y-160857753D01*
X86332620Y-160838269D01*
X86333005Y-160838193D01*
X86405942Y-160831010D01*
X86406138Y-160831000D01*
X86462500Y-160831000D01*
X86464232Y-160832000D01*
G37*
G36*
X84282058Y-160831010D02*
G01*
X84354995Y-160838193D01*
X84355380Y-160838269D01*
X84419609Y-160857753D01*
X84419971Y-160857903D01*
X84479166Y-160889544D01*
X84479492Y-160889762D01*
X84531379Y-160932344D01*
X84531656Y-160932621D01*
X84574238Y-160984508D01*
X84574456Y-160984834D01*
X84606097Y-161044029D01*
X84606247Y-161044391D01*
X84625731Y-161108620D01*
X84625807Y-161109005D01*
X84632990Y-161181942D01*
X84633000Y-161182138D01*
X84633000Y-161238500D01*
X84632000Y-161240232D01*
X84630000Y-161240232D01*
X84629010Y-161238696D01*
X84621238Y-161159786D01*
X84598276Y-161084091D01*
X84560990Y-161014332D01*
X84510811Y-160953189D01*
X84449668Y-160903010D01*
X84379909Y-160865724D01*
X84304214Y-160842762D01*
X84225304Y-160834990D01*
X84223678Y-160833825D01*
X84223874Y-160831835D01*
X84225500Y-160831000D01*
X84281862Y-160831000D01*
X84282058Y-160831010D01*
G37*
G36*
X87330058Y-160831010D02*
G01*
X87402995Y-160838193D01*
X87403380Y-160838269D01*
X87467609Y-160857753D01*
X87467971Y-160857903D01*
X87527166Y-160889544D01*
X87527492Y-160889762D01*
X87579379Y-160932344D01*
X87579656Y-160932621D01*
X87622238Y-160984508D01*
X87622456Y-160984834D01*
X87654097Y-161044029D01*
X87654247Y-161044391D01*
X87673731Y-161108620D01*
X87673807Y-161109005D01*
X87680990Y-161181942D01*
X87681000Y-161182138D01*
X87681000Y-161238500D01*
X87680000Y-161240232D01*
X87678000Y-161240232D01*
X87677010Y-161238696D01*
X87669238Y-161159786D01*
X87646276Y-161084091D01*
X87608990Y-161014332D01*
X87558811Y-160953189D01*
X87497668Y-160903010D01*
X87427909Y-160865724D01*
X87352214Y-160842762D01*
X87273304Y-160834990D01*
X87271678Y-160833825D01*
X87271874Y-160831835D01*
X87273500Y-160831000D01*
X87329862Y-160831000D01*
X87330058Y-160831010D01*
G37*
G36*
X107277990Y-143979304D02*
G01*
X107285665Y-144057239D01*
X107308343Y-144131996D01*
X107345167Y-144200890D01*
X107394725Y-144261275D01*
X107455110Y-144310833D01*
X107524004Y-144347657D01*
X107598761Y-144370335D01*
X107676696Y-144378010D01*
X107678322Y-144379175D01*
X107678126Y-144381165D01*
X107676500Y-144382000D01*
X107620138Y-144382000D01*
X107619942Y-144381990D01*
X107547981Y-144374903D01*
X107547596Y-144374827D01*
X107484308Y-144355628D01*
X107483946Y-144355478D01*
X107425608Y-144324296D01*
X107425282Y-144324078D01*
X107374156Y-144282121D01*
X107373879Y-144281844D01*
X107331922Y-144230718D01*
X107331704Y-144230392D01*
X107300522Y-144172054D01*
X107300372Y-144171692D01*
X107281173Y-144108404D01*
X107281097Y-144108019D01*
X107274010Y-144036058D01*
X107274000Y-144035862D01*
X107274000Y-143979500D01*
X107275000Y-143977768D01*
X107277000Y-143977768D01*
X107277990Y-143979304D01*
G37*
G36*
X108879165Y-143977874D02*
G01*
X108880000Y-143979500D01*
X108880000Y-144035862D01*
X108879990Y-144036058D01*
X108872903Y-144108019D01*
X108872827Y-144108404D01*
X108853628Y-144171692D01*
X108853478Y-144172054D01*
X108822296Y-144230392D01*
X108822078Y-144230718D01*
X108780121Y-144281844D01*
X108779844Y-144282121D01*
X108728718Y-144324078D01*
X108728392Y-144324296D01*
X108670054Y-144355478D01*
X108669692Y-144355628D01*
X108606404Y-144374827D01*
X108606019Y-144374903D01*
X108534058Y-144381990D01*
X108533862Y-144382000D01*
X108477500Y-144382000D01*
X108475768Y-144381000D01*
X108475768Y-144379000D01*
X108477304Y-144378010D01*
X108555239Y-144370335D01*
X108629996Y-144347657D01*
X108698890Y-144310833D01*
X108759275Y-144261275D01*
X108808833Y-144200890D01*
X108845657Y-144131996D01*
X108868335Y-144057239D01*
X108876010Y-143979304D01*
X108877175Y-143977678D01*
X108879165Y-143977874D01*
G37*
G36*
X107678232Y-142527000D02*
G01*
X107678232Y-142529000D01*
X107676696Y-142529990D01*
X107598761Y-142537665D01*
X107524004Y-142560343D01*
X107455110Y-142597167D01*
X107394725Y-142646725D01*
X107345167Y-142707110D01*
X107308343Y-142776004D01*
X107285665Y-142850761D01*
X107277990Y-142928696D01*
X107276825Y-142930322D01*
X107274835Y-142930126D01*
X107274000Y-142928500D01*
X107274000Y-142872138D01*
X107274010Y-142871942D01*
X107281097Y-142799981D01*
X107281173Y-142799596D01*
X107300372Y-142736308D01*
X107300522Y-142735946D01*
X107331704Y-142677608D01*
X107331922Y-142677282D01*
X107373879Y-142626156D01*
X107374156Y-142625879D01*
X107425282Y-142583922D01*
X107425608Y-142583704D01*
X107483946Y-142552522D01*
X107484308Y-142552372D01*
X107547596Y-142533173D01*
X107547981Y-142533097D01*
X107619942Y-142526010D01*
X107620138Y-142526000D01*
X107676500Y-142526000D01*
X107678232Y-142527000D01*
G37*
G36*
X108534058Y-142526010D02*
G01*
X108606019Y-142533097D01*
X108606404Y-142533173D01*
X108669692Y-142552372D01*
X108670054Y-142552522D01*
X108728392Y-142583704D01*
X108728718Y-142583922D01*
X108779844Y-142625879D01*
X108780121Y-142626156D01*
X108822078Y-142677282D01*
X108822296Y-142677608D01*
X108853478Y-142735946D01*
X108853628Y-142736308D01*
X108872827Y-142799596D01*
X108872903Y-142799981D01*
X108879990Y-142871942D01*
X108880000Y-142872138D01*
X108880000Y-142928500D01*
X108879000Y-142930232D01*
X108877000Y-142930232D01*
X108876010Y-142928696D01*
X108868335Y-142850761D01*
X108845657Y-142776004D01*
X108808833Y-142707110D01*
X108759275Y-142646725D01*
X108698890Y-142597167D01*
X108629996Y-142560343D01*
X108555239Y-142537665D01*
X108477304Y-142529990D01*
X108475678Y-142528825D01*
X108475874Y-142526835D01*
X108477500Y-142526000D01*
X108533862Y-142526000D01*
X108534058Y-142526010D01*
G37*
G36*
X87934165Y-141400874D02*
G01*
X87935000Y-141402500D01*
X87935000Y-141458862D01*
X87934990Y-141459058D01*
X87927807Y-141531995D01*
X87927731Y-141532380D01*
X87908247Y-141596609D01*
X87908097Y-141596971D01*
X87876456Y-141656166D01*
X87876238Y-141656492D01*
X87833656Y-141708379D01*
X87833379Y-141708656D01*
X87781492Y-141751238D01*
X87781166Y-141751456D01*
X87721971Y-141783097D01*
X87721609Y-141783247D01*
X87657380Y-141802731D01*
X87656995Y-141802807D01*
X87584058Y-141809990D01*
X87583862Y-141810000D01*
X87527500Y-141810000D01*
X87525768Y-141809000D01*
X87525768Y-141807000D01*
X87527304Y-141806010D01*
X87606214Y-141798238D01*
X87681909Y-141775276D01*
X87751668Y-141737990D01*
X87812811Y-141687811D01*
X87862990Y-141626668D01*
X87900276Y-141556909D01*
X87923238Y-141481214D01*
X87931010Y-141402304D01*
X87932175Y-141400678D01*
X87934165Y-141400874D01*
G37*
G36*
X83264990Y-141402304D02*
G01*
X83272762Y-141481214D01*
X83295724Y-141556909D01*
X83333010Y-141626668D01*
X83383189Y-141687811D01*
X83444332Y-141737990D01*
X83514091Y-141775276D01*
X83589786Y-141798238D01*
X83668696Y-141806010D01*
X83670322Y-141807175D01*
X83670126Y-141809165D01*
X83668500Y-141810000D01*
X83612138Y-141810000D01*
X83611942Y-141809990D01*
X83539005Y-141802807D01*
X83538620Y-141802731D01*
X83474391Y-141783247D01*
X83474029Y-141783097D01*
X83414834Y-141751456D01*
X83414508Y-141751238D01*
X83362621Y-141708656D01*
X83362344Y-141708379D01*
X83319762Y-141656492D01*
X83319544Y-141656166D01*
X83287903Y-141596971D01*
X83287753Y-141596609D01*
X83268269Y-141532380D01*
X83268193Y-141531995D01*
X83261010Y-141459058D01*
X83261000Y-141458862D01*
X83261000Y-141402500D01*
X83262000Y-141400768D01*
X83264000Y-141400768D01*
X83264990Y-141402304D01*
G37*
G36*
X84886165Y-141400874D02*
G01*
X84887000Y-141402500D01*
X84887000Y-141458862D01*
X84886990Y-141459058D01*
X84879807Y-141531995D01*
X84879731Y-141532380D01*
X84860247Y-141596609D01*
X84860097Y-141596971D01*
X84828456Y-141656166D01*
X84828238Y-141656492D01*
X84785656Y-141708379D01*
X84785379Y-141708656D01*
X84733492Y-141751238D01*
X84733166Y-141751456D01*
X84673971Y-141783097D01*
X84673609Y-141783247D01*
X84609380Y-141802731D01*
X84608995Y-141802807D01*
X84536058Y-141809990D01*
X84535862Y-141810000D01*
X84479500Y-141810000D01*
X84477768Y-141809000D01*
X84477768Y-141807000D01*
X84479304Y-141806010D01*
X84558214Y-141798238D01*
X84633909Y-141775276D01*
X84703668Y-141737990D01*
X84764811Y-141687811D01*
X84814990Y-141626668D01*
X84852276Y-141556909D01*
X84875238Y-141481214D01*
X84883010Y-141402304D01*
X84884175Y-141400678D01*
X84886165Y-141400874D01*
G37*
G36*
X86312990Y-141402304D02*
G01*
X86320762Y-141481214D01*
X86343724Y-141556909D01*
X86381010Y-141626668D01*
X86431189Y-141687811D01*
X86492332Y-141737990D01*
X86562091Y-141775276D01*
X86637786Y-141798238D01*
X86716696Y-141806010D01*
X86718322Y-141807175D01*
X86718126Y-141809165D01*
X86716500Y-141810000D01*
X86660138Y-141810000D01*
X86659942Y-141809990D01*
X86587005Y-141802807D01*
X86586620Y-141802731D01*
X86522391Y-141783247D01*
X86522029Y-141783097D01*
X86462834Y-141751456D01*
X86462508Y-141751238D01*
X86410621Y-141708656D01*
X86410344Y-141708379D01*
X86367762Y-141656492D01*
X86367544Y-141656166D01*
X86335903Y-141596971D01*
X86335753Y-141596609D01*
X86316269Y-141532380D01*
X86316193Y-141531995D01*
X86309010Y-141459058D01*
X86309000Y-141458862D01*
X86309000Y-141402500D01*
X86310000Y-141400768D01*
X86312000Y-141400768D01*
X86312990Y-141402304D01*
G37*
G36*
X108879165Y-140477874D02*
G01*
X108880000Y-140479500D01*
X108880000Y-140535862D01*
X108879990Y-140536058D01*
X108872903Y-140608019D01*
X108872827Y-140608404D01*
X108853628Y-140671692D01*
X108853478Y-140672054D01*
X108822296Y-140730392D01*
X108822078Y-140730718D01*
X108780121Y-140781844D01*
X108779844Y-140782121D01*
X108728718Y-140824078D01*
X108728392Y-140824296D01*
X108670054Y-140855478D01*
X108669692Y-140855628D01*
X108606404Y-140874827D01*
X108606019Y-140874903D01*
X108534058Y-140881990D01*
X108533862Y-140882000D01*
X108477500Y-140882000D01*
X108475768Y-140881000D01*
X108475768Y-140879000D01*
X108477304Y-140878010D01*
X108555239Y-140870335D01*
X108629996Y-140847657D01*
X108698890Y-140810833D01*
X108759275Y-140761275D01*
X108808833Y-140700890D01*
X108845657Y-140631996D01*
X108868335Y-140557239D01*
X108876010Y-140479304D01*
X108877175Y-140477678D01*
X108879165Y-140477874D01*
G37*
G36*
X107277990Y-140479304D02*
G01*
X107285665Y-140557239D01*
X107308343Y-140631996D01*
X107345167Y-140700890D01*
X107394725Y-140761275D01*
X107455110Y-140810833D01*
X107524004Y-140847657D01*
X107598761Y-140870335D01*
X107676696Y-140878010D01*
X107678322Y-140879175D01*
X107678126Y-140881165D01*
X107676500Y-140882000D01*
X107620138Y-140882000D01*
X107619942Y-140881990D01*
X107547981Y-140874903D01*
X107547596Y-140874827D01*
X107484308Y-140855628D01*
X107483946Y-140855478D01*
X107425608Y-140824296D01*
X107425282Y-140824078D01*
X107374156Y-140782121D01*
X107373879Y-140781844D01*
X107331922Y-140730718D01*
X107331704Y-140730392D01*
X107300522Y-140672054D01*
X107300372Y-140671692D01*
X107281173Y-140608404D01*
X107281097Y-140608019D01*
X107274010Y-140536058D01*
X107274000Y-140535862D01*
X107274000Y-140479500D01*
X107275000Y-140477768D01*
X107277000Y-140477768D01*
X107277990Y-140479304D01*
G37*
G36*
X83670232Y-139115000D02*
G01*
X83670232Y-139117000D01*
X83668696Y-139117990D01*
X83589786Y-139125762D01*
X83514091Y-139148724D01*
X83444332Y-139186010D01*
X83383189Y-139236189D01*
X83333010Y-139297332D01*
X83295724Y-139367091D01*
X83272762Y-139442786D01*
X83264990Y-139521696D01*
X83263825Y-139523322D01*
X83261835Y-139523126D01*
X83261000Y-139521500D01*
X83261000Y-139465138D01*
X83261010Y-139464942D01*
X83268193Y-139392005D01*
X83268269Y-139391620D01*
X83287753Y-139327391D01*
X83287903Y-139327029D01*
X83319544Y-139267834D01*
X83319762Y-139267508D01*
X83362344Y-139215621D01*
X83362621Y-139215344D01*
X83414508Y-139172762D01*
X83414834Y-139172544D01*
X83474029Y-139140903D01*
X83474391Y-139140753D01*
X83538620Y-139121269D01*
X83539005Y-139121193D01*
X83611942Y-139114010D01*
X83612138Y-139114000D01*
X83668500Y-139114000D01*
X83670232Y-139115000D01*
G37*
G36*
X86718232Y-139115000D02*
G01*
X86718232Y-139117000D01*
X86716696Y-139117990D01*
X86637786Y-139125762D01*
X86562091Y-139148724D01*
X86492332Y-139186010D01*
X86431189Y-139236189D01*
X86381010Y-139297332D01*
X86343724Y-139367091D01*
X86320762Y-139442786D01*
X86312990Y-139521696D01*
X86311825Y-139523322D01*
X86309835Y-139523126D01*
X86309000Y-139521500D01*
X86309000Y-139465138D01*
X86309010Y-139464942D01*
X86316193Y-139392005D01*
X86316269Y-139391620D01*
X86335753Y-139327391D01*
X86335903Y-139327029D01*
X86367544Y-139267834D01*
X86367762Y-139267508D01*
X86410344Y-139215621D01*
X86410621Y-139215344D01*
X86462508Y-139172762D01*
X86462834Y-139172544D01*
X86522029Y-139140903D01*
X86522391Y-139140753D01*
X86586620Y-139121269D01*
X86587005Y-139121193D01*
X86659942Y-139114010D01*
X86660138Y-139114000D01*
X86716500Y-139114000D01*
X86718232Y-139115000D01*
G37*
G36*
X87584058Y-139114010D02*
G01*
X87656995Y-139121193D01*
X87657380Y-139121269D01*
X87721609Y-139140753D01*
X87721971Y-139140903D01*
X87781166Y-139172544D01*
X87781492Y-139172762D01*
X87833379Y-139215344D01*
X87833656Y-139215621D01*
X87876238Y-139267508D01*
X87876456Y-139267834D01*
X87908097Y-139327029D01*
X87908247Y-139327391D01*
X87927731Y-139391620D01*
X87927807Y-139392005D01*
X87934990Y-139464942D01*
X87935000Y-139465138D01*
X87935000Y-139521500D01*
X87934000Y-139523232D01*
X87932000Y-139523232D01*
X87931010Y-139521696D01*
X87923238Y-139442786D01*
X87900276Y-139367091D01*
X87862990Y-139297332D01*
X87812811Y-139236189D01*
X87751668Y-139186010D01*
X87681909Y-139148724D01*
X87606214Y-139125762D01*
X87527304Y-139117990D01*
X87525678Y-139116825D01*
X87525874Y-139114835D01*
X87527500Y-139114000D01*
X87583862Y-139114000D01*
X87584058Y-139114010D01*
G37*
G36*
X84536058Y-139114010D02*
G01*
X84608995Y-139121193D01*
X84609380Y-139121269D01*
X84673609Y-139140753D01*
X84673971Y-139140903D01*
X84733166Y-139172544D01*
X84733492Y-139172762D01*
X84785379Y-139215344D01*
X84785656Y-139215621D01*
X84828238Y-139267508D01*
X84828456Y-139267834D01*
X84860097Y-139327029D01*
X84860247Y-139327391D01*
X84879731Y-139391620D01*
X84879807Y-139392005D01*
X84886990Y-139464942D01*
X84887000Y-139465138D01*
X84887000Y-139521500D01*
X84886000Y-139523232D01*
X84884000Y-139523232D01*
X84883010Y-139521696D01*
X84875238Y-139442786D01*
X84852276Y-139367091D01*
X84814990Y-139297332D01*
X84764811Y-139236189D01*
X84703668Y-139186010D01*
X84633909Y-139148724D01*
X84558214Y-139125762D01*
X84479304Y-139117990D01*
X84477678Y-139116825D01*
X84477874Y-139114835D01*
X84479500Y-139114000D01*
X84535862Y-139114000D01*
X84536058Y-139114010D01*
G37*
G36*
X107678232Y-139027000D02*
G01*
X107678232Y-139029000D01*
X107676696Y-139029990D01*
X107598761Y-139037665D01*
X107524004Y-139060343D01*
X107455110Y-139097167D01*
X107394725Y-139146725D01*
X107345167Y-139207110D01*
X107308343Y-139276004D01*
X107285665Y-139350761D01*
X107277990Y-139428696D01*
X107276825Y-139430322D01*
X107274835Y-139430126D01*
X107274000Y-139428500D01*
X107274000Y-139372138D01*
X107274010Y-139371942D01*
X107281097Y-139299981D01*
X107281173Y-139299596D01*
X107300372Y-139236308D01*
X107300522Y-139235946D01*
X107331704Y-139177608D01*
X107331922Y-139177282D01*
X107373879Y-139126156D01*
X107374156Y-139125879D01*
X107425282Y-139083922D01*
X107425608Y-139083704D01*
X107483946Y-139052522D01*
X107484308Y-139052372D01*
X107547596Y-139033173D01*
X107547981Y-139033097D01*
X107619942Y-139026010D01*
X107620138Y-139026000D01*
X107676500Y-139026000D01*
X107678232Y-139027000D01*
G37*
G36*
X108534058Y-139026010D02*
G01*
X108606019Y-139033097D01*
X108606404Y-139033173D01*
X108669692Y-139052372D01*
X108670054Y-139052522D01*
X108728392Y-139083704D01*
X108728718Y-139083922D01*
X108779844Y-139125879D01*
X108780121Y-139126156D01*
X108822078Y-139177282D01*
X108822296Y-139177608D01*
X108853478Y-139235946D01*
X108853628Y-139236308D01*
X108872827Y-139299596D01*
X108872903Y-139299981D01*
X108879990Y-139371942D01*
X108880000Y-139372138D01*
X108880000Y-139428500D01*
X108879000Y-139430232D01*
X108877000Y-139430232D01*
X108876010Y-139428696D01*
X108868335Y-139350761D01*
X108845657Y-139276004D01*
X108808833Y-139207110D01*
X108759275Y-139146725D01*
X108698890Y-139097167D01*
X108629996Y-139060343D01*
X108555239Y-139037665D01*
X108477304Y-139029990D01*
X108475678Y-139028825D01*
X108475874Y-139026835D01*
X108477500Y-139026000D01*
X108533862Y-139026000D01*
X108534058Y-139026010D01*
G37*
G36*
X84902165Y-138320874D02*
G01*
X84903000Y-138322500D01*
X84903000Y-138378862D01*
X84902990Y-138379058D01*
X84895903Y-138451019D01*
X84895827Y-138451404D01*
X84876628Y-138514692D01*
X84876478Y-138515054D01*
X84845296Y-138573392D01*
X84845078Y-138573718D01*
X84803121Y-138624844D01*
X84802844Y-138625121D01*
X84751718Y-138667078D01*
X84751392Y-138667296D01*
X84693054Y-138698478D01*
X84692692Y-138698628D01*
X84629404Y-138717827D01*
X84629019Y-138717903D01*
X84557058Y-138724990D01*
X84556862Y-138725000D01*
X84500500Y-138725000D01*
X84498768Y-138724000D01*
X84498768Y-138722000D01*
X84500304Y-138721010D01*
X84578239Y-138713335D01*
X84652996Y-138690657D01*
X84721890Y-138653833D01*
X84782275Y-138604275D01*
X84831833Y-138543890D01*
X84868657Y-138474996D01*
X84891335Y-138400239D01*
X84899010Y-138322304D01*
X84900175Y-138320678D01*
X84902165Y-138320874D01*
G37*
G36*
X86550990Y-138322304D02*
G01*
X86558665Y-138400239D01*
X86581343Y-138474996D01*
X86618167Y-138543890D01*
X86667725Y-138604275D01*
X86728110Y-138653833D01*
X86797004Y-138690657D01*
X86871761Y-138713335D01*
X86949696Y-138721010D01*
X86951322Y-138722175D01*
X86951126Y-138724165D01*
X86949500Y-138725000D01*
X86893138Y-138725000D01*
X86892942Y-138724990D01*
X86820981Y-138717903D01*
X86820596Y-138717827D01*
X86757308Y-138698628D01*
X86756946Y-138698478D01*
X86698608Y-138667296D01*
X86698282Y-138667078D01*
X86647156Y-138625121D01*
X86646879Y-138624844D01*
X86604922Y-138573718D01*
X86604704Y-138573392D01*
X86573522Y-138515054D01*
X86573372Y-138514692D01*
X86554173Y-138451404D01*
X86554097Y-138451019D01*
X86547010Y-138379058D01*
X86547000Y-138378862D01*
X86547000Y-138322500D01*
X86548000Y-138320768D01*
X86550000Y-138320768D01*
X86550990Y-138322304D01*
G37*
G36*
X83050990Y-138322304D02*
G01*
X83058665Y-138400239D01*
X83081343Y-138474996D01*
X83118167Y-138543890D01*
X83167725Y-138604275D01*
X83228110Y-138653833D01*
X83297004Y-138690657D01*
X83371761Y-138713335D01*
X83449696Y-138721010D01*
X83451322Y-138722175D01*
X83451126Y-138724165D01*
X83449500Y-138725000D01*
X83393138Y-138725000D01*
X83392942Y-138724990D01*
X83320981Y-138717903D01*
X83320596Y-138717827D01*
X83257308Y-138698628D01*
X83256946Y-138698478D01*
X83198608Y-138667296D01*
X83198282Y-138667078D01*
X83147156Y-138625121D01*
X83146879Y-138624844D01*
X83104922Y-138573718D01*
X83104704Y-138573392D01*
X83073522Y-138515054D01*
X83073372Y-138514692D01*
X83054173Y-138451404D01*
X83054097Y-138451019D01*
X83047010Y-138379058D01*
X83047000Y-138378862D01*
X83047000Y-138322500D01*
X83048000Y-138320768D01*
X83050000Y-138320768D01*
X83050990Y-138322304D01*
G37*
G36*
X88402165Y-138320874D02*
G01*
X88403000Y-138322500D01*
X88403000Y-138378862D01*
X88402990Y-138379058D01*
X88395903Y-138451019D01*
X88395827Y-138451404D01*
X88376628Y-138514692D01*
X88376478Y-138515054D01*
X88345296Y-138573392D01*
X88345078Y-138573718D01*
X88303121Y-138624844D01*
X88302844Y-138625121D01*
X88251718Y-138667078D01*
X88251392Y-138667296D01*
X88193054Y-138698478D01*
X88192692Y-138698628D01*
X88129404Y-138717827D01*
X88129019Y-138717903D01*
X88057058Y-138724990D01*
X88056862Y-138725000D01*
X88000500Y-138725000D01*
X87998768Y-138724000D01*
X87998768Y-138722000D01*
X88000304Y-138721010D01*
X88078239Y-138713335D01*
X88152996Y-138690657D01*
X88221890Y-138653833D01*
X88282275Y-138604275D01*
X88331833Y-138543890D01*
X88368657Y-138474996D01*
X88391335Y-138400239D01*
X88399010Y-138322304D01*
X88400175Y-138320678D01*
X88402165Y-138320874D01*
G37*
G36*
X106333990Y-137835304D02*
G01*
X106341185Y-137908361D01*
X106362440Y-137978429D01*
X106396954Y-138043001D01*
X106443402Y-138099598D01*
X106499999Y-138146046D01*
X106564571Y-138180560D01*
X106634639Y-138201815D01*
X106707696Y-138209010D01*
X106709322Y-138210175D01*
X106709126Y-138212165D01*
X106707500Y-138213000D01*
X106651140Y-138213000D01*
X106650944Y-138212990D01*
X106583858Y-138206383D01*
X106583473Y-138206307D01*
X106524871Y-138188530D01*
X106524509Y-138188380D01*
X106470500Y-138159512D01*
X106470174Y-138159294D01*
X106422834Y-138120443D01*
X106422557Y-138120166D01*
X106383706Y-138072826D01*
X106383488Y-138072500D01*
X106354620Y-138018491D01*
X106354470Y-138018129D01*
X106336693Y-137959527D01*
X106336617Y-137959142D01*
X106330010Y-137892056D01*
X106330000Y-137891860D01*
X106330000Y-137835500D01*
X106331000Y-137833768D01*
X106333000Y-137833768D01*
X106333990Y-137835304D01*
G37*
G36*
X104235165Y-137833874D02*
G01*
X104236000Y-137835500D01*
X104236000Y-137891860D01*
X104235990Y-137892056D01*
X104229383Y-137959142D01*
X104229307Y-137959527D01*
X104211530Y-138018129D01*
X104211380Y-138018491D01*
X104182512Y-138072500D01*
X104182294Y-138072826D01*
X104143443Y-138120166D01*
X104143166Y-138120443D01*
X104095826Y-138159294D01*
X104095500Y-138159512D01*
X104041491Y-138188380D01*
X104041129Y-138188530D01*
X103982527Y-138206307D01*
X103982142Y-138206383D01*
X103915056Y-138212990D01*
X103914860Y-138213000D01*
X103858500Y-138213000D01*
X103856768Y-138212000D01*
X103856768Y-138210000D01*
X103858304Y-138209010D01*
X103931361Y-138201815D01*
X104001429Y-138180560D01*
X104066001Y-138146046D01*
X104122598Y-138099598D01*
X104169046Y-138043001D01*
X104203560Y-137978429D01*
X104224815Y-137908361D01*
X104232010Y-137835304D01*
X104233175Y-137833678D01*
X104235165Y-137833874D01*
G37*
G36*
X102733990Y-137835304D02*
G01*
X102741185Y-137908361D01*
X102762440Y-137978429D01*
X102796954Y-138043001D01*
X102843402Y-138099598D01*
X102899999Y-138146046D01*
X102964571Y-138180560D01*
X103034639Y-138201815D01*
X103107696Y-138209010D01*
X103109322Y-138210175D01*
X103109126Y-138212165D01*
X103107500Y-138213000D01*
X103051140Y-138213000D01*
X103050944Y-138212990D01*
X102983858Y-138206383D01*
X102983473Y-138206307D01*
X102924871Y-138188530D01*
X102924509Y-138188380D01*
X102870500Y-138159512D01*
X102870174Y-138159294D01*
X102822834Y-138120443D01*
X102822557Y-138120166D01*
X102783706Y-138072826D01*
X102783488Y-138072500D01*
X102754620Y-138018491D01*
X102754470Y-138018129D01*
X102736693Y-137959527D01*
X102736617Y-137959142D01*
X102730010Y-137892056D01*
X102730000Y-137891860D01*
X102730000Y-137835500D01*
X102731000Y-137833768D01*
X102733000Y-137833768D01*
X102733990Y-137835304D01*
G37*
G36*
X107835165Y-137833874D02*
G01*
X107836000Y-137835500D01*
X107836000Y-137891860D01*
X107835990Y-137892056D01*
X107829383Y-137959142D01*
X107829307Y-137959527D01*
X107811530Y-138018129D01*
X107811380Y-138018491D01*
X107782512Y-138072500D01*
X107782294Y-138072826D01*
X107743443Y-138120166D01*
X107743166Y-138120443D01*
X107695826Y-138159294D01*
X107695500Y-138159512D01*
X107641491Y-138188380D01*
X107641129Y-138188530D01*
X107582527Y-138206307D01*
X107582142Y-138206383D01*
X107515056Y-138212990D01*
X107514860Y-138213000D01*
X107458500Y-138213000D01*
X107456768Y-138212000D01*
X107456768Y-138210000D01*
X107458304Y-138209010D01*
X107531361Y-138201815D01*
X107601429Y-138180560D01*
X107666001Y-138146046D01*
X107722598Y-138099598D01*
X107769046Y-138043001D01*
X107803560Y-137978429D01*
X107824815Y-137908361D01*
X107832010Y-137835304D01*
X107833175Y-137833678D01*
X107835165Y-137833874D01*
G37*
G36*
X102021165Y-137528874D02*
G01*
X102022000Y-137530500D01*
X102022000Y-137586862D01*
X102021990Y-137587058D01*
X102014903Y-137659019D01*
X102014827Y-137659404D01*
X101995628Y-137722692D01*
X101995478Y-137723054D01*
X101964296Y-137781392D01*
X101964078Y-137781718D01*
X101922121Y-137832844D01*
X101921844Y-137833121D01*
X101870718Y-137875078D01*
X101870392Y-137875296D01*
X101812054Y-137906478D01*
X101811692Y-137906628D01*
X101748404Y-137925827D01*
X101748019Y-137925903D01*
X101676058Y-137932990D01*
X101675862Y-137933000D01*
X101619500Y-137933000D01*
X101617768Y-137932000D01*
X101617768Y-137930000D01*
X101619304Y-137929010D01*
X101697239Y-137921335D01*
X101771996Y-137898657D01*
X101840890Y-137861833D01*
X101901275Y-137812275D01*
X101950833Y-137751890D01*
X101987657Y-137682996D01*
X102010335Y-137608239D01*
X102018010Y-137530304D01*
X102019175Y-137528678D01*
X102021165Y-137528874D01*
G37*
G36*
X100419990Y-137530304D02*
G01*
X100427665Y-137608239D01*
X100450343Y-137682996D01*
X100487167Y-137751890D01*
X100536725Y-137812275D01*
X100597110Y-137861833D01*
X100666004Y-137898657D01*
X100740761Y-137921335D01*
X100818696Y-137929010D01*
X100820322Y-137930175D01*
X100820126Y-137932165D01*
X100818500Y-137933000D01*
X100762138Y-137933000D01*
X100761942Y-137932990D01*
X100689981Y-137925903D01*
X100689596Y-137925827D01*
X100626308Y-137906628D01*
X100625946Y-137906478D01*
X100567608Y-137875296D01*
X100567282Y-137875078D01*
X100516156Y-137833121D01*
X100515879Y-137832844D01*
X100473922Y-137781718D01*
X100473704Y-137781392D01*
X100442522Y-137723054D01*
X100442372Y-137722692D01*
X100423173Y-137659404D01*
X100423097Y-137659019D01*
X100416010Y-137587058D01*
X100416000Y-137586862D01*
X100416000Y-137530500D01*
X100417000Y-137528768D01*
X100419000Y-137528768D01*
X100419990Y-137530304D01*
G37*
G36*
X100026165Y-137309874D02*
G01*
X100027000Y-137311500D01*
X100027000Y-137367862D01*
X100026990Y-137368058D01*
X100019807Y-137440995D01*
X100019731Y-137441380D01*
X100000247Y-137505609D01*
X100000097Y-137505971D01*
X99968456Y-137565166D01*
X99968238Y-137565492D01*
X99925656Y-137617379D01*
X99925379Y-137617656D01*
X99873492Y-137660238D01*
X99873166Y-137660456D01*
X99813971Y-137692097D01*
X99813609Y-137692247D01*
X99749380Y-137711731D01*
X99748995Y-137711807D01*
X99676058Y-137718990D01*
X99675862Y-137719000D01*
X99619500Y-137719000D01*
X99617768Y-137718000D01*
X99617768Y-137716000D01*
X99619304Y-137715010D01*
X99698214Y-137707238D01*
X99773909Y-137684276D01*
X99843668Y-137646990D01*
X99904811Y-137596811D01*
X99954990Y-137535668D01*
X99992276Y-137465909D01*
X100015238Y-137390214D01*
X100023010Y-137311304D01*
X100024175Y-137309678D01*
X100026165Y-137309874D01*
G37*
G36*
X97334990Y-137311304D02*
G01*
X97342762Y-137390214D01*
X97365724Y-137465909D01*
X97403010Y-137535668D01*
X97453189Y-137596811D01*
X97514332Y-137646990D01*
X97584091Y-137684276D01*
X97659786Y-137707238D01*
X97738696Y-137715010D01*
X97740322Y-137716175D01*
X97740126Y-137718165D01*
X97738500Y-137719000D01*
X97682138Y-137719000D01*
X97681942Y-137718990D01*
X97609005Y-137711807D01*
X97608620Y-137711731D01*
X97544391Y-137692247D01*
X97544029Y-137692097D01*
X97484834Y-137660456D01*
X97484508Y-137660238D01*
X97432621Y-137617656D01*
X97432344Y-137617379D01*
X97389762Y-137565492D01*
X97389544Y-137565166D01*
X97357903Y-137505971D01*
X97357753Y-137505609D01*
X97338269Y-137441380D01*
X97338193Y-137440995D01*
X97331010Y-137368058D01*
X97331000Y-137367862D01*
X97331000Y-137311500D01*
X97332000Y-137309768D01*
X97334000Y-137309768D01*
X97334990Y-137311304D01*
G37*
G36*
X83451232Y-137120000D02*
G01*
X83451232Y-137122000D01*
X83449696Y-137122990D01*
X83371761Y-137130665D01*
X83297004Y-137153343D01*
X83228110Y-137190167D01*
X83167725Y-137239725D01*
X83118167Y-137300110D01*
X83081343Y-137369004D01*
X83058665Y-137443761D01*
X83050990Y-137521696D01*
X83049825Y-137523322D01*
X83047835Y-137523126D01*
X83047000Y-137521500D01*
X83047000Y-137465138D01*
X83047010Y-137464942D01*
X83054097Y-137392981D01*
X83054173Y-137392596D01*
X83073372Y-137329308D01*
X83073522Y-137328946D01*
X83104704Y-137270608D01*
X83104922Y-137270282D01*
X83146879Y-137219156D01*
X83147156Y-137218879D01*
X83198282Y-137176922D01*
X83198608Y-137176704D01*
X83256946Y-137145522D01*
X83257308Y-137145372D01*
X83320596Y-137126173D01*
X83320981Y-137126097D01*
X83392942Y-137119010D01*
X83393138Y-137119000D01*
X83449500Y-137119000D01*
X83451232Y-137120000D01*
G37*
G36*
X86951232Y-137120000D02*
G01*
X86951232Y-137122000D01*
X86949696Y-137122990D01*
X86871761Y-137130665D01*
X86797004Y-137153343D01*
X86728110Y-137190167D01*
X86667725Y-137239725D01*
X86618167Y-137300110D01*
X86581343Y-137369004D01*
X86558665Y-137443761D01*
X86550990Y-137521696D01*
X86549825Y-137523322D01*
X86547835Y-137523126D01*
X86547000Y-137521500D01*
X86547000Y-137465138D01*
X86547010Y-137464942D01*
X86554097Y-137392981D01*
X86554173Y-137392596D01*
X86573372Y-137329308D01*
X86573522Y-137328946D01*
X86604704Y-137270608D01*
X86604922Y-137270282D01*
X86646879Y-137219156D01*
X86647156Y-137218879D01*
X86698282Y-137176922D01*
X86698608Y-137176704D01*
X86756946Y-137145522D01*
X86757308Y-137145372D01*
X86820596Y-137126173D01*
X86820981Y-137126097D01*
X86892942Y-137119010D01*
X86893138Y-137119000D01*
X86949500Y-137119000D01*
X86951232Y-137120000D01*
G37*
G36*
X84557058Y-137119010D02*
G01*
X84629019Y-137126097D01*
X84629404Y-137126173D01*
X84692692Y-137145372D01*
X84693054Y-137145522D01*
X84751392Y-137176704D01*
X84751718Y-137176922D01*
X84802844Y-137218879D01*
X84803121Y-137219156D01*
X84845078Y-137270282D01*
X84845296Y-137270608D01*
X84876478Y-137328946D01*
X84876628Y-137329308D01*
X84895827Y-137392596D01*
X84895903Y-137392981D01*
X84902990Y-137464942D01*
X84903000Y-137465138D01*
X84903000Y-137521500D01*
X84902000Y-137523232D01*
X84900000Y-137523232D01*
X84899010Y-137521696D01*
X84891335Y-137443761D01*
X84868657Y-137369004D01*
X84831833Y-137300110D01*
X84782275Y-137239725D01*
X84721890Y-137190167D01*
X84652996Y-137153343D01*
X84578239Y-137130665D01*
X84500304Y-137122990D01*
X84498678Y-137121825D01*
X84498874Y-137119835D01*
X84500500Y-137119000D01*
X84556862Y-137119000D01*
X84557058Y-137119010D01*
G37*
G36*
X88057058Y-137119010D02*
G01*
X88129019Y-137126097D01*
X88129404Y-137126173D01*
X88192692Y-137145372D01*
X88193054Y-137145522D01*
X88251392Y-137176704D01*
X88251718Y-137176922D01*
X88302844Y-137218879D01*
X88303121Y-137219156D01*
X88345078Y-137270282D01*
X88345296Y-137270608D01*
X88376478Y-137328946D01*
X88376628Y-137329308D01*
X88395827Y-137392596D01*
X88395903Y-137392981D01*
X88402990Y-137464942D01*
X88403000Y-137465138D01*
X88403000Y-137521500D01*
X88402000Y-137523232D01*
X88400000Y-137523232D01*
X88399010Y-137521696D01*
X88391335Y-137443761D01*
X88368657Y-137369004D01*
X88331833Y-137300110D01*
X88282275Y-137239725D01*
X88221890Y-137190167D01*
X88152996Y-137153343D01*
X88078239Y-137130665D01*
X88000304Y-137122990D01*
X87998678Y-137121825D01*
X87998874Y-137119835D01*
X88000500Y-137119000D01*
X88056862Y-137119000D01*
X88057058Y-137119010D01*
G37*
G36*
X97740232Y-136094000D02*
G01*
X97740232Y-136096000D01*
X97738696Y-136096990D01*
X97659786Y-136104762D01*
X97584091Y-136127724D01*
X97514332Y-136165010D01*
X97453189Y-136215189D01*
X97403010Y-136276332D01*
X97365724Y-136346091D01*
X97342762Y-136421786D01*
X97334990Y-136500696D01*
X97333825Y-136502322D01*
X97331835Y-136502126D01*
X97331000Y-136500500D01*
X97331000Y-136444138D01*
X97331010Y-136443942D01*
X97338193Y-136371005D01*
X97338269Y-136370620D01*
X97357753Y-136306391D01*
X97357903Y-136306029D01*
X97389544Y-136246834D01*
X97389762Y-136246508D01*
X97432344Y-136194621D01*
X97432621Y-136194344D01*
X97484508Y-136151762D01*
X97484834Y-136151544D01*
X97544029Y-136119903D01*
X97544391Y-136119753D01*
X97608620Y-136100269D01*
X97609005Y-136100193D01*
X97681942Y-136093010D01*
X97682138Y-136093000D01*
X97738500Y-136093000D01*
X97740232Y-136094000D01*
G37*
G36*
X99676058Y-136093010D02*
G01*
X99748995Y-136100193D01*
X99749380Y-136100269D01*
X99813609Y-136119753D01*
X99813971Y-136119903D01*
X99873166Y-136151544D01*
X99873492Y-136151762D01*
X99925379Y-136194344D01*
X99925656Y-136194621D01*
X99968238Y-136246508D01*
X99968456Y-136246834D01*
X100000097Y-136306029D01*
X100000247Y-136306391D01*
X100019731Y-136370620D01*
X100019807Y-136371005D01*
X100026990Y-136443942D01*
X100027000Y-136444138D01*
X100027000Y-136500500D01*
X100026000Y-136502232D01*
X100024000Y-136502232D01*
X100023010Y-136500696D01*
X100015238Y-136421786D01*
X99992276Y-136346091D01*
X99954990Y-136276332D01*
X99904811Y-136215189D01*
X99843668Y-136165010D01*
X99773909Y-136127724D01*
X99698214Y-136104762D01*
X99619304Y-136096990D01*
X99617678Y-136095825D01*
X99617874Y-136093835D01*
X99619500Y-136093000D01*
X99675862Y-136093000D01*
X99676058Y-136093010D01*
G37*
G36*
X106709232Y-136108000D02*
G01*
X106709232Y-136110000D01*
X106707696Y-136110990D01*
X106634639Y-136118185D01*
X106564571Y-136139440D01*
X106499999Y-136173954D01*
X106443402Y-136220402D01*
X106396954Y-136276999D01*
X106362440Y-136341571D01*
X106341185Y-136411639D01*
X106333990Y-136484696D01*
X106332825Y-136486322D01*
X106330835Y-136486126D01*
X106330000Y-136484500D01*
X106330000Y-136428140D01*
X106330010Y-136427944D01*
X106336617Y-136360858D01*
X106336693Y-136360473D01*
X106354470Y-136301871D01*
X106354620Y-136301509D01*
X106383488Y-136247500D01*
X106383706Y-136247174D01*
X106422557Y-136199834D01*
X106422834Y-136199557D01*
X106470174Y-136160706D01*
X106470500Y-136160488D01*
X106524509Y-136131620D01*
X106524871Y-136131470D01*
X106583473Y-136113693D01*
X106583858Y-136113617D01*
X106650944Y-136107010D01*
X106651140Y-136107000D01*
X106707500Y-136107000D01*
X106709232Y-136108000D01*
G37*
G36*
X103109232Y-136108000D02*
G01*
X103109232Y-136110000D01*
X103107696Y-136110990D01*
X103034639Y-136118185D01*
X102964571Y-136139440D01*
X102899999Y-136173954D01*
X102843402Y-136220402D01*
X102796954Y-136276999D01*
X102762440Y-136341571D01*
X102741185Y-136411639D01*
X102733990Y-136484696D01*
X102732825Y-136486322D01*
X102730835Y-136486126D01*
X102730000Y-136484500D01*
X102730000Y-136428140D01*
X102730010Y-136427944D01*
X102736617Y-136360858D01*
X102736693Y-136360473D01*
X102754470Y-136301871D01*
X102754620Y-136301509D01*
X102783488Y-136247500D01*
X102783706Y-136247174D01*
X102822557Y-136199834D01*
X102822834Y-136199557D01*
X102870174Y-136160706D01*
X102870500Y-136160488D01*
X102924509Y-136131620D01*
X102924871Y-136131470D01*
X102983473Y-136113693D01*
X102983858Y-136113617D01*
X103050944Y-136107010D01*
X103051140Y-136107000D01*
X103107500Y-136107000D01*
X103109232Y-136108000D01*
G37*
G36*
X103915056Y-136107010D02*
G01*
X103982142Y-136113617D01*
X103982527Y-136113693D01*
X104041129Y-136131470D01*
X104041491Y-136131620D01*
X104095500Y-136160488D01*
X104095826Y-136160706D01*
X104143166Y-136199557D01*
X104143443Y-136199834D01*
X104182294Y-136247174D01*
X104182512Y-136247500D01*
X104211380Y-136301509D01*
X104211530Y-136301871D01*
X104229307Y-136360473D01*
X104229383Y-136360858D01*
X104235990Y-136427944D01*
X104236000Y-136428140D01*
X104236000Y-136484500D01*
X104235000Y-136486232D01*
X104233000Y-136486232D01*
X104232010Y-136484696D01*
X104224815Y-136411639D01*
X104203560Y-136341571D01*
X104169046Y-136276999D01*
X104122598Y-136220402D01*
X104066001Y-136173954D01*
X104001429Y-136139440D01*
X103931361Y-136118185D01*
X103858304Y-136110990D01*
X103856678Y-136109825D01*
X103856874Y-136107835D01*
X103858500Y-136107000D01*
X103914860Y-136107000D01*
X103915056Y-136107010D01*
G37*
G36*
X107515056Y-136107010D02*
G01*
X107582142Y-136113617D01*
X107582527Y-136113693D01*
X107641129Y-136131470D01*
X107641491Y-136131620D01*
X107695500Y-136160488D01*
X107695826Y-136160706D01*
X107743166Y-136199557D01*
X107743443Y-136199834D01*
X107782294Y-136247174D01*
X107782512Y-136247500D01*
X107811380Y-136301509D01*
X107811530Y-136301871D01*
X107829307Y-136360473D01*
X107829383Y-136360858D01*
X107835990Y-136427944D01*
X107836000Y-136428140D01*
X107836000Y-136484500D01*
X107835000Y-136486232D01*
X107833000Y-136486232D01*
X107832010Y-136484696D01*
X107824815Y-136411639D01*
X107803560Y-136341571D01*
X107769046Y-136276999D01*
X107722598Y-136220402D01*
X107666001Y-136173954D01*
X107601429Y-136139440D01*
X107531361Y-136118185D01*
X107458304Y-136110990D01*
X107456678Y-136109825D01*
X107456874Y-136107835D01*
X107458500Y-136107000D01*
X107514860Y-136107000D01*
X107515056Y-136107010D01*
G37*
G36*
X100820232Y-136078000D02*
G01*
X100820232Y-136080000D01*
X100818696Y-136080990D01*
X100740761Y-136088665D01*
X100666004Y-136111343D01*
X100597110Y-136148167D01*
X100536725Y-136197725D01*
X100487167Y-136258110D01*
X100450343Y-136327004D01*
X100427665Y-136401761D01*
X100419990Y-136479696D01*
X100418825Y-136481322D01*
X100416835Y-136481126D01*
X100416000Y-136479500D01*
X100416000Y-136423138D01*
X100416010Y-136422942D01*
X100423097Y-136350981D01*
X100423173Y-136350596D01*
X100442372Y-136287308D01*
X100442522Y-136286946D01*
X100473704Y-136228608D01*
X100473922Y-136228282D01*
X100515879Y-136177156D01*
X100516156Y-136176879D01*
X100567282Y-136134922D01*
X100567608Y-136134704D01*
X100625946Y-136103522D01*
X100626308Y-136103372D01*
X100689596Y-136084173D01*
X100689981Y-136084097D01*
X100761942Y-136077010D01*
X100762138Y-136077000D01*
X100818500Y-136077000D01*
X100820232Y-136078000D01*
G37*
G36*
X101676058Y-136077010D02*
G01*
X101748019Y-136084097D01*
X101748404Y-136084173D01*
X101811692Y-136103372D01*
X101812054Y-136103522D01*
X101870392Y-136134704D01*
X101870718Y-136134922D01*
X101921844Y-136176879D01*
X101922121Y-136177156D01*
X101964078Y-136228282D01*
X101964296Y-136228608D01*
X101995478Y-136286946D01*
X101995628Y-136287308D01*
X102014827Y-136350596D01*
X102014903Y-136350981D01*
X102021990Y-136422942D01*
X102022000Y-136423138D01*
X102022000Y-136479500D01*
X102021000Y-136481232D01*
X102019000Y-136481232D01*
X102018010Y-136479696D01*
X102010335Y-136401761D01*
X101987657Y-136327004D01*
X101950833Y-136258110D01*
X101901275Y-136197725D01*
X101840890Y-136148167D01*
X101771996Y-136111343D01*
X101697239Y-136088665D01*
X101619304Y-136080990D01*
X101617678Y-136079825D01*
X101617874Y-136077835D01*
X101619500Y-136077000D01*
X101675862Y-136077000D01*
X101676058Y-136077010D01*
G37*
G36*
X84902165Y-135780874D02*
G01*
X84903000Y-135782500D01*
X84903000Y-135838862D01*
X84902990Y-135839058D01*
X84895903Y-135911019D01*
X84895827Y-135911404D01*
X84876628Y-135974692D01*
X84876478Y-135975054D01*
X84845296Y-136033392D01*
X84845078Y-136033718D01*
X84803121Y-136084844D01*
X84802844Y-136085121D01*
X84751718Y-136127078D01*
X84751392Y-136127296D01*
X84693054Y-136158478D01*
X84692692Y-136158628D01*
X84629404Y-136177827D01*
X84629019Y-136177903D01*
X84557058Y-136184990D01*
X84556862Y-136185000D01*
X84500500Y-136185000D01*
X84498768Y-136184000D01*
X84498768Y-136182000D01*
X84500304Y-136181010D01*
X84578239Y-136173335D01*
X84652996Y-136150657D01*
X84721890Y-136113833D01*
X84782275Y-136064275D01*
X84831833Y-136003890D01*
X84868657Y-135934996D01*
X84891335Y-135860239D01*
X84899010Y-135782304D01*
X84900175Y-135780678D01*
X84902165Y-135780874D01*
G37*
G36*
X86550990Y-135782304D02*
G01*
X86558665Y-135860239D01*
X86581343Y-135934996D01*
X86618167Y-136003890D01*
X86667725Y-136064275D01*
X86728110Y-136113833D01*
X86797004Y-136150657D01*
X86871761Y-136173335D01*
X86949696Y-136181010D01*
X86951322Y-136182175D01*
X86951126Y-136184165D01*
X86949500Y-136185000D01*
X86893138Y-136185000D01*
X86892942Y-136184990D01*
X86820981Y-136177903D01*
X86820596Y-136177827D01*
X86757308Y-136158628D01*
X86756946Y-136158478D01*
X86698608Y-136127296D01*
X86698282Y-136127078D01*
X86647156Y-136085121D01*
X86646879Y-136084844D01*
X86604922Y-136033718D01*
X86604704Y-136033392D01*
X86573522Y-135975054D01*
X86573372Y-135974692D01*
X86554173Y-135911404D01*
X86554097Y-135911019D01*
X86547010Y-135839058D01*
X86547000Y-135838862D01*
X86547000Y-135782500D01*
X86548000Y-135780768D01*
X86550000Y-135780768D01*
X86550990Y-135782304D01*
G37*
G36*
X83050990Y-135782304D02*
G01*
X83058665Y-135860239D01*
X83081343Y-135934996D01*
X83118167Y-136003890D01*
X83167725Y-136064275D01*
X83228110Y-136113833D01*
X83297004Y-136150657D01*
X83371761Y-136173335D01*
X83449696Y-136181010D01*
X83451322Y-136182175D01*
X83451126Y-136184165D01*
X83449500Y-136185000D01*
X83393138Y-136185000D01*
X83392942Y-136184990D01*
X83320981Y-136177903D01*
X83320596Y-136177827D01*
X83257308Y-136158628D01*
X83256946Y-136158478D01*
X83198608Y-136127296D01*
X83198282Y-136127078D01*
X83147156Y-136085121D01*
X83146879Y-136084844D01*
X83104922Y-136033718D01*
X83104704Y-136033392D01*
X83073522Y-135975054D01*
X83073372Y-135974692D01*
X83054173Y-135911404D01*
X83054097Y-135911019D01*
X83047010Y-135839058D01*
X83047000Y-135838862D01*
X83047000Y-135782500D01*
X83048000Y-135780768D01*
X83050000Y-135780768D01*
X83050990Y-135782304D01*
G37*
G36*
X88402165Y-135780874D02*
G01*
X88403000Y-135782500D01*
X88403000Y-135838862D01*
X88402990Y-135839058D01*
X88395903Y-135911019D01*
X88395827Y-135911404D01*
X88376628Y-135974692D01*
X88376478Y-135975054D01*
X88345296Y-136033392D01*
X88345078Y-136033718D01*
X88303121Y-136084844D01*
X88302844Y-136085121D01*
X88251718Y-136127078D01*
X88251392Y-136127296D01*
X88193054Y-136158478D01*
X88192692Y-136158628D01*
X88129404Y-136177827D01*
X88129019Y-136177903D01*
X88057058Y-136184990D01*
X88056862Y-136185000D01*
X88000500Y-136185000D01*
X87998768Y-136184000D01*
X87998768Y-136182000D01*
X88000304Y-136181010D01*
X88078239Y-136173335D01*
X88152996Y-136150657D01*
X88221890Y-136113833D01*
X88282275Y-136064275D01*
X88331833Y-136003890D01*
X88368657Y-135934996D01*
X88391335Y-135860239D01*
X88399010Y-135782304D01*
X88400175Y-135780678D01*
X88402165Y-135780874D01*
G37*
G36*
X86951232Y-134580000D02*
G01*
X86951232Y-134582000D01*
X86949696Y-134582990D01*
X86871761Y-134590665D01*
X86797004Y-134613343D01*
X86728110Y-134650167D01*
X86667725Y-134699725D01*
X86618167Y-134760110D01*
X86581343Y-134829004D01*
X86558665Y-134903761D01*
X86550990Y-134981696D01*
X86549825Y-134983322D01*
X86547835Y-134983126D01*
X86547000Y-134981500D01*
X86547000Y-134925138D01*
X86547010Y-134924942D01*
X86554097Y-134852981D01*
X86554173Y-134852596D01*
X86573372Y-134789308D01*
X86573522Y-134788946D01*
X86604704Y-134730608D01*
X86604922Y-134730282D01*
X86646879Y-134679156D01*
X86647156Y-134678879D01*
X86698282Y-134636922D01*
X86698608Y-134636704D01*
X86756946Y-134605522D01*
X86757308Y-134605372D01*
X86820596Y-134586173D01*
X86820981Y-134586097D01*
X86892942Y-134579010D01*
X86893138Y-134579000D01*
X86949500Y-134579000D01*
X86951232Y-134580000D01*
G37*
G36*
X83451232Y-134580000D02*
G01*
X83451232Y-134582000D01*
X83449696Y-134582990D01*
X83371761Y-134590665D01*
X83297004Y-134613343D01*
X83228110Y-134650167D01*
X83167725Y-134699725D01*
X83118167Y-134760110D01*
X83081343Y-134829004D01*
X83058665Y-134903761D01*
X83050990Y-134981696D01*
X83049825Y-134983322D01*
X83047835Y-134983126D01*
X83047000Y-134981500D01*
X83047000Y-134925138D01*
X83047010Y-134924942D01*
X83054097Y-134852981D01*
X83054173Y-134852596D01*
X83073372Y-134789308D01*
X83073522Y-134788946D01*
X83104704Y-134730608D01*
X83104922Y-134730282D01*
X83146879Y-134679156D01*
X83147156Y-134678879D01*
X83198282Y-134636922D01*
X83198608Y-134636704D01*
X83256946Y-134605522D01*
X83257308Y-134605372D01*
X83320596Y-134586173D01*
X83320981Y-134586097D01*
X83392942Y-134579010D01*
X83393138Y-134579000D01*
X83449500Y-134579000D01*
X83451232Y-134580000D01*
G37*
G36*
X84557058Y-134579010D02*
G01*
X84629019Y-134586097D01*
X84629404Y-134586173D01*
X84692692Y-134605372D01*
X84693054Y-134605522D01*
X84751392Y-134636704D01*
X84751718Y-134636922D01*
X84802844Y-134678879D01*
X84803121Y-134679156D01*
X84845078Y-134730282D01*
X84845296Y-134730608D01*
X84876478Y-134788946D01*
X84876628Y-134789308D01*
X84895827Y-134852596D01*
X84895903Y-134852981D01*
X84902990Y-134924942D01*
X84903000Y-134925138D01*
X84903000Y-134981500D01*
X84902000Y-134983232D01*
X84900000Y-134983232D01*
X84899010Y-134981696D01*
X84891335Y-134903761D01*
X84868657Y-134829004D01*
X84831833Y-134760110D01*
X84782275Y-134699725D01*
X84721890Y-134650167D01*
X84652996Y-134613343D01*
X84578239Y-134590665D01*
X84500304Y-134582990D01*
X84498678Y-134581825D01*
X84498874Y-134579835D01*
X84500500Y-134579000D01*
X84556862Y-134579000D01*
X84557058Y-134579010D01*
G37*
G36*
X88057058Y-134579010D02*
G01*
X88129019Y-134586097D01*
X88129404Y-134586173D01*
X88192692Y-134605372D01*
X88193054Y-134605522D01*
X88251392Y-134636704D01*
X88251718Y-134636922D01*
X88302844Y-134678879D01*
X88303121Y-134679156D01*
X88345078Y-134730282D01*
X88345296Y-134730608D01*
X88376478Y-134788946D01*
X88376628Y-134789308D01*
X88395827Y-134852596D01*
X88395903Y-134852981D01*
X88402990Y-134924942D01*
X88403000Y-134925138D01*
X88403000Y-134981500D01*
X88402000Y-134983232D01*
X88400000Y-134983232D01*
X88399010Y-134981696D01*
X88391335Y-134903761D01*
X88368657Y-134829004D01*
X88331833Y-134760110D01*
X88282275Y-134699725D01*
X88221890Y-134650167D01*
X88152996Y-134613343D01*
X88078239Y-134590665D01*
X88000304Y-134582990D01*
X87998678Y-134581825D01*
X87998874Y-134579835D01*
X88000500Y-134579000D01*
X88056862Y-134579000D01*
X88057058Y-134579010D01*
G37*
G36*
X100026165Y-134261874D02*
G01*
X100027000Y-134263500D01*
X100027000Y-134319862D01*
X100026990Y-134320058D01*
X100019807Y-134392995D01*
X100019731Y-134393380D01*
X100000247Y-134457609D01*
X100000097Y-134457971D01*
X99968456Y-134517166D01*
X99968238Y-134517492D01*
X99925656Y-134569379D01*
X99925379Y-134569656D01*
X99873492Y-134612238D01*
X99873166Y-134612456D01*
X99813971Y-134644097D01*
X99813609Y-134644247D01*
X99749380Y-134663731D01*
X99748995Y-134663807D01*
X99676058Y-134670990D01*
X99675862Y-134671000D01*
X99619500Y-134671000D01*
X99617768Y-134670000D01*
X99617768Y-134668000D01*
X99619304Y-134667010D01*
X99698214Y-134659238D01*
X99773909Y-134636276D01*
X99843668Y-134598990D01*
X99904811Y-134548811D01*
X99954990Y-134487668D01*
X99992276Y-134417909D01*
X100015238Y-134342214D01*
X100023010Y-134263304D01*
X100024175Y-134261678D01*
X100026165Y-134261874D01*
G37*
G36*
X97334990Y-134263304D02*
G01*
X97342762Y-134342214D01*
X97365724Y-134417909D01*
X97403010Y-134487668D01*
X97453189Y-134548811D01*
X97514332Y-134598990D01*
X97584091Y-134636276D01*
X97659786Y-134659238D01*
X97738696Y-134667010D01*
X97740322Y-134668175D01*
X97740126Y-134670165D01*
X97738500Y-134671000D01*
X97682138Y-134671000D01*
X97681942Y-134670990D01*
X97609005Y-134663807D01*
X97608620Y-134663731D01*
X97544391Y-134644247D01*
X97544029Y-134644097D01*
X97484834Y-134612456D01*
X97484508Y-134612238D01*
X97432621Y-134569656D01*
X97432344Y-134569379D01*
X97389762Y-134517492D01*
X97389544Y-134517166D01*
X97357903Y-134457971D01*
X97357753Y-134457609D01*
X97338269Y-134393380D01*
X97338193Y-134392995D01*
X97331010Y-134320058D01*
X97331000Y-134319862D01*
X97331000Y-134263500D01*
X97332000Y-134261768D01*
X97334000Y-134261768D01*
X97334990Y-134263304D01*
G37*
G36*
X106212165Y-134232874D02*
G01*
X106213000Y-134234500D01*
X106213000Y-134290862D01*
X106212990Y-134291058D01*
X106205903Y-134363019D01*
X106205827Y-134363404D01*
X106186628Y-134426692D01*
X106186478Y-134427054D01*
X106155296Y-134485392D01*
X106155078Y-134485718D01*
X106113121Y-134536844D01*
X106112844Y-134537121D01*
X106061718Y-134579078D01*
X106061392Y-134579296D01*
X106003054Y-134610478D01*
X106002692Y-134610628D01*
X105939404Y-134629827D01*
X105939019Y-134629903D01*
X105867058Y-134636990D01*
X105866862Y-134637000D01*
X105810500Y-134637000D01*
X105808768Y-134636000D01*
X105808768Y-134634000D01*
X105810304Y-134633010D01*
X105888239Y-134625335D01*
X105962996Y-134602657D01*
X106031890Y-134565833D01*
X106092275Y-134516275D01*
X106141833Y-134455890D01*
X106178657Y-134386996D01*
X106201335Y-134312239D01*
X106209010Y-134234304D01*
X106210175Y-134232678D01*
X106212165Y-134232874D01*
G37*
G36*
X104610990Y-134234304D02*
G01*
X104618665Y-134312239D01*
X104641343Y-134386996D01*
X104678167Y-134455890D01*
X104727725Y-134516275D01*
X104788110Y-134565833D01*
X104857004Y-134602657D01*
X104931761Y-134625335D01*
X105009696Y-134633010D01*
X105011322Y-134634175D01*
X105011126Y-134636165D01*
X105009500Y-134637000D01*
X104953138Y-134637000D01*
X104952942Y-134636990D01*
X104880981Y-134629903D01*
X104880596Y-134629827D01*
X104817308Y-134610628D01*
X104816946Y-134610478D01*
X104758608Y-134579296D01*
X104758282Y-134579078D01*
X104707156Y-134537121D01*
X104706879Y-134536844D01*
X104664922Y-134485718D01*
X104664704Y-134485392D01*
X104633522Y-134427054D01*
X104633372Y-134426692D01*
X104614173Y-134363404D01*
X104614097Y-134363019D01*
X104607010Y-134291058D01*
X104607000Y-134290862D01*
X104607000Y-134234500D01*
X104608000Y-134232768D01*
X104610000Y-134232768D01*
X104610990Y-134234304D01*
G37*
G36*
X103912165Y-134202874D02*
G01*
X103913000Y-134204500D01*
X103913000Y-134260862D01*
X103912990Y-134261058D01*
X103905903Y-134333019D01*
X103905827Y-134333404D01*
X103886628Y-134396692D01*
X103886478Y-134397054D01*
X103855296Y-134455392D01*
X103855078Y-134455718D01*
X103813121Y-134506844D01*
X103812844Y-134507121D01*
X103761718Y-134549078D01*
X103761392Y-134549296D01*
X103703054Y-134580478D01*
X103702692Y-134580628D01*
X103639404Y-134599827D01*
X103639019Y-134599903D01*
X103567058Y-134606990D01*
X103566862Y-134607000D01*
X103510500Y-134607000D01*
X103508768Y-134606000D01*
X103508768Y-134604000D01*
X103510304Y-134603010D01*
X103588239Y-134595335D01*
X103662996Y-134572657D01*
X103731891Y-134535832D01*
X103792275Y-134486275D01*
X103841833Y-134425890D01*
X103878657Y-134356996D01*
X103901335Y-134282239D01*
X103909010Y-134204304D01*
X103910175Y-134202678D01*
X103912165Y-134202874D01*
G37*
G36*
X108512165Y-134202874D02*
G01*
X108513000Y-134204500D01*
X108513000Y-134260862D01*
X108512990Y-134261058D01*
X108505903Y-134333019D01*
X108505827Y-134333404D01*
X108486628Y-134396692D01*
X108486478Y-134397054D01*
X108455296Y-134455392D01*
X108455078Y-134455718D01*
X108413121Y-134506844D01*
X108412844Y-134507121D01*
X108361718Y-134549078D01*
X108361392Y-134549296D01*
X108303054Y-134580478D01*
X108302692Y-134580628D01*
X108239404Y-134599827D01*
X108239019Y-134599903D01*
X108167058Y-134606990D01*
X108166862Y-134607000D01*
X108110500Y-134607000D01*
X108108768Y-134606000D01*
X108108768Y-134604000D01*
X108110304Y-134603010D01*
X108188239Y-134595335D01*
X108262996Y-134572657D01*
X108331891Y-134535832D01*
X108392275Y-134486275D01*
X108441833Y-134425890D01*
X108478657Y-134356996D01*
X108501335Y-134282239D01*
X108509010Y-134204304D01*
X108510175Y-134202678D01*
X108512165Y-134202874D01*
G37*
G36*
X102310990Y-134204304D02*
G01*
X102318665Y-134282239D01*
X102341343Y-134356996D01*
X102378167Y-134425890D01*
X102427725Y-134486275D01*
X102488109Y-134535832D01*
X102557004Y-134572657D01*
X102631761Y-134595335D01*
X102709696Y-134603010D01*
X102711322Y-134604175D01*
X102711126Y-134606165D01*
X102709500Y-134607000D01*
X102653138Y-134607000D01*
X102652942Y-134606990D01*
X102580981Y-134599903D01*
X102580596Y-134599827D01*
X102517308Y-134580628D01*
X102516946Y-134580478D01*
X102458608Y-134549296D01*
X102458282Y-134549078D01*
X102407156Y-134507121D01*
X102406879Y-134506844D01*
X102364922Y-134455718D01*
X102364704Y-134455392D01*
X102333522Y-134397054D01*
X102333372Y-134396692D01*
X102314173Y-134333404D01*
X102314097Y-134333019D01*
X102307010Y-134261058D01*
X102307000Y-134260862D01*
X102307000Y-134204500D01*
X102308000Y-134202768D01*
X102310000Y-134202768D01*
X102310990Y-134204304D01*
G37*
G36*
X106910990Y-134204304D02*
G01*
X106918665Y-134282239D01*
X106941343Y-134356996D01*
X106978167Y-134425890D01*
X107027725Y-134486275D01*
X107088109Y-134535832D01*
X107157004Y-134572657D01*
X107231761Y-134595335D01*
X107309696Y-134603010D01*
X107311322Y-134604175D01*
X107311126Y-134606165D01*
X107309500Y-134607000D01*
X107253138Y-134607000D01*
X107252942Y-134606990D01*
X107180981Y-134599903D01*
X107180596Y-134599827D01*
X107117308Y-134580628D01*
X107116946Y-134580478D01*
X107058608Y-134549296D01*
X107058282Y-134549078D01*
X107007156Y-134507121D01*
X107006879Y-134506844D01*
X106964922Y-134455718D01*
X106964704Y-134455392D01*
X106933522Y-134397054D01*
X106933372Y-134396692D01*
X106914173Y-134333404D01*
X106914097Y-134333019D01*
X106907010Y-134261058D01*
X106907000Y-134260862D01*
X106907000Y-134204500D01*
X106908000Y-134202768D01*
X106910000Y-134202768D01*
X106910990Y-134204304D01*
G37*
G36*
X102021165Y-134028874D02*
G01*
X102022000Y-134030500D01*
X102022000Y-134086862D01*
X102021990Y-134087058D01*
X102014903Y-134159019D01*
X102014827Y-134159404D01*
X101995628Y-134222692D01*
X101995478Y-134223054D01*
X101964296Y-134281392D01*
X101964078Y-134281718D01*
X101922121Y-134332844D01*
X101921844Y-134333121D01*
X101870718Y-134375078D01*
X101870392Y-134375296D01*
X101812054Y-134406478D01*
X101811692Y-134406628D01*
X101748404Y-134425827D01*
X101748019Y-134425903D01*
X101676058Y-134432990D01*
X101675862Y-134433000D01*
X101619500Y-134433000D01*
X101617768Y-134432000D01*
X101617768Y-134430000D01*
X101619304Y-134429010D01*
X101697239Y-134421335D01*
X101771996Y-134398657D01*
X101840890Y-134361833D01*
X101901275Y-134312275D01*
X101950833Y-134251890D01*
X101987657Y-134182996D01*
X102010335Y-134108239D01*
X102018010Y-134030304D01*
X102019175Y-134028678D01*
X102021165Y-134028874D01*
G37*
G36*
X100419990Y-134030304D02*
G01*
X100427665Y-134108239D01*
X100450343Y-134182996D01*
X100487167Y-134251890D01*
X100536725Y-134312275D01*
X100597110Y-134361833D01*
X100666004Y-134398657D01*
X100740761Y-134421335D01*
X100818696Y-134429010D01*
X100820322Y-134430175D01*
X100820126Y-134432165D01*
X100818500Y-134433000D01*
X100762138Y-134433000D01*
X100761942Y-134432990D01*
X100689981Y-134425903D01*
X100689596Y-134425827D01*
X100626308Y-134406628D01*
X100625946Y-134406478D01*
X100567608Y-134375296D01*
X100567282Y-134375078D01*
X100516156Y-134333121D01*
X100515879Y-134332844D01*
X100473922Y-134281718D01*
X100473704Y-134281392D01*
X100442522Y-134223054D01*
X100442372Y-134222692D01*
X100423173Y-134159404D01*
X100423097Y-134159019D01*
X100416010Y-134087058D01*
X100416000Y-134086862D01*
X100416000Y-134030500D01*
X100417000Y-134028768D01*
X100419000Y-134028768D01*
X100419990Y-134030304D01*
G37*
G36*
X97740232Y-133046000D02*
G01*
X97740232Y-133048000D01*
X97738696Y-133048990D01*
X97659786Y-133056762D01*
X97584091Y-133079724D01*
X97514332Y-133117010D01*
X97453189Y-133167189D01*
X97403010Y-133228332D01*
X97365724Y-133298091D01*
X97342762Y-133373786D01*
X97334990Y-133452696D01*
X97333825Y-133454322D01*
X97331835Y-133454126D01*
X97331000Y-133452500D01*
X97331000Y-133396138D01*
X97331010Y-133395942D01*
X97338193Y-133323005D01*
X97338269Y-133322620D01*
X97357753Y-133258391D01*
X97357903Y-133258029D01*
X97389544Y-133198834D01*
X97389762Y-133198508D01*
X97432344Y-133146621D01*
X97432621Y-133146344D01*
X97484508Y-133103762D01*
X97484834Y-133103544D01*
X97544029Y-133071903D01*
X97544391Y-133071753D01*
X97608620Y-133052269D01*
X97609005Y-133052193D01*
X97681942Y-133045010D01*
X97682138Y-133045000D01*
X97738500Y-133045000D01*
X97740232Y-133046000D01*
G37*
G36*
X99676058Y-133045010D02*
G01*
X99748995Y-133052193D01*
X99749380Y-133052269D01*
X99813609Y-133071753D01*
X99813971Y-133071903D01*
X99873166Y-133103544D01*
X99873492Y-133103762D01*
X99925379Y-133146344D01*
X99925656Y-133146621D01*
X99968238Y-133198508D01*
X99968456Y-133198834D01*
X100000097Y-133258029D01*
X100000247Y-133258391D01*
X100019731Y-133322620D01*
X100019807Y-133323005D01*
X100026990Y-133395942D01*
X100027000Y-133396138D01*
X100027000Y-133452500D01*
X100026000Y-133454232D01*
X100024000Y-133454232D01*
X100023010Y-133452696D01*
X100015238Y-133373786D01*
X99992276Y-133298091D01*
X99954990Y-133228332D01*
X99904811Y-133167189D01*
X99843668Y-133117010D01*
X99773909Y-133079724D01*
X99698214Y-133056762D01*
X99619304Y-133048990D01*
X99617678Y-133047825D01*
X99617874Y-133045835D01*
X99619500Y-133045000D01*
X99675862Y-133045000D01*
X99676058Y-133045010D01*
G37*
G36*
X100820232Y-132578000D02*
G01*
X100820232Y-132580000D01*
X100818696Y-132580990D01*
X100740761Y-132588665D01*
X100666004Y-132611343D01*
X100597110Y-132648167D01*
X100536725Y-132697725D01*
X100487167Y-132758110D01*
X100450343Y-132827004D01*
X100427665Y-132901761D01*
X100419990Y-132979696D01*
X100418825Y-132981322D01*
X100416835Y-132981126D01*
X100416000Y-132979500D01*
X100416000Y-132923138D01*
X100416010Y-132922942D01*
X100423097Y-132850981D01*
X100423173Y-132850596D01*
X100442372Y-132787308D01*
X100442522Y-132786946D01*
X100473704Y-132728608D01*
X100473922Y-132728282D01*
X100515879Y-132677156D01*
X100516156Y-132676879D01*
X100567282Y-132634922D01*
X100567608Y-132634704D01*
X100625946Y-132603522D01*
X100626308Y-132603372D01*
X100689596Y-132584173D01*
X100689981Y-132584097D01*
X100761942Y-132577010D01*
X100762138Y-132577000D01*
X100818500Y-132577000D01*
X100820232Y-132578000D01*
G37*
G36*
X101676058Y-132577010D02*
G01*
X101748019Y-132584097D01*
X101748404Y-132584173D01*
X101811692Y-132603372D01*
X101812054Y-132603522D01*
X101870392Y-132634704D01*
X101870718Y-132634922D01*
X101921844Y-132676879D01*
X101922121Y-132677156D01*
X101964078Y-132728282D01*
X101964296Y-132728608D01*
X101995478Y-132786946D01*
X101995628Y-132787308D01*
X102014827Y-132850596D01*
X102014903Y-132850981D01*
X102021990Y-132922942D01*
X102022000Y-132923138D01*
X102022000Y-132979500D01*
X102021000Y-132981232D01*
X102019000Y-132981232D01*
X102018010Y-132979696D01*
X102010335Y-132901761D01*
X101987657Y-132827004D01*
X101950833Y-132758110D01*
X101901275Y-132697725D01*
X101840890Y-132648167D01*
X101771996Y-132611343D01*
X101697239Y-132588665D01*
X101619304Y-132580990D01*
X101617678Y-132579825D01*
X101617874Y-132577835D01*
X101619500Y-132577000D01*
X101675862Y-132577000D01*
X101676058Y-132577010D01*
G37*
G36*
X102711232Y-132502000D02*
G01*
X102711232Y-132504000D01*
X102709696Y-132504990D01*
X102631761Y-132512665D01*
X102557004Y-132535343D01*
X102488110Y-132572167D01*
X102427725Y-132621725D01*
X102378167Y-132682110D01*
X102341343Y-132751004D01*
X102318665Y-132825761D01*
X102310990Y-132903696D01*
X102309825Y-132905322D01*
X102307835Y-132905126D01*
X102307000Y-132903500D01*
X102307000Y-132847138D01*
X102307010Y-132846942D01*
X102314097Y-132774981D01*
X102314173Y-132774596D01*
X102333372Y-132711308D01*
X102333522Y-132710946D01*
X102364704Y-132652608D01*
X102364922Y-132652282D01*
X102406879Y-132601156D01*
X102407156Y-132600879D01*
X102458282Y-132558922D01*
X102458608Y-132558704D01*
X102516946Y-132527522D01*
X102517308Y-132527372D01*
X102580596Y-132508173D01*
X102580981Y-132508097D01*
X102652942Y-132501010D01*
X102653138Y-132501000D01*
X102709500Y-132501000D01*
X102711232Y-132502000D01*
G37*
G36*
X107311232Y-132502000D02*
G01*
X107311232Y-132504000D01*
X107309696Y-132504990D01*
X107231761Y-132512665D01*
X107157004Y-132535343D01*
X107088110Y-132572167D01*
X107027725Y-132621725D01*
X106978167Y-132682110D01*
X106941343Y-132751004D01*
X106918665Y-132825761D01*
X106910990Y-132903696D01*
X106909825Y-132905322D01*
X106907835Y-132905126D01*
X106907000Y-132903500D01*
X106907000Y-132847138D01*
X106907010Y-132846942D01*
X106914097Y-132774981D01*
X106914173Y-132774596D01*
X106933372Y-132711308D01*
X106933522Y-132710946D01*
X106964704Y-132652608D01*
X106964922Y-132652282D01*
X107006879Y-132601156D01*
X107007156Y-132600879D01*
X107058282Y-132558922D01*
X107058608Y-132558704D01*
X107116946Y-132527522D01*
X107117308Y-132527372D01*
X107180596Y-132508173D01*
X107180981Y-132508097D01*
X107252942Y-132501010D01*
X107253138Y-132501000D01*
X107309500Y-132501000D01*
X107311232Y-132502000D01*
G37*
G36*
X108167058Y-132501010D02*
G01*
X108239019Y-132508097D01*
X108239404Y-132508173D01*
X108302692Y-132527372D01*
X108303054Y-132527522D01*
X108361392Y-132558704D01*
X108361718Y-132558922D01*
X108412844Y-132600879D01*
X108413121Y-132601156D01*
X108455078Y-132652282D01*
X108455296Y-132652608D01*
X108486478Y-132710946D01*
X108486628Y-132711308D01*
X108505827Y-132774596D01*
X108505903Y-132774981D01*
X108512990Y-132846942D01*
X108513000Y-132847138D01*
X108513000Y-132903500D01*
X108512000Y-132905232D01*
X108510000Y-132905232D01*
X108509010Y-132903696D01*
X108501335Y-132825761D01*
X108478657Y-132751004D01*
X108441833Y-132682110D01*
X108392275Y-132621725D01*
X108331890Y-132572167D01*
X108262996Y-132535343D01*
X108188239Y-132512665D01*
X108110304Y-132504990D01*
X108108678Y-132503825D01*
X108108874Y-132501835D01*
X108110500Y-132501000D01*
X108166862Y-132501000D01*
X108167058Y-132501010D01*
G37*
G36*
X103567058Y-132501010D02*
G01*
X103639019Y-132508097D01*
X103639404Y-132508173D01*
X103702692Y-132527372D01*
X103703054Y-132527522D01*
X103761392Y-132558704D01*
X103761718Y-132558922D01*
X103812844Y-132600879D01*
X103813121Y-132601156D01*
X103855078Y-132652282D01*
X103855296Y-132652608D01*
X103886478Y-132710946D01*
X103886628Y-132711308D01*
X103905827Y-132774596D01*
X103905903Y-132774981D01*
X103912990Y-132846942D01*
X103913000Y-132847138D01*
X103913000Y-132903500D01*
X103912000Y-132905232D01*
X103910000Y-132905232D01*
X103909010Y-132903696D01*
X103901335Y-132825761D01*
X103878657Y-132751004D01*
X103841833Y-132682110D01*
X103792275Y-132621725D01*
X103731890Y-132572167D01*
X103662996Y-132535343D01*
X103588239Y-132512665D01*
X103510304Y-132504990D01*
X103508678Y-132503825D01*
X103508874Y-132501835D01*
X103510500Y-132501000D01*
X103566862Y-132501000D01*
X103567058Y-132501010D01*
G37*
G36*
X77803990Y-132258304D02*
G01*
X77811762Y-132337214D01*
X77834724Y-132412909D01*
X77872010Y-132482668D01*
X77922189Y-132543811D01*
X77983332Y-132593990D01*
X78053091Y-132631276D01*
X78128786Y-132654238D01*
X78207696Y-132662010D01*
X78209322Y-132663175D01*
X78209126Y-132665165D01*
X78207500Y-132666000D01*
X78151138Y-132666000D01*
X78150942Y-132665990D01*
X78078005Y-132658807D01*
X78077620Y-132658731D01*
X78013391Y-132639247D01*
X78013029Y-132639097D01*
X77953834Y-132607456D01*
X77953508Y-132607238D01*
X77901621Y-132564656D01*
X77901344Y-132564379D01*
X77858762Y-132512492D01*
X77858544Y-132512166D01*
X77826903Y-132452971D01*
X77826753Y-132452609D01*
X77807269Y-132388380D01*
X77807193Y-132387995D01*
X77800010Y-132315058D01*
X77800000Y-132314862D01*
X77800000Y-132258500D01*
X77801000Y-132256768D01*
X77803000Y-132256768D01*
X77803990Y-132258304D01*
G37*
G36*
X82473165Y-132256874D02*
G01*
X82474000Y-132258500D01*
X82474000Y-132314862D01*
X82473990Y-132315058D01*
X82466807Y-132387995D01*
X82466731Y-132388380D01*
X82447247Y-132452609D01*
X82447097Y-132452971D01*
X82415456Y-132512166D01*
X82415238Y-132512492D01*
X82372656Y-132564379D01*
X82372379Y-132564656D01*
X82320492Y-132607238D01*
X82320166Y-132607456D01*
X82260971Y-132639097D01*
X82260609Y-132639247D01*
X82196380Y-132658731D01*
X82195995Y-132658807D01*
X82123058Y-132665990D01*
X82122862Y-132666000D01*
X82066500Y-132666000D01*
X82064768Y-132665000D01*
X82064768Y-132663000D01*
X82066304Y-132662010D01*
X82145214Y-132654238D01*
X82220909Y-132631276D01*
X82290668Y-132593990D01*
X82351811Y-132543811D01*
X82401990Y-132482668D01*
X82439276Y-132412909D01*
X82462238Y-132337214D01*
X82470010Y-132258304D01*
X82471175Y-132256678D01*
X82473165Y-132256874D01*
G37*
G36*
X79425165Y-132256874D02*
G01*
X79426000Y-132258500D01*
X79426000Y-132314862D01*
X79425990Y-132315058D01*
X79418807Y-132387995D01*
X79418731Y-132388380D01*
X79399247Y-132452609D01*
X79399097Y-132452971D01*
X79367456Y-132512166D01*
X79367238Y-132512492D01*
X79324656Y-132564379D01*
X79324379Y-132564656D01*
X79272492Y-132607238D01*
X79272166Y-132607456D01*
X79212971Y-132639097D01*
X79212609Y-132639247D01*
X79148380Y-132658731D01*
X79147995Y-132658807D01*
X79075058Y-132665990D01*
X79074862Y-132666000D01*
X79018500Y-132666000D01*
X79016768Y-132665000D01*
X79016768Y-132663000D01*
X79018304Y-132662010D01*
X79097214Y-132654238D01*
X79172909Y-132631276D01*
X79242668Y-132593990D01*
X79303811Y-132543811D01*
X79353990Y-132482668D01*
X79391276Y-132412909D01*
X79414238Y-132337214D01*
X79422010Y-132258304D01*
X79423175Y-132256678D01*
X79425165Y-132256874D01*
G37*
G36*
X80851990Y-132258304D02*
G01*
X80859762Y-132337214D01*
X80882724Y-132412909D01*
X80920010Y-132482668D01*
X80970189Y-132543811D01*
X81031332Y-132593990D01*
X81101091Y-132631276D01*
X81176786Y-132654238D01*
X81255696Y-132662010D01*
X81257322Y-132663175D01*
X81257126Y-132665165D01*
X81255500Y-132666000D01*
X81199138Y-132666000D01*
X81198942Y-132665990D01*
X81126005Y-132658807D01*
X81125620Y-132658731D01*
X81061391Y-132639247D01*
X81061029Y-132639097D01*
X81001834Y-132607456D01*
X81001508Y-132607238D01*
X80949621Y-132564656D01*
X80949344Y-132564379D01*
X80906762Y-132512492D01*
X80906544Y-132512166D01*
X80874903Y-132452971D01*
X80874753Y-132452609D01*
X80855269Y-132388380D01*
X80855193Y-132387995D01*
X80848010Y-132315058D01*
X80848000Y-132314862D01*
X80848000Y-132258500D01*
X80849000Y-132256768D01*
X80851000Y-132256768D01*
X80851990Y-132258304D01*
G37*
G36*
X86312990Y-132131304D02*
G01*
X86320762Y-132210214D01*
X86343724Y-132285909D01*
X86381010Y-132355668D01*
X86431189Y-132416811D01*
X86492332Y-132466990D01*
X86562091Y-132504276D01*
X86637786Y-132527238D01*
X86716696Y-132535010D01*
X86718322Y-132536175D01*
X86718126Y-132538165D01*
X86716500Y-132539000D01*
X86660138Y-132539000D01*
X86659942Y-132538990D01*
X86587005Y-132531807D01*
X86586620Y-132531731D01*
X86522391Y-132512247D01*
X86522029Y-132512097D01*
X86462834Y-132480456D01*
X86462508Y-132480238D01*
X86410621Y-132437656D01*
X86410344Y-132437379D01*
X86367762Y-132385492D01*
X86367544Y-132385166D01*
X86335903Y-132325971D01*
X86335753Y-132325609D01*
X86316269Y-132261380D01*
X86316193Y-132260995D01*
X86309010Y-132188058D01*
X86309000Y-132187862D01*
X86309000Y-132131500D01*
X86310000Y-132129768D01*
X86312000Y-132129768D01*
X86312990Y-132131304D01*
G37*
G36*
X84886165Y-132129874D02*
G01*
X84887000Y-132131500D01*
X84887000Y-132187862D01*
X84886990Y-132188058D01*
X84879807Y-132260995D01*
X84879731Y-132261380D01*
X84860247Y-132325609D01*
X84860097Y-132325971D01*
X84828456Y-132385166D01*
X84828238Y-132385492D01*
X84785656Y-132437379D01*
X84785379Y-132437656D01*
X84733492Y-132480238D01*
X84733166Y-132480456D01*
X84673971Y-132512097D01*
X84673609Y-132512247D01*
X84609380Y-132531731D01*
X84608995Y-132531807D01*
X84536058Y-132538990D01*
X84535862Y-132539000D01*
X84479500Y-132539000D01*
X84477768Y-132538000D01*
X84477768Y-132536000D01*
X84479304Y-132535010D01*
X84558214Y-132527238D01*
X84633909Y-132504276D01*
X84703668Y-132466990D01*
X84764811Y-132416811D01*
X84814990Y-132355668D01*
X84852276Y-132285909D01*
X84875238Y-132210214D01*
X84883010Y-132131304D01*
X84884175Y-132129678D01*
X84886165Y-132129874D01*
G37*
G36*
X83264990Y-132131304D02*
G01*
X83272762Y-132210214D01*
X83295724Y-132285909D01*
X83333010Y-132355668D01*
X83383189Y-132416811D01*
X83444332Y-132466990D01*
X83514091Y-132504276D01*
X83589786Y-132527238D01*
X83668696Y-132535010D01*
X83670322Y-132536175D01*
X83670126Y-132538165D01*
X83668500Y-132539000D01*
X83612138Y-132539000D01*
X83611942Y-132538990D01*
X83539005Y-132531807D01*
X83538620Y-132531731D01*
X83474391Y-132512247D01*
X83474029Y-132512097D01*
X83414834Y-132480456D01*
X83414508Y-132480238D01*
X83362621Y-132437656D01*
X83362344Y-132437379D01*
X83319762Y-132385492D01*
X83319544Y-132385166D01*
X83287903Y-132325971D01*
X83287753Y-132325609D01*
X83268269Y-132261380D01*
X83268193Y-132260995D01*
X83261010Y-132188058D01*
X83261000Y-132187862D01*
X83261000Y-132131500D01*
X83262000Y-132129768D01*
X83264000Y-132129768D01*
X83264990Y-132131304D01*
G37*
G36*
X87934165Y-132129874D02*
G01*
X87935000Y-132131500D01*
X87935000Y-132187862D01*
X87934990Y-132188058D01*
X87927807Y-132260995D01*
X87927731Y-132261380D01*
X87908247Y-132325609D01*
X87908097Y-132325971D01*
X87876456Y-132385166D01*
X87876238Y-132385492D01*
X87833656Y-132437379D01*
X87833379Y-132437656D01*
X87781492Y-132480238D01*
X87781166Y-132480456D01*
X87721971Y-132512097D01*
X87721609Y-132512247D01*
X87657380Y-132531731D01*
X87656995Y-132531807D01*
X87584058Y-132538990D01*
X87583862Y-132539000D01*
X87527500Y-132539000D01*
X87525768Y-132538000D01*
X87525768Y-132536000D01*
X87527304Y-132535010D01*
X87606214Y-132527238D01*
X87681909Y-132504276D01*
X87751668Y-132466990D01*
X87812811Y-132416811D01*
X87862990Y-132355668D01*
X87900276Y-132285909D01*
X87923238Y-132210214D01*
X87931010Y-132131304D01*
X87932175Y-132129678D01*
X87934165Y-132129874D01*
G37*
G36*
X108612165Y-129672574D02*
G01*
X108613000Y-129674200D01*
X108613000Y-129693060D01*
X108612990Y-129693256D01*
X108569821Y-130131557D01*
X108569745Y-130131942D01*
X108443686Y-130547502D01*
X108443536Y-130547864D01*
X108238832Y-130930838D01*
X108238614Y-130931164D01*
X107963126Y-131266849D01*
X107962849Y-131267126D01*
X107627164Y-131542614D01*
X107626838Y-131542832D01*
X107243864Y-131747536D01*
X107243502Y-131747686D01*
X106827942Y-131873745D01*
X106827557Y-131873821D01*
X106389256Y-131916990D01*
X106389060Y-131917000D01*
X106370200Y-131917000D01*
X106368468Y-131916000D01*
X106368468Y-131914000D01*
X106370004Y-131913010D01*
X106806963Y-131869974D01*
X107226948Y-131742572D01*
X107614006Y-131535686D01*
X107953264Y-131257264D01*
X108231686Y-130918006D01*
X108438572Y-130530948D01*
X108565974Y-130110963D01*
X108609010Y-129674004D01*
X108610175Y-129672378D01*
X108612165Y-129672574D01*
G37*
G36*
X102210990Y-129674004D02*
G01*
X102254026Y-130110963D01*
X102381428Y-130530948D01*
X102588314Y-130918006D01*
X102866736Y-131257264D01*
X103205994Y-131535686D01*
X103593052Y-131742572D01*
X104013037Y-131869974D01*
X104449996Y-131913010D01*
X104451622Y-131914175D01*
X104451426Y-131916165D01*
X104449800Y-131917000D01*
X104430940Y-131917000D01*
X104430744Y-131916990D01*
X103992443Y-131873821D01*
X103992058Y-131873745D01*
X103576498Y-131747686D01*
X103576136Y-131747536D01*
X103193162Y-131542832D01*
X103192836Y-131542614D01*
X102857151Y-131267126D01*
X102856874Y-131266849D01*
X102581386Y-130931164D01*
X102581168Y-130930838D01*
X102376464Y-130547864D01*
X102376314Y-130547502D01*
X102250255Y-130131942D01*
X102250179Y-130131557D01*
X102207010Y-129693256D01*
X102207000Y-129693060D01*
X102207000Y-129674200D01*
X102208000Y-129672468D01*
X102210000Y-129672468D01*
X102210990Y-129674004D01*
G37*
G36*
X88638990Y-131464304D02*
G01*
X88646665Y-131542239D01*
X88669343Y-131616996D01*
X88706167Y-131685890D01*
X88755725Y-131746275D01*
X88816110Y-131795833D01*
X88885004Y-131832657D01*
X88959761Y-131855335D01*
X89037696Y-131863010D01*
X89039322Y-131864175D01*
X89039126Y-131866165D01*
X89037500Y-131867000D01*
X88981138Y-131867000D01*
X88980942Y-131866990D01*
X88908981Y-131859903D01*
X88908596Y-131859827D01*
X88845308Y-131840628D01*
X88844946Y-131840478D01*
X88786608Y-131809296D01*
X88786282Y-131809078D01*
X88735156Y-131767121D01*
X88734879Y-131766844D01*
X88692922Y-131715718D01*
X88692704Y-131715392D01*
X88661522Y-131657054D01*
X88661372Y-131656692D01*
X88642173Y-131593404D01*
X88642097Y-131593019D01*
X88635010Y-131521058D01*
X88635000Y-131520862D01*
X88635000Y-131464500D01*
X88636000Y-131462768D01*
X88638000Y-131462768D01*
X88638990Y-131464304D01*
G37*
G36*
X93990165Y-131462874D02*
G01*
X93991000Y-131464500D01*
X93991000Y-131520862D01*
X93990990Y-131521058D01*
X93983903Y-131593019D01*
X93983827Y-131593404D01*
X93964628Y-131656692D01*
X93964478Y-131657054D01*
X93933296Y-131715392D01*
X93933078Y-131715718D01*
X93891121Y-131766844D01*
X93890844Y-131767121D01*
X93839718Y-131809078D01*
X93839392Y-131809296D01*
X93781054Y-131840478D01*
X93780692Y-131840628D01*
X93717404Y-131859827D01*
X93717019Y-131859903D01*
X93645058Y-131866990D01*
X93644862Y-131867000D01*
X93588500Y-131867000D01*
X93586768Y-131866000D01*
X93586768Y-131864000D01*
X93588304Y-131863010D01*
X93666239Y-131855335D01*
X93740996Y-131832657D01*
X93809890Y-131795833D01*
X93870275Y-131746275D01*
X93919833Y-131685890D01*
X93956657Y-131616996D01*
X93979335Y-131542239D01*
X93987010Y-131464304D01*
X93988175Y-131462678D01*
X93990165Y-131462874D01*
G37*
G36*
X92138990Y-131464304D02*
G01*
X92146665Y-131542239D01*
X92169343Y-131616996D01*
X92206167Y-131685890D01*
X92255725Y-131746275D01*
X92316110Y-131795833D01*
X92385004Y-131832657D01*
X92459761Y-131855335D01*
X92537696Y-131863010D01*
X92539322Y-131864175D01*
X92539126Y-131866165D01*
X92537500Y-131867000D01*
X92481138Y-131867000D01*
X92480942Y-131866990D01*
X92408981Y-131859903D01*
X92408596Y-131859827D01*
X92345308Y-131840628D01*
X92344946Y-131840478D01*
X92286608Y-131809296D01*
X92286282Y-131809078D01*
X92235156Y-131767121D01*
X92234879Y-131766844D01*
X92192922Y-131715718D01*
X92192704Y-131715392D01*
X92161522Y-131657054D01*
X92161372Y-131656692D01*
X92142173Y-131593404D01*
X92142097Y-131593019D01*
X92135010Y-131521058D01*
X92135000Y-131520862D01*
X92135000Y-131464500D01*
X92136000Y-131462768D01*
X92138000Y-131462768D01*
X92138990Y-131464304D01*
G37*
G36*
X90490165Y-131462874D02*
G01*
X90491000Y-131464500D01*
X90491000Y-131520862D01*
X90490990Y-131521058D01*
X90483903Y-131593019D01*
X90483827Y-131593404D01*
X90464628Y-131656692D01*
X90464478Y-131657054D01*
X90433296Y-131715392D01*
X90433078Y-131715718D01*
X90391121Y-131766844D01*
X90390844Y-131767121D01*
X90339718Y-131809078D01*
X90339392Y-131809296D01*
X90281054Y-131840478D01*
X90280692Y-131840628D01*
X90217404Y-131859827D01*
X90217019Y-131859903D01*
X90145058Y-131866990D01*
X90144862Y-131867000D01*
X90088500Y-131867000D01*
X90086768Y-131866000D01*
X90086768Y-131864000D01*
X90088304Y-131863010D01*
X90166239Y-131855335D01*
X90240996Y-131832657D01*
X90309890Y-131795833D01*
X90370275Y-131746275D01*
X90419833Y-131685890D01*
X90456657Y-131616996D01*
X90479335Y-131542239D01*
X90487010Y-131464304D01*
X90488175Y-131462678D01*
X90490165Y-131462874D01*
G37*
G36*
X89039232Y-130262000D02*
G01*
X89039232Y-130264000D01*
X89037696Y-130264990D01*
X88959761Y-130272665D01*
X88885004Y-130295343D01*
X88816110Y-130332167D01*
X88755725Y-130381725D01*
X88706167Y-130442110D01*
X88669343Y-130511004D01*
X88646665Y-130585761D01*
X88638990Y-130663696D01*
X88637825Y-130665322D01*
X88635835Y-130665126D01*
X88635000Y-130663500D01*
X88635000Y-130607138D01*
X88635010Y-130606942D01*
X88642097Y-130534981D01*
X88642173Y-130534596D01*
X88661372Y-130471308D01*
X88661522Y-130470946D01*
X88692704Y-130412608D01*
X88692922Y-130412282D01*
X88734879Y-130361156D01*
X88735156Y-130360879D01*
X88786282Y-130318922D01*
X88786608Y-130318704D01*
X88844946Y-130287522D01*
X88845308Y-130287372D01*
X88908596Y-130268173D01*
X88908981Y-130268097D01*
X88980942Y-130261010D01*
X88981138Y-130261000D01*
X89037500Y-130261000D01*
X89039232Y-130262000D01*
G37*
G36*
X92539232Y-130262000D02*
G01*
X92539232Y-130264000D01*
X92537696Y-130264990D01*
X92459761Y-130272665D01*
X92385004Y-130295343D01*
X92316110Y-130332167D01*
X92255725Y-130381725D01*
X92206167Y-130442110D01*
X92169343Y-130511004D01*
X92146665Y-130585761D01*
X92138990Y-130663696D01*
X92137825Y-130665322D01*
X92135835Y-130665126D01*
X92135000Y-130663500D01*
X92135000Y-130607138D01*
X92135010Y-130606942D01*
X92142097Y-130534981D01*
X92142173Y-130534596D01*
X92161372Y-130471308D01*
X92161522Y-130470946D01*
X92192704Y-130412608D01*
X92192922Y-130412282D01*
X92234879Y-130361156D01*
X92235156Y-130360879D01*
X92286282Y-130318922D01*
X92286608Y-130318704D01*
X92344946Y-130287522D01*
X92345308Y-130287372D01*
X92408596Y-130268173D01*
X92408981Y-130268097D01*
X92480942Y-130261010D01*
X92481138Y-130261000D01*
X92537500Y-130261000D01*
X92539232Y-130262000D01*
G37*
G36*
X93645058Y-130261010D02*
G01*
X93717019Y-130268097D01*
X93717404Y-130268173D01*
X93780692Y-130287372D01*
X93781054Y-130287522D01*
X93839392Y-130318704D01*
X93839718Y-130318922D01*
X93890844Y-130360879D01*
X93891121Y-130361156D01*
X93933078Y-130412282D01*
X93933296Y-130412608D01*
X93964478Y-130470946D01*
X93964628Y-130471308D01*
X93983827Y-130534596D01*
X93983903Y-130534981D01*
X93990990Y-130606942D01*
X93991000Y-130607138D01*
X93991000Y-130663500D01*
X93990000Y-130665232D01*
X93988000Y-130665232D01*
X93987010Y-130663696D01*
X93979335Y-130585761D01*
X93956657Y-130511004D01*
X93919833Y-130442110D01*
X93870275Y-130381725D01*
X93809890Y-130332167D01*
X93740996Y-130295343D01*
X93666239Y-130272665D01*
X93588304Y-130264990D01*
X93586678Y-130263825D01*
X93586874Y-130261835D01*
X93588500Y-130261000D01*
X93644862Y-130261000D01*
X93645058Y-130261010D01*
G37*
G36*
X90145058Y-130261010D02*
G01*
X90217019Y-130268097D01*
X90217404Y-130268173D01*
X90280692Y-130287372D01*
X90281054Y-130287522D01*
X90339392Y-130318704D01*
X90339718Y-130318922D01*
X90390844Y-130360879D01*
X90391121Y-130361156D01*
X90433078Y-130412282D01*
X90433296Y-130412608D01*
X90464478Y-130470946D01*
X90464628Y-130471308D01*
X90483827Y-130534596D01*
X90483903Y-130534981D01*
X90490990Y-130606942D01*
X90491000Y-130607138D01*
X90491000Y-130663500D01*
X90490000Y-130665232D01*
X90488000Y-130665232D01*
X90487010Y-130663696D01*
X90479335Y-130585761D01*
X90456657Y-130511004D01*
X90419833Y-130442110D01*
X90370275Y-130381725D01*
X90309890Y-130332167D01*
X90240996Y-130295343D01*
X90166239Y-130272665D01*
X90088304Y-130264990D01*
X90086678Y-130263825D01*
X90086874Y-130261835D01*
X90088500Y-130261000D01*
X90144862Y-130261000D01*
X90145058Y-130261010D01*
G37*
G36*
X78209232Y-129971000D02*
G01*
X78209232Y-129973000D01*
X78207696Y-129973990D01*
X78128786Y-129981762D01*
X78053091Y-130004724D01*
X77983332Y-130042010D01*
X77922189Y-130092189D01*
X77872010Y-130153332D01*
X77834724Y-130223091D01*
X77811762Y-130298786D01*
X77803990Y-130377696D01*
X77802825Y-130379322D01*
X77800835Y-130379126D01*
X77800000Y-130377500D01*
X77800000Y-130321138D01*
X77800010Y-130320942D01*
X77807193Y-130248005D01*
X77807269Y-130247620D01*
X77826753Y-130183391D01*
X77826903Y-130183029D01*
X77858544Y-130123834D01*
X77858762Y-130123508D01*
X77901344Y-130071621D01*
X77901621Y-130071344D01*
X77953508Y-130028762D01*
X77953834Y-130028544D01*
X78013029Y-129996903D01*
X78013391Y-129996753D01*
X78077620Y-129977269D01*
X78078005Y-129977193D01*
X78150942Y-129970010D01*
X78151138Y-129970000D01*
X78207500Y-129970000D01*
X78209232Y-129971000D01*
G37*
G36*
X81257232Y-129971000D02*
G01*
X81257232Y-129973000D01*
X81255696Y-129973990D01*
X81176786Y-129981762D01*
X81101091Y-130004724D01*
X81031332Y-130042010D01*
X80970189Y-130092189D01*
X80920010Y-130153332D01*
X80882724Y-130223091D01*
X80859762Y-130298786D01*
X80851990Y-130377696D01*
X80850825Y-130379322D01*
X80848835Y-130379126D01*
X80848000Y-130377500D01*
X80848000Y-130321138D01*
X80848010Y-130320942D01*
X80855193Y-130248005D01*
X80855269Y-130247620D01*
X80874753Y-130183391D01*
X80874903Y-130183029D01*
X80906544Y-130123834D01*
X80906762Y-130123508D01*
X80949344Y-130071621D01*
X80949621Y-130071344D01*
X81001508Y-130028762D01*
X81001834Y-130028544D01*
X81061029Y-129996903D01*
X81061391Y-129996753D01*
X81125620Y-129977269D01*
X81126005Y-129977193D01*
X81198942Y-129970010D01*
X81199138Y-129970000D01*
X81255500Y-129970000D01*
X81257232Y-129971000D01*
G37*
G36*
X79075058Y-129970010D02*
G01*
X79147995Y-129977193D01*
X79148380Y-129977269D01*
X79212609Y-129996753D01*
X79212971Y-129996903D01*
X79272166Y-130028544D01*
X79272492Y-130028762D01*
X79324379Y-130071344D01*
X79324656Y-130071621D01*
X79367238Y-130123508D01*
X79367456Y-130123834D01*
X79399097Y-130183029D01*
X79399247Y-130183391D01*
X79418731Y-130247620D01*
X79418807Y-130248005D01*
X79425990Y-130320942D01*
X79426000Y-130321138D01*
X79426000Y-130377500D01*
X79425000Y-130379232D01*
X79423000Y-130379232D01*
X79422010Y-130377696D01*
X79414238Y-130298786D01*
X79391276Y-130223091D01*
X79353990Y-130153332D01*
X79303811Y-130092189D01*
X79242668Y-130042010D01*
X79172909Y-130004724D01*
X79097214Y-129981762D01*
X79018304Y-129973990D01*
X79016678Y-129972825D01*
X79016874Y-129970835D01*
X79018500Y-129970000D01*
X79074862Y-129970000D01*
X79075058Y-129970010D01*
G37*
G36*
X82123058Y-129970010D02*
G01*
X82195995Y-129977193D01*
X82196380Y-129977269D01*
X82260609Y-129996753D01*
X82260971Y-129996903D01*
X82320166Y-130028544D01*
X82320492Y-130028762D01*
X82372379Y-130071344D01*
X82372656Y-130071621D01*
X82415238Y-130123508D01*
X82415456Y-130123834D01*
X82447097Y-130183029D01*
X82447247Y-130183391D01*
X82466731Y-130247620D01*
X82466807Y-130248005D01*
X82473990Y-130320942D01*
X82474000Y-130321138D01*
X82474000Y-130377500D01*
X82473000Y-130379232D01*
X82471000Y-130379232D01*
X82470010Y-130377696D01*
X82462238Y-130298786D01*
X82439276Y-130223091D01*
X82401990Y-130153332D01*
X82351811Y-130092189D01*
X82290668Y-130042010D01*
X82220909Y-130004724D01*
X82145214Y-129981762D01*
X82066304Y-129973990D01*
X82064678Y-129972825D01*
X82064874Y-129970835D01*
X82066500Y-129970000D01*
X82122862Y-129970000D01*
X82123058Y-129970010D01*
G37*
G36*
X83670232Y-129844000D02*
G01*
X83670232Y-129846000D01*
X83668696Y-129846990D01*
X83589786Y-129854762D01*
X83514091Y-129877724D01*
X83444332Y-129915010D01*
X83383189Y-129965189D01*
X83333010Y-130026332D01*
X83295724Y-130096091D01*
X83272762Y-130171786D01*
X83264990Y-130250696D01*
X83263825Y-130252322D01*
X83261835Y-130252126D01*
X83261000Y-130250500D01*
X83261000Y-130194138D01*
X83261010Y-130193942D01*
X83268193Y-130121005D01*
X83268269Y-130120620D01*
X83287753Y-130056391D01*
X83287903Y-130056029D01*
X83319544Y-129996834D01*
X83319762Y-129996508D01*
X83362344Y-129944621D01*
X83362621Y-129944344D01*
X83414508Y-129901762D01*
X83414834Y-129901544D01*
X83474029Y-129869903D01*
X83474391Y-129869753D01*
X83538620Y-129850269D01*
X83539005Y-129850193D01*
X83611942Y-129843010D01*
X83612138Y-129843000D01*
X83668500Y-129843000D01*
X83670232Y-129844000D01*
G37*
G36*
X86718232Y-129844000D02*
G01*
X86718232Y-129846000D01*
X86716696Y-129846990D01*
X86637786Y-129854762D01*
X86562091Y-129877724D01*
X86492332Y-129915010D01*
X86431189Y-129965189D01*
X86381010Y-130026332D01*
X86343724Y-130096091D01*
X86320762Y-130171786D01*
X86312990Y-130250696D01*
X86311825Y-130252322D01*
X86309835Y-130252126D01*
X86309000Y-130250500D01*
X86309000Y-130194138D01*
X86309010Y-130193942D01*
X86316193Y-130121005D01*
X86316269Y-130120620D01*
X86335753Y-130056391D01*
X86335903Y-130056029D01*
X86367544Y-129996834D01*
X86367762Y-129996508D01*
X86410344Y-129944621D01*
X86410621Y-129944344D01*
X86462508Y-129901762D01*
X86462834Y-129901544D01*
X86522029Y-129869903D01*
X86522391Y-129869753D01*
X86586620Y-129850269D01*
X86587005Y-129850193D01*
X86659942Y-129843010D01*
X86660138Y-129843000D01*
X86716500Y-129843000D01*
X86718232Y-129844000D01*
G37*
G36*
X87584058Y-129843010D02*
G01*
X87656995Y-129850193D01*
X87657380Y-129850269D01*
X87721609Y-129869753D01*
X87721971Y-129869903D01*
X87781166Y-129901544D01*
X87781492Y-129901762D01*
X87833379Y-129944344D01*
X87833656Y-129944621D01*
X87876238Y-129996508D01*
X87876456Y-129996834D01*
X87908097Y-130056029D01*
X87908247Y-130056391D01*
X87927731Y-130120620D01*
X87927807Y-130121005D01*
X87934990Y-130193942D01*
X87935000Y-130194138D01*
X87935000Y-130250500D01*
X87934000Y-130252232D01*
X87932000Y-130252232D01*
X87931010Y-130250696D01*
X87923238Y-130171786D01*
X87900276Y-130096091D01*
X87862990Y-130026332D01*
X87812811Y-129965189D01*
X87751668Y-129915010D01*
X87681909Y-129877724D01*
X87606214Y-129854762D01*
X87527304Y-129846990D01*
X87525678Y-129845825D01*
X87525874Y-129843835D01*
X87527500Y-129843000D01*
X87583862Y-129843000D01*
X87584058Y-129843010D01*
G37*
G36*
X84536058Y-129843010D02*
G01*
X84608995Y-129850193D01*
X84609380Y-129850269D01*
X84673609Y-129869753D01*
X84673971Y-129869903D01*
X84733166Y-129901544D01*
X84733492Y-129901762D01*
X84785379Y-129944344D01*
X84785656Y-129944621D01*
X84828238Y-129996508D01*
X84828456Y-129996834D01*
X84860097Y-130056029D01*
X84860247Y-130056391D01*
X84879731Y-130120620D01*
X84879807Y-130121005D01*
X84886990Y-130193942D01*
X84887000Y-130194138D01*
X84887000Y-130250500D01*
X84886000Y-130252232D01*
X84884000Y-130252232D01*
X84883010Y-130250696D01*
X84875238Y-130171786D01*
X84852276Y-130096091D01*
X84814990Y-130026332D01*
X84764811Y-129965189D01*
X84703668Y-129915010D01*
X84633909Y-129877724D01*
X84558214Y-129854762D01*
X84479304Y-129846990D01*
X84477678Y-129845825D01*
X84477874Y-129843835D01*
X84479500Y-129843000D01*
X84535862Y-129843000D01*
X84536058Y-129843010D01*
G37*
G36*
X104451532Y-126312000D02*
G01*
X104451532Y-126314000D01*
X104449996Y-126314990D01*
X104013037Y-126358026D01*
X103593052Y-126485428D01*
X103205994Y-126692314D01*
X102866736Y-126970736D01*
X102588314Y-127309994D01*
X102381428Y-127697052D01*
X102254026Y-128117037D01*
X102210990Y-128553996D01*
X102209825Y-128555622D01*
X102207835Y-128555426D01*
X102207000Y-128553800D01*
X102207000Y-128534940D01*
X102207010Y-128534744D01*
X102250179Y-128096443D01*
X102250255Y-128096058D01*
X102376314Y-127680498D01*
X102376464Y-127680136D01*
X102581168Y-127297162D01*
X102581386Y-127296836D01*
X102856874Y-126961151D01*
X102857151Y-126960874D01*
X103192836Y-126685386D01*
X103193162Y-126685168D01*
X103576136Y-126480464D01*
X103576498Y-126480314D01*
X103992058Y-126354255D01*
X103992443Y-126354179D01*
X104430744Y-126311010D01*
X104430940Y-126311000D01*
X104449800Y-126311000D01*
X104451532Y-126312000D01*
G37*
G36*
X106389256Y-126311010D02*
G01*
X106827557Y-126354179D01*
X106827942Y-126354255D01*
X107243502Y-126480314D01*
X107243864Y-126480464D01*
X107626838Y-126685168D01*
X107627164Y-126685386D01*
X107962849Y-126960874D01*
X107963126Y-126961151D01*
X108238614Y-127296836D01*
X108238832Y-127297162D01*
X108443536Y-127680136D01*
X108443686Y-127680498D01*
X108569745Y-128096058D01*
X108569821Y-128096443D01*
X108612990Y-128534744D01*
X108613000Y-128534940D01*
X108613000Y-128553800D01*
X108612000Y-128555532D01*
X108610000Y-128555532D01*
X108609010Y-128553996D01*
X108565974Y-128117037D01*
X108438572Y-127697052D01*
X108231686Y-127309994D01*
X107953264Y-126970736D01*
X107614006Y-126692314D01*
X107226948Y-126485428D01*
X106806963Y-126358026D01*
X106370004Y-126314990D01*
X106368378Y-126313825D01*
X106368574Y-126311835D01*
X106370200Y-126311000D01*
X106389060Y-126311000D01*
X106389256Y-126311010D01*
G37*
M02*
